<?xml version="1.0" encoding="UTF-8"?>
<svg width="169px" height="29px" viewBox="0 0 169 29" version="1.1" xmlns="http://www.w3.org/2000/svg" xmlns:xlink="http://www.w3.org/1999/xlink">
    <title>aftermath-logo</title>
    <defs>
        <linearGradient x1="0%" y1="49.5%" x2="100%" y2="50.3418999%" id="linearGradient-1">
            <stop stop-color="#B54D3B" offset="0%"></stop>
            <stop stop-color="#B6864E" offset="100%"></stop>
        </linearGradient>
    </defs>
    <g id="Symbols" stroke="none" stroke-width="1" fill="none" fill-rule="evenodd">
        <g id="Header/Positive" transform="translate(0.000000, -16.000000)" fill-rule="nonzero">
            <g id="aftermath-logo" transform="translate(0.000000, 16.000000)">
                <path d="M5.0496484,11.2987512 L4.36944461,13.3258462 C4.30795696,13.5178069 4.24454877,13.7423976 4.17921813,13.9996249 C4.1138875,14.2568523 4.08122267,14.481443 4.08122267,14.6734037 C4.08122267,14.8269723 4.11196604,14.9613427 4.17345369,15.0765191 C4.23494135,15.1916955 4.31564269,15.2857549 4.41556012,15.3587 C4.51547756,15.4316451 4.62884373,15.4873128 4.75566201,15.525705 C4.8824803,15.5640972 5.01506107,15.5832929 5.15340829,15.5832929 L6.14489176,15.5832929 L6.14489176,16.8387097 L0,16.8387097 L0,15.5832929 L0.28822194,15.5832929 C0.495742775,15.5832929 0.685967353,15.5602579 0.858901381,15.5141874 C1.03183541,15.4681168 1.19323808,15.3817358 1.34311424,15.2550417 C1.4929904,15.1283477 1.63517846,14.9536661 1.76968271,14.7309916 C1.90418695,14.5083172 2.04061064,14.2203804 2.17895787,13.8671727 L7.29777952,0 L10.5373941,0 L15.4717537,13.8902079 C15.5870431,14.2203803 15.7080951,14.49488 15.8349134,14.7137152 C15.9617316,14.9325504 16.1000768,15.1053125 16.249953,15.2320066 C16.3998291,15.3587006 16.5593103,15.4489208 16.7284014,15.5026698 C16.8974924,15.5564188 17.0742668,15.5832929 17.2587298,15.5832929 L17.6852983,15.5832929 L17.6852983,16.8387097 L9.891777,16.8387097 L9.891777,15.5832929 L10.8140872,15.5832929 C10.9293765,15.5832929 11.0485071,15.5660167 11.1714824,15.5314637 C11.2944577,15.4969108 11.403981,15.4431627 11.5000554,15.3702176 C11.5961298,15.2972725 11.6749097,15.2032132 11.7363974,15.0880367 C11.7978851,14.9728603 11.8286284,14.8346506 11.8286284,14.6734037 C11.8286284,14.481443 11.8055706,14.2971634 11.7594551,14.1205596 C11.7133394,13.9439558 11.6672244,13.7903894 11.6211087,13.6598561 L10.7910294,11.2987512 L5.0496484,11.2987512 Z M9.07322667,5.98914435 C8.98868115,5.72039935 8.90221543,5.43822133 8.81382693,5.14260183 C8.72543842,4.84698234 8.63705125,4.54560853 8.54866275,4.23847139 C8.46027424,3.93133425 8.37572998,3.62612129 8.29502744,3.32282336 C8.21432489,3.01952543 8.14323086,2.72966909 8.0817432,2.45324567 C8.01256959,2.69127696 7.93186826,2.95233961 7.83963677,3.23644147 C7.74740529,3.52054333 7.64941081,3.81231924 7.54565039,4.11177795 L7.2343707,5.0101496 C7.13061028,5.30960832 7.0326158,5.59754507 6.94038432,5.8739685 L5.54539013,9.85905298 L10.3183455,9.85905298 L9.07322667,5.98914435 Z M31.8422988,4.34212966 L31.72701,3.20188872 C31.6501505,2.579936 31.4599259,2.13075466 31.1563306,1.85433123 C30.8527353,1.57790781 30.4588359,1.43969816 29.9746206,1.43969816 L26.2162065,1.43969816 L26.2162065,7.87802834 L31.819241,7.87802834 L31.819241,9.2716562 L26.2162065,9.2716562 L26.2162065,14.0514541 C26.2162065,14.3893049 26.2488714,14.6580459 26.314202,14.857685 C26.3795326,15.0573241 26.4659983,15.2108904 26.5736018,15.3183885 C26.6812051,15.4258864 26.8118644,15.4969108 26.9655835,15.5314637 C27.1193027,15.5660167 27.2807054,15.5832929 27.4497964,15.5832929 L28.9139639,15.5832929 L28.9139639,16.8387097 L20.2903634,16.8387097 L20.2903634,15.5832929 L21.2818469,15.5832929 C21.4509379,15.5832929 21.6084977,15.5679363 21.7545309,15.5372226 C21.9005641,15.5065089 22.0293019,15.4431628 22.1407483,15.3471824 C22.2521946,15.251202 22.3386604,15.1091532 22.400148,14.9210317 C22.4616357,14.7329103 22.4923791,14.4852846 22.4923791,14.1781475 L22.4923791,2.68359737 C22.4923791,2.3687818 22.4616357,2.11731704 22.400148,1.92919554 C22.3386604,1.74107403 22.2521946,1.59710566 22.1407483,1.49728608 C22.0293019,1.39746651 21.9005641,1.33028128 21.7545309,1.29572835 C21.6084977,1.26117542 21.4509379,1.24389921 21.2818469,1.24389921 L20.2903634,1.24389921 L20.2903634,0 L33.3756395,0 L33.4909283,4.34212966 L31.8422988,4.34212966 Z M45.8263661,14.0514541 C45.8263661,14.3893049 45.8571095,14.6580459 45.9185972,14.857685 C45.9800848,15.0573241 46.0665506,15.2108904 46.1779969,15.3183885 C46.2894433,15.4258864 46.4181811,15.4969108 46.5642144,15.5314637 C46.7102475,15.5660167 46.8678073,15.5832929 47.0368984,15.5832929 L48.0283818,15.5832929 L48.0283818,16.8387097 L39.8774653,16.8387097 L39.8774653,15.5832929 L40.8689488,15.5832929 C41.0457258,15.5832929 41.2071284,15.5660167 41.3531617,15.5314637 C41.4991948,15.4969108 41.6260112,15.4258864 41.7336146,15.3183885 C41.841218,15.2108904 41.9257623,15.0573241 41.98725,14.857685 C42.0487375,14.6580459 42.0794809,14.3893049 42.0794809,14.0514541 L42.0794809,1.43969816 L40.188745,1.43969816 C39.835191,1.43969816 39.5392861,1.47808973 39.3010214,1.55487401 C39.0627567,1.6316583 38.8686893,1.74107427 38.7188131,1.88312519 C38.568937,2.02517613 38.4574922,2.19985776 38.3844756,2.40717532 C38.3114591,2.6144929 38.2595797,2.84868146 38.2288358,3.10974803 L38.0674316,4.57248137 L36.4764465,4.57248137 L36.6032641,0 L51.3141119,0 L51.4294007,4.57248137 L49.8499445,4.57248137 L49.6770113,3.10974803 C49.6462675,2.84868146 49.5943881,2.6144929 49.5213714,2.40717532 C49.4483548,2.19985776 49.3369102,2.02517613 49.1870339,1.88312519 C49.0371578,1.74107427 48.8430903,1.6316583 48.6048256,1.55487401 C48.366561,1.47808973 48.0706561,1.43969816 47.7171021,1.43969816 L45.8263661,1.43969816 L45.8263661,14.0514541 Z M60.2139443,15.3990116 L64.940784,15.3990116 C65.1790487,15.3990116 65.3827236,15.3548612 65.5518146,15.2665593 C65.7209057,15.1782574 65.8669367,15.0534848 65.9899119,14.8922378 C66.1128872,14.7309908 66.2108817,14.5409526 66.2838983,14.3221173 C66.356915,14.1032821 66.4126372,13.8633348 66.451067,13.6022682 L66.6355291,12.4965801 L68.2726297,12.4965801 L68.0996965,16.8387097 L54.2650434,16.8387097 L54.2650434,15.5832929 L55.2565269,15.5832929 C55.425618,15.5832929 55.5831777,15.5679363 55.7292108,15.5372226 C55.8752441,15.5065089 56.0039819,15.4431628 56.1154283,15.3471824 C56.2268746,15.251202 56.3133404,15.1091532 56.374828,14.9210317 C56.4363157,14.7329103 56.4670591,14.4852846 56.4670591,14.1781475 L56.4670591,2.77573806 C56.4670591,2.4378872 56.4363157,2.16914623 56.374828,1.96950709 C56.3133404,1.76986795 56.2287961,1.61630167 56.1211927,1.50880368 C56.0135893,1.40130567 55.8867729,1.33028128 55.7407397,1.29572835 C55.5947066,1.26117542 55.4333039,1.24389921 55.2565269,1.24389921 L54.2650434,1.24389921 L54.2650434,0 L67.3733772,0 L67.4656082,4.34212966 L65.8169787,4.34212966 L65.70169,3.22492388 C65.6402023,2.64904174 65.4941713,2.20753872 65.2635927,1.90040158 C65.033014,1.59326443 64.6756223,1.43969816 64.191407,1.43969816 L60.2139443,1.43969816 L60.2139443,7.33670184 L65.8169787,7.33670184 L65.8169787,8.75336482 L60.2139443,8.75336482 L60.2139443,15.3990116 Z M71.627072,15.5832929 L72.6185554,15.5832929 C72.7799605,15.5832929 72.9336773,15.5679363 73.0797105,15.5372226 C73.2257437,15.5065089 73.3544816,15.4431628 73.4659279,15.3471824 C73.5773743,15.251202 73.6657615,15.1091532 73.7310921,14.9210317 C73.7964228,14.7329103 73.8290875,14.4852846 73.8290875,14.1781475 L73.8290875,2.68359737 C73.8290875,2.3687818 73.7964228,2.11731704 73.7310921,1.92919554 C73.6657615,1.74107403 73.5773743,1.59710566 73.4659279,1.49728608 C73.3544816,1.39746651 73.2257437,1.33028128 73.0797105,1.29572835 C72.9336773,1.26117542 72.7799605,1.24389921 72.6185554,1.24389921 L71.627072,1.24389921 L71.627072,0 L79.2361312,0 C81.4650586,0 83.1002214,0.3723982 84.1416685,1.11720577 C85.1831157,1.86201335 85.7038315,2.94465553 85.7038315,4.36516483 C85.7038315,4.98711754 85.6116014,5.53995611 85.4271385,6.02369711 C85.2426754,6.50743811 84.99865,6.92974535 84.6950547,7.29063149 C84.3914594,7.65151763 84.047518,7.95673059 83.6632202,8.20627952 C83.2789223,8.45582845 82.8869444,8.66122334 82.4872747,8.82247034 L85.3003208,13.6598561 C85.5001557,13.9977071 85.6942231,14.2875634 85.8825291,14.5294339 C86.070835,14.7713043 86.2591382,14.9709405 86.4474441,15.1283483 C86.63575,15.2857561 86.8298176,15.4009308 87.0296525,15.4738758 C87.2294873,15.5468209 87.4408479,15.5832929 87.6637407,15.5832929 L87.7559717,15.5832929 L87.7559717,16.8387097 L86.9835369,16.8387097 C86.2764289,16.8387097 85.6596401,16.8118356 85.1331521,16.7580866 C84.606664,16.7043376 84.1455135,16.5987608 83.7496868,16.441353 C83.35386,16.2839453 83.01184,16.0670328 82.7236166,15.7906094 C82.4353932,15.514186 82.1683102,15.1571445 81.9223596,14.719474 L79.1208424,9.52504305 L77.552915,9.52504305 L77.552915,14.1781475 C77.552915,14.4852846 77.5855799,14.7329103 77.6509105,14.9210317 C77.7162411,15.1091532 77.8046283,15.251202 77.9160746,15.3471824 C78.0275211,15.4431628 78.1562589,15.5065089 78.3022921,15.5372226 C78.4483252,15.5679363 78.602042,15.5832929 78.7634472,15.5832929 L79.7779884,15.5832929 L79.7779884,16.8387097 L71.627072,16.8387097 L71.627072,15.5832929 Z M77.552915,8.15445039 L78.8787359,8.15445039 C79.4244389,8.15445039 79.879825,8.08150641 80.244908,7.93561627 C80.6099909,7.78972612 80.9020529,7.57281377 81.1211026,7.2848727 C81.3401525,6.99693162 81.4977122,6.6360509 81.5937866,6.20221968 C81.6898611,5.76838847 81.7378976,5.26353936 81.7378976,4.68765721 C81.7378976,4.08873978 81.6840967,3.5819711 81.5764933,3.16733595 C81.4688899,2.75270081 81.2998014,2.41293544 81.0692227,2.14802966 C80.8386439,1.88312387 80.5388962,1.69116603 80.1699703,1.57215039 C79.8010443,1.45313475 79.3552655,1.39362782 78.8326204,1.39362782 L77.552915,1.39362782 L77.552915,8.15445039 Z M103.872881,16.8387097 L103.872881,15.5832929 L104.103459,15.5832929 C104.349409,15.5832929 104.566535,15.5679363 104.75484,15.5372226 C104.943147,15.5065089 105.098785,15.4450824 105.22176,15.3529412 C105.344735,15.2608001 105.436965,15.1283492 105.498453,14.9555846 C105.559941,14.7828199 105.590684,14.55439 105.590684,14.2702882 L105.590684,2.32655223 L100.829257,16.8387097 L99.2267435,16.8387097 L94.2347396,2.32655223 L94.2347396,14.0514541 C94.2347396,14.3893049 94.2750908,14.6580459 94.3557931,14.857685 C94.4364954,15.0573241 94.5517835,15.2108904 94.7016592,15.3183885 C94.8515359,15.4258864 95.0340741,15.4969108 95.2492812,15.5314637 C95.4644874,15.5660167 95.7104345,15.5832929 95.9871292,15.5832929 L96.125476,15.5832929 L96.125476,16.8387097 L90.2688059,16.8387097 L90.2688059,15.5832929 L91.2602893,15.5832929 C91.4293803,15.5832929 91.5869402,15.5679363 91.7329733,15.5372226 C91.8790065,15.5065089 92.0077444,15.4431628 92.1191907,15.3471824 C92.2306371,15.251202 92.3171028,15.1091532 92.3785905,14.9210317 C92.4400782,14.7329103 92.4708215,14.4852846 92.4708215,14.1781475 L92.4708215,2.68359737 C92.4708215,2.3687818 92.4400782,2.11731704 92.3785905,1.92919554 C92.3171028,1.74107403 92.2306371,1.59710566 92.1191907,1.49728608 C92.0077444,1.39746651 91.8790065,1.33028128 91.7329733,1.29572835 C91.5869402,1.26117542 91.4293803,1.24389921 91.2602893,1.24389921 L90.2688059,1.24389921 L90.2688059,0 L97.0708433,0 L100.990662,11.3908918 L104.749076,0 L111.424296,0 L111.424296,1.24389921 L110.432813,1.24389921 C110.263722,1.24389921 110.106162,1.26117542 109.960129,1.29572835 C109.814095,1.33028128 109.687279,1.40130567 109.579676,1.50880368 C109.472072,1.61630167 109.387528,1.76986795 109.32604,1.96950709 C109.264553,2.16914623 109.23381,2.4378872 109.23381,2.77573806 L109.23381,14.0514541 C109.23381,14.3893049 109.264553,14.6580459 109.32604,14.857685 C109.387528,15.0573241 109.472072,15.2108904 109.579676,15.3183885 C109.687279,15.4258864 109.814095,15.4969108 109.960129,15.5314637 C110.106162,15.5660167 110.263722,15.5832929 110.432813,15.5832929 L111.424296,15.5832929 L111.424296,16.8387097 L103.872881,16.8387097 Z M119.18277,11.2987512 L118.502566,13.3258462 C118.441078,13.5178069 118.37767,13.7423976 118.31234,13.9996249 C118.247009,14.2568523 118.214344,14.481443 118.214344,14.6734037 C118.214344,14.8269723 118.245088,14.9613427 118.306575,15.0765191 C118.368063,15.1916955 118.448764,15.2857549 118.548681,15.3587 C118.648599,15.4316451 118.761965,15.4873128 118.888784,15.525705 C119.015602,15.5640972 119.148182,15.5832929 119.28653,15.5832929 L120.278013,15.5832929 L120.278013,16.8387097 L114.133121,16.8387097 L114.133121,15.5832929 L114.421343,15.5832929 C114.628864,15.5832929 114.819088,15.5602579 114.992023,15.5141874 C115.164956,15.4681168 115.326359,15.3817358 115.476236,15.2550417 C115.626112,15.1283477 115.7683,14.9536661 115.902804,14.7309916 C116.037308,14.5083172 116.173732,14.2203804 116.312079,13.8671727 L121.430901,0 L124.670516,0 L129.604875,13.8902079 C129.720164,14.2203803 129.841217,14.49488 129.968034,14.7137152 C130.094853,14.9325504 130.233198,15.1053125 130.383074,15.2320066 C130.532951,15.3587006 130.692432,15.4489208 130.861523,15.5026698 C131.030614,15.5564188 131.207388,15.5832929 131.391851,15.5832929 L131.81842,15.5832929 L131.81842,16.8387097 L124.024898,16.8387097 L124.024898,15.5832929 L124.947208,15.5832929 C125.062498,15.5832929 125.181628,15.5660167 125.304603,15.5314637 C125.427579,15.4969108 125.537102,15.4431627 125.633177,15.3702176 C125.729251,15.2972725 125.808031,15.2032132 125.869519,15.0880367 C125.931006,14.9728603 125.96175,14.8346506 125.96175,14.6734037 C125.96175,14.481443 125.938692,14.2971634 125.892577,14.1205596 C125.846461,13.9439558 125.800345,13.7903894 125.75423,13.6598561 L124.924151,11.2987512 L119.18277,11.2987512 Z M123.206348,5.98914435 C123.121802,5.72039935 123.035337,5.43822133 122.946948,5.14260183 C122.85856,4.84698234 122.770173,4.54560853 122.681784,4.23847139 C122.593395,3.93133425 122.508851,3.62612129 122.428149,3.32282336 C122.347446,3.01952543 122.276352,2.72966909 122.214865,2.45324567 C122.14569,2.69127696 122.06499,2.95233961 121.972758,3.23644147 C121.880527,3.52054333 121.782532,3.81231924 121.678772,4.11177795 L121.367492,5.0101496 C121.263731,5.30960832 121.165737,5.59754507 121.073505,5.8739685 L119.678512,9.85905298 L124.451466,9.85905298 L123.206348,5.98914435 Z M141.928784,14.0514541 C141.928784,14.3893049 141.959527,14.6580459 142.021015,14.857685 C142.082503,15.0573241 142.168969,15.2108904 142.280415,15.3183885 C142.391861,15.4258864 142.520599,15.4969108 142.666632,15.5314637 C142.812666,15.5660167 142.970225,15.5832929 143.139316,15.5832929 L144.1308,15.5832929 L144.1308,16.8387097 L135.979883,16.8387097 L135.979883,15.5832929 L136.971367,15.5832929 C137.148144,15.5832929 137.309546,15.5660167 137.455579,15.5314637 C137.601613,15.4969108 137.728429,15.4258864 137.836033,15.3183885 C137.943636,15.2108904 138.02818,15.0573241 138.089668,14.857685 C138.151155,14.6580459 138.181899,14.3893049 138.181899,14.0514541 L138.181899,1.43969816 L136.291163,1.43969816 C135.937609,1.43969816 135.641704,1.47808973 135.403439,1.55487401 C135.165175,1.6316583 134.971107,1.74107427 134.821231,1.88312519 C134.671355,2.02517613 134.55991,2.19985776 134.486894,2.40717532 C134.413877,2.6144929 134.361998,2.84868146 134.331254,3.10974803 L134.169849,4.57248137 L132.578864,4.57248137 L132.705682,0 L147.41653,0 L147.531819,4.57248137 L145.952362,4.57248137 L145.779429,3.10974803 C145.748686,2.84868146 145.696806,2.6144929 145.623789,2.40717532 C145.550773,2.19985776 145.439328,2.02517613 145.289452,1.88312519 C145.139575,1.74107427 144.945508,1.6316583 144.707243,1.55487401 C144.468979,1.47808973 144.173074,1.43969816 143.81952,1.43969816 L141.928784,1.43969816 L141.928784,14.0514541 Z M160.23618,16.8387097 L160.23618,15.5832929 L161.250722,15.5832929 C161.419812,15.5832929 161.577372,15.5660167 161.723406,15.5314637 C161.869439,15.4969108 161.998177,15.4258864 162.109623,15.3183885 C162.221069,15.2108904 162.307535,15.0573241 162.369023,14.857685 C162.43051,14.6580459 162.461254,14.3893049 162.461254,14.0514541 L162.461254,8.7764 L156.293305,8.7764 L156.293305,14.0514541 C156.293305,14.3893049 156.325969,14.6580459 156.3913,14.857685 C156.456631,15.0573241 156.543097,15.2108904 156.6507,15.3183885 C156.758303,15.4258864 156.88512,15.4969108 157.031153,15.5314637 C157.177185,15.5660167 157.334745,15.5832929 157.503837,15.5832929 L158.518377,15.5832929 L158.518377,16.8387097 L150.367461,16.8387097 L150.367461,15.5832929 L151.358944,15.5832929 C151.528036,15.5832929 151.685596,15.5660167 151.831628,15.5314637 C151.977662,15.4969108 152.1064,15.4258864 152.217846,15.3183885 C152.329293,15.2108904 152.415759,15.0573241 152.477246,14.857685 C152.538734,14.6580459 152.569477,14.3893049 152.569477,14.0514541 L152.569477,2.69511496 C152.569477,2.38029939 152.536812,2.12883462 152.471482,1.94071312 C152.406151,1.75259163 152.317764,1.60862325 152.206317,1.50880368 C152.094871,1.40898411 151.966133,1.34179886 151.8201,1.30724593 C151.674067,1.272693 151.52035,1.25541679 151.358944,1.25541679 L150.367461,1.25541679 L150.367461,0 L158.518377,0 L158.518377,1.25541679 L157.503837,1.25541679 C157.334745,1.25541679 157.177185,1.272693 157.031153,1.30724593 C156.88512,1.34179886 156.758303,1.41282326 156.6507,1.52032126 C156.543097,1.62781926 156.456631,1.78138553 156.3913,1.98102467 C156.325969,2.18066382 156.293305,2.44940479 156.293305,2.78725564 L156.293305,7.33670184 L162.461254,7.33670184 L162.461254,2.78725564 C162.461254,2.44940479 162.43051,2.18066382 162.369023,1.98102467 C162.307535,1.78138553 162.221069,1.62781926 162.109623,1.52032126 C161.998177,1.41282326 161.869439,1.34179886 161.723406,1.30724593 C161.577372,1.272693 161.419812,1.25541679 161.250722,1.25541679 L160.23618,1.25541679 L160.23618,0 L168.387097,0 L168.387097,1.25541679 L167.395613,1.25541679 C167.234209,1.25541679 167.080492,1.272693 166.934458,1.30724593 C166.788425,1.34179886 166.659688,1.41282326 166.548241,1.52032126 C166.436795,1.62781926 166.350329,1.78138553 166.288841,1.98102467 C166.227354,2.18066382 166.19661,2.44940479 166.19661,2.78725564 L166.19661,14.1781475 C166.19661,14.4852846 166.229275,14.7329103 166.294606,14.9210317 C166.359936,15.1091532 166.448324,15.251202 166.55977,15.3471824 C166.671217,15.4431628 166.798033,15.5065089 166.940222,15.5372226 C167.082413,15.5679363 167.234209,15.5832929 167.395613,15.5832929 L168.387097,15.5832929 L168.387097,16.8387097 L160.23618,16.8387097 Z" id="AFTERMATH" fill="url(#linearGradient-1)"></path>
                <path d="M6.47990858,25.7171216 C6.47990858,26.2063714 6.4196437,26.6521899 6.29911212,27.0545907 C6.17858056,27.4569913 6.00065566,27.8014874 5.76533211,28.0880894 C5.53000856,28.3746913 5.24016317,28.5961531 4.89578724,28.7524814 C4.55141131,28.9088098 4.15681981,28.9869727 3.7120009,28.9869727 C3.24422361,28.9869727 2.83671821,28.9088098 2.48947248,28.7524814 C2.14222675,28.5961531 1.85381624,28.3746913 1.62423228,28.0880894 C1.39464833,27.8014874 1.22246295,27.4562676 1.10767098,27.0524194 C0.992878998,26.6485712 0.935483872,26.2005815 0.935483872,25.7084368 C0.935483872,25.2162921 0.992878998,24.7697498 1.10767098,24.3687965 C1.22246295,23.9678434 1.39464833,23.6255184 1.62423228,23.3418115 C1.85381624,23.0581045 2.14366163,22.8388139 2.49377715,22.683933 C2.84389268,22.5290522 3.25283296,22.4516129 3.72061026,22.4516129 C4.16542917,22.4516129 4.55858579,22.5290522 4.90009191,22.683933 C5.24159805,22.8388139 5.53000856,23.0588282 5.76533211,23.3439827 C6.00065566,23.6291371 6.17858056,23.9721858 6.29911212,24.373139 C6.4196437,24.7740922 6.47990858,25.222082 6.47990858,25.7171216 Z M1.91264568,25.7171216 C1.91264568,26.1571569 1.94493044,26.550143 2.00950092,26.8960918 C2.07407142,27.2420407 2.17810008,27.5344281 2.32159005,27.773263 C2.46508002,28.012098 2.65089674,28.1944783 2.87904579,28.3204095 C3.10719485,28.4463406 3.38484377,28.5093052 3.7120009,28.5093052 C4.03915803,28.5093052 4.31680696,28.4463406 4.54495602,28.3204095 C4.77310507,28.1944783 4.95820435,28.012098 5.10025942,27.773263 C5.24231449,27.5344281 5.34490828,27.2420407 5.40804387,26.8960918 C5.47117946,26.550143 5.50274677,26.1571569 5.50274677,25.7171216 C5.50274677,25.2770864 5.47117946,24.8841002 5.40804387,24.5381514 C5.34490828,24.1922026 5.24231449,23.9005389 5.10025942,23.6631514 C4.95820435,23.425764 4.77453995,23.2448311 4.54926069,23.1203475 C4.32398144,22.9958638 4.04776739,22.9336228 3.72061026,22.9336228 C3.39345313,22.9336228 3.11508677,22.9958638 2.88550281,23.1203475 C2.65591886,23.2448311 2.46866726,23.425764 2.32374239,23.6631514 C2.17881752,23.9005389 2.07407142,24.1922026 2.00950092,24.5381514 C1.94493044,24.8841002 1.91264568,25.2770864 1.91264568,25.7171216 Z M9.08957631,22.9944169 L9.08957631,25.5651365 L11.2160871,25.5651365 L11.2160871,25.9993797 L9.08957631,25.9993797 L9.08957631,27.8883375 C9.08957631,28.027296 9.10894717,28.1387507 9.14768946,28.2227048 C9.18643176,28.3066588 9.23808737,28.3710709 9.30265786,28.415943 C9.36722837,28.460815 9.44399436,28.490488 9.53295813,28.5049628 C9.6219219,28.5194376 9.71518898,28.526675 9.8127621,28.526675 L10.1054802,28.526675 L10.1054802,28.9001241 L7.36340061,28.9001241 L7.36340061,28.526675 L7.47532223,28.526675 C7.5728954,28.526675 7.66544505,28.5201614 7.75297393,28.5071341 C7.84050281,28.4941067 7.9172688,28.4673287 7.98327418,28.4267991 C8.04927956,28.3862694 8.10165262,28.3261998 8.14039491,28.2465881 C8.17913721,28.1669765 8.19850806,28.0620354 8.19850806,27.9317618 L8.19850806,23.528536 C8.19850806,23.3982624 8.17913721,23.2933213 8.14039491,23.2137097 C8.10165262,23.1340981 8.04927956,23.0725809 7.98327418,23.0291564 C7.9172688,22.9857318 7.84050281,22.9575063 7.75297393,22.9444789 C7.66544505,22.9314516 7.5728954,22.924938 7.47532223,22.924938 L7.36340061,22.924938 L7.36340061,22.5514889 L11.8058279,22.5514889 L11.8488747,24.1060795 L11.3925788,24.1060795 L11.3495321,23.7239454 C11.3380528,23.6226216 11.3150948,23.5278127 11.2806572,23.4395161 C11.2462196,23.3512196 11.1967163,23.2745041 11.1321458,23.2093673 C11.0675754,23.1442305 10.9865047,23.0921219 10.8889315,23.0530398 C10.7913584,23.0139577 10.6736984,22.9944169 10.535948,22.9944169 L9.08957631,22.9944169 Z M17.7440445,27.8883375 C17.7440445,28.027296 17.7634153,28.1387507 17.8021576,28.2227048 C17.8408999,28.3066588 17.8925556,28.3710709 17.957126,28.415943 C18.0216965,28.460815 18.0984625,28.490488 18.1874263,28.5049628 C18.27639,28.5194376 18.3696571,28.526675 18.4672303,28.526675 L18.6695501,28.526675 L18.6695501,28.9001241 L15.9274706,28.9001241 L15.9274706,28.526675 L16.1297904,28.526675 C16.2273636,28.526675 16.3199132,28.5201614 16.4074421,28.5071341 C16.494971,28.4941067 16.5717369,28.4673287 16.6377423,28.4267991 C16.7037477,28.3862694 16.7561208,28.3261998 16.7948631,28.2465881 C16.8336053,28.1669765 16.8529762,28.0620354 16.8529762,27.9317618 L16.8529762,22.9944169 L16.0092594,22.9944169 C15.8801184,22.9944169 15.7717851,23.0139577 15.6842563,23.0530398 C15.5967274,23.0921219 15.5249835,23.1449542 15.4690224,23.2115385 C15.4130613,23.2781228 15.3714498,23.3555621 15.3441868,23.4438586 C15.3169237,23.5321551 15.2975528,23.6255165 15.2860736,23.7239454 L15.2387222,24.1060795 L14.7824263,24.1060795 L14.8254731,22.5514889 L19.7887663,22.5514889 L19.8318131,24.1060795 L19.3755173,24.1060795 L19.3324705,23.7239454 C19.3209913,23.6255165 19.300903,23.5321551 19.272205,23.4438586 C19.243507,23.3555621 19.2018956,23.2781228 19.1473694,23.2115385 C19.0928432,23.1449542 19.0210993,23.0921219 18.9321355,23.0530398 C18.8431717,23.0139577 18.732686,22.9944169 18.6006753,22.9944169 L17.7440445,22.9944169 L17.7440445,27.8883375 Z M24.1418285,28.9001241 L24.1418285,28.526675 L24.2580547,28.526675 C24.3584977,28.526675 24.4524823,28.5194376 24.5400112,28.5049628 C24.62754,28.490488 24.7035886,28.460815 24.768159,28.415943 C24.8327295,28.3710709 24.8843851,28.3066588 24.9231275,28.2227048 C24.9618698,28.1387507 24.9812406,28.027296 24.9812406,27.8883375 L24.9812406,25.8039702 L22.1143254,25.8039702 L22.1143254,27.8883375 C22.1143254,28.027296 22.1336962,28.1387507 22.1724385,28.2227048 C22.2111808,28.3066588 22.2628364,28.3710709 22.3274069,28.415943 C22.3919773,28.460815 22.4687433,28.490488 22.5577071,28.5049628 C22.6466709,28.5194376 22.739938,28.526675 22.8375112,28.526675 L22.9537375,28.526675 L22.9537375,28.9001241 L20.3881496,28.9001241 L20.3881496,28.526675 L20.5000712,28.526675 C20.6005142,28.526675 20.6944987,28.5194376 20.7820276,28.5049628 C20.8695565,28.490488 20.9463225,28.460815 21.0123279,28.415943 C21.0783333,28.3710709 21.1299889,28.3066588 21.1672963,28.2227048 C21.2046037,28.1387507 21.223257,28.027296 21.223257,27.8883375 L21.223257,23.528536 C21.223257,23.3982624 21.2038863,23.2933213 21.1651439,23.2137097 C21.1264016,23.1340981 21.0740286,23.0725809 21.0080232,23.0291564 C20.9420178,22.9857318 20.8652518,22.9575063 20.7777229,22.9444789 C20.6901941,22.9314516 20.5976444,22.924938 20.5000712,22.924938 L20.3881496,22.924938 L20.3881496,22.5514889 L22.9537375,22.5514889 L22.9537375,22.924938 L22.8375112,22.924938 C22.739938,22.924938 22.6466709,22.9321754 22.5577071,22.9466502 C22.4687433,22.961125 22.3919773,22.990798 22.3274069,23.03567 C22.2628364,23.0805421 22.2111808,23.1449542 22.1724385,23.2289082 C22.1336962,23.3128623 22.1143254,23.424317 22.1143254,23.5632755 L22.1143254,25.3610422 L24.9812406,25.3610422 L24.9812406,23.5632755 C24.9812406,23.424317 24.9618698,23.3128623 24.9231275,23.2289082 C24.8843851,23.1449542 24.8327295,23.0805421 24.768159,23.03567 C24.7035886,22.990798 24.62754,22.961125 24.5400112,22.9466502 C24.4524823,22.9321754 24.3584977,22.924938 24.2580547,22.924938 L24.1418285,22.924938 L24.1418285,22.5514889 L26.7074163,22.5514889 L26.7074163,22.924938 L26.5954947,22.924938 C26.4950517,22.924938 26.4010672,22.9321754 26.3135383,22.9466502 C26.2260094,22.961125 26.1492434,22.990798 26.083238,23.03567 C26.0172326,23.0805421 25.9655771,23.1449542 25.9282697,23.2289082 C25.8909622,23.3128623 25.8723089,23.424317 25.8723089,23.5632755 L25.8723089,27.9317618 C25.8723089,28.0620354 25.8916798,28.1669765 25.930422,28.2465881 C25.9691643,28.3261998 26.0215374,28.3862694 26.0875428,28.4267991 C26.1535482,28.4673287 26.2303141,28.4941067 26.317843,28.5071341 C26.4053719,28.5201614 26.4979215,28.526675 26.5954947,28.526675 L26.7074163,28.526675 L26.7074163,28.9001241 L24.1418285,28.9001241 Z M29.1492016,28.4571961 L30.8495492,28.4571961 C30.9901694,28.4571961 31.1099818,28.4376553 31.2089898,28.3985732 C31.3079979,28.3594911 31.3905034,28.3066587 31.4565088,28.2400745 C31.5225142,28.1734902 31.5741698,28.0960509 31.6114772,28.0077544 C31.6487846,27.9194578 31.6746124,27.8260965 31.6889613,27.7276676 L31.7492269,27.3455335 L32.2098274,27.3455335 L32.1495619,28.9001241 L27.4230259,28.9001241 L27.4230259,28.526675 L27.5349475,28.526675 C27.6325207,28.526675 27.7250703,28.5201614 27.8125993,28.5071341 C27.9001281,28.4941067 27.9768941,28.4673287 28.0428995,28.4267991 C28.1089049,28.3862694 28.1612779,28.3261998 28.2000202,28.2465881 C28.2387625,28.1669765 28.2581334,28.0620354 28.2581334,27.9317618 L28.2581334,23.5632755 C28.2581334,23.424317 28.2394799,23.3128623 28.2021725,23.2289082 C28.1648652,23.1449542 28.1132095,23.0805421 28.0472041,23.03567 C27.9811988,22.990798 27.9044328,22.961125 27.8169039,22.9466502 C27.7293751,22.9321754 27.6353905,22.924938 27.5349475,22.924938 L27.4230259,22.924938 L27.4230259,22.5514889 L31.8654532,22.5514889 L31.9085,24.1060795 L31.4522041,24.1060795 L31.4091574,23.7239454 C31.3976781,23.6255165 31.3754376,23.5321551 31.3424348,23.4438586 C31.3094322,23.3555621 31.2620812,23.2781228 31.2003805,23.2115385 C31.1386798,23.1449542 31.0611964,23.0921219 30.9679279,23.0530398 C30.8746594,23.0139577 30.7620214,22.9944169 30.6300107,22.9944169 L29.1492016,22.9944169 L29.1492016,25.3610422 L31.2757124,25.3610422 L31.2757124,25.7952854 L29.1492016,25.7952854 L29.1492016,28.4571961 Z M37.0202184,28.4571961 L38.7205661,28.4571961 C38.8611863,28.4571961 38.9809986,28.4376553 39.0800067,28.3985732 C39.1790147,28.3594911 39.2615202,28.3066587 39.3275256,28.2400745 C39.393531,28.1734902 39.4451867,28.0960509 39.482494,28.0077544 C39.5198014,27.9194578 39.5456292,27.8260965 39.5599782,27.7276676 L39.6202437,27.3455335 L40.0808442,27.3455335 L40.0205788,28.9001241 L35.2940427,28.9001241 L35.2940427,28.526675 L35.4059644,28.526675 C35.5035375,28.526675 35.5960872,28.5201614 35.6836161,28.5071341 C35.7711449,28.4941067 35.8479109,28.4673287 35.9139163,28.4267991 C35.9799217,28.3862694 36.0322947,28.3261998 36.071037,28.2465881 C36.1097794,28.1669765 36.1291502,28.0620354 36.1291502,27.9317618 L36.1291502,23.5632755 C36.1291502,23.424317 36.1104968,23.3128623 36.0731894,23.2289082 C36.035882,23.1449542 35.9842264,23.0805421 35.918221,23.03567 C35.8522156,22.990798 35.7754497,22.961125 35.6879207,22.9466502 C35.6003918,22.9321754 35.5064073,22.924938 35.4059644,22.924938 L35.2940427,22.924938 L35.2940427,22.5514889 L39.73647,22.5514889 L39.7795168,24.1060795 L39.323221,24.1060795 L39.2801741,23.7239454 C39.268695,23.6255165 39.2464543,23.5321551 39.2134517,23.4438586 C39.180449,23.3555621 39.133098,23.2781228 39.0713973,23.2115385 C39.0096967,23.1449542 38.9322132,23.0921219 38.8389448,23.0530398 C38.7456763,23.0139577 38.6330383,22.9944169 38.5010276,22.9944169 L37.0202184,22.9944169 L37.0202184,25.3610422 L39.1467291,25.3610422 L39.1467291,25.7952854 L37.0202184,25.7952854 L37.0202184,28.4571961 Z M42.2772629,26.776675 L41.9414981,27.7102978 C41.9156698,27.7797771 41.8955815,27.8485315 41.8812326,27.9165634 C41.8668836,27.9845951 41.8597092,28.0432173 41.8597092,28.0924318 C41.8597092,28.2429702 41.9077776,28.3529774 42.0039159,28.4224566 C42.1000542,28.4919359 42.2471292,28.526675 42.4451454,28.526675 L42.6474652,28.526675 L42.6474652,28.9001241 L40.4951264,28.9001241 L40.4951264,28.526675 L40.6630088,28.526675 C40.7491028,28.526675 40.8222816,28.5172665 40.8825473,28.4984492 C40.9428132,28.4796319 40.9973385,28.4441691 41.0461251,28.3920596 C41.0949117,28.3399502 41.1415452,28.2690245 41.1860271,28.1792804 C41.230509,28.0895364 41.2800124,27.9737394 41.3345385,27.8318859 L43.2888621,22.5514889 L43.9776105,22.5514889 L45.9706762,28.0533499 C46.0051138,28.1459889 46.0402684,28.2227045 46.0761409,28.2834988 C46.1120133,28.3442932 46.1543423,28.3927831 46.2031288,28.4289703 C46.2519154,28.4651574 46.3078757,28.490488 46.3710113,28.5049628 C46.4341468,28.5194376 46.5087606,28.526675 46.5948545,28.526675 L46.7110808,28.526675 L46.7110808,28.9001241 L44.2875474,28.9001241 L44.2875474,28.526675 L44.4898672,28.526675 C44.8428525,28.526675 45.0193425,28.3848237 45.0193425,28.1011167 C45.0193425,28.0519022 45.0128855,28.001241 44.9999715,27.9491316 C44.9870574,27.8970221 44.9691214,27.8376762 44.946163,27.7710919 L44.5931794,26.776675 L42.2772629,26.776675 Z M43.8872123,24.7748139 C43.7953787,24.5113718 43.7114383,24.2645793 43.6353886,24.0344293 C43.559339,23.8042793 43.4969218,23.5820937 43.4481352,23.367866 C43.4280466,23.4749799 43.4043711,23.5784735 43.377108,23.6783499 C43.3498449,23.7782263 43.3204299,23.8802724 43.2888621,23.9844913 C43.2572943,24.0887102 43.2214224,24.1979936 43.1812452,24.3123449 C43.141068,24.4266963 43.0951519,24.5533493 43.0434955,24.6923077 L42.4451454,26.3294045 L44.4339063,26.3294045 L43.8872123,24.7748139 Z M48.9333275,28.9869727 C48.6463491,28.9869727 48.3930916,28.9565761 48.173552,28.8957817 C47.9540123,28.8349874 47.7703479,28.7503107 47.6225533,28.6417494 C47.4747586,28.5331881 47.3635555,28.401469 47.2889407,28.2465881 C47.214326,28.0917073 47.1770191,27.9216304 47.1770191,27.7363524 C47.1770191,27.5568643 47.2322619,27.412118 47.3427492,27.3021092 C47.4532365,27.1921004 47.6103556,27.1370968 47.8141114,27.1370968 C47.8227208,27.3223748 47.8507009,27.5004127 47.8980526,27.6712159 C47.9454043,27.8420191 48.0164308,27.9925552 48.1111341,28.1228289 C48.2058375,28.2531025 48.3263673,28.3573198 48.4727271,28.4354839 C48.6190868,28.5136481 48.7955768,28.5527295 49.0022024,28.5527295 C49.3982347,28.5527295 49.7074509,28.4564733 49.9298604,28.2639578 C50.1522699,28.0714425 50.2634729,27.7942533 50.2634729,27.4323822 C50.2634729,27.2702639 50.2405149,27.1269651 50.1945981,27.0024814 C50.1486812,26.8779978 50.0726328,26.7629245 49.9664502,26.6572581 C49.8602675,26.5515917 49.720367,26.4502694 49.5467441,26.3532879 C49.3731212,26.2563064 49.1571721,26.1542603 48.8988901,26.0471465 C48.6262592,25.9342426 48.3880694,25.8133795 48.1843137,25.6845534 C47.9805579,25.5557272 47.8112422,25.4124284 47.6763617,25.2546526 C47.5414811,25.0968768 47.4410396,24.9210101 47.3750342,24.7270472 C47.3090288,24.5330842 47.2760266,24.3145174 47.2760266,24.07134 C47.2760266,23.8165827 47.3240951,23.5893311 47.4202334,23.3895782 C47.5163716,23.1898253 47.6505327,23.0211959 47.8227207,22.8836849 C47.9949087,22.7461738 48.1986614,22.6412329 48.433985,22.5688586 C48.6693085,22.4964844 48.9261517,22.4602978 49.2045223,22.4602978 C49.4685438,22.4602978 49.702429,22.4877996 49.9061846,22.542804 C50.1099404,22.5978084 50.2821258,22.6716291 50.422746,22.7642681 C50.5633662,22.8569071 50.6702646,22.9632955 50.7434445,23.0834367 C50.8166243,23.2035779 50.8532137,23.3287835 50.8532137,23.4590571 C50.8532137,23.6501251 50.7907965,23.7941476 50.6659602,23.8911291 C50.541124,23.9881105 50.3725258,24.0366005 50.1601607,24.0366005 C50.1601607,23.897642 50.1436596,23.7608568 50.1106568,23.6262408 C50.0776542,23.4916246 50.0224113,23.3714852 49.9449268,23.2658189 C49.8674422,23.1601525 49.7655658,23.0740285 49.6392947,23.0074442 C49.5130235,22.9408599 49.3566217,22.9075683 49.1700848,22.9075683 C49.0007667,22.9075683 48.849387,22.9314514 48.7159413,22.9792184 C48.5824956,23.0269854 48.4698577,23.0950162 48.3780241,23.1833127 C48.2861906,23.2716092 48.2158816,23.3779978 48.167095,23.5024814 C48.1183084,23.6269651 48.0939154,23.7659215 48.0939154,23.9193549 C48.0939154,24.095948 48.1168735,24.2515502 48.1627902,24.3861663 C48.2087071,24.5207824 48.2854731,24.6423693 48.3930905,24.7509306 C48.500708,24.8594919 48.6420435,24.9622618 48.8171012,25.0592432 C48.992159,25.1562246 49.2073907,25.2568233 49.4628029,25.3610422 C49.7210848,25.468156 49.9513827,25.5810582 50.1537037,25.6997519 C50.3560245,25.8184456 50.5274924,25.9508885 50.6681126,26.0970844 C50.8087328,26.2432803 50.9163487,26.4068437 50.9909634,26.5877792 C51.0655782,26.7687147 51.1028851,26.9735307 51.1028851,27.2022333 C51.1028851,27.4830453 51.0519469,27.7341801 50.950069,27.9556452 C50.8481911,28.1771103 50.7025509,28.3645568 50.5131442,28.5179902 C50.3237375,28.6714235 50.0955918,28.7879442 49.8287005,28.8675559 C49.5618092,28.9471675 49.2633545,28.9869727 48.9333275,28.9869727 Z M54.5562695,27.8883375 C54.5562695,28.027296 54.5756404,28.1387507 54.6143827,28.2227048 C54.6531251,28.3066588 54.7047806,28.3710709 54.7693512,28.415943 C54.8339216,28.460815 54.9106876,28.490488 54.9996514,28.5049628 C55.0886152,28.5194376 55.1818822,28.526675 55.2794555,28.526675 L55.4817753,28.526675 L55.4817753,28.9001241 L52.7396956,28.9001241 L52.7396956,28.526675 L52.9420155,28.526675 C53.0395886,28.526675 53.1321383,28.5201614 53.2196672,28.5071341 C53.307196,28.4941067 53.383962,28.4673287 53.4499674,28.4267991 C53.5159728,28.3862694 53.5683459,28.3261998 53.6070881,28.2465881 C53.6458304,28.1669765 53.6652013,28.0620354 53.6652013,27.9317618 L53.6652013,22.9944169 L52.8214845,22.9944169 C52.6923436,22.9944169 52.5840102,23.0139577 52.4964814,23.0530398 C52.4089525,23.0921219 52.3372085,23.1449542 52.2812475,23.2115385 C52.2252864,23.2781228 52.183675,23.3555621 52.1564119,23.4438586 C52.1291488,23.5321551 52.1097779,23.6255165 52.0982987,23.7239454 L52.0509472,24.1060795 L51.5946514,24.1060795 L51.6376982,22.5514889 L56.6009914,22.5514889 L56.6440382,24.1060795 L56.1877424,24.1060795 L56.1446956,23.7239454 C56.1332164,23.6255165 56.1131281,23.5321551 56.0844302,23.4438586 C56.0557321,23.3555621 56.0141207,23.2781228 55.9595944,23.2115385 C55.9050682,23.1449542 55.8333244,23.0921219 55.7443606,23.0530398 C55.6553968,23.0139577 55.5449112,22.9944169 55.4129005,22.9944169 L54.5562695,22.9944169 L54.5562695,27.8883375 Z M60.9809148,26.776675 L60.6451499,27.7102978 C60.6193217,27.7797771 60.5992334,27.8485315 60.5848844,27.9165634 C60.5705354,27.9845951 60.5633611,28.0432173 60.5633611,28.0924318 C60.5633611,28.2429702 60.6114294,28.3529774 60.7075677,28.4224566 C60.803706,28.4919359 60.9507811,28.526675 61.1487972,28.526675 L61.351117,28.526675 L61.351117,28.9001241 L59.1987782,28.9001241 L59.1987782,28.526675 L59.3666606,28.526675 C59.4527546,28.526675 59.5259334,28.5172665 59.5861992,28.4984492 C59.646465,28.4796319 59.7009904,28.4441691 59.7497769,28.3920596 C59.7985635,28.3399502 59.8451971,28.2690245 59.889679,28.1792804 C59.9341609,28.0895364 59.9836642,27.9737394 60.0381903,27.8318859 L61.992514,22.5514889 L62.6812624,22.5514889 L64.6743281,28.0533499 C64.7087657,28.1459889 64.7439203,28.2227045 64.7797927,28.2834988 C64.8156652,28.3442932 64.8579941,28.3927831 64.9067807,28.4289703 C64.9555673,28.4651574 65.0115276,28.490488 65.0746631,28.5049628 C65.1377987,28.5194376 65.2124124,28.526675 65.2985063,28.526675 L65.4147326,28.526675 L65.4147326,28.9001241 L62.9911992,28.9001241 L62.9911992,28.526675 L63.1935191,28.526675 C63.5465044,28.526675 63.7229943,28.3848237 63.7229943,28.1011167 C63.7229943,28.0519022 63.7165374,28.001241 63.7036233,27.9491316 C63.6907092,27.8970221 63.6727733,27.8376762 63.6498149,27.7710919 L63.2968313,26.776675 L60.9809148,26.776675 Z M62.5908642,24.7748139 C62.4990306,24.5113718 62.4150902,24.2645793 62.3390405,24.0344293 C62.2629908,23.8042793 62.2005737,23.5820937 62.1517871,23.367866 C62.1316985,23.4749799 62.108023,23.5784735 62.0807599,23.6783499 C62.0534968,23.7782263 62.0240818,23.8802724 61.992514,23.9844913 C61.9609462,24.0887102 61.9250742,24.1979936 61.8848971,24.3123449 C61.8447198,24.4266963 61.7988037,24.5533493 61.7471473,24.6923077 L61.1487972,26.3294045 L63.1375582,26.3294045 L62.5908642,24.7748139 Z M67.6369794,28.9869727 C67.3500009,28.9869727 67.0967435,28.9565761 66.8772039,28.8957817 C66.6576641,28.8349874 66.4739997,28.7503107 66.3262051,28.6417494 C66.1784104,28.5331881 66.0672074,28.401469 65.9925925,28.2465881 C65.9179778,28.0917073 65.880671,27.9216304 65.880671,27.7363524 C65.880671,27.5568643 65.9359138,27.412118 66.046401,27.3021092 C66.1568883,27.1921004 66.3140075,27.1370968 66.5177633,27.1370968 C66.5263726,27.3223748 66.5543528,27.5004127 66.6017044,27.6712159 C66.6490562,27.8420191 66.7200826,27.9925552 66.814786,28.1228289 C66.9094894,28.2531025 67.0300192,28.3573198 67.1763789,28.4354839 C67.3227387,28.5136481 67.4992287,28.5527295 67.7058543,28.5527295 C68.1018866,28.5527295 68.4111028,28.4564733 68.6335122,28.2639578 C68.8559218,28.0714425 68.9671248,27.7942533 68.9671248,27.4323822 C68.9671248,27.2702639 68.9441667,27.1269651 68.89825,27.0024814 C68.8523331,26.8779978 68.7762846,26.7629245 68.670102,26.6572581 C68.5639194,26.5515917 68.4240189,26.4502694 68.250396,26.3532879 C68.0767731,26.2563064 67.8608239,26.1542603 67.6025419,26.0471465 C67.3299111,25.9342426 67.0917213,25.8133795 66.8879655,25.6845534 C66.6842098,25.5557272 66.5148941,25.4124284 66.3800135,25.2546526 C66.245133,25.0968768 66.1446915,24.9210101 66.0786861,24.7270472 C66.0126807,24.5330842 65.9796786,24.3145174 65.9796786,24.07134 C65.9796786,23.8165827 66.027747,23.5893311 66.1238853,23.3895782 C66.2200235,23.1898253 66.3541846,23.0211959 66.5263726,22.8836849 C66.6985606,22.7461738 66.9023133,22.6412329 67.1376368,22.5688586 C67.3729604,22.4964844 67.6298035,22.4602978 67.9081741,22.4602978 C68.1721957,22.4602978 68.4060808,22.4877996 68.6098366,22.542804 C68.8135923,22.5978084 68.9857777,22.6716291 69.1263978,22.7642681 C69.267018,22.8569071 69.3739165,22.9632955 69.4470963,23.0834367 C69.5202762,23.2035779 69.5568656,23.3287835 69.5568656,23.4590571 C69.5568656,23.6501251 69.4944484,23.7941476 69.3696121,23.8911291 C69.2447758,23.9881105 69.0761777,24.0366005 68.8638125,24.0366005 C68.8638125,23.897642 68.8473114,23.7608568 68.8143087,23.6262408 C68.7813061,23.4916246 68.7260632,23.3714852 68.6485787,23.2658189 C68.571094,23.1601525 68.4692177,23.0740285 68.3429466,23.0074442 C68.2166753,22.9408599 68.0602736,22.9075683 67.8737367,22.9075683 C67.7044185,22.9075683 67.5530388,22.9314514 67.4195932,22.9792184 C67.2861475,23.0269854 67.1735096,23.0950162 67.081676,23.1833127 C66.9898424,23.2716092 66.9195334,23.3779978 66.8707468,23.5024814 C66.8219602,23.6269651 66.7975672,23.7659215 66.7975672,23.9193549 C66.7975672,24.095948 66.8205253,24.2515502 66.8664421,24.3861663 C66.9123589,24.5207824 66.9891249,24.6423693 67.0967424,24.7509306 C67.2043599,24.8594919 67.3456954,24.9622618 67.5207531,25.0592432 C67.6958109,25.1562246 67.9110426,25.2568233 68.1664547,25.3610422 C68.4247367,25.468156 68.6550346,25.5810582 68.8573555,25.6997519 C69.0596763,25.8184456 69.2311443,25.9508885 69.3717645,26.0970844 C69.5123847,26.2432803 69.6200005,26.4068437 69.6946153,26.5877792 C69.7692301,26.7687147 69.8065369,26.9735307 69.8065369,27.2022333 C69.8065369,27.4830453 69.7555988,27.7341801 69.6537208,27.9556452 C69.551843,28.1771103 69.4062028,28.3645568 69.2167961,28.5179902 C69.0273893,28.6714235 68.7992437,28.7879442 68.5323524,28.8675559 C68.265461,28.9471675 67.9670064,28.9869727 67.6369794,28.9869727 Z M70.6340681,28.9001241 L70.6340681,28.526675 L70.7459897,28.526675 C70.8464327,28.526675 70.9404173,28.5194376 71.0279461,28.5049628 C71.115475,28.490488 71.192241,28.460815 71.2582464,28.415943 C71.3242517,28.3710709 71.3759074,28.3066588 71.4132147,28.2227048 C71.4505222,28.1387507 71.4691756,28.027296 71.4691756,27.8883375 L71.4691756,23.5632755 C71.4691756,23.424317 71.4505222,23.3128623 71.4132147,23.2289082 C71.3759074,23.1449542 71.3242517,23.0805421 71.2582464,23.03567 C71.192241,22.990798 71.115475,22.961125 71.0279461,22.9466502 C70.9404173,22.9321754 70.8464327,22.924938 70.7459897,22.924938 L70.6340681,22.924938 L70.6340681,22.5514889 L73.199656,22.5514889 L73.199656,22.924938 L73.0834297,22.924938 C72.9858565,22.924938 72.8925894,22.9321754 72.8036256,22.9466502 C72.7146619,22.961125 72.6378959,22.990798 72.5733254,23.03567 C72.5087548,23.0805421 72.4570993,23.1449542 72.418357,23.2289082 C72.3796147,23.3128623 72.3602438,23.424317 72.3602438,23.5632755 L72.3602438,27.8883375 C72.3602438,28.027296 72.3796147,28.1387507 72.418357,28.2227048 C72.4570993,28.3066588 72.5087548,28.3710709 72.5733254,28.415943 C72.6378959,28.460815 72.7146619,28.490488 72.8036256,28.5049628 C72.8925894,28.5194376 72.9858565,28.526675 73.0834297,28.526675 L73.199656,28.526675 L73.199656,28.9001241 L70.6340681,28.9001241 Z M75.3616372,26.776675 L75.0258723,27.7102978 C75.0000442,27.7797771 74.9799559,27.8485315 74.9656069,27.9165634 C74.9512579,27.9845951 74.9440834,28.0432173 74.9440834,28.0924318 C74.9440834,28.2429702 74.9921519,28.3529774 75.0882902,28.4224566 C75.1844284,28.4919359 75.3315035,28.526675 75.5295196,28.526675 L75.7318394,28.526675 L75.7318394,28.9001241 L73.5795007,28.9001241 L73.5795007,28.526675 L73.7473831,28.526675 C73.8334771,28.526675 73.9066559,28.5172665 73.9669217,28.4984492 C74.0271875,28.4796319 74.0817129,28.4441691 74.1304994,28.3920596 C74.179286,28.3399502 74.2259196,28.2690245 74.2704015,28.1792804 C74.3148834,28.0895364 74.3643866,27.9737394 74.4189128,27.8318859 L76.3732365,22.5514889 L77.0619849,22.5514889 L79.0550506,28.0533499 C79.0894882,28.1459889 79.1246427,28.2227045 79.1605152,28.2834988 C79.1963877,28.3442932 79.2387166,28.3927831 79.2875032,28.4289703 C79.3362898,28.4651574 79.39225,28.490488 79.4553856,28.5049628 C79.5185212,28.5194376 79.5931348,28.526675 79.6792288,28.526675 L79.7954551,28.526675 L79.7954551,28.9001241 L77.3719216,28.9001241 L77.3719216,28.526675 L77.5742414,28.526675 C77.9272268,28.526675 78.1037168,28.3848237 78.1037168,28.1011167 C78.1037168,28.0519022 78.0972599,28.001241 78.0843457,27.9491316 C78.0714317,27.8970221 78.0534957,27.8376762 78.0305373,27.7710919 L77.6775538,26.776675 L75.3616372,26.776675 Z M76.9715866,24.7748139 C76.8797531,24.5113718 76.7958127,24.2645793 76.719763,24.0344293 C76.6437133,23.8042793 76.5812961,23.5820937 76.5325095,23.367866 C76.5124209,23.4749799 76.4887454,23.5784735 76.4614823,23.6783499 C76.4342193,23.7782263 76.4048043,23.8802724 76.3732365,23.9844913 C76.3416687,24.0887102 76.3057967,24.1979936 76.2656195,24.3123449 C76.2254423,24.4266963 76.1795262,24.5533493 76.1278698,24.6923077 L75.5295196,26.3294045 L77.5182807,26.3294045 L76.9715866,24.7748139 Z M84.8544843,28.9001241 L81.548492,23.7760546 L81.548492,27.8883375 C81.548492,28.027296 81.5678629,28.1387507 81.6066052,28.2227048 C81.6453474,28.3066588 81.6970031,28.3710709 81.7615735,28.415943 C81.826144,28.460815 81.90291,28.490488 81.9918738,28.5049628 C82.0808376,28.5194376 82.1741047,28.526675 82.2716778,28.526675 L82.3879041,28.526675 L82.3879041,28.9001241 L80.1752999,28.9001241 L80.1752999,28.526675 L80.2872215,28.526675 C80.3876645,28.526675 80.481649,28.5194376 80.5691779,28.5049628 C80.6567067,28.490488 80.7334727,28.460815 80.7994781,28.415943 C80.8654835,28.3710709 80.9171391,28.3066588 80.9544465,28.2227048 C80.9917539,28.1387507 81.0104073,28.027296 81.0104073,27.8883375 L81.0104073,23.528536 C81.0104073,23.3982624 80.9910364,23.2933213 80.9522942,23.2137097 C80.9135519,23.1340981 80.8611788,23.0725809 80.7951734,23.0291564 C80.729168,22.9857318 80.6524021,22.9575063 80.5648732,22.9444789 C80.4773443,22.9314516 80.3847947,22.924938 80.2872215,22.924938 L80.1752999,22.924938 L80.1752999,22.5514889 L81.7895539,22.5514889 L84.9448826,27.4671216 L84.9448826,23.528536 C84.9448826,23.3982624 84.9255118,23.2933213 84.8867695,23.2137097 C84.8480272,23.1340981 84.7956541,23.0725809 84.7296487,23.0291564 C84.6636434,22.9857318 84.5868774,22.9575063 84.4993485,22.9444789 C84.4118196,22.9314516 84.31927,22.924938 84.2216968,22.924938 L84.1054705,22.924938 L84.1054705,22.5514889 L86.3180748,22.5514889 L86.3180748,22.924938 L86.2061531,22.924938 C86.1057102,22.924938 86.0117256,22.9321754 85.9241968,22.9466502 C85.8366678,22.961125 85.7599019,22.990798 85.6938965,23.03567 C85.6278911,23.0805421 85.5762355,23.1449542 85.5389281,23.2289082 C85.5016207,23.3128623 85.4829673,23.424317 85.4829673,23.5632755 L85.4829673,28.9001241 L84.8544843,28.9001241 Z M94.025514,22.6122829 L95.1275112,26.4640199 C95.2107355,26.7593068 95.2846313,27.0422857 95.3492021,27.3129653 C95.413773,27.5836449 95.466146,27.8217525 95.5063232,28.0272954 C95.5493695,27.8130676 95.5988734,27.5879872 95.6548341,27.3520472 C95.7107956,27.1161072 95.7789522,26.8548402 95.8593065,26.5682383 L96.6341482,23.8238214 C96.6427574,23.7890818 96.6528017,23.7500002 96.664281,23.7065757 C96.6757603,23.6631512 96.6858046,23.6197273 96.6944139,23.5763028 C96.7030232,23.5328783 96.7109149,23.4923493 96.7180901,23.4547147 C96.7252643,23.4170801 96.7288509,23.3852359 96.7288509,23.3591812 C96.7288509,23.2057478 96.680783,23.0950169 96.5846442,23.0269851 C96.4885064,22.9589534 96.3428665,22.924938 96.1477199,22.924938 L95.9454,22.924938 L95.9454,22.5514889 L98.0977389,22.5514889 L98.0977389,22.924938 L97.929856,22.924938 C97.8437625,22.924938 97.7684317,22.9336227 97.7038609,22.9509926 C97.63929,22.9683624 97.5811778,23.001654 97.5295213,23.0508685 C97.4778648,23.100083 97.4305143,23.1695612 97.3874671,23.2593053 C97.3444199,23.3490493 97.3013736,23.4677413 97.2583264,23.6153847 L95.7689079,28.9001241 L94.9768477,28.9001241 L93.5390853,23.9193549 L92.1917212,28.9001241 L91.3781372,28.9001241 L89.763883,23.3939207 C89.7351851,23.3012816 89.7029003,23.2245661 89.6670278,23.1637718 C89.6311554,23.1029774 89.5888264,23.0552111 89.5400398,23.0204715 C89.4912533,22.9857319 89.4338581,22.961125 89.3678528,22.9466502 C89.3018474,22.9321754 89.2257988,22.924938 89.1397048,22.924938 L89.0234785,22.924938 L89.0234785,22.5514889 L91.4513167,22.5514889 L91.4513167,22.924938 L91.2489968,22.924938 C91.0710693,22.924938 90.938343,22.9589534 90.8508142,23.0269851 C90.7632852,23.0950169 90.7195215,23.2028529 90.7195215,23.3504963 C90.7195215,23.3997108 90.7266958,23.450372 90.7410449,23.5024814 C90.7553939,23.5545908 90.7711775,23.6139368 90.7883963,23.6805211 L91.5976757,26.524814 C91.6722905,26.7940461 91.7425995,27.058208 91.8086049,27.3173077 C91.8746103,27.5764075 91.9320054,27.8130676 91.9807921,28.0272954 C92.023839,27.7956978 92.0747772,27.5431156 92.133608,27.269541 C92.1924389,26.9959664 92.2605957,26.7158824 92.3380803,26.4292804 L93.3884216,22.6122829 L94.025514,22.6122829 Z M99.4719637,26.776675 L99.1361989,27.7102978 C99.1103712,27.7797771 99.0902826,27.8485315 99.0759341,27.9165634 C99.0615847,27.9845951 99.0544105,28.0432173 99.0544105,28.0924318 C99.0544105,28.2429702 99.1024785,28.3529774 99.1986172,28.4224566 C99.294755,28.4919359 99.4418299,28.526675 99.6398466,28.526675 L99.8421665,28.526675 L99.8421665,28.9001241 L97.6898277,28.9001241 L97.6898277,28.526675 L97.8577096,28.526675 C97.9438041,28.526675 98.0169832,28.5172665 98.077249,28.4984492 C98.1375147,28.4796319 98.1920394,28.4441691 98.2408267,28.3920596 C98.2896132,28.3399502 98.3362461,28.2690245 98.3807283,28.1792804 C98.4252106,28.0895364 98.4747136,27.9737394 98.5292402,27.8318859 L100.483563,22.5514889 L101.172311,22.5514889 L103.165378,28.0533499 C103.199816,28.1459889 103.234969,28.2227045 103.270842,28.2834988 C103.306714,28.3442932 103.349044,28.3927831 103.39783,28.4289703 C103.446617,28.4651574 103.502576,28.490488 103.565712,28.5049628 C103.628848,28.5194376 103.703461,28.526675 103.789556,28.526675 L103.905782,28.526675 L103.905782,28.9001241 L101.482248,28.9001241 L101.482248,28.526675 L101.684568,28.526675 C102.037554,28.526675 102.214044,28.3848237 102.214044,28.1011167 C102.214044,28.0519022 102.207587,28.001241 102.194673,27.9491316 C102.181758,27.8970221 102.163822,27.8376762 102.140865,27.7710919 L101.78788,26.776675 L99.4719637,26.776675 Z M101.081914,24.7748139 C100.99008,24.5113718 100.90614,24.2645793 100.83009,24.0344293 C100.754041,23.8042793 100.691623,23.5820937 100.642837,23.367866 C100.622747,23.4749799 100.599072,23.5784735 100.571809,23.6783499 C100.544547,23.7782263 100.515131,23.8802724 100.483563,23.9844913 C100.451995,24.0887102 100.416123,24.1979936 100.375946,24.3123449 C100.335769,24.4266963 100.289854,24.5533493 100.238197,24.6923077 L99.6398466,26.3294045 L101.628608,26.3294045 L101.081914,24.7748139 Z M108.835671,27.8145162 C108.9849,28.0519037 109.129823,28.2299416 109.270444,28.3486353 C109.411064,28.467329 109.574639,28.526675 109.761177,28.526675 L109.787005,28.526675 L109.787005,28.9001241 L109.662169,28.9001241 C109.386668,28.9001241 109.160675,28.8899919 108.984183,28.8697271 C108.80769,28.8494623 108.657745,28.8103808 108.534343,28.7524814 C108.410942,28.694582 108.305479,28.6135241 108.217949,28.5093052 C108.130421,28.4050863 108.036436,28.2690249 107.935994,28.1011167 L106.743598,26.0992556 L106.011802,26.0992556 L106.011802,27.9317618 C106.011802,28.0620354 106.031173,28.1669765 106.069916,28.2465881 C106.108658,28.3261998 106.161031,28.3862694 106.227037,28.4267991 C106.293042,28.4673287 106.369807,28.4941067 106.457337,28.5071341 C106.544865,28.5201614 106.637415,28.526675 106.734988,28.526675 L106.851215,28.526675 L106.851215,28.9001241 L104.285627,28.9001241 L104.285627,28.526675 L104.397548,28.526675 C104.495121,28.526675 104.587671,28.5201614 104.6752,28.5071341 C104.762729,28.4941067 104.839495,28.4673287 104.9055,28.4267991 C104.971506,28.3862694 105.023879,28.3261998 105.062621,28.2465881 C105.101363,28.1669765 105.120734,28.0620354 105.120734,27.9317618 L105.120734,23.528536 C105.120734,23.3982624 105.101363,23.2933213 105.062621,23.2137097 C105.023879,23.1340981 104.971506,23.0725809 104.9055,23.0291564 C104.839495,22.9857318 104.762729,22.9575063 104.6752,22.9444789 C104.587671,22.9314516 104.495121,22.924938 104.397548,22.924938 L104.285627,22.924938 L104.285627,22.5514889 L106.657504,22.5514889 C107.42087,22.5514889 107.989082,22.6940639 108.362156,22.9792184 C108.735231,23.2643729 108.921764,23.6935456 108.921764,24.2667495 C108.921764,24.5041369 108.883741,24.7118478 108.807691,24.8898884 C108.731641,25.067929 108.631917,25.2220837 108.508515,25.3523574 C108.385114,25.482631 108.245931,25.5911907 108.090962,25.6780397 C107.935993,25.7648888 107.781026,25.834367 107.626057,25.8864765 L108.835671,27.8145162 Z M106.011802,25.6823822 L106.631676,25.6823822 C106.889958,25.6823822 107.105189,25.6534329 107.277377,25.5955336 C107.449565,25.5376341 107.587314,25.4507863 107.690626,25.3349877 C107.793939,25.2191889 107.867836,25.0744426 107.912317,24.9007445 C107.9568,24.7270464 107.97904,24.5244016 107.97904,24.292804 C107.97904,24.0554165 107.954647,23.8534955 107.905861,23.6870348 C107.857074,23.520574 107.778156,23.3845126 107.669104,23.2788462 C107.560051,23.1731799 107.418716,23.0964643 107.245093,23.0486973 C107.07147,23.0009303 106.859825,22.9770471 106.610153,22.9770471 L106.011802,22.9770471 L106.011802,25.6823822 Z M118.148755,25.7171216 C118.148755,26.2063714 118.088489,26.6521899 117.967958,27.0545907 C117.847426,27.4569913 117.669502,27.8014874 117.434178,28.0880894 C117.198855,28.3746913 116.909009,28.5961531 116.564633,28.7524814 C116.220257,28.9088098 115.825666,28.9869727 115.380847,28.9869727 C114.91307,28.9869727 114.505565,28.9088098 114.158319,28.7524814 C113.811073,28.5961531 113.522662,28.3746913 113.293078,28.0880894 C113.063495,27.8014874 112.891309,27.4562676 112.776517,27.0524194 C112.661725,26.6485712 112.60433,26.2005815 112.60433,25.7084368 C112.60433,25.2162921 112.661725,24.7697498 112.776517,24.3687965 C112.891309,23.9678434 113.063495,23.6255184 113.293078,23.3418115 C113.522662,23.0581045 113.812508,22.8388139 114.162624,22.683933 C114.512739,22.5290522 114.921679,22.4516129 115.389457,22.4516129 C115.834275,22.4516129 116.227432,22.5290522 116.568938,22.683933 C116.910444,22.8388139 117.198855,23.0588282 117.434178,23.3439827 C117.669502,23.6291371 117.847426,23.9721858 117.967958,24.373139 C118.088489,24.7740922 118.148755,25.222082 118.148755,25.7171216 Z M113.581492,25.7171216 C113.581492,26.1571569 113.613776,26.550143 113.678347,26.8960918 C113.742918,27.2420407 113.846947,27.5344281 113.990436,27.773263 C114.133926,28.012098 114.319743,28.1944783 114.547892,28.3204095 C114.776041,28.4463406 115.05369,28.5093052 115.380847,28.5093052 C115.708004,28.5093052 115.985654,28.4463406 116.213802,28.3204095 C116.441951,28.1944783 116.62705,28.012098 116.769105,27.773263 C116.911161,27.5344281 117.013754,27.2420407 117.07689,26.8960918 C117.140026,26.550143 117.171593,26.1571569 117.171593,25.7171216 C117.171593,25.2770864 117.140026,24.8841002 117.07689,24.5381514 C117.013754,24.1922026 116.911161,23.9005389 116.769105,23.6631514 C116.62705,23.425764 116.443386,23.2448311 116.218107,23.1203475 C115.992828,22.9958638 115.716614,22.9336228 115.389457,22.9336228 C115.062299,22.9336228 114.783933,22.9958638 114.554349,23.1203475 C114.324765,23.2448311 114.137514,23.425764 113.992588,23.6631514 C113.847664,23.9005389 113.742918,24.1922026 113.678347,24.5381514 C113.613776,24.8841002 113.581492,25.2770864 113.581492,25.7171216 Z M120.758422,22.9944169 L120.758422,25.5651365 L122.884933,25.5651365 L122.884933,25.9993797 L120.758422,25.9993797 L120.758422,27.8883375 C120.758422,28.027296 120.777793,28.1387507 120.816535,28.2227048 C120.855278,28.3066588 120.906934,28.3710709 120.971504,28.415943 C121.036075,28.460815 121.112841,28.490488 121.201804,28.5049628 C121.290768,28.5194376 121.384035,28.526675 121.481608,28.526675 L121.774327,28.526675 L121.774327,28.9001241 L119.032247,28.9001241 L119.032247,28.526675 L119.144168,28.526675 C119.241742,28.526675 119.334291,28.5201614 119.421821,28.5071341 C119.509349,28.4941067 119.586115,28.4673287 119.652121,28.4267991 C119.718126,28.3862694 119.770499,28.3261998 119.809241,28.2465881 C119.847983,28.1669765 119.867354,28.0620354 119.867354,27.9317618 L119.867354,23.528536 C119.867354,23.3982624 119.847983,23.2933213 119.809241,23.2137097 C119.770499,23.1340981 119.718126,23.0725809 119.652121,23.0291564 C119.586115,22.9857318 119.509349,22.9575063 119.421821,22.9444789 C119.334291,22.9314516 119.241742,22.924938 119.144168,22.924938 L119.032247,22.924938 L119.032247,22.5514889 L123.474674,22.5514889 L123.517721,24.1060795 L123.061425,24.1060795 L123.018378,23.7239454 C123.006899,23.6226216 122.983941,23.5278127 122.949503,23.4395161 C122.915066,23.3512196 122.865562,23.2745041 122.800992,23.2093673 C122.736421,23.1442305 122.655351,23.0921219 122.557778,23.0530398 C122.460205,23.0139577 122.342544,22.9944169 122.204794,22.9944169 L120.758422,22.9944169 Z M127.122802,28.9001241 L127.122802,28.526675 L127.712543,28.526675 C127.812986,28.526675 127.906971,28.5194376 127.994499,28.5049628 C128.082028,28.490488 128.158077,28.460815 128.222647,28.415943 C128.287218,28.3710709 128.338873,28.3066588 128.377616,28.2227048 C128.416358,28.1387507 128.435729,28.027296 128.435729,27.8883375 L128.435729,23.215881 C128.323807,23.3548394 128.217625,23.4807687 128.117182,23.5936725 C128.01674,23.7065763 127.920603,23.8035563 127.828769,23.8846154 C127.736935,23.9656746 127.647256,24.0286392 127.559727,24.0735112 C127.472198,24.1183832 127.385388,24.1408189 127.299294,24.1408189 C127.170153,24.1408189 127.063972,24.0966713 126.980748,24.0083747 C126.897524,23.9200781 126.855913,23.8050049 126.855913,23.6631514 C126.944876,23.6399916 127.034556,23.6117661 127.124955,23.5784739 C127.215354,23.5451818 127.31149,23.501758 127.413368,23.4482011 C127.515245,23.3946441 127.625732,23.3295083 127.744828,23.2527916 C127.863925,23.1760749 127.996651,23.0841611 128.143011,22.9770471 L128.762884,22.5167494 L129.326797,22.5167494 L129.326797,27.8883375 C129.326797,28.027296 129.34545,28.1387507 129.382758,28.2227048 C129.420065,28.3066588 129.471721,28.3710709 129.537726,28.415943 C129.603732,28.460815 129.680498,28.490488 129.768026,28.5049628 C129.855556,28.5194376 129.94954,28.526675 130.049983,28.526675 L130.48045,28.526675 L130.48045,28.9001241 L127.122802,28.9001241 Z M133.352704,28.4658809 C133.533501,28.4658809 133.700665,28.4405503 133.854199,28.3898884 C134.007733,28.3392264 134.141177,28.2552735 134.254534,28.1380274 C134.367891,28.0207811 134.456136,27.8659026 134.519271,27.6733871 C134.582407,27.4808717 134.613974,27.2442116 134.613974,26.9633995 C134.613974,26.7289071 134.582407,26.5248148 134.519271,26.3511167 C134.456136,26.1774185 134.365739,26.0326723 134.248077,25.9168735 C134.130415,25.8010747 133.989797,25.7149507 133.826218,25.6584988 C133.66264,25.6020469 133.478976,25.5738214 133.27522,25.5738214 C133.12312,25.5738214 132.991829,25.5796113 132.881342,25.5911911 C132.770855,25.602771 132.673283,25.6179694 132.588623,25.6367866 C132.503965,25.6556039 132.430068,25.6765921 132.366932,25.6997519 C132.303797,25.7229117 132.244967,25.7460711 132.190441,25.7692308 L131.979512,25.7084368 L132.26362,22.5601737 L135.20802,22.5601737 L135.251066,23.9019851 L134.880865,23.9019851 L134.846427,23.6370968 C134.837817,23.5734075 134.825621,23.5191277 134.809837,23.4742556 C134.794054,23.4293836 134.768942,23.3917496 134.734505,23.3613524 C134.700067,23.3309552 134.653434,23.3085196 134.594603,23.2940447 C134.535772,23.2795698 134.460441,23.2723325 134.368608,23.2723325 L132.659651,23.2723325 L132.491768,25.2264268 C132.580732,25.1945822 132.709154,25.162738 132.877037,25.1308933 C133.04492,25.0990487 133.259434,25.0831266 133.520586,25.0831266 C133.804696,25.0831266 134.069432,25.1222081 134.3148,25.2003723 C134.560167,25.2785365 134.773247,25.3957809 134.954044,25.5521093 C135.134841,25.7084375 135.276177,25.9045687 135.378055,26.1405087 C135.479933,26.3764487 135.530871,26.6507429 135.530871,26.9633995 C135.530871,27.2644763 135.482803,27.5394942 135.386664,27.7884616 C135.290526,28.0374289 135.151342,28.2509297 134.96911,28.4289703 C134.786878,28.6070109 134.563754,28.7445198 134.299733,28.8415012 C134.035711,28.9384828 133.735822,28.9869727 133.400055,28.9869727 C133.072898,28.9869727 132.802423,28.9587472 132.588623,28.9022954 C132.374823,28.8458434 132.20479,28.774194 132.078519,28.6873449 C131.952248,28.6004959 131.863286,28.5042396 131.811629,28.3985732 C131.759973,28.2929068 131.734145,28.1908607 131.734145,28.0924318 C131.734145,27.9274185 131.779344,27.7985944 131.869742,27.7059554 C131.960141,27.6133164 132.100042,27.5669976 132.289448,27.5669976 C132.289448,27.6943762 132.311689,27.8130682 132.35617,27.923077 C132.400653,28.0330858 132.466658,28.1278946 132.554186,28.2075062 C132.641715,28.2871179 132.752201,28.3500825 132.885646,28.396402 C133.019092,28.4427215 133.174776,28.4658809 133.352704,28.4658809 Z M138.230936,28.5093052 C138.718802,28.5093052 139.078957,28.2892909 139.311411,27.8492556 C139.543864,27.4092203 139.674438,26.7433874 139.703136,25.851737 C139.64,25.9299011 139.566105,26.0051692 139.481445,26.0775434 C139.396787,26.1499177 139.30065,26.2143298 139.193032,26.2707817 C139.085415,26.3272336 138.96632,26.3721049 138.835743,26.405397 C138.705168,26.4386892 138.562398,26.455335 138.407428,26.455335 C138.152016,26.455335 137.917413,26.417701 137.703613,26.3424318 C137.489813,26.2671626 137.306149,26.1542605 137.152615,26.0037221 C136.999081,25.8531837 136.879985,25.6650136 136.795327,25.439206 C136.710667,25.2133984 136.668339,24.9499602 136.668339,24.6488834 C136.668339,24.3275419 136.711385,24.0329832 136.797479,23.7651986 C136.883573,23.4974139 137.00769,23.2672674 137.169834,23.0747519 C137.331977,22.8822364 137.52999,22.7317003 137.763879,22.623139 C137.997768,22.5145777 138.262503,22.4602978 138.558092,22.4602978 C138.856551,22.4602978 139.130613,22.5181963 139.380286,22.6339951 C139.629958,22.7497938 139.846624,22.9292792 140.030292,23.1724566 C140.213959,23.415634 140.35673,23.725391 140.458607,24.101737 C140.560485,24.4780829 140.611424,24.9267965 140.611424,25.4478908 C140.611424,25.7576526 140.592053,26.060896 140.55331,26.3576303 C140.514567,26.6543647 140.454303,26.9344487 140.372513,27.1978909 C140.290725,27.4613331 140.185979,27.7030593 140.058272,27.923077 C139.930566,28.1430946 139.778469,28.3334359 139.601977,28.4941068 C139.425484,28.6547775 139.222448,28.7792593 138.992864,28.8675559 C138.763281,28.9558525 138.506437,29 138.222327,29 C137.972655,29 137.765315,28.9775644 137.600301,28.9326923 C137.435288,28.8878203 137.304714,28.829198 137.208576,28.7568239 C137.112437,28.6844496 137.044281,28.6019442 137.004103,28.5093052 C136.963926,28.4166662 136.943838,28.3240286 136.943838,28.2313896 C136.943838,28.1213808 136.9711,28.0287432 137.025627,27.953474 C137.080153,27.8782048 137.140418,27.828991 137.206423,27.8058314 C137.2466,27.8984704 137.296103,27.9874893 137.354935,28.0728909 C137.413766,28.1582925 137.48551,28.2335605 137.570168,28.2986973 C137.654828,28.3638341 137.751682,28.415219 137.860734,28.4528536 C137.969787,28.4904882 138.093186,28.5093052 138.230936,28.5093052 Z M138.601139,25.9299008 C138.744629,25.9270058 138.875921,25.9060176 138.995017,25.8669355 C139.114113,25.8278534 139.219577,25.7757448 139.311411,25.710608 C139.403244,25.6454712 139.48288,25.5694794 139.55032,25.4826303 C139.61776,25.3957812 139.671568,25.3045911 139.711745,25.2090571 L139.711745,25.1916873 C139.706006,24.8008666 139.674438,24.4643315 139.617043,24.182072 C139.559647,23.8998126 139.480729,23.6674948 139.380286,23.4851117 C139.279843,23.3027287 139.16003,23.1681146 139.020845,23.0812656 C138.88166,22.9944165 138.727411,22.9509926 138.558092,22.9509926 C138.245284,22.9509926 138.003507,23.0885015 137.832754,23.3635236 C137.662001,23.6385457 137.576626,24.0380454 137.576626,24.5620348 C137.576626,24.8052122 137.598149,25.0136468 137.641196,25.1873449 C137.684243,25.3610431 137.748812,25.5028945 137.834907,25.6129033 C137.921,25.7229121 138.027899,25.8032463 138.155605,25.8539082 C138.283311,25.9045702 138.431821,25.9299008 138.601139,25.9299008 Z M145.257203,23.9454094 C145.257203,24.1538472 145.224201,24.356492 145.158196,24.5533499 C145.09219,24.7502078 144.996053,24.9521288 144.869783,25.1591191 C144.743511,25.3661094 144.589262,25.5810576 144.40703,25.8039702 C144.224797,26.0268829 144.017458,26.2671617 143.785004,26.524814 L142.295586,28.1879653 L144.331698,28.1879653 C144.463709,28.1879653 144.572759,28.1691483 144.658854,28.1315137 C144.744947,28.0938791 144.815256,28.0446653 144.869783,27.9838711 C144.924308,27.9230767 144.966638,27.8528747 144.996771,27.773263 C145.026904,27.6936514 145.052014,27.6104223 145.072103,27.5235732 L145.10654,27.3629032 L145.476742,27.3629032 L145.433695,28.9001241 L141.641274,28.9001241 L141.641274,28.2487594 L143.113474,26.5334988 C143.348797,26.2584768 143.546094,26.0124081 143.705367,25.7952854 C143.864641,25.5781628 143.993063,25.3733467 144.090636,25.1808313 C144.188209,24.9883159 144.258518,24.8001457 144.301565,24.6163152 C144.344612,24.4324847 144.366135,24.2392484 144.366135,24.0366005 C144.366135,23.8657973 144.348199,23.7116426 144.312327,23.5741315 C144.276454,23.4366205 144.221929,23.3179286 144.148749,23.2180521 C144.075569,23.1181757 143.982302,23.0414602 143.868945,22.9879033 C143.755588,22.9343463 143.621427,22.9075683 143.466458,22.9075683 C143.265572,22.9075683 143.102713,22.9437549 142.977877,23.016129 C142.85304,23.0885033 142.754751,23.1854833 142.683006,23.307072 C142.611262,23.4286607 142.562475,23.5690646 142.536648,23.7282878 C142.510819,23.8875111 142.497905,24.0554168 142.497905,24.23201 C142.391722,24.23201 142.292716,24.2233251 142.200883,24.2059554 C142.109049,24.1885856 142.028696,24.1574651 141.959821,24.1125931 C141.890946,24.0677211 141.837138,24.0083751 141.798396,23.9345534 C141.759652,23.8607317 141.740282,23.7673703 141.740282,23.6544666 C141.740282,23.4836634 141.776871,23.3251662 141.850051,23.1789702 C141.923231,23.0327743 142.032281,22.9061213 142.177207,22.7990074 C142.322132,22.6918936 142.502209,22.6086645 142.717444,22.5493176 C142.932679,22.4899708 143.182348,22.4602978 143.466458,22.4602978 C143.744828,22.4602978 143.994497,22.4957606 144.215472,22.5666874 C144.436446,22.6376141 144.624415,22.7374891 144.779384,22.8663151 C144.934354,22.9951413 145.052731,23.1507436 145.13452,23.3331265 C145.216309,23.5155096 145.257203,23.7196019 145.257203,23.9454094 Z M146.386062,26.8114144 L146.386062,26.14268 L148.680456,26.14268 L148.680456,26.8114144 L146.386062,26.8114144 Z M149.792095,28.9001241 L149.792095,28.526675 L150.381836,28.526675 C150.482279,28.526675 150.576263,28.5194376 150.663793,28.5049628 C150.751321,28.490488 150.82737,28.460815 150.891941,28.415943 C150.95651,28.3710709 151.008167,28.3066588 151.046909,28.2227048 C151.085651,28.1387507 151.105022,28.027296 151.105022,27.8883375 L151.105022,23.215881 C150.9931,23.3548394 150.886919,23.4807687 150.786476,23.5936725 C150.686033,23.7065763 150.589896,23.8035563 150.498063,23.8846154 C150.406229,23.9656746 150.316549,24.0286392 150.22902,24.0735112 C150.141491,24.1183832 150.054681,24.1408189 149.968587,24.1408189 C149.839446,24.1408189 149.733265,24.0966713 149.650041,24.0083747 C149.566816,23.9200781 149.525205,23.8050049 149.525205,23.6631514 C149.614169,23.6399916 149.703849,23.6117661 149.794247,23.5784739 C149.884646,23.5451818 149.980783,23.501758 150.082661,23.4482011 C150.184539,23.3946441 150.295024,23.3295083 150.414122,23.2527916 C150.533218,23.1760749 150.665944,23.0841611 150.812304,22.9770471 L151.432178,22.5167494 L151.99609,22.5167494 L151.99609,27.8883375 C151.99609,28.027296 152.014744,28.1387507 152.052051,28.2227048 C152.089358,28.3066588 152.141014,28.3710709 152.207019,28.415943 C152.273024,28.460815 152.349791,28.490488 152.43732,28.5049628 C152.524848,28.5194376 152.618833,28.526675 152.719276,28.526675 L153.149744,28.526675 L153.149744,28.9001241 L149.792095,28.9001241 Z M156.021997,28.4658809 C156.202794,28.4658809 156.369957,28.4405503 156.523492,28.3898884 C156.677026,28.3392264 156.81047,28.2552735 156.923826,28.1380274 C157.037184,28.0207811 157.125429,27.8659026 157.188565,27.6733871 C157.2517,27.4808717 157.283267,27.2442116 157.283267,26.9633995 C157.283267,26.7289071 157.2517,26.5248148 157.188565,26.3511167 C157.125429,26.1774185 157.035031,26.0326723 156.91737,25.9168735 C156.799708,25.8010747 156.65909,25.7149507 156.495511,25.6584988 C156.331933,25.6020469 156.148268,25.5738214 155.944512,25.5738214 C155.792413,25.5738214 155.661122,25.5796113 155.550634,25.5911911 C155.440147,25.602771 155.342575,25.6179694 155.257917,25.6367866 C155.173257,25.6556039 155.099362,25.6765921 155.036226,25.6997519 C154.97309,25.7229117 154.91426,25.7460711 154.859734,25.7692308 L154.648804,25.7084368 L154.932914,22.5601737 L157.877313,22.5601737 L157.92036,23.9019851 L157.550157,23.9019851 L157.51572,23.6370968 C157.507111,23.5734075 157.494914,23.5191277 157.479131,23.4742556 C157.463346,23.4293836 157.438236,23.3917496 157.403798,23.3613524 C157.369361,23.3309552 157.322727,23.3085196 157.263896,23.2940447 C157.205066,23.2795698 157.129734,23.2723325 157.0379,23.2723325 L155.328943,23.2723325 L155.161061,25.2264268 C155.250025,25.1945822 155.378446,25.162738 155.54633,25.1308933 C155.714213,25.0990487 155.928728,25.0831266 156.189879,25.0831266 C156.47399,25.0831266 156.738724,25.1222081 156.984092,25.2003723 C157.22946,25.2785365 157.442539,25.3957809 157.623337,25.5521093 C157.804135,25.7084375 157.945469,25.9045687 158.047347,26.1405087 C158.149225,26.3764487 158.200164,26.6507429 158.200164,26.9633995 C158.200164,27.2644763 158.152095,27.5394942 158.055957,27.7884616 C157.959819,28.0374289 157.820636,28.2509297 157.638403,28.4289703 C157.456171,28.6070109 157.233048,28.7445198 156.969026,28.8415012 C156.705005,28.9384828 156.405115,28.9869727 156.069348,28.9869727 C155.742191,28.9869727 155.471717,28.9587472 155.257917,28.9022954 C155.044117,28.8458434 154.874083,28.774194 154.747812,28.6873449 C154.621541,28.6004959 154.532579,28.5042396 154.480923,28.3985732 C154.429266,28.2929068 154.403438,28.1908607 154.403438,28.0924318 C154.403438,27.9274185 154.448637,27.7985944 154.539036,27.7059554 C154.629434,27.6133164 154.769335,27.5669976 154.958742,27.5669976 C154.958742,27.6943762 154.980982,27.8130682 155.025464,27.923077 C155.069946,28.0330858 155.13595,28.1278946 155.223479,28.2075062 C155.311008,28.2871179 155.421494,28.3500825 155.554939,28.396402 C155.688385,28.4427215 155.844069,28.4658809 156.021997,28.4658809 Z M160.90023,28.5093052 C161.388096,28.5093052 161.74825,28.2892909 161.980703,27.8492556 C162.213157,27.4092203 162.343731,26.7433874 162.37243,25.851737 C162.309294,25.9299011 162.235397,26.0051692 162.150739,26.0775434 C162.066079,26.1499177 161.969942,26.2143298 161.862325,26.2707817 C161.754707,26.3272336 161.635613,26.3721049 161.505037,26.405397 C161.374461,26.4386892 161.23169,26.455335 161.076722,26.455335 C160.821309,26.455335 160.586707,26.417701 160.372907,26.3424318 C160.159107,26.2671626 159.975442,26.1542605 159.821908,26.0037221 C159.668373,25.8531837 159.549279,25.6650136 159.464619,25.439206 C159.379961,25.2133984 159.337632,24.9499602 159.337632,24.6488834 C159.337632,24.3275419 159.380678,24.0329832 159.466772,23.7651986 C159.552866,23.4974139 159.676983,23.2672674 159.839126,23.0747519 C160.00127,22.8822364 160.199284,22.7317003 160.433173,22.623139 C160.66706,22.5145777 160.931796,22.4602978 161.227385,22.4602978 C161.525844,22.4602978 161.799906,22.5181963 162.049578,22.6339951 C162.299251,22.7497938 162.515918,22.9292792 162.699585,23.1724566 C162.883252,23.415634 163.026022,23.725391 163.1279,24.101737 C163.229778,24.4780829 163.280716,24.9267965 163.280716,25.4478908 C163.280716,25.7576526 163.261345,26.060896 163.222603,26.3576303 C163.183861,26.6543647 163.123596,26.9344487 163.041807,27.1978909 C162.960017,27.4613331 162.855271,27.7030593 162.727566,27.923077 C162.599859,28.1430946 162.447762,28.3334359 162.271269,28.4941068 C162.094777,28.6547775 161.891742,28.7792593 161.662158,28.8675559 C161.432573,28.9558525 161.175731,29 160.89162,29 C160.641947,29 160.434608,28.9775644 160.269595,28.9326923 C160.104581,28.8878203 159.974007,28.829198 159.877868,28.7568239 C159.781731,28.6844496 159.713574,28.6019442 159.673397,28.5093052 C159.63322,28.4166662 159.613131,28.3240286 159.613131,28.2313896 C159.613131,28.1213808 159.640394,28.0287432 159.69492,27.953474 C159.749446,27.8782048 159.809711,27.828991 159.875717,27.8058314 C159.915894,27.8984704 159.965397,27.9874893 160.024228,28.0728909 C160.083058,28.1582925 160.154802,28.2335605 160.239462,28.2986973 C160.32412,28.3638341 160.420975,28.415219 160.530027,28.4528536 C160.63908,28.4904882 160.76248,28.5093052 160.90023,28.5093052 Z M161.270432,25.9299008 C161.413922,25.9270058 161.545213,25.9060176 161.66431,25.8669355 C161.783407,25.8278534 161.88887,25.7757448 161.980703,25.710608 C162.072537,25.6454712 162.152173,25.5694794 162.219614,25.4826303 C162.287054,25.3957812 162.340862,25.3045911 162.381039,25.2090571 L162.381039,25.1916873 C162.375299,24.8008666 162.343732,24.4643315 162.286336,24.182072 C162.22894,23.8998126 162.150021,23.6674948 162.049578,23.4851117 C161.949135,23.3027287 161.829323,23.1681146 161.690138,23.0812656 C161.550952,22.9944165 161.396703,22.9509926 161.227385,22.9509926 C160.914577,22.9509926 160.6728,23.0885015 160.502047,23.3635236 C160.331294,23.6385457 160.245919,24.0380454 160.245919,24.5620348 C160.245919,24.8052122 160.267442,25.0136468 160.310489,25.1873449 C160.353536,25.3610431 160.418106,25.5028945 160.504199,25.6129033 C160.590294,25.7229121 160.697191,25.8032463 160.824898,25.8539082 C160.952604,25.9045702 161.101114,25.9299008 161.270432,25.9299008 Z M164.267521,27.3064516 C164.267521,27.092224 164.30124,26.9047775 164.36868,26.7441067 C164.436121,26.583436 164.530105,26.4401372 164.650637,26.314206 C164.771168,26.1882749 164.913222,26.074649 165.0768,25.9733251 C165.240378,25.8720012 165.418303,25.7750212 165.61058,25.6823822 C165.444131,25.5868482 165.2906,25.4833546 165.14998,25.3718983 C165.009359,25.260442 164.88883,25.1381314 164.788387,25.0049628 C164.687944,24.8717942 164.609743,24.7263243 164.553782,24.5685484 C164.497821,24.4107726 164.469841,24.2392483 164.469841,24.0539703 C164.469841,23.8484275 164.505713,23.6501251 164.577458,23.4590571 C164.649203,23.2679892 164.761123,23.098636 164.913223,22.9509926 C165.065322,22.8033492 165.262617,22.6846573 165.505115,22.5949132 C165.747613,22.5051692 166.038177,22.4602978 166.376812,22.4602978 C166.652313,22.4602978 166.897678,22.4986556 167.112913,22.5753723 C167.328147,22.652089 167.50966,22.7584774 167.657454,22.894541 C167.805249,23.0306045 167.917886,23.1919966 167.995372,23.3787221 C168.072856,23.5654476 168.111598,23.7702636 168.111598,23.9931762 C168.111598,24.1871391 168.0829,24.3579398 168.025504,24.5055832 C167.968108,24.6532266 167.887755,24.7856694 167.784442,24.9029156 C167.681129,25.0201619 167.556295,25.1258267 167.409935,25.2199132 C167.263575,25.3139997 167.101434,25.4059135 166.923506,25.4956576 C167.141612,25.5998765 167.340342,25.7113311 167.519704,25.8300249 C167.699067,25.9487186 167.853316,26.0775428 167.982457,26.2165013 C168.111598,26.3554598 168.211322,26.5059959 168.281632,26.6681142 C168.351942,26.8302324 168.387097,27.0082704 168.387097,27.2022333 C168.387097,27.4830453 168.336877,27.7341801 168.236434,27.9556452 C168.135991,28.1771103 167.993937,28.3645568 167.81027,28.5179902 C167.626603,28.6714235 167.404197,28.7879442 167.143046,28.8675559 C166.881893,28.9471675 166.590613,28.9869727 166.269195,28.9869727 C165.939169,28.9869727 165.649323,28.9435489 165.399651,28.8566998 C165.149979,28.7698508 164.941204,28.650435 164.77332,28.4984492 C164.605437,28.3464633 164.479167,28.1684254 164.394509,27.9643301 C164.30985,27.7602347 164.267521,27.5409441 164.267521,27.3064516 Z M166.312242,28.5787842 C166.504519,28.5787842 166.678857,28.5491112 166.835261,28.4897643 C166.991665,28.4304175 167.125109,28.3486358 167.235596,28.2444169 C167.346083,28.140198 167.431458,28.0157162 167.491724,27.8709678 C167.55199,27.7262193 167.582123,27.5684459 167.582123,27.3976427 C167.582123,27.2471044 167.55486,27.1074242 167.500333,26.978598 C167.445808,26.849772 167.356845,26.7252901 167.233443,26.6051489 C167.110042,26.4850077 166.950053,26.3677633 166.753472,26.253412 C166.55689,26.1390607 166.316548,26.019645 166.032438,25.8951613 C165.754068,26.0456997 165.533097,26.2411072 165.369518,26.4813897 C165.205939,26.7216721 165.124152,27.0097172 165.124152,27.3455335 C165.124152,27.5308115 165.149262,27.6987172 165.199483,27.8492556 C165.249705,27.999794 165.324318,28.129342 165.423327,28.2379033 C165.522335,28.3464646 165.646452,28.4304175 165.795681,28.4897643 C165.944911,28.5491112 166.117096,28.5787842 166.312242,28.5787842 Z M167.328146,23.9714641 C167.328146,23.8354005 167.31021,23.702234 167.274338,23.5719604 C167.238465,23.4416867 167.18107,23.325166 167.102151,23.2223945 C167.023232,23.1196232 166.91992,23.0371178 166.792214,22.974876 C166.664508,22.9126341 166.507389,22.8815137 166.320852,22.8815137 C166.157273,22.8815137 166.011633,22.9082917 165.883927,22.9618487 C165.756221,23.0154056 165.649322,23.0892262 165.563229,23.1833127 C165.477134,23.2773992 165.411848,23.3895776 165.367365,23.5198512 C165.322884,23.6501248 165.300643,23.7919761 165.300643,23.9454094 C165.300643,24.1046327 165.325753,24.2479316 165.375975,24.3753102 C165.426197,24.5026889 165.50081,24.6184859 165.599818,24.7227048 C165.698826,24.8269237 165.822943,24.9246274 165.972173,25.0158189 C166.121403,25.1070104 166.293588,25.1989243 166.488735,25.2915633 C166.655182,25.2076092 166.792213,25.1214852 166.899831,25.0331886 C167.007448,24.9448921 167.092823,24.8479121 167.155959,24.7422457 C167.219095,24.6365794 167.263576,24.5207823 167.289404,24.3948512 C167.315233,24.26892 167.328146,24.1277924 167.328146,23.9714641 Z" id="OFTHEEASTASIANWAROF1592-1598" fill="#000000"></path>
            </g>
        </g>
    </g>
</svg>