<?xml version="1.0" encoding="UTF-8"?>
<svg width="765px" height="146px" viewBox="0 0 765 146" version="1.1" xmlns="http://www.w3.org/2000/svg" xmlns:xlink="http://www.w3.org/1999/xlink">
    <title>stories-of-clay-logo-no-claim</title>
    <defs>
        <linearGradient x1="50%" y1="0%" x2="50%" y2="100%" id="linearGradient-1">
            <stop stop-color="#B5513C" offset="0%"></stop>
            <stop stop-color="#B6854E" offset="99.1313374%"></stop>
        </linearGradient>
        <linearGradient x1="50%" y1="0%" x2="50%" y2="99.1313374%" id="linearGradient-2">
            <stop stop-color="#B6854E" offset="0%"></stop>
            <stop stop-color="#B5513C" offset="100%"></stop>
        </linearGradient>
    </defs>
    <g id="Style-Guide" stroke="none" stroke-width="1" fill="none" fill-rule="evenodd">
        <g id="Style-Guide-Overview-Copy" transform="translate(-141.000000, -2101.000000)">
            <g id="Group-4" transform="translate(142.000000, 2101.000000)">
                <g id="logo-lines" transform="translate(0.000000, 129.356000)" stroke-linecap="square">
                    <path d="M0,7.3974359 C76.7364397,13.0641026 143.108005,15.8974359 199.114695,15.8974359 C283.124731,15.8974359 417.8681,0 529.699642,0 C604.254002,0 681.020789,1.96581197 760,5.8974359" id="Line" stroke="url(#linearGradient-1)"></path>
                    <path d="M0,7.98717949 C77.1001195,10.525641 143.653524,11.7948718 199.660215,11.7948718 C240.438335,11.7948718 417.8681,3.58974359 529.699642,3.58974359 C604.254002,3.58974359 681.020789,5.55555556 760,9.48717949" id="Line" stroke="url(#linearGradient-2)" opacity="0.801507994" transform="translate(380.000000, 7.692308) scale(1, -1) translate(-380.000000, -7.692308) "></path>
                </g>
                <path d="M25.996,99.964 C31.088,99.964 35.7556667,98.7803333 39.999,96.413 C44.2423333,94.0456667 47.6593333,90.8743333 50.25,86.899 C52.8406667,82.9236667 54.136,78.5686667 54.136,73.834 C54.136,70.886 53.5776667,68.2283333 52.461,65.861 C51.3443333,63.4936667 49.513,61.1933333 46.967,58.96 C44.421,56.7266667 40.9593333,54.404 36.582,51.992 C31.6686667,49.1333333 27.9166667,46.766 25.326,44.89 C22.7353333,43.014 20.9933333,41.1826667 20.1,39.396 C19.2066667,37.6093333 18.76,35.4653333 18.76,32.964 C18.76,29.0333333 19.631,25.5716667 21.373,22.579 C23.115,19.5863333 25.4823333,17.2413333 28.475,15.544 C31.4676667,13.8466667 34.8846667,12.998 38.726,12.998 C42.0313333,12.998 45.225,13.601 48.307,14.807 C50.7401579,15.7591053 52.7418061,16.9478449 54.3119446,18.3732188 L54.389,18.446 L53.6,28.81 C53.5196,29.2924 53.65628,29.72053 54.01004,30.09439 L54.136,30.217 C54.5826667,30.619 55.074,30.82 55.61,30.82 L55.61,30.82 L59.63,16.08 C56.0566667,14.2933333 52.595,12.931 49.245,11.993 C45.895,11.055 42.7906667,10.586 39.932,10.586 C35.1973333,10.586 30.9093333,11.6803333 27.068,13.869 C23.2266667,16.0576667 20.1893333,19.028 17.956,22.78 C15.7226667,26.532 14.606,30.7753333 14.606,35.51 C14.606,38.2793333 15.075,40.669 16.013,42.679 C16.951,44.689 18.693,46.699 21.239,48.709 C23.785,50.719 27.4253333,53.1086667 32.16,55.878 C36.5373333,58.3793333 39.9543333,60.6573333 42.411,62.712 C44.8676667,64.7666667 46.6096667,66.8213333 47.637,68.876 C48.6643333,70.9306667 49.178,73.2533333 49.178,75.844 C49.178,79.6853333 48.1506667,83.2586667 46.096,86.564 C44.0413333,89.8693333 41.3166667,92.5046667 37.922,94.47 C34.5273333,96.4353333 30.7753333,97.418 26.666,97.418 C24.4326667,97.418 21.9983333,97.1053333 19.363,96.48 C16.7276667,95.8546667 14.2263333,95.0283333 11.859,94.001 C10.3371429,93.3405714 8.99064796,92.6339949 7.81951531,91.8812704 L7.548,91.704 L9.38,77.05 C9.1388,76.8088 8.7167,76.67614 8.1137,76.65202 L7.906,76.648 C7.102,76.648 6.432,77.318 5.896,78.658 L5.896,78.658 L2.278,93.666 C4.69,94.9166667 7.28066667,96.011 10.05,96.949 C12.8193333,97.887 15.5886667,98.624 18.358,99.16 C21.1273333,99.696 23.6733333,99.964 25.996,99.964 Z M84.8013841,99.964 C86.5880508,99.964 88.4417174,99.562 90.3623841,98.758 C92.2830508,97.954 94.2037174,96.815 96.1243841,95.341 C98.0450508,93.867 99.8540508,92.1026667 101.551384,90.048 L101.551384,90.048 L100.345384,88.574 C98.2907174,90.8966667 96.0127174,92.728 93.5113841,94.068 C91.0100508,95.408 88.6427174,96.078 86.4093841,96.078 C83.1040508,96.078 81.4513841,93.8446667 81.4513841,89.378 C81.4513841,88.306 81.6970508,85.9833333 82.1883841,82.41 C82.6797174,78.8366667 83.3497174,74.504 84.1983841,69.412 C85.0470508,64.32 85.9403841,58.9153333 86.8783841,53.198 C87.4646341,49.6246667 88.0508841,46.112401 88.6371341,42.6612031 L88.753,41.982 L104.767384,42.344 C105.158217,42.1876667 105.497754,41.9116406 105.785993,41.5159219 L105.906384,41.339 C106.219051,40.8476667 106.464717,40.3116667 106.643384,39.731 C106.822051,39.1503333 106.911384,38.6366667 106.911384,38.19 L106.911384,38.19 L89.256,39.038 L89.3406341,38.5490781 L89.3406341,38.5490781 L89.6923841,36.515 C90.6303841,31.1103333 91.4567174,26.3086667 92.1713841,22.11 C91.2780508,22.2886667 90.5410508,22.579 89.9603841,22.981 C89.3797174,23.383 88.7320508,23.9413333 88.0173841,24.656 C87.3027174,29.1226667 86.4763841,34.0583333 85.5383841,39.463 L85.581,39.215 L76.2253841,39.664 C76.0690508,39.7421667 75.8956185,39.940026 75.7050872,40.2575781 L75.6223841,40.401 C75.3990508,40.803 75.2427174,41.2273333 75.1533841,41.674 L75.1533841,41.674 L85.118,41.899 L84.8390716,43.5206875 C84.3756549,46.2286042 83.9178216,48.9421042 83.4655716,51.6611875 L82.7913841,55.744 C81.8980508,61.1933333 81.0493841,66.3076667 80.2453841,71.087 C79.4413841,75.8663333 78.8160508,79.9533333 78.3693841,83.348 C77.9227174,86.7426667 77.6993841,89.0206667 77.6993841,90.182 C77.6993841,93.3086667 78.3247174,95.7206667 79.5753841,97.418 C80.8260508,99.1153333 82.5680508,99.964 84.8013841,99.964 Z M131.546768,99.964 C135.834768,99.964 139.899435,98.8696667 143.740768,96.681 C147.582102,94.4923333 150.999102,91.522 153.991768,87.77 C156.984435,84.018 159.351768,79.73 161.093768,74.906 C162.835768,70.082 163.706768,64.99 163.706768,59.63 C163.706768,52.3046667 162.188102,46.6096667 159.150768,42.545 C156.113435,38.4803333 151.825435,36.448 146.286768,36.448 C142.088102,36.448 138.112768,37.5423333 134.360768,39.731 C130.608768,41.9196667 127.281102,44.9123333 124.377768,48.709 C121.474435,52.5056667 119.196435,56.8606667 117.543768,61.774 C115.891102,66.6873333 115.064768,71.9133333 115.064768,77.452 C115.064768,84.688 116.494102,90.249 119.352768,94.135 C122.211435,98.021 126.276102,99.964 131.546768,99.964 Z M133.556768,97.418 C129.090102,97.418 125.583768,95.5866667 123.037768,91.924 C120.491768,88.2613333 119.218768,83.1693333 119.218768,76.648 C119.218768,71.556 119.888768,66.7543333 121.228768,62.243 C122.568768,57.7316667 124.422435,53.7116667 126.789768,50.183 C129.157102,46.6543333 131.859435,43.885 134.896768,41.875 C137.934102,39.865 141.105435,38.86 144.410768,38.86 C149.056102,38.86 152.741102,40.803 155.465768,44.689 C158.190435,48.575 159.552768,53.8233333 159.552768,60.434 C159.552768,67.0446667 158.369102,73.164 156.001768,78.792 C153.634435,84.42 150.485435,88.9313333 146.554768,92.326 C142.624102,95.7206667 138.291435,97.418 133.556768,97.418 Z M184.992152,99.964 C185.706819,99.964 186.510819,99.8746667 187.404152,99.696 C188.297486,99.5173333 189.101486,99.2493333 189.816152,98.892 L189.816152,98.892 L188.183,92.361 L192.496152,65.526 C193.797867,57.6289333 196.069048,51.4811227 199.309697,47.0825682 L199.598152,46.699 C202.992819,42.277 206.700152,40.066 210.720152,40.066 C212.864152,40.066 214.293486,40.6466667 215.008152,41.808 C215.722819,42.9693333 216.080152,44.3093333 216.080152,45.828 C216.080152,46.632 216.013152,47.4583333 215.879152,48.307 C215.745152,49.1556667 215.588819,49.9373333 215.410152,50.652 C216.750152,50.652 217.933819,50.0266667 218.961152,48.776 C219.988486,47.5253333 220.502152,45.8726667 220.502152,43.818 C220.502152,41.4953333 219.854486,39.664 218.559152,38.324 C217.263819,36.984 215.365486,36.314 212.864152,36.314 C208.754819,36.314 205.159152,37.8996667 202.077152,41.071 C198.995152,44.2423333 196.560819,47.7933333 194.774152,51.724 L194.774152,51.724 L194.238152,51.724 C194.684819,49.4013333 194.975152,47.5476667 195.109152,46.163 C195.243152,44.7783333 195.310152,43.148 195.310152,41.272 C195.310152,39.7533333 194.952819,38.5696667 194.238152,37.721 C193.523486,36.8723333 192.138819,36.448 190.084152,36.448 C188.654819,36.448 187.180819,36.783 185.662152,37.453 C184.143486,38.123 182.580152,39.2173333 180.972152,40.736 L180.972152,40.736 L181.508152,42.21 C182.758819,41.4953333 184.031819,40.9593333 185.327152,40.602 C186.622486,40.2446667 187.984819,40.066 189.414152,40.066 C190.128819,40.066 190.865819,40.133 191.625152,40.267 C191.720069,40.28375 191.815335,40.3029427 191.910949,40.3245781 L191.941,40.333 L191.933028,40.6699273 C191.854668,43.5531684 191.606528,46.7629089 191.188609,50.2991488 L191.089152,51.121 C190.508486,55.811 189.793819,60.635 188.945152,65.593 C188.096486,70.551 187.247819,75.2856667 186.399152,79.797 C185.550486,84.3083333 184.835819,88.2166667 184.255152,91.522 C183.674486,94.8273333 183.384152,97.1053333 183.384152,98.356 C183.384152,98.892 183.495819,99.294 183.719152,99.562 C183.942486,99.83 184.366819,99.964 184.992152,99.964 Z M244.333536,22.78 C245.048203,22.78 245.76287,22.6013333 246.477536,22.244 C247.192203,21.8866667 247.77287,21.3506667 248.219536,20.636 C248.666203,19.9213333 248.889536,19.1173333 248.889536,18.224 C248.889536,17.3306667 248.621536,16.616 248.085536,16.08 C247.549536,15.544 246.70087,15.276 245.539536,15.276 C244.914203,15.276 244.266536,15.4546667 243.596536,15.812 C242.926536,16.1693333 242.34587,16.683 241.854536,17.353 C241.363203,18.023 241.117536,18.8493333 241.117536,19.832 C241.117536,20.636 241.385536,21.3283333 241.921536,21.909 C242.457536,22.4896667 243.261536,22.78 244.333536,22.78 Z M235.623536,99.964 C236.427536,99.964 237.25387,99.8746667 238.102536,99.696 C238.951203,99.5173333 239.93387,99.0706667 241.050536,98.356 C242.167203,97.6413333 243.48487,96.5246667 245.003536,95.006 L245.003536,95.006 L244.333536,93.532 C243.172203,94.2466667 242.122536,94.805 241.184536,95.207 C240.246536,95.609 239.152203,95.81 237.901536,95.81 C235.84687,95.81 234.819536,94.5593333 234.819536,92.058 C234.819536,89.7353333 235.154536,86.6533333 235.824536,82.812 C236.494536,78.9706667 237.32087,74.8836667 238.303536,70.551 C239.286203,66.2183333 240.246536,62.0196667 241.184536,57.955 C242.122536,53.8903333 242.926536,50.3393333 243.596536,47.302 C244.266536,44.2646667 244.601536,42.2546667 244.601536,41.272 C244.601536,39.7533333 244.199536,38.5696667 243.395536,37.721 C242.591536,36.8723333 241.028203,36.448 238.705536,36.448 C237.276203,36.448 235.802203,36.783 234.283536,37.453 C232.76487,38.123 231.201536,39.2173333 229.593536,40.736 L229.593536,40.736 L230.129536,42.21 C231.380203,41.4953333 232.653203,40.9593333 233.948536,40.602 C235.24387,40.2446667 236.606203,40.066 238.035536,40.066 C238.750203,40.066 239.487203,40.133 240.246536,40.267 C240.626203,40.334 241.011453,40.4400833 241.402286,40.58525 L241.499,40.624 L241.386644,41.2033388 C240.837355,44.0088485 240.229002,46.9679229 239.561586,50.080562 L239.308536,51.255 C238.370536,55.5876667 237.410203,59.9203333 236.427536,64.253 C235.44487,68.5856667 234.529203,72.6726667 233.680536,76.514 C232.83187,80.3553333 232.16187,83.683 231.670536,86.497 C231.179203,89.311 230.933536,91.2986667 230.933536,92.46 C230.933536,94.9613333 231.380203,96.8373333 232.273536,98.088 C233.16687,99.3386667 234.283536,99.964 235.623536,99.964 Z M278.884921,99.964 C283.351587,99.964 287.416254,98.7803333 291.078921,96.413 C294.741587,94.0456667 298.225587,90.5393333 301.530921,85.894 L301.530921,85.894 L300.324921,84.688 C297.019587,88.8866667 293.825921,91.991 290.743921,94.001 C287.661921,96.011 284.423587,97.016 281.028921,97.016 C276.294254,97.016 272.564587,95.14 269.839921,91.388 C267.115254,87.636 265.752921,82.7226667 265.752921,76.648 C265.752921,75.308 265.807445,73.959276 265.916495,72.6018281 L265.986,71.812 L266.020921,71.8116992 C274.359629,71.6927917 281.524441,70.7118044 287.515358,68.8687373 L288.130921,68.675 C294.652254,66.5756667 299.587921,63.7616667 302.937921,60.233 C306.287921,56.7043333 307.962921,52.8406667 307.962921,48.642 C307.962921,44.9793333 306.756921,42.0313333 304.344921,39.798 C301.932921,37.5646667 298.448921,36.448 293.892921,36.448 C289.158254,36.448 284.803254,37.654 280.827921,40.066 C276.852587,42.478 273.413254,45.694 270.509921,49.714 C267.606587,53.734 265.373254,58.1783333 263.809921,63.047 C262.246587,67.9156667 261.464921,72.762 261.464921,77.586 C261.464921,84.4646667 262.827254,89.914 265.551921,93.934 C268.276587,97.954 272.720921,99.964 278.884921,99.964 Z M266.183,70.063 L266.282901,69.3272031 C266.557706,67.4072344 266.939379,65.4701667 267.427921,63.516 C268.544587,59.0493333 270.219587,54.94 272.452921,51.188 C274.686254,47.436 277.455587,44.3986667 280.760921,42.076 C284.066254,39.7533333 287.907587,38.592 292.284921,38.592 C295.500921,38.592 298.113921,39.4406667 300.123921,41.138 C302.133921,42.8353333 303.138921,45.2026667 303.138921,48.24 C303.138921,52.26 301.999921,55.6546667 299.721921,58.424 C297.443921,61.1933333 294.406587,63.4266667 290.609921,65.124 C286.813254,66.8213333 282.659254,68.072 278.147921,68.876 C274.330638,69.5563077 270.497366,69.9487929 266.648104,70.0534556 L266.183,70.063 Z M334.742305,99.964 C338.762305,99.964 342.313305,99.2493333 345.395305,97.82 C348.477305,96.3906667 350.889305,94.47 352.631305,92.058 C354.373305,89.646 355.244305,86.966 355.244305,84.018 C355.244305,81.07 354.328638,78.5016667 352.497305,76.313 C350.665971,74.1243333 348.387971,72.1143333 345.663305,70.283 C342.938638,68.4516667 340.213971,66.598 337.489305,64.722 C334.764638,62.846 332.486638,60.769 330.655305,58.491 C328.823971,56.213 327.908305,53.5106667 327.908305,50.384 C327.908305,46.8106667 329.315305,43.9296667 332.129305,41.741 C334.943305,39.5523333 338.717638,38.458 343.452305,38.458 C346.936305,38.458 349.750305,39.3513333 351.894305,41.138 C354.038305,42.9246667 355.110305,45.5153333 355.110305,48.91 C355.110305,50.0713333 354.998638,51.1656667 354.775305,52.193 C354.551971,53.2203333 354.306305,54.0913333 354.038305,54.806 C354.484971,54.9846667 354.909305,55.0963333 355.311305,55.141 C355.713305,55.1856667 356.003638,55.208 356.182305,55.208 C357.700971,55.208 358.661305,54.4263333 359.063305,52.863 C359.465305,51.2996667 359.666305,49.982 359.666305,48.91 C359.666305,46.3193333 358.996305,44.1083333 357.656305,42.277 C356.316305,40.4456667 354.462638,39.0163333 352.095305,37.989 C349.727971,36.9616667 347.025638,36.448 343.988305,36.448 C340.236305,36.448 336.863971,37.1626667 333.871305,38.592 C330.878638,40.0213333 328.533638,41.9643333 326.836305,44.421 C325.138971,46.8776667 324.290305,49.6693333 324.290305,52.796 C324.290305,55.8333333 325.228305,58.491 327.104305,60.769 C328.980305,63.047 331.302971,65.1016667 334.072305,66.933 C336.841638,68.7643333 339.588638,70.5733333 342.313305,72.36 C345.037971,74.1466667 347.293638,76.1343333 349.080305,78.323 C350.866971,80.5116667 351.715638,83.08 351.626305,86.028 C351.536971,89.6013333 350.107638,92.4823333 347.338305,94.671 C344.568971,96.8596667 340.548971,97.954 335.278305,97.954 C331.883638,97.954 328.868638,96.9266667 326.233305,94.872 C323.597971,92.8173333 322.280305,89.914 322.280305,86.162 C322.280305,84.9113333 322.391971,83.7946667 322.615305,82.812 C322.838638,81.8293333 323.084305,80.9806667 323.352305,80.266 C322.905638,80.0873333 322.481305,79.9756667 322.079305,79.931 C321.677305,79.8863333 321.386971,79.864 321.208305,79.864 C319.778971,79.864 318.840971,80.6456667 318.394305,82.209 C317.947638,83.7723333 317.724305,85.09 317.724305,86.162 C317.724305,88.9313333 318.528305,91.3433333 320.136305,93.398 C321.744305,95.4526667 323.843638,97.0606667 326.434305,98.222 C329.024971,99.3833333 331.794305,99.964 334.742305,99.964 Z M422.605073,99.964 C426.893073,99.964 430.957739,98.8696667 434.799073,96.681 C438.640406,94.4923333 442.057406,91.522 445.050073,87.77 C448.042739,84.018 450.410073,79.73 452.152073,74.906 C453.894073,70.082 454.765073,64.99 454.765073,59.63 C454.765073,52.3046667 453.246406,46.6096667 450.209073,42.545 C447.171739,38.4803333 442.883739,36.448 437.345073,36.448 C433.146406,36.448 429.171073,37.5423333 425.419073,39.731 C421.667073,41.9196667 418.339406,44.9123333 415.436073,48.709 C412.532739,52.5056667 410.254739,56.8606667 408.602073,61.774 C406.949406,66.6873333 406.123073,71.9133333 406.123073,77.452 C406.123073,84.688 407.552406,90.249 410.411073,94.135 C413.269739,98.021 417.334406,99.964 422.605073,99.964 Z M424.615073,97.418 C420.148406,97.418 416.642073,95.5866667 414.096073,91.924 C411.550073,88.2613333 410.277073,83.1693333 410.277073,76.648 C410.277073,71.556 410.947073,66.7543333 412.287073,62.243 C413.627073,57.7316667 415.480739,53.7116667 417.848073,50.183 C420.215406,46.6543333 422.917739,43.885 425.955073,41.875 C428.992406,39.865 432.163739,38.86 435.469073,38.86 C440.114406,38.86 443.799406,40.803 446.524073,44.689 C449.248739,48.575 450.611073,53.8233333 450.611073,60.434 C450.611073,67.0446667 449.427406,73.164 447.060073,78.792 C444.692739,84.42 441.543739,88.9313333 437.613073,92.326 C433.682406,95.7206667 429.349739,97.418 424.615073,97.418 Z M457.826457,132.928 C460.953124,132.928 463.67779,132.012333 466.000457,130.181 C468.323124,128.349667 470.333124,125.446333 472.030457,121.471 C473.72779,117.495667 475.20179,112.359 476.452457,106.061 C477.703124,99.763 478.864457,92.1473333 479.936457,83.214 L479.936457,83.214 L484.812,42 L500.036457,42.344 C500.42729,42.1876667 500.766827,41.9116406 501.055066,41.5159219 L501.175457,41.339 C501.488124,40.8476667 501.73379,40.3116667 501.912457,39.731 C502.091124,39.1503333 502.180457,38.6366667 502.180457,38.19 L502.180457,38.19 L485.166,39.007 L487.038457,23.182 C487.366012,20.4796667 487.993827,17.7960995 488.921901,15.1312986 L489.182457,14.405 C490.254457,11.5016667 491.81779,9.08966667 493.872457,7.169 C495.927124,5.24833333 498.607124,4.288 501.912457,4.288 C503.252457,4.288 504.54779,4.556 505.798457,5.092 C507.049124,5.628 508.43379,6.52133333 509.952457,7.772 C510.399124,7.05733333 510.689457,6.499 510.823457,6.097 C510.957457,5.695 511.024457,5.27066667 511.024457,4.824 C511.024457,3.39466667 510.265124,2.23333333 508.746457,1.34 C507.22779,0.446666667 505.441124,0 503.386457,0 C499.18779,0 495.659124,1.51866667 492.800457,4.556 C489.94179,7.59333333 487.59679,12.194 485.765457,18.358 C484.117257,23.9056 482.740407,30.75568 481.634907,38.90824 L481.598,39.179 L471.494457,39.664 C471.338124,39.7421667 471.164691,39.940026 470.97416,40.2575781 L470.891457,40.401 C470.668124,40.803 470.51179,41.2273333 470.422457,41.674 L470.422457,41.674 L481.246,41.919 L472.700457,111.354 C472.456821,113.627939 471.954782,115.957251 471.194341,118.341934 L470.958457,119.059 C470.065124,121.694333 468.725124,123.905333 466.938457,125.692 C465.15179,127.478667 462.73979,128.372 459.702457,128.372 C458.273124,128.372 456.84379,128.059333 455.414457,127.434 C453.985124,126.808667 452.645124,125.96 451.394457,124.888 C451.037124,125.513333 450.769124,126.049333 450.590457,126.496 C450.41179,126.942667 450.322457,127.478667 450.322457,128.104 C450.322457,129.533333 451.14879,130.694667 452.801457,131.588 C454.454124,132.481333 456.129124,132.928 457.826457,132.928 Z M571.819225,99.964 C576.553892,99.964 581.444892,99.0706667 586.492225,97.284 C591.539558,95.4973333 596.117892,93.0853333 600.227225,90.048 L600.227225,90.048 L602.103225,75.174 C602.192558,74.4593333 601.969225,73.9233333 601.433225,73.566 C600.897225,73.2086667 600.048558,73.03 598.887225,73.03 L598.887225,73.03 L595.54,87.851 L595.359702,88.0448608 C593.396656,90.0953824 590.90104,91.8448864 587.872854,93.2933728 L587.363225,93.532 C583.075225,95.4973333 578.608558,96.48 573.963225,96.48 C566.012558,96.48 559.736892,93.5766667 555.136225,87.77 C550.535558,81.9633333 548.235225,74.0573333 548.235225,64.052 C548.235225,54.2253333 549.910225,45.5823333 553.260225,38.123 C556.610225,30.6636667 561.277892,24.857 567.263225,20.703 C573.248558,16.549 580.216558,14.472 588.167225,14.472 C592.097892,14.472 595.827558,15.008 599.356225,16.08 C602.271211,16.9655652 604.500364,18.0340189 606.043686,19.2853611 L606.125,19.355 L604.917225,30.954 C604.836013,31.4412727 604.994746,31.8916309 605.393423,32.3050744 L605.520225,32.428 C606.011558,32.8746667 606.569892,33.098 607.195225,33.098 L607.195225,33.098 L612.019225,17.018 C609.071225,14.874 605.855225,13.266 602.371225,12.194 C598.887225,11.122 595.179892,10.586 591.249225,10.586 C584.549225,10.586 578.273558,12.0376667 572.422225,14.941 C566.570892,17.8443333 561.434225,21.8866667 557.012225,27.068 C552.590225,32.2493333 549.128558,38.2123333 546.627225,44.957 C544.125892,51.7016667 542.875225,58.96 542.875225,66.732 C542.875225,73.432 544.058892,79.2833333 546.426225,84.286 C548.793558,89.2886667 552.143558,93.1523333 556.476225,95.877 C560.808892,98.6016667 565.923225,99.964 571.819225,99.964 Z M631.562609,99.964 C632.366609,99.964 633.192943,99.8746667 634.041609,99.696 C634.890276,99.5173333 635.872943,99.0706667 636.989609,98.356 C638.106276,97.6413333 639.423943,96.5246667 640.942609,95.006 L640.942609,95.006 L640.272609,93.532 C639.111276,94.2466667 638.061609,94.805 637.123609,95.207 C636.185609,95.609 635.091276,95.81 633.840609,95.81 C631.785943,95.81 630.758609,94.5593333 630.758609,92.058 C630.758609,88.6633333 631.071276,84.3753333 631.696609,79.194 C632.321943,74.0126667 633.103609,68.407 634.041609,62.377 C634.979609,56.347 635.984609,50.2723333 637.056609,44.153 C638.128609,38.0336667 639.133609,32.2716667 640.071609,26.867 C640.614662,23.7379825 641.105315,20.8634783 641.543568,18.2434875 L641.777418,16.8396427 C642.006072,15.4610388 642.219136,14.1581579 642.416609,12.931 C643.041943,9.045 643.354609,6.38733333 643.354609,4.958 C643.354609,3.43933333 642.952609,2.25566667 642.148609,1.407 C641.344609,0.558333333 639.781276,0.134 637.458609,0.134 C636.029276,0.134 634.555276,0.469 633.036609,1.139 C631.517943,1.809 629.954609,2.90333333 628.346609,4.422 L628.346609,4.422 L628.882609,5.896 C630.133276,5.18133333 631.406276,4.64533333 632.701609,4.288 C633.996943,3.93066667 635.359276,3.752 636.788609,3.752 C637.503276,3.752 638.240276,3.819 638.999609,3.953 C639.379276,4.02 639.764526,4.12608333 640.155359,4.27125 L640.323,4.338 L640.174938,5.37727111 C639.42692,10.5562222 638.578849,16.0496267 637.630725,21.8574844 L637.391609,23.316 C636.185609,30.6413333 634.979609,37.9443333 633.773609,45.225 C632.567609,52.5056667 631.428609,59.362 630.356609,65.794 C629.284609,72.226 628.435943,77.787 627.810609,82.477 C627.185276,87.167 626.872609,90.4946667 626.872609,92.46 C626.872609,94.9613333 627.319276,96.8373333 628.212609,98.088 C629.105943,99.3386667 630.222609,99.964 631.562609,99.964 Z M696.531993,99.964 C697.78266,99.964 699.100327,99.696 700.484993,99.16 C701.86966,98.624 703.67866,97.2393333 705.911993,95.006 L705.911993,95.006 L705.241993,93.532 C704.08066,94.2466667 703.030993,94.805 702.092993,95.207 C701.154993,95.609 700.06066,95.81 698.809993,95.81 C697.64866,95.81 696.84466,95.5196667 696.397993,94.939 C695.951327,94.3583333 695.727993,93.398 695.727993,92.058 C695.727993,88.6633333 696.04066,84.688 696.665993,80.132 C697.291327,75.576 698.072993,70.9306667 699.010993,66.196 C699.948993,61.4613333 700.86466,56.9946667 701.757993,52.796 C702.651327,48.5973333 703.41066,45.1133333 704.035993,42.344 C704.661327,39.5746667 704.973993,37.9666667 704.973993,37.52 C704.973993,37.0733333 704.772993,36.783 704.370993,36.649 C703.968993,36.515 703.41066,36.448 702.695993,36.448 L702.695993,36.448 L701.133,39.051 L700.901882,38.927 C699.746753,38.3277222 698.538426,37.8424375 697.276903,37.4711458 L696.732993,37.319 C694.544327,36.7383333 692.15466,36.448 689.563993,36.448 C684.739993,36.448 680.250993,37.4753333 676.096993,39.53 C671.942993,41.5846667 668.324993,44.4656667 665.242993,48.173 C662.160993,51.8803333 659.771327,56.213 658.073993,61.171 C656.37666,66.129 655.527993,71.5113333 655.527993,77.318 C655.527993,84.6433333 656.957327,90.249 659.815993,94.135 C662.67466,98.021 666.783993,99.964 672.143993,99.964 C676.61066,99.964 680.541327,98.4006667 683.935993,95.274 C687.33066,92.1473333 690.01066,87.6806667 691.975993,81.874 L691.975993,81.874 L692.779993,81.874 C692.511993,83.5713333 692.28866,85.3133333 692.109993,87.1 C691.931327,88.8866667 691.841993,90.6733333 691.841993,92.46 C691.841993,94.9613333 692.28866,96.8373333 693.181993,98.088 C694.075327,99.3386667 695.191993,99.964 696.531993,99.964 Z M673.349993,97.016 C669.865993,97.016 667.141327,95.8993333 665.175993,93.666 C663.21066,91.4326667 661.825993,88.708 661.021993,85.492 C660.217993,82.276 659.815993,79.2833333 659.815993,76.514 C659.815993,70.886 660.59766,65.7716667 662.160993,61.171 C663.724327,56.5703333 665.89066,52.6173333 668.659993,49.312 C671.429327,46.0066667 674.645327,43.4383333 678.307993,41.607 C681.97066,39.7756667 685.901327,38.86 690.099993,38.86 C692.869327,38.86 695.325993,39.1503333 697.469993,39.731 C698.541993,40.0213333 699.502327,40.3284167 700.350993,40.65225 L700.509,40.715 L700.487433,40.8301207 C698.570718,50.7560673 696.73218,59.1966264 694.971821,66.1517981 L694.789993,66.866 C692.913993,74.1913333 690.970993,80.065 688.960993,84.487 C686.950993,88.909 684.695327,92.1026667 682.193993,94.068 C679.69266,96.0333333 676.74466,97.016 673.349993,97.016 Z M709.643377,134.536 C713.038044,134.536 716.321044,133.084333 719.492377,130.181 C722.663711,127.277667 725.902044,123.012 729.207377,117.384 C732.512711,111.756 736.063711,104.877333 739.860377,96.748 C743.657044,88.6186667 747.833377,79.3726667 752.389377,69.01 C753.997377,65.3473333 755.493711,61.8633333 756.878377,58.558 C758.263044,55.2526667 759.469044,52.2153333 760.496377,49.446 C761.523711,46.6766667 762.327711,44.3093333 762.908377,42.344 C763.489044,40.3786667 763.779377,38.9493333 763.779377,38.056 C763.779377,37.4306667 763.667711,37.0063333 763.444377,36.783 C763.221044,36.5596667 762.796711,36.448 762.171377,36.448 C761.278044,36.448 760.407044,36.5373333 759.558377,36.716 C758.709711,36.8946667 757.972711,37.1626667 757.347377,37.52 L757.347377,37.52 L758.744,43.109 L758.54862,43.8116568 C757.158403,48.7382051 755.556746,53.7836884 753.74365,58.9481065 L753.193377,60.501 C750.781377,67.2456667 748.190711,73.834 745.421377,80.266 C743.291121,85.2136923 741.134435,89.9235148 738.951318,94.3954675 L738.614,95.082 L738.5576,94.6957156 C737.834992,89.8387615 736.944637,84.6127615 735.886533,79.0177156 L735.639377,77.72 C734.388711,71.1986667 733.071044,64.7666667 731.686377,58.424 C730.301711,52.0813333 728.939377,46.498 727.599377,41.674 C727.063377,39.7086667 726.326377,38.3463333 725.388377,37.587 C724.450377,36.8276667 722.909377,36.448 720.765377,36.448 C719.604044,36.448 718.353377,36.7383333 717.013377,37.319 C715.673377,37.8996667 714.288711,38.8153333 712.859377,40.066 L712.859377,40.066 L713.395377,41.54 C715.628711,40.5573333 717.862044,40.066 720.095377,40.066 C720.899377,40.066 721.703377,40.1553333 722.507377,40.334 C722.737092,40.3850476 722.959513,40.4433878 723.174643,40.5090204 L723.279,40.544 L723.450239,41.1094376 C725.853123,49.1312063 728.042702,57.7600771 730.018974,66.9960499 L730.346377,68.541 C732.624377,79.395 734.478044,89.914 735.907377,100.098 L735.851,99.705 L735.829385,99.7538398 C734.374229,102.97996 732.971416,105.970533 731.620948,108.725559 L731.217377,109.545 C729.073377,113.877667 726.840044,117.540333 724.517377,120.533 C722.194711,123.525667 719.514711,125.803667 716.477377,127.367 C713.440044,128.930333 709.822044,129.712 705.623377,129.712 C705.623377,130.873333 705.779711,131.811333 706.092377,132.526 C706.405044,133.240667 706.851711,133.754333 707.432377,134.067 C708.013044,134.379667 708.750044,134.536 709.643377,134.536 Z" id="StoriesofClay" fill="#E7D1B7" fill-rule="nonzero"></path>
            </g>
        </g>
    </g>
</svg>