<?xml version="1.0" encoding="UTF-8"?>
<svg width="359px" height="49px" viewBox="0 0 359 49" version="1.1" xmlns="http://www.w3.org/2000/svg" xmlns:xlink="http://www.w3.org/1999/xlink">
    <title>web-design-barcelona-vueloiv</title>
    <g id="Page-1" stroke="none" stroke-width="1" fill="none" fill-rule="evenodd">
        <g id="Outlines" transform="translate(-3.000000, -72.000000)" fill="#FFFFFF" fill-rule="nonzero">
            <g id="web-design-barcelona-vueloiv" transform="translate(3.000000, 72.000000)">
                <g id="Group" transform="translate(217.000000, 0.000000)">
                    <path d="M40.611,12.533 C41.029,12.395 41.308,12.104 41.308,11.711 C41.308,10.226 39.708,8.897 37.881,8.897 C26.455,8.897 13.187,33.757 9.3,37.647 C8.776,38.168 7.793,38.034 7.793,36.927 C7.793,33.536 10.074,26.991 12.796,21.73 C13.531,20.309 8.59,17.619 7.175,19.035 C4.79,21.422 0.942,33.894 0.942,42.808 C0.942,46.154 4.1,48.526 6.467,48.526 C7.471,48.526 7.889,48.362 8.403,47.848 C10.883,45.368 16.762,33.054 29.545,20.272 C34.376,15.441 38.076,13.362 40.611,12.533" id="Path"></path>
                    <path d="M39.117,41.858 C41.204,41.858 45.164,38.751 47.653,35.738 C48.946,39.45 52.39,40.922 55.79,40.922 C59.272,40.922 62.802,39.573 66.184,37.408 C66.815,43.144 71.181,47.137 76.37,47.137 C81.632,47.137 82.493,45.043 82.493,44.399 C82.493,43.753 82.222,43.646 80.29,43.646 C75.715,43.646 72.103,38.931 71.731,33.053 C80.661,24.758 87.443,12.263 87.443,7.64 C87.443,5.455 86.256,4.66 84.532,4.66 C77.762,4.66 68.068,17.713 66.364,31.748 C63.481,33.716 60.397,34.979 57.265,34.979 C54.358,34.979 52.842,33.953 52.674,31.237 C53.508,31.787 54.569,32.151 55.661,32.151 C60.753,32.151 65.32,26.516 65.32,22.725 C65.32,20.295 63.229,17.895 60.329,17.895 C53.333,17.895 47.784,25.348 47.177,31.264 C45.974,32.343 43.346,34.583 42.285,34.583 C41.965,34.583 41.714,34.333 41.714,33.796 C41.714,29.286 46.778,22.699 46.778,22.094 C46.778,20.733 45.525,19.409 44.095,19.409 C43.521,19.409 42.895,19.569 42.341,20.124 C41.784,20.68 30.714,35.542 27.932,35.542 C27.538,35.542 27.365,35.313 27.365,34.99 C27.365,32.78 33.189,26.023 33.189,25.728 C33.189,24.811 31.765,23.494 30.682,23.494 C28.784,23.494 20.788,34.98 20.788,38.847 C20.788,41.102 23.258,42.859 24.762,42.859 C27.876,42.859 35.556,34.704 35.556,34.704 C35.556,34.704 35.063,36.343 35.063,37.784 C35.064,40.149 37.079,41.858 39.117,41.858 M83.135,9.028 C84.06,9.028 79.495,18.72 72.566,26.259 C75.046,17.383 82.077,9.028 83.135,9.028 M60.463,21.79 C63.201,21.79 58.824,28.315 55.443,28.315 C54.483,28.315 53.847,28.066 53.426,27.777 C55.03,24.555 58.725,21.79 60.463,21.79" id="Shape"></path>
                    <path d="M99.581,19.267 C99.581,17.387 97.326,15.777 94.961,15.777 C86.693,15.777 79.69,25.955 79.69,31.136 C79.69,35.87 82.661,38.722 85.991,38.722 C91.415,38.722 99.259,30.803 99.259,24.66 C99.259,22.514 98.793,21.114 98.081,20.197 C98.249,20.218 98.397,20.234 98.509,20.234 C99.099,20.233 99.581,19.75 99.581,19.267 M86.841,32.29 C85.766,32.29 85.07,31.268 85.07,30.25 C85.07,27.264 87.764,23.258 90.898,21.2 C91.152,21.181 91.411,21.165 91.683,21.165 C93.079,21.165 94.538,22.078 94.538,23.529 C94.538,27.165 89.257,32.29 86.841,32.29" id="Shape"></path>
                    <path d="M138.198,0.969 C137.446,0.969 137.219,1.175 137.219,1.506 C137.219,4.015 123.057,27.966 119.464,27.966 C119.155,27.966 119.052,27.739 119.052,27.383 C119.052,24.265 122.148,15.46 123.749,11.629 C123.982,11.066 123.391,10.259 122.523,9.79 C127.206,9.14 131.407,8.289 132.296,7.4 C133.004,6.69 133.302,5.592 133.302,5.081 C133.302,4.109 132.685,3.78 131.791,3.78 C130.216,3.78 116.587,6.464 106.7,6.464 C105.535,6.464 105.35,6.208 104.615,6.208 C103.994,6.208 103.851,6.801 103.851,7.406 C103.851,8.552 104.757,10.994 108.973,10.994 C109.437,10.994 110.021,10.976 110.69,10.945 C110.103,11.264 109.752,11.687 109.752,12.099 C109.752,15.589 101.447,33.256 101.447,35.835 C101.447,36.718 102.334,37.664 103.387,38.279 C98.685,39.329 95.143,40.619 95.143,42.041 C95.143,42.76 95.39,43.437 95.869,43.437 C97.084,43.437 107.284,40.393 124.561,40.393 C126.409,40.393 127.316,40.253 127.316,39.001 C127.316,37.249 126.441,35.539 125.159,35.539 C124.138,35.539 122.62,35.617 120.802,35.765 C127.358,28.703 141.416002,8.789 141.416002,4.267 C141.418,2.334 139.82,0.969 138.198,0.969 M106.82,37.591 C106.886,33.817 115.876,13.169 115.876,11.991 C115.876,11.466 115.394,10.965 114.554,10.679 C116.035,10.552 117.654,10.391 119.292,10.201 C118.399,11.292 113.187,26.524 113.187,33.875 C113.187,34.534 113.718,35.54 114.503,36.425 C111.983,36.739 109.326,37.132 106.82,37.591" id="Shape"></path>
                </g>
                <path d="M17.8546667,43 L21.1866667,32.528 L24.3506667,43 L31.4346667,43 L37.7066667,23.4 L31.4346667,23.4 L27.8226667,34.684 L24.4066667,23.4 L18.3306667,23.4 L14.7186667,34.544 L11.3026667,23.4 L4.49866667,23.4 L10.7706667,43 L17.8546667,43 Z M56.392,43 L56.392,38.016 L46.592,38.016 L46.592,35.44 L54.88,35.44 L54.88,30.68 L46.592,30.68 L46.592,28.384 L56.028,28.384 L56.028,23.4 L40.096,23.4 L40.096,43 L56.392,43 Z M70.9053333,43 C73.5933333,43 75.6466667,42.5286667 77.0653333,41.586 C78.484,40.6433333 79.1933333,39.3133333 79.1933333,37.596 C79.1933333,36.4386667 78.876,35.4493333 78.2413333,34.628 C77.6066667,33.8066667 76.7106667,33.1813333 75.5533333,32.752 C76.4493333,32.304 77.126,31.716 77.5833333,30.988 C78.0406667,30.26 78.2693333,29.4386667 78.2693333,28.524 C78.2693333,26.9746667 77.602,25.7333333 76.2673333,24.8 C74.9326667,23.8666667 72.9586667,23.4 70.3453333,23.4 L70.3453333,23.4 L59.8733333,23.4 L59.8733333,43 L70.9053333,43 Z M69.4493333,30.932 L66.3693333,30.932 L66.3693333,28.02 L69.4493333,28.02 C70.8866667,28.02 71.6053333,28.5053333 71.6053333,29.476 C71.6053333,30.4466667 70.8866667,30.932 69.4493333,30.932 L69.4493333,30.932 Z M70.3453333,38.38 L66.3693333,38.38 L66.3693333,35.3 L70.3453333,35.3 C71.8013333,35.3 72.5293333,35.8133333 72.5293333,36.84 C72.5293333,37.8666667 71.8013333,38.38 70.3453333,38.38 L70.3453333,38.38 Z M101.444,43 C103.628,43 105.555333,42.6033333 107.226,41.81 C108.896667,41.0166667 110.194,39.8826667 111.118,38.408 C112.042,36.9333333 112.504,35.1973333 112.504,33.2 C112.504,31.2026667 112.042,29.4666667 111.118,27.992 C110.194,26.5173333 108.896667,25.3833333 107.226,24.59 C105.555333,23.7966667 103.628,23.4 101.444,23.4 L101.444,23.4 L91.784,23.4 L91.784,43 L101.444,43 Z M101.164,37.848 L98.392,37.848 L98.392,28.552 L101.164,28.552 C102.582667,28.552 103.716667,28.958 104.566,29.77 C105.415333,30.582 105.84,31.7253333 105.84,33.2 C105.84,34.6746667 105.415333,35.818 104.566,36.63 C103.716667,37.442 102.582667,37.848 101.164,37.848 L101.164,37.848 Z M132.141333,43 L132.141333,38.016 L122.341333,38.016 L122.341333,35.44 L130.629333,35.44 L130.629333,30.68 L122.341333,30.68 L122.341333,28.384 L131.777333,28.384 L131.777333,23.4 L115.845333,23.4 L115.845333,43 L132.141333,43 Z M142.930667,43.448 C144.890667,43.448 146.556667,43.154 147.928667,42.566 C149.300667,41.978 150.332,41.1846667 151.022667,40.186 C151.713333,39.1873333 152.058667,38.072 152.058667,36.84 C152.058667,35.4213333 151.680667,34.3013333 150.924667,33.48 C150.168667,32.6586667 149.277333,32.066 148.250667,31.702 C147.224,31.338 145.964,31.016 144.470667,30.736 C143.313333,30.512 142.482667,30.302 141.978667,30.106 C141.474667,29.91 141.222667,29.616 141.222667,29.224 C141.222667,28.4026667 142.072,27.992 143.770667,27.992 C145.488,27.992 147.308,28.4773333 149.230667,29.448 L149.230667,29.448 L151.218667,24.66 C150.229333,24.1 149.086,23.6753333 147.788667,23.386 C146.491333,23.0966667 145.170667,22.952 143.826667,22.952 C141.866667,22.952 140.200667,23.2413333 138.828667,23.82 C137.456667,24.3986667 136.425333,25.192 135.734667,26.2 C135.044,27.208 134.698667,28.328 134.698667,29.56 C134.698667,30.9786667 135.072,32.1033333 135.818667,32.934 C136.565333,33.7646667 137.442667,34.362 138.450667,34.726 C139.458667,35.09 140.718667,35.4306667 142.230667,35.748 C143.406667,35.9906667 144.251333,36.2146667 144.764667,36.42 C145.278,36.6253333 145.534667,36.9333333 145.534667,37.344 C145.534667,37.6986667 145.338667,37.9646667 144.946667,38.142 C144.554667,38.3193333 143.901333,38.408 142.986667,38.408 C141.922667,38.408 140.812,38.2446667 139.654667,37.918 C138.497333,37.5913333 137.452,37.1573333 136.518667,36.616 L136.518667,36.616 L134.390667,41.432 C135.38,42.048 136.644667,42.538 138.184667,42.902 C139.724667,43.266 141.306667,43.448 142.930667,43.448 Z M161.56,43 L161.56,23.4 L154.952,23.4 L154.952,43 L161.56,43 Z M175.849333,43.448 C177.324,43.448 178.826667,43.2333333 180.357333,42.804 C181.888,42.3746667 183.232,41.7586667 184.389333,40.956 L184.389333,40.956 L184.389333,32.668 L178.649333,32.668 L178.649333,37.624 C177.884,37.9413333 177.081333,38.1 176.241333,38.1 C174.822667,38.1 173.688667,37.652 172.839333,36.756 C171.99,35.86 171.565333,34.6746667 171.565333,33.2 C171.565333,31.688 171.994667,30.4933333 172.853333,29.616 C173.712,28.7386667 174.869333,28.3 176.325333,28.3 C178.024,28.3 179.489333,29.0186667 180.721333,30.456 L180.721333,30.456 L184.949333,26.732 C183.941333,25.5 182.676667,24.562 181.155333,23.918 C179.634,23.274 177.912,22.952 175.989333,22.952 C173.861333,22.952 171.952667,23.386 170.263333,24.254 C168.574,25.122 167.258,26.3353333 166.315333,27.894 C165.372667,29.4526667 164.901333,31.2213333 164.901333,33.2 C164.901333,35.1786667 165.372667,36.9473333 166.315333,38.506 C167.258,40.0646667 168.56,41.278 170.221333,42.146 C171.882667,43.014 173.758667,43.448 175.849333,43.448 Z M194.590667,43 L194.590667,34.096 L202.038667,43 L207.470667,43 L207.470667,23.4 L201.030667,23.4 L201.030667,32.304 L193.582667,23.4 L188.150667,23.4 L188.150667,43 L194.590667,43 Z" id="WEBDESIGN"></path>
            </g>
        </g>
    </g>
</svg>