<svg width="186" height="71" viewBox="0 0 186 71" fill="none" xmlns="http://www.w3.org/2000/svg">
<g clip-path="url(#clip0_1311_5037)">
<path d="M78.5738 59.4735C78.5738 59.6804 78.5414 59.8591 78.4772 60.01C78.4128 60.1608 78.3268 60.2852 78.2196 60.3833C78.1122 60.4814 77.9906 60.5544 77.8546 60.6016C77.7186 60.6489 77.5809 60.6725 77.4413 60.6725H77.071V62.0295H76.2285V58.3057H77.4092C77.5452 58.3057 77.6819 58.3251 77.8199 58.3636C77.9578 58.4022 78.083 58.4662 78.1955 58.5554C78.3082 58.6448 78.3995 58.765 78.4692 58.9158C78.539 59.0665 78.574 59.2525 78.574 59.4733L78.5738 59.4735ZM77.7687 59.4891C77.7687 59.321 77.7275 59.1999 77.6451 59.1263C77.5627 59.0527 77.4626 59.0159 77.3446 59.0159H77.0708V59.9888H77.3446C77.4626 59.9888 77.5627 59.946 77.6451 59.86C77.7275 59.7741 77.7687 59.6506 77.7687 59.4891Z" fill="white" fill-opacity="0.8"/>
<path d="M79.6416 62.03V58.3062H80.5109V61.2515H81.5253V62.03H79.6416Z" fill="white" fill-opacity="0.8"/>
<path d="M84.209 62.03L84.0533 61.3514H83.1999L83.0442 62.03H82.1855L83.1087 58.3062H84.1875L85.1053 62.03H84.209V62.03ZM83.64 59.1163H83.6185L83.2965 60.6994H83.9459L83.64 59.1163V59.1163Z" fill="white" fill-opacity="0.8"/>
<path d="M87.6921 62.03L86.8119 59.763H86.7958L86.8172 62.03H86.0498V58.3062H86.9944L87.8693 60.6048H87.8854L87.8693 58.3062H88.6099V62.03H87.6921V62.03Z" fill="white" fill-opacity="0.8"/>
<path d="M91.0951 59.0215V62.03H90.2524V59.0215H89.5547V58.3062H91.7927V59.0215H91.0951V59.0215Z" fill="white" fill-opacity="0.8"/>
<path d="M96.6822 60.9674C96.6822 61.1672 96.6492 61.3347 96.5829 61.4698C96.5167 61.6049 96.4301 61.7135 96.3227 61.7958C96.2153 61.8783 96.0946 61.9379 95.9604 61.9747C95.8261 62.0115 95.691 62.03 95.5551 62.03H94.2939V58.3062H95.4319C95.55 58.3062 95.6751 58.3186 95.8075 58.3429C95.9398 58.3675 96.0607 58.4139 96.1699 58.4823C96.2789 58.5508 96.3701 58.648 96.4434 58.7744C96.5167 58.9004 96.5535 59.0637 96.5535 59.2635C96.5535 59.4842 96.5079 59.6604 96.4166 59.792C96.3254 59.9235 96.2135 60.0192 96.0811 60.0787V60.0892C96.1526 60.1068 96.2241 60.1383 96.2959 60.184C96.3672 60.2295 96.4317 60.2884 96.489 60.3602C96.5462 60.432 96.5929 60.5187 96.6286 60.6204C96.6642 60.7221 96.6822 60.8381 96.6822 60.9676V60.9674ZM95.7967 59.3973C95.7967 59.2528 95.7555 59.1504 95.6731 59.0904C95.5907 59.0302 95.4941 59.0003 95.3832 59.0003H95.0933V59.8105H95.3885C95.4924 59.8105 95.5863 59.7786 95.6702 59.715C95.7542 59.6517 95.7962 59.5456 95.7962 59.3973H95.7967ZM95.8665 60.8911C95.8665 60.8066 95.8529 60.7353 95.8259 60.6771C95.7991 60.6186 95.7635 60.5711 95.7187 60.5341C95.674 60.4971 95.6239 60.4697 95.5683 60.452C95.513 60.4344 95.4585 60.4257 95.4049 60.4257H95.0935V61.3356H95.4155C95.5407 61.3356 95.6472 61.2985 95.7349 61.2245C95.8226 61.1505 95.8665 61.0392 95.8665 60.8911Z" fill="white" fill-opacity="0.8"/>
<path d="M99.5103 62.03L99.3546 61.3514H98.5012L98.3455 62.03H97.4868L98.4099 58.3062H99.4886L100.407 62.03H99.5103ZM98.9413 59.1163H98.9198L98.5978 60.6994H99.2474L98.9413 59.1163V59.1163Z" fill="white" fill-opacity="0.8"/>
<path d="M102.924 59.1948C102.859 59.1212 102.784 59.0641 102.698 59.0238C102.612 58.9834 102.523 58.9633 102.43 58.9633C102.333 58.9633 102.246 58.9935 102.169 59.053C102.092 59.1125 102.054 59.2111 102.054 59.3478C102.054 59.4638 102.093 59.5543 102.172 59.6192C102.25 59.6843 102.367 59.7552 102.521 59.8326C102.607 59.8747 102.698 59.9249 102.794 59.9829C102.889 60.0409 102.976 60.1118 103.056 60.1961C103.135 60.2804 103.201 60.3814 103.253 60.4989C103.305 60.6166 103.331 60.7562 103.331 60.9179C103.331 61.1179 103.299 61.2946 103.234 61.4473C103.169 61.6003 103.082 61.7265 102.972 61.8266C102.862 61.9268 102.735 62.0021 102.592 62.0532C102.448 62.1043 102.299 62.1297 102.145 62.1297C101.916 62.1297 101.708 62.0878 101.52 62.0035C101.332 61.9194 101.181 61.8213 101.066 61.7091L101.506 61.0778C101.589 61.1621 101.684 61.2297 101.791 61.2803C101.898 61.3313 102.007 61.3568 102.118 61.3568C102.222 61.3568 102.31 61.3235 102.381 61.2569C102.453 61.1902 102.489 61.0972 102.489 60.9781C102.489 60.8552 102.446 60.758 102.36 60.686C102.274 60.614 102.149 60.5379 101.984 60.4572C101.88 60.4081 101.783 60.354 101.692 60.2944C101.601 60.2349 101.52 60.1628 101.45 60.0788C101.381 59.9945 101.326 59.8964 101.287 59.7842C101.247 59.672 101.227 59.5387 101.227 59.3844C101.227 59.1777 101.262 58.9997 101.332 58.8505C101.402 58.7016 101.493 58.5796 101.606 58.4848C101.719 58.3902 101.844 58.3202 101.982 58.2745C102.119 58.229 102.258 58.2061 102.398 58.2061C102.605 58.2061 102.791 58.2391 102.956 58.3053C103.12 58.3715 103.258 58.4621 103.369 58.5769L102.924 59.1948H102.924Z" fill="white" fill-opacity="0.8"/>
<path d="M104.437 62.03V58.3062H106.272V59.0478H105.258V59.7788H106.192V60.473H105.258V61.2724H106.337V62.0297H104.437V62.03Z" fill="white" fill-opacity="0.8"/>
<path d="M110.099 60.1784C110.099 60.4592 110.068 60.7132 110.005 60.9411C109.943 61.169 109.847 61.3639 109.718 61.5249C109.589 61.6863 109.426 61.8108 109.227 61.8984C109.029 61.9863 108.793 62.03 108.521 62.03H107.453V58.3062H108.521C108.793 58.3062 109.028 58.3501 109.227 58.4377C109.425 58.5256 109.589 58.6507 109.718 58.8139C109.847 58.9769 109.943 59.1734 110.005 59.4031C110.068 59.6328 110.099 59.8912 110.099 60.1789V60.1784ZM109.235 60.1784C109.235 59.8034 109.17 59.5204 109.039 59.329C108.909 59.1379 108.739 59.0425 108.532 59.0425H108.323V61.2936H108.532C108.74 61.2936 108.909 61.198 109.039 61.0069C109.17 60.816 109.235 60.5397 109.235 60.1784Z" fill="white" fill-opacity="0.8"/>
<path d="M67.4253 66.8375C67.4253 67.0373 67.3923 67.2048 67.3261 67.3399C67.2599 67.4748 67.1733 67.5837 67.0659 67.6659C66.9585 67.7484 66.8377 67.808 66.7035 67.8448C66.5693 67.8816 66.4342 67.9001 66.2982 67.9001H65.0371V64.1763H66.1749C66.2929 64.1763 66.418 64.1888 66.5505 64.2131C66.6827 64.2376 66.8036 64.284 66.9128 64.3524C67.0218 64.4209 67.113 64.5181 67.1866 64.6446C67.2599 64.7706 67.2967 64.9338 67.2967 65.1336C67.2967 65.3544 67.251 65.5305 67.1598 65.6621C67.0685 65.7937 66.9567 65.8893 66.8245 65.9489V65.9593C66.896 65.977 66.9675 66.0084 67.0391 66.0541C67.1106 66.0996 67.1751 66.1585 67.2322 66.2303C67.2893 66.3021 67.3361 66.3888 67.3717 66.4905C67.4074 66.5922 67.4253 66.7082 67.4253 66.8377V66.8375ZM66.5396 65.2674C66.5396 65.1229 66.4984 65.0205 66.4163 64.9605C66.3339 64.9003 66.2373 64.8705 66.1264 64.8705H65.8364V65.6806H66.1317C66.2353 65.6806 66.3292 65.6487 66.4134 65.5852C66.4973 65.5218 66.5394 65.4157 66.5394 65.2674H66.5396ZM66.6094 66.7612C66.6094 66.6767 66.5959 66.6054 66.5691 66.5472C66.5423 66.4887 66.5064 66.4412 66.4619 66.4042C66.4172 66.3672 66.3671 66.3398 66.3115 66.3222C66.2559 66.3046 66.2014 66.2959 66.1478 66.2959H65.8364V67.2057H66.1585C66.2836 67.2057 66.3901 67.1687 66.4778 67.0946C66.5655 67.0206 66.6094 66.9093 66.6094 66.7612Z" fill="white" fill-opacity="0.8"/>
<path d="M71.0024 67.1009C70.9541 67.2797 70.878 67.4358 70.7743 67.5689C70.6704 67.7025 70.5362 67.8075 70.3719 67.8847C70.2071 67.9618 70.0086 68.0004 69.7761 68.0004C69.5435 68.0004 69.3469 67.9618 69.1856 67.8847C69.0244 67.8075 68.893 67.7025 68.7912 67.5689C68.6893 67.4358 68.6158 67.2797 68.571 67.1009C68.5263 66.922 68.5039 66.7291 68.5039 66.5222V64.1763H69.3679V66.4484C69.3679 66.5536 69.3741 66.6517 69.3867 66.743C69.3991 66.8339 69.4215 66.9122 69.4538 66.9769C69.4862 67.0418 69.5289 67.0935 69.5827 67.1321C69.6366 67.1707 69.7063 67.1898 69.792 67.1898C69.8777 67.1898 69.9477 67.1707 70.0013 67.1321C70.0552 67.0935 70.0981 67.0418 70.1302 66.9769C70.1626 66.9122 70.1847 66.8339 70.1973 66.743C70.2097 66.6517 70.216 66.5534 70.216 66.4484V64.1763H71.0746V66.5222C71.0746 66.7291 71.0505 66.922 71.0022 67.1009H71.0024Z" fill="white" fill-opacity="0.8"/>
<path d="M73.8846 67.9001L73.3766 66.4169H73.1252V67.9001H72.2988V64.1763H73.5143C73.882 64.1763 74.1675 64.2702 74.371 64.4577C74.5743 64.6455 74.6762 64.9251 74.6762 65.2968C74.6762 65.4335 74.66 65.5562 74.6281 65.6648C74.596 65.7736 74.5542 65.8664 74.5023 65.9435C74.4507 66.0209 74.3927 66.084 74.3285 66.1331C74.2642 66.1823 74.2018 66.2171 74.1413 66.2383L74.7889 67.9003H73.8846V67.9001ZM73.8337 65.3439C73.8337 65.2491 73.8202 65.1719 73.7934 65.1124C73.7666 65.0529 73.7316 65.0056 73.6886 64.9704C73.6457 64.9351 73.5983 64.9117 73.5464 64.8994C73.4946 64.8872 73.4437 64.8812 73.3936 64.8812H73.1252V65.8227H73.3774C73.499 65.8227 73.6056 65.785 73.6968 65.7096C73.7881 65.6342 73.8337 65.5122 73.8337 65.3439Z" fill="white" fill-opacity="0.8"/>
<path d="M77.7891 67.9001C77.6174 67.9561 77.4152 67.9842 77.1827 67.9842C76.9428 67.9842 76.7291 67.9369 76.5412 67.8421C76.3534 67.7476 76.1942 67.6151 76.0635 67.4452C75.9328 67.2753 75.8327 67.0708 75.763 66.8324C75.6932 66.594 75.6582 66.3293 75.6582 66.0381C75.6582 65.7469 75.6932 65.4815 75.763 65.2413C75.8327 65.0012 75.932 64.7942 76.0609 64.6207C76.1898 64.4472 76.3443 64.313 76.5251 64.2182C76.7058 64.1237 76.9071 64.0762 77.1288 64.0762C77.3866 64.0762 77.6019 64.1192 77.7756 64.2051C77.949 64.2911 78.0859 64.3989 78.1862 64.5284L77.7193 65.1439C77.59 64.9686 77.4139 64.881 77.1908 64.881C77.0724 64.881 76.9698 64.9117 76.8837 64.9728C76.7973 65.0342 76.7255 65.1173 76.6679 65.2228C76.6103 65.3281 76.5683 65.4505 76.5412 65.5908C76.5142 65.731 76.5007 65.8802 76.5007 66.0379C76.5007 66.1955 76.5133 66.3447 76.5384 66.485C76.5634 66.6252 76.6039 66.7481 76.6597 66.8531C76.7153 66.9584 76.7855 67.0425 76.8701 67.1056C76.9548 67.1687 77.0564 67.2004 77.1751 67.2004C77.3045 67.2004 77.4055 67.174 77.4772 67.1214V66.4272H77.0695V65.6962H78.2287V67.6794C78.1071 67.7703 77.9605 67.8441 77.7886 67.9001H77.7891Z" fill="white" fill-opacity="0.8"/>
<path d="M79.4312 67.9001V64.1763H81.2666V64.918H80.2522V65.6489H81.1859V66.3431H80.2522V67.1426H81.331V67.8999H79.4312V67.9001Z" fill="white" fill-opacity="0.8"/>
<path d="M84.0336 67.9001L83.5255 66.4169H83.2741V67.9001H82.4478V64.1763H83.6632C84.0309 64.1763 84.3164 64.2702 84.5199 64.4577C84.7232 64.6455 84.8251 64.9251 84.8251 65.2968C84.8251 65.4335 84.809 65.5562 84.7771 65.6648C84.7449 65.7736 84.7031 65.8664 84.6513 65.9435C84.5997 66.0209 84.5416 66.084 84.4774 66.1331C84.4132 66.1823 84.3507 66.2171 84.2903 66.2383L84.9379 67.9003H84.0336V67.9001ZM83.9826 65.3439C83.9826 65.2491 83.9691 65.1719 83.9423 65.1124C83.9155 65.0529 83.8805 65.0056 83.8375 64.9704C83.7946 64.9351 83.7472 64.9117 83.6954 64.8994C83.6435 64.8872 83.5926 64.8812 83.5425 64.8812H83.2741V65.8227H83.5264C83.648 65.8227 83.7545 65.785 83.8457 65.7096C83.937 65.6342 83.9826 65.5122 83.9826 65.3439V65.3439Z" fill="white" fill-opacity="0.8"/>
<path d="M87.5354 65.0649C87.4709 64.9914 87.3959 64.9343 87.3099 64.8939C87.224 64.8535 87.1345 64.8335 87.0417 64.8335C86.9451 64.8335 86.8583 64.8636 86.7815 64.9231C86.7044 64.9829 86.6661 65.0812 86.6661 65.2179C86.6661 65.3339 86.7055 65.4244 86.7841 65.4893C86.8627 65.5544 86.979 65.6253 87.133 65.7027C87.2193 65.7449 87.3104 65.795 87.4058 65.853C87.5013 65.911 87.5885 65.9819 87.6678 66.0662C87.7471 66.1505 87.8129 66.2515 87.8652 66.369C87.9172 66.4868 87.9436 66.6264 87.9436 66.788C87.9436 66.9881 87.9112 67.1647 87.8463 67.3174C87.7814 67.4704 87.6942 67.5966 87.5843 67.6967C87.4745 67.7969 87.3478 67.8722 87.204 67.9233C87.0603 67.9744 86.9115 67.9998 86.7575 67.9998C86.5285 67.9998 86.3201 67.9579 86.1323 67.8736C85.9445 67.7895 85.7932 67.6914 85.6787 67.5792L86.1188 66.9479C86.201 67.0322 86.296 67.0998 86.4032 67.1504C86.5106 67.2015 86.6196 67.2269 86.7305 67.2269C86.8344 67.2269 86.9219 67.1937 86.9936 67.127C87.0654 67.0603 87.1011 66.9673 87.1011 66.8482C87.1011 66.7254 87.0581 66.6281 86.9722 66.5561C86.8862 66.4841 86.7609 66.408 86.5965 66.3273C86.4927 66.2783 86.3952 66.2241 86.304 66.1645C86.2127 66.105 86.1323 66.033 86.0625 65.9489C85.9928 65.8646 85.9381 65.7665 85.8989 65.6543C85.8594 65.5421 85.8397 65.4088 85.8397 65.2545C85.8397 65.0478 85.8747 64.8698 85.9445 64.7206C86.0143 64.5717 86.1055 64.4497 86.2182 64.3549C86.331 64.2604 86.4561 64.1903 86.5939 64.1446C86.7316 64.0991 86.8703 64.0762 87.0098 64.0762C87.2173 64.0762 87.4034 64.1092 87.5679 64.1754C87.7325 64.2416 87.8703 64.3322 87.9812 64.447L87.5358 65.0649H87.5354Z" fill="white" fill-opacity="0.8"/>
<path d="M92.6713 67.9001L92.4514 67.5897C92.3796 67.6983 92.2751 67.7904 92.1373 67.8658C91.9996 67.9411 91.8324 67.9788 91.6355 67.9788C91.3028 67.9788 91.0397 67.8825 90.8466 67.6896C90.6532 67.4969 90.5566 67.2197 90.5566 66.8585C90.5566 66.606 90.6158 66.3949 90.7338 66.2247C90.8519 66.0546 91.002 65.9223 91.1845 65.8276C91.0986 65.7154 91.0317 65.5954 90.9832 65.4674C90.9349 65.3394 90.9108 65.2001 90.9108 65.0491C90.9108 64.8981 90.9367 64.7625 90.9887 64.6417C91.0406 64.5206 91.1121 64.418 91.2034 64.3339C91.2946 64.2496 91.4018 64.185 91.5254 64.1393C91.6488 64.0938 91.7821 64.0708 91.9252 64.0708C92.0612 64.0708 92.1863 64.0911 92.3008 64.1312C92.4153 64.1716 92.5145 64.2311 92.5987 64.3101C92.6829 64.389 92.748 64.4853 92.7947 64.5993C92.841 64.7135 92.8645 64.8441 92.8645 64.9913C92.8645 65.1104 92.8456 65.2183 92.8082 65.3147C92.7706 65.4112 92.7196 65.4998 92.6552 65.5803C92.5907 65.6608 92.5165 65.7337 92.4326 65.7986C92.3484 65.8635 92.2618 65.9239 92.1723 65.9799L92.4891 66.4114L92.7522 65.859H93.5626L92.9506 66.9791L93.627 67.8997H92.6716L92.6713 67.9001ZM91.5551 66.3485C91.5048 66.3766 91.4547 66.4299 91.4047 66.509C91.3544 66.588 91.3296 66.687 91.3296 66.8061C91.3296 66.9535 91.3635 67.0701 91.4315 67.1557C91.4995 67.2418 91.5907 67.2846 91.7052 67.2846C91.7983 67.2846 91.8716 67.2576 91.9254 67.2032C91.9792 67.1488 92.0184 67.0937 92.0434 67.0375L91.5551 66.3485ZM92.1668 65.0388C92.1668 64.9371 92.1471 64.8522 92.1077 64.7837C92.0682 64.7153 92.0093 64.6811 91.9307 64.6811C91.8483 64.6811 91.7839 64.7179 91.7374 64.7915C91.6908 64.8651 91.6676 64.9512 91.6676 65.0491C91.6676 65.2246 91.7283 65.3858 91.8501 65.533C91.9325 65.4806 92.0058 65.413 92.0702 65.3307C92.1347 65.2482 92.1668 65.151 92.1668 65.0386V65.0388Z" fill="white" fill-opacity="0.8"/>
<path d="M97.8612 65.0649C97.7968 64.9914 97.7215 64.9343 97.6356 64.8939C97.5496 64.8535 97.4604 64.8335 97.3673 64.8335C97.2706 64.8335 97.184 64.8636 97.1069 64.9231C97.0298 64.9827 96.9915 65.0812 96.9915 65.2179C96.9915 65.3339 97.0309 65.4244 97.1095 65.4893C97.1879 65.5544 97.3044 65.6253 97.4581 65.7027C97.5447 65.7449 97.6358 65.795 97.731 65.853C97.8262 65.911 97.9137 65.9819 97.993 66.0662C98.0723 66.1505 98.1381 66.2515 98.1904 66.369C98.2424 66.4868 98.2688 66.6264 98.2688 66.788C98.2688 66.9881 98.2364 67.1647 98.1718 67.3174C98.1069 67.4704 98.0194 67.5966 97.9095 67.6967C97.7999 67.7969 97.673 67.8722 97.5292 67.9233C97.3855 67.9744 97.2367 67.9998 97.0827 67.9998C96.8537 67.9998 96.6451 67.9579 96.4575 67.8736C96.2695 67.7895 96.1184 67.6914 96.0039 67.5792L96.444 66.9479C96.5262 67.0322 96.6212 67.0998 96.7284 67.1504C96.8356 67.2015 96.9448 67.2269 97.0557 67.2269C97.1596 67.2269 97.2471 67.1937 97.3188 67.127C97.3906 67.0603 97.4263 66.9673 97.4263 66.8482C97.4263 66.7254 97.3833 66.6281 97.2974 66.5561C97.2114 66.4841 97.0863 66.408 96.9217 66.3273C96.8178 66.2783 96.7206 66.2241 96.6294 66.1645C96.5381 66.105 96.4577 66.033 96.3877 65.9489C96.3182 65.8646 96.2633 65.7665 96.2241 65.6543C96.1849 65.5421 96.1649 65.4088 96.1649 65.2545C96.1649 65.0478 96.1999 64.8698 96.2697 64.7206C96.3395 64.5717 96.4309 64.4497 96.5434 64.3549C96.6562 64.2604 96.7813 64.1903 96.9191 64.1446C97.0566 64.0991 97.1955 64.0762 97.335 64.0762C97.5425 64.0762 97.7284 64.1092 97.8931 64.1754C98.0579 64.2416 98.1955 64.3322 98.3064 64.447L97.861 65.0649H97.8612Z" fill="white" fill-opacity="0.8"/>
<path d="M101.06 67.9001L100.904 67.2215H100.051L99.8953 67.9001H99.0366L99.9598 64.1763H101.038L101.956 67.9001H101.06ZM100.491 64.9864H100.47L100.148 66.5695H100.797L100.491 64.9864V64.9864Z" fill="white" fill-opacity="0.8"/>
<path d="M105.271 67.1009C105.222 67.2797 105.146 67.4358 105.043 67.5689C104.939 67.7025 104.805 67.8075 104.64 67.8847C104.475 67.9618 104.277 68.0004 104.044 68.0004C103.812 68.0004 103.615 67.9618 103.454 67.8847C103.293 67.8075 103.162 67.7025 103.06 67.5689C102.958 67.4358 102.884 67.2797 102.84 67.1009C102.795 66.922 102.772 66.7291 102.772 66.5222V64.1763H103.636V66.4484C103.636 66.5536 103.643 66.6517 103.655 66.743C103.668 66.8339 103.69 66.9122 103.722 66.9769C103.755 67.0418 103.798 67.0935 103.851 67.1321C103.905 67.1707 103.975 67.1898 104.061 67.1898C104.146 67.1898 104.216 67.1707 104.27 67.1321C104.323 67.0935 104.366 67.0418 104.399 66.9769C104.431 66.9122 104.453 66.8339 104.466 66.743C104.478 66.6517 104.485 66.5534 104.485 66.4484V64.1763H105.343V66.5222C105.343 66.7291 105.319 66.922 105.271 67.1009H105.271Z" fill="white" fill-opacity="0.8"/>
<path d="M108.139 65.0649C108.075 64.9914 107.999 64.9343 107.913 64.8939C107.827 64.8535 107.738 64.8335 107.645 64.8335C107.548 64.8335 107.462 64.8636 107.385 64.9231C107.308 64.9827 107.269 65.0812 107.269 65.2179C107.269 65.3339 107.309 65.4244 107.387 65.4893C107.466 65.5544 107.582 65.6253 107.736 65.7027C107.823 65.7449 107.914 65.795 108.009 65.853C108.104 65.911 108.192 65.9819 108.271 66.0662C108.35 66.1505 108.416 66.2515 108.468 66.369C108.52 66.4868 108.547 66.6264 108.547 66.788C108.547 66.9881 108.514 67.1647 108.45 67.3174C108.385 67.4704 108.297 67.5966 108.187 67.6967C108.078 67.7969 107.951 67.8722 107.807 67.9233C107.663 67.9744 107.514 67.9998 107.361 67.9998C107.132 67.9998 106.923 67.9579 106.735 67.8736C106.547 67.7895 106.396 67.6914 106.282 67.5792L106.722 66.9479C106.804 67.0322 106.899 67.0998 107.006 67.1504C107.113 67.2015 107.223 67.2269 107.334 67.2269C107.437 67.2269 107.525 67.1937 107.597 67.127C107.668 67.0603 107.704 66.9673 107.704 66.8482C107.704 66.7254 107.661 66.6281 107.575 66.5561C107.489 66.4841 107.364 66.408 107.2 66.3273C107.096 66.2783 106.998 66.2241 106.907 66.1645C106.816 66.105 106.736 66.033 106.666 65.9489C106.596 65.8646 106.541 65.7665 106.502 65.6543C106.463 65.5421 106.443 65.4088 106.443 65.2545C106.443 65.0478 106.478 64.8698 106.548 64.7206C106.617 64.5717 106.709 64.4497 106.821 64.3549C106.934 64.2604 107.059 64.1903 107.197 64.1446C107.334 64.0991 107.473 64.0762 107.613 64.0762C107.82 64.0762 108.006 64.1092 108.171 64.1754C108.336 64.2416 108.473 64.3322 108.584 64.447L108.139 65.0649H108.139Z" fill="white" fill-opacity="0.8"/>
<path d="M111.338 67.9001L111.182 67.2215H110.329L110.173 67.9001H109.314L110.238 64.1763H111.316L112.234 67.9001H111.338ZM110.769 64.9864H110.748L110.426 66.5695H111.075L110.769 64.9864V64.9864Z" fill="white" fill-opacity="0.8"/>
<path d="M115.121 67.9001C114.95 67.9561 114.748 67.9842 114.515 67.9842C114.275 67.9842 114.061 67.9369 113.874 67.8421C113.686 67.7476 113.526 67.6151 113.396 67.4452C113.265 67.2753 113.165 67.0708 113.095 66.8324C113.026 66.594 112.991 66.3293 112.991 66.0381C112.991 65.7469 113.025 65.4815 113.095 65.2413C113.165 65.0012 113.264 64.7942 113.393 64.6207C113.522 64.4472 113.677 64.313 113.858 64.2182C114.038 64.1237 114.24 64.0762 114.462 64.0762C114.719 64.0762 114.935 64.1192 115.108 64.2051C115.282 64.2911 115.419 64.3989 115.519 64.5284L115.052 65.1439C114.923 64.9686 114.747 64.881 114.524 64.881C114.405 64.881 114.303 64.9117 114.216 64.9728C114.13 65.0342 114.058 65.1173 114.001 65.2228C113.943 65.3281 113.901 65.4505 113.874 65.5908C113.847 65.731 113.834 65.8802 113.834 66.0379C113.834 66.1955 113.846 66.3447 113.871 66.485C113.897 66.6252 113.937 66.7481 113.993 66.8531C114.049 66.9584 114.119 67.0425 114.203 67.1056C114.288 67.1687 114.39 67.2004 114.508 67.2004C114.638 67.2004 114.738 67.174 114.81 67.1214V66.4272H114.402V65.6962H115.562V67.6794C115.44 67.7703 115.293 67.8441 115.122 67.9001H115.121Z" fill="white" fill-opacity="0.8"/>
<path d="M116.764 67.9001V64.1763H118.6V64.918H117.585V65.6489H118.519V66.3431H117.585V67.1426H118.664V67.8999H116.764V67.9001Z" fill="white" fill-opacity="0.8"/>
<path d="M121.353 65.0649C121.288 64.9914 121.213 64.9343 121.127 64.8939C121.041 64.8535 120.952 64.8335 120.859 64.8335C120.762 64.8335 120.675 64.8636 120.599 64.9231C120.522 64.9829 120.483 65.0812 120.483 65.2179C120.483 65.3339 120.523 65.4244 120.601 65.4893C120.68 65.5544 120.796 65.6253 120.95 65.7027C121.036 65.7449 121.127 65.795 121.223 65.853C121.318 65.911 121.405 65.9819 121.485 66.0662C121.564 66.1505 121.63 66.2515 121.682 66.369C121.734 66.4868 121.761 66.6264 121.761 66.788C121.761 66.9881 121.728 67.1647 121.663 67.3174C121.599 67.4704 121.511 67.5966 121.401 67.6967C121.292 67.7969 121.165 67.8722 121.021 67.9233C120.877 67.9744 120.728 67.9998 120.574 67.9998C120.345 67.9998 120.137 67.9579 119.949 67.8736C119.761 67.7895 119.61 67.6914 119.496 67.5792L119.936 66.9479C120.018 67.0322 120.113 67.0998 120.22 67.1504C120.327 67.2015 120.437 67.2269 120.548 67.2269C120.652 67.2269 120.739 67.1937 120.811 67.127C120.883 67.0603 120.918 66.9673 120.918 66.8482C120.918 66.7254 120.875 66.6281 120.789 66.5561C120.703 66.4841 120.578 66.408 120.414 66.3273C120.31 66.2783 120.212 66.2241 120.121 66.1645C120.03 66.105 119.949 66.033 119.88 65.9489C119.81 65.8646 119.755 65.7665 119.716 65.6543C119.677 65.5421 119.657 65.4088 119.657 65.2545C119.657 65.0478 119.692 64.8698 119.762 64.7206C119.831 64.5717 119.923 64.4497 120.035 64.3549C120.148 64.2604 120.273 64.1903 120.411 64.1446C120.549 64.0991 120.687 64.0762 120.827 64.0762C121.034 64.0762 121.22 64.1092 121.385 64.1754C121.55 64.2416 121.687 64.3322 121.798 64.447L121.353 65.0649V65.0649Z" fill="white" fill-opacity="0.8"/>
<path d="M92.874 18.5019C100.378 18.5019 106.615 23.9484 107.909 31.1282H112.127C113.728 31.1282 115.038 30.0569 115.038 28.7477V27.2086H115.007C114.396 20.531 104.721 12.9219 92.874 12.9219C81.0272 12.9219 71.3519 20.531 70.7415 27.2086C70.7211 27.4307 70.7104 27.6541 70.7104 27.8789C70.7104 27.8925 70.7113 27.9059 70.7113 27.9193C70.7113 27.9242 70.7104 27.9289 70.7104 27.9335V28.7477C70.7104 30.0569 72.0203 31.1282 73.6209 31.1282H77.839C79.1329 23.9482 85.3698 18.5019 92.874 18.5019V18.5019Z" fill="white" fill-opacity="0.8"/>
<path d="M92.8743 49.2825C88.0199 49.2825 83.697 47.0013 80.8971 43.4487H73.8374C72.2547 43.4487 70.9595 44.508 70.9595 45.8027V46.6075C70.9595 46.6122 70.9604 46.6168 70.9604 46.6217C70.9604 46.6351 70.9595 46.6483 70.9595 46.6617C70.9595 46.884 70.9701 47.105 70.99 47.3246C71.5936 53.9273 81.1604 54.0266 92.8741 54.0266C104.588 54.0266 114.155 53.9273 114.758 47.3246H114.789V45.8027C114.789 44.5082 113.494 43.4487 111.911 43.4487H104.851C102.051 47.0015 97.7283 49.2825 92.8739 49.2825H92.8743Z" fill="white" fill-opacity="0.8"/>
<path d="M72.3393 34.3003C71.1998 34.3003 70.2676 35.2389 70.2676 36.3862V38.1381C70.2676 39.2854 71.1998 40.224 72.3393 40.224H78.943C78.1281 38.4094 77.6535 36.4081 77.5988 34.3005H72.3391L72.3393 34.3003Z" fill="white" fill-opacity="0.8"/>
<path d="M113.41 34.3005H108.15C108.095 36.4083 107.62 38.4094 106.806 40.224H113.409C114.549 40.224 115.481 39.2854 115.481 38.1381V36.3862C115.481 35.2389 114.549 34.3003 113.409 34.3003L113.41 34.3005Z" fill="white" fill-opacity="0.8"/>
<path d="M93.4959 28.1169C93.4959 27.9989 93.4689 27.9014 93.4151 27.8254C93.3613 27.7494 93.2204 27.6947 92.9932 27.6606V27.3564H99.8343C100.325 27.3564 100.774 27.424 101.181 27.5591C101.588 27.6947 101.941 27.9014 102.24 28.1804C102.539 28.4594 102.773 28.8231 102.941 29.2706C103.108 29.7186 103.192 30.2554 103.192 30.8805C103.192 31.6411 103.03 32.2539 102.708 32.7186C102.384 33.1838 101.971 33.492 101.469 33.6441V33.6949C102.079 33.9317 102.579 34.295 102.968 34.7851C103.357 35.2755 103.552 35.9938 103.552 36.9402C103.552 37.4473 103.482 37.9289 103.345 38.3854C103.207 38.8416 102.992 39.239 102.699 39.5769C102.405 39.9152 102.028 40.1854 101.567 40.3881C101.106 40.5911 100.558 40.6923 99.9242 40.6923H92.9932V40.3881C93.2204 40.3545 93.3613 40.2994 93.4151 40.2233C93.4689 40.1473 93.4959 40.0501 93.4959 39.9317V28.1171V28.1169ZM98.6314 32.3761C99.0143 32.3761 99.3317 32.3634 99.5831 32.3382C99.8343 32.3128 100.032 32.2581 100.176 32.1734C100.319 32.0889 100.421 31.9705 100.481 31.8184C100.541 31.6663 100.571 31.4634 100.571 31.21C100.571 30.9567 100.541 30.7538 100.481 30.6015C100.421 30.4494 100.319 30.3314 100.176 30.2465C100.032 30.1622 99.8343 30.1071 99.5831 30.0817C99.3317 30.0563 99.0143 30.0436 98.6314 30.0436H96.1891V32.3759H98.6314V32.3761ZM99.2418 38.0045C99.8881 38.0045 100.343 37.8903 100.607 37.6622C100.87 37.4341 101.001 37.041 101.001 36.4832C101.001 35.9255 100.87 35.5326 100.607 35.3043C100.343 35.0761 99.8881 34.962 99.2418 34.962H96.1891V38.0043H99.2418V38.0045Z" fill="white" fill-opacity="0.8"/>
<path d="M83.082 38.7461C83.653 39.3197 84.3115 39.7728 85.0574 40.1049C85.804 40.4362 86.6056 40.6024 87.4614 40.6024C88.2952 40.6024 89.0139 40.4799 89.6188 40.2364C90.2219 39.9949 90.7977 39.6517 91.347 39.2098L89.256 36.6562C89.0038 36.8556 88.7267 37.013 88.4248 37.1294C88.1227 37.2447 87.8018 37.3034 87.4616 37.3034C87.1103 37.3034 86.781 37.242 86.474 37.1209C86.1666 36.9992 85.8869 36.8326 85.6346 36.6234L85.4696 36.4582L85.2386 36.2256C84.9863 35.9281 84.789 35.5876 84.6461 35.2061C84.5031 34.8245 84.4322 34.4185 84.4322 33.9879C84.4322 33.5347 84.5119 33.1063 84.6709 32.7034C84.83 32.2991 85.0468 31.9461 85.3214 31.6413C85.5956 31.338 85.9163 31.0972 86.2842 30.9205C86.6521 30.7439 87.0439 30.6549 87.4614 30.6549C88.0547 30.6549 88.5971 30.8273 89.0912 31.1692L91.0177 28.4836C90.5127 28.119 89.9586 27.8369 89.3552 27.6385C88.751 27.44 88.1198 27.3403 87.4614 27.3403C86.5834 27.3403 85.7631 27.5134 85.0001 27.8626C84.2371 28.2102 83.5677 28.6823 82.9917 29.2793C82.4152 29.8771 81.9624 30.5776 81.6331 31.3848C81.304 32.1914 81.1396 33.0535 81.1396 33.9707C81.1396 34.8769 81.3038 35.731 81.6331 36.5307C81.9624 37.3328 82.4074 38.0321 82.9666 38.6297L83.082 38.7457V38.7461Z" fill="white" fill-opacity="0.8"/>
<path d="M103.572 30.7678C103.572 31.5285 103.411 32.1413 103.088 32.606C102.764 33.0712 102.351 33.3794 101.849 33.5312V33.5821C102.006 33.6432 102.156 33.7136 102.299 33.7919C102.732 33.6264 103.097 33.3432 103.386 32.9273C103.709 32.4626 103.87 31.8498 103.87 31.0892C103.87 30.4641 103.787 29.9274 103.619 29.4794C103.451 29.0318 103.218 28.6681 102.919 28.3891C102.906 28.3771 102.891 28.3673 102.878 28.3555C103.056 28.5838 103.205 28.8496 103.321 29.158C103.488 29.606 103.572 30.1428 103.572 30.7678V30.7678Z" fill="white" fill-opacity="0.8"/>
<path d="M103.521 35.3695C103.417 35.2384 103.304 35.1179 103.184 35.0049C103.197 35.02 103.211 35.0328 103.224 35.0481C103.612 35.5385 103.807 36.2568 103.807 37.2032C103.807 37.7103 103.738 38.1919 103.601 38.6484C103.463 39.1047 103.247 39.502 102.954 39.8399C102.661 40.1782 102.284 40.4484 101.823 40.6511C101.362 40.8541 100.814 40.9553 100.18 40.9553H93.6366C93.6071 40.9611 93.5799 40.9674 93.5469 40.9723V41.2764H100.478C101.112 41.2764 101.66 41.175 102.121 40.9723C102.582 40.7696 102.959 40.4993 103.252 40.161C103.545 39.8232 103.761 39.4258 103.899 38.9695C104.036 38.5133 104.105 38.0314 104.105 37.5243C104.105 36.5779 103.91 35.8596 103.521 35.3693V35.3695Z" fill="white" fill-opacity="0.8"/>
<path d="M99.7956 35.5469C100.362 35.5469 100.781 35.6346 101.054 35.8096C101 35.7166 100.938 35.6334 100.862 35.5677C100.599 35.3395 100.144 35.2256 99.4975 35.2256H96.4448V38.2679H96.7429V35.5469H99.7956Z" fill="white" fill-opacity="0.8"/>
<path d="M96.8674 30.2525H99.3097C99.6927 30.2525 100.01 30.2652 100.261 30.2906C100.506 30.3152 100.699 30.3687 100.842 30.4494C100.78 30.3169 100.686 30.2112 100.556 30.1341C100.412 30.0498 100.214 29.9947 99.9633 29.9693C99.7119 29.9439 99.3945 29.9312 99.0116 29.9312H96.5693V32.2635H96.8674V30.2523V30.2525Z" fill="white" fill-opacity="0.8"/>
<path d="M85.2233 35.7936L85.1734 35.6288C85.0972 35.3958 85.0529 35.175 85.0423 34.9654V34.7995C85.0423 34.6882 85.0501 34.5788 85.0664 34.4682C85.0833 34.3567 85.097 34.2467 85.1076 34.1359L85.1409 33.9706C85.1843 33.7494 85.2501 33.5278 85.3378 33.3072L85.4202 33.142C85.4751 33.0202 85.538 32.9049 85.6095 32.7937C85.6813 32.6835 85.7603 32.5783 85.8489 32.4786L85.9971 32.3127C86.2602 32.0366 86.5506 31.8158 86.8691 31.6506L87.3645 31.4729L87.6901 31.4024L87.9519 31.3797L88.1856 31.3732L88.4478 31.3877L88.7592 31.4443L88.9576 31.5159L89.1275 31.5732L89.3065 31.6506C89.3718 31.6832 89.438 31.7195 89.504 31.7574C89.57 31.7967 89.6354 31.8377 89.7014 31.8823L89.8662 31.6506L89.9813 31.4847L90.4588 30.8213L90.5742 30.6554L91.0513 29.9924L91.1671 29.8265L91.628 29.197L91.2325 28.9312L89.3718 31.5177C88.8458 31.1754 88.3018 31.0035 87.7426 31.0035C87.3034 31.0035 86.8994 31.0973 86.5315 31.286C86.1639 31.4735 85.8458 31.7249 85.5767 32.0399C85.3079 32.355 85.097 32.7112 84.9431 33.1083C84.7896 33.5061 84.7125 33.9162 84.7125 34.3357C84.7014 34.6671 84.7484 34.9906 84.8529 35.3057C84.9568 35.6195 85.0862 35.9281 85.2392 36.2256L85.4702 36.4582C85.3716 36.2367 85.2895 36.0162 85.2233 35.7941V35.7936Z" fill="white" fill-opacity="0.8"/>
<path d="M91.7922 39.1095L91.6606 38.9436L90.1951 37.1206L90.0144 37.2535L91.8254 39.4418C91.2323 39.8603 90.6259 40.2145 90.0057 40.5023C89.3858 40.7889 88.6695 40.9334 87.8576 40.9334C87.5608 40.9334 87.2071 40.9002 86.7956 40.8339C86.3838 40.7682 85.9584 40.6515 85.5194 40.4861C85.0802 40.3202 84.647 40.0956 84.2191 39.8135C83.791 39.5323 83.412 39.176 83.0827 38.7458L82.9673 38.6296C83.2089 39.027 83.5354 39.3909 83.9473 39.7236C84.3586 40.0543 84.8031 40.3369 85.2809 40.5688C85.7584 40.8005 86.2363 40.9833 86.7132 41.1156C87.1911 41.2478 87.6157 41.3143 87.9896 41.3143C88.4283 41.3143 88.8456 41.2674 89.2405 41.1738C89.6352 41.0795 90.0146 40.9452 90.3767 40.7682L90.706 40.6022C90.8919 40.5026 91.0732 40.3973 91.2493 40.2872C91.4245 40.1759 91.6004 40.0606 91.7765 39.9395L91.9897 39.7727C92.0227 39.7513 92.0586 39.7239 92.0972 39.6893C92.1352 39.657 92.1711 39.63 92.2044 39.6075L91.7924 39.11L91.7922 39.1095Z" fill="white" fill-opacity="0.8"/>
<path d="M70.6196 15.2117C70.4829 15.5163 70.2337 15.8015 69.8719 16.0666C69.5642 16.2923 69.2369 16.4299 68.8896 16.4801C68.5423 16.53 68.1926 16.4999 67.8402 16.3904C67.4876 16.2807 67.141 16.0956 66.8012 15.8354C66.4611 15.5754 66.147 15.2458 65.8588 14.8473C65.5669 14.4437 65.3494 14.038 65.2061 13.63C65.0624 13.2217 64.9942 12.8332 65.0004 12.4639C65.0066 12.0949 65.0874 11.7528 65.2431 11.4379C65.3986 11.123 65.6303 10.853 65.9379 10.6273C66.2901 10.3691 66.6287 10.2157 66.9541 10.167C67.2792 10.1182 67.5806 10.1336 67.8577 10.2125L67.8298 11.5273C67.6562 11.4763 67.4887 11.4575 67.3279 11.4711C67.1671 11.4852 67.0023 11.5539 66.8338 11.6774C66.675 11.7938 66.5671 11.9361 66.5104 12.1042C66.4537 12.2724 66.4362 12.4581 66.458 12.6615C66.4799 12.8651 66.5423 13.0796 66.6449 13.3055C66.7476 13.5316 66.8799 13.7564 67.0416 13.9801C67.203 14.2035 67.3744 14.3982 67.5547 14.5634C67.7348 14.7287 67.9186 14.8542 68.106 14.9401C68.2934 15.0259 68.4763 15.0665 68.655 15.0618C68.834 15.0574 69.0025 14.9967 69.1616 14.8803C69.3199 14.7639 69.4309 14.6232 69.4938 14.4582C69.5567 14.2932 69.5839 14.1317 69.5762 13.9738L70.8236 14.2976C70.824 14.6027 70.7558 14.9071 70.6196 15.2117V15.2117Z" fill="white" fill-opacity="0.8"/>
<path d="M74.797 12.8611L72.8373 11.0316L72.4571 11.2364L73.648 13.4793L72.3981 14.1523L69.4077 8.52071L71.2458 7.53105C71.8021 7.23179 72.3089 7.14103 72.7676 7.25899C73.2258 7.37696 73.6045 7.71725 73.9031 8.2792C74.013 8.48592 74.0872 8.68461 74.1259 8.87505C74.1647 9.06549 74.176 9.24031 74.1596 9.39909C74.1432 9.55786 74.1066 9.70058 74.0488 9.82702C73.9908 9.95346 73.9246 10.0574 73.8502 10.1383L76.1644 12.1245L74.797 12.8609V12.8611ZM72.6666 9.03717C72.5906 8.89378 72.5084 8.78808 72.4201 8.71984C72.3317 8.6516 72.2407 8.60834 72.1477 8.59028C72.0546 8.57222 71.9638 8.57534 71.8755 8.59875C71.7871 8.62239 71.7051 8.65473 71.6294 8.69553L71.2236 8.91385L71.9798 10.3375L72.3614 10.1323C72.5452 10.0333 72.6759 9.88968 72.7534 9.70125C72.8309 9.51304 72.8019 9.2916 72.6666 9.03694V9.03717Z" fill="white" fill-opacity="0.8"/>
<path d="M80.8476 6.9344C81.016 7.41006 81.115 7.86475 81.1446 8.29758C81.1741 8.73086 81.1369 9.12244 81.0328 9.47255C80.9287 9.82288 80.7579 10.1266 80.5201 10.3842C80.2822 10.6417 79.9812 10.8359 79.6173 10.9666C79.2532 11.0973 78.8979 11.1386 78.552 11.0904C78.206 11.042 77.8827 10.9156 77.5823 10.7106C77.2816 10.5057 77.0067 10.2261 76.7578 9.87171C76.5086 9.51759 76.2997 9.10237 76.1314 8.62672C75.9629 8.15085 75.8634 7.69995 75.8331 7.27336C75.8025 6.84699 75.8397 6.46031 75.9449 6.11289C76.0499 5.76568 76.2218 5.46464 76.4605 5.20975C76.6995 4.95509 77.0036 4.76108 77.3737 4.6284C77.738 4.49772 78.0926 4.45513 78.4375 4.5004C78.7825 4.54589 79.1048 4.66965 79.4045 4.87169C79.7039 5.07395 79.9772 5.34912 80.2244 5.69767C80.4716 6.04643 80.6793 6.45853 80.8479 6.9344H80.8476ZM79.4257 7.44462C79.3334 7.18416 79.2273 6.94934 79.1079 6.73995C78.9881 6.53078 78.8603 6.35818 78.7241 6.22171C78.5881 6.08546 78.4457 5.99135 78.2968 5.93939C78.1482 5.88766 77.9958 5.88944 77.8399 5.94542C77.6838 6.00139 77.5629 6.0975 77.4778 6.23353C77.3921 6.36933 77.3394 6.53368 77.3197 6.7259C77.2997 6.91813 77.3106 7.13309 77.3522 7.37014C77.3939 7.60741 77.461 7.85627 77.5529 8.11673C77.6452 8.37719 77.7502 8.61424 77.8681 8.8272C77.9857 9.04038 78.113 9.21499 78.249 9.35124C78.3852 9.48771 78.5296 9.58271 78.682 9.63623C78.8344 9.69019 78.989 9.68885 79.1451 9.63311C79.301 9.57713 79.4197 9.48035 79.5012 9.34232C79.5825 9.20473 79.6335 9.03971 79.6534 8.84727C79.6731 8.65504 79.6632 8.43829 79.6237 8.19723C79.5839 7.95617 79.5179 7.7053 79.4257 7.44462V7.44462Z" fill="white" fill-opacity="0.8"/>
<path d="M85.1431 4.27974C85.0096 4.1785 84.8638 4.10915 84.7059 4.07124C84.5478 4.03355 84.3905 4.03088 84.2344 4.06321C84.0723 4.09689 83.9367 4.17739 83.8282 4.30449C83.7195 4.4316 83.6887 4.61045 83.7358 4.84036C83.7757 5.03503 83.8729 5.17329 84.0273 5.25468C84.1819 5.33652 84.4018 5.41546 84.6869 5.4915C84.8463 5.53209 85.0164 5.58449 85.1965 5.64849C85.3766 5.71249 85.5478 5.80147 85.7101 5.91542C85.8722 6.02937 86.0173 6.17588 86.1458 6.35562C86.2738 6.5349 86.3657 6.76035 86.4213 7.03152C86.4902 7.3678 86.4964 7.67575 86.4401 7.95472C86.3839 8.23414 86.2807 8.47676 86.1305 8.68325C85.9805 8.88975 85.7934 9.06078 85.5697 9.19659C85.3456 9.33195 85.1044 9.42694 84.8459 9.48046C84.4614 9.5603 84.0969 9.5623 83.7525 9.48648C83.4078 9.41067 83.1201 9.2985 82.8893 9.14998L83.4111 7.93644C83.5781 8.04905 83.7609 8.12955 83.9584 8.17749C84.1564 8.22566 84.3485 8.23012 84.5347 8.19132C84.7088 8.1552 84.8446 8.06867 84.9418 7.93175C85.039 7.79506 85.0674 7.62647 85.0264 7.42622C84.9841 7.22017 84.8785 7.07166 84.7095 6.98067C84.5407 6.89014 84.3039 6.80562 83.9998 6.72757C83.8085 6.68119 83.6262 6.6241 83.4526 6.55564C83.2787 6.48741 83.119 6.39486 82.9726 6.27779C82.8262 6.16072 82.7011 6.01488 82.5963 5.84005C82.4916 5.66544 82.4127 5.44847 82.3596 5.18934C82.2885 4.84192 82.2858 4.53084 82.3518 4.2561C82.4176 3.9816 82.529 3.745 82.6858 3.54675C82.8426 3.34829 83.0287 3.18706 83.2444 3.06241C83.4599 2.93797 83.6851 2.85123 83.9194 2.80261C84.2678 2.73014 84.5916 2.72077 84.8911 2.77474C85.1903 2.82871 85.4528 2.93262 85.6787 3.08671L85.1429 4.27997L85.1431 4.27974Z" fill="white" fill-opacity="0.8"/>
<path d="M90.6642 3.62704C90.5439 3.50996 90.4077 3.42322 90.2551 3.36635C90.1027 3.30971 89.947 3.28741 89.7882 3.30079C89.623 3.31439 89.4788 3.3775 89.3557 3.49034C89.2323 3.60317 89.1803 3.77689 89.1993 4.01059C89.2153 4.20883 89.295 4.35779 89.4385 4.4577C89.582 4.55782 89.7909 4.66308 90.0644 4.77368C90.2179 4.83367 90.3805 4.90637 90.5517 4.992C90.7227 5.07763 90.8819 5.18689 91.029 5.3198C91.1763 5.45293 91.3025 5.61616 91.4081 5.80995C91.5136 6.00373 91.5776 6.23855 91.5999 6.51484C91.6274 6.85714 91.5966 7.16331 91.5069 7.43358C91.4172 7.70385 91.2854 7.93198 91.1114 8.1184C90.9375 8.30505 90.7311 8.45178 90.4925 8.55905C90.2538 8.66608 90.0031 8.73075 89.7402 8.75216C89.3486 8.78427 88.9867 8.74146 88.654 8.62394C88.3214 8.50642 88.0494 8.35991 87.8381 8.18419L88.503 7.04356C88.6554 7.1758 88.8268 7.27815 89.017 7.34996C89.2075 7.42176 89.3975 7.45008 89.5871 7.43425C89.7643 7.41976 89.9094 7.35063 90.0228 7.22664C90.1357 7.10266 90.1842 6.93875 90.1676 6.73494C90.1508 6.52532 90.0638 6.36498 89.9072 6.25416C89.7504 6.14333 89.5256 6.03071 89.2332 5.91565C89.0492 5.84629 88.8749 5.76691 88.7107 5.67793C88.5468 5.58896 88.3991 5.47724 88.2682 5.34322C88.1373 5.20897 88.0303 5.04908 87.9475 4.86266C87.8647 4.67646 87.8129 4.45145 87.7914 4.18765C87.7628 3.83398 87.7978 3.52513 87.8966 3.26043C87.9951 2.99596 88.1344 2.77497 88.3138 2.59724C88.4935 2.41973 88.6977 2.28214 88.9271 2.18492C89.1559 2.08769 89.3898 2.02904 89.6285 2.00964C89.9834 1.98065 90.3058 2.01098 90.5964 2.10107C90.887 2.19116 91.1348 2.32652 91.3402 2.50737L90.6644 3.62614L90.6642 3.62704Z" fill="white" fill-opacity="0.8"/>
<path d="M96.04 8.52296L95.2953 5.93888L94.8648 5.91725L94.7394 8.45762L93.3237 8.38671L93.6387 2.00879L95.7204 2.11315C96.3503 2.14459 96.8313 2.3299 97.1642 2.66864C97.4969 3.00737 97.6477 3.49528 97.616 4.13171C97.6043 4.36586 97.5664 4.57481 97.5022 4.75811C97.4382 4.94164 97.3584 5.09729 97.2636 5.22507C97.1682 5.35262 97.0639 5.45587 96.9498 5.53436C96.8355 5.61308 96.7257 5.66771 96.6205 5.69849L97.5886 8.60078L96.04 8.52318V8.52296ZM96.1689 4.14041C96.1766 3.97807 96.1605 3.84516 96.1195 3.74058C96.0783 3.63622 96.0225 3.55215 95.952 3.48837C95.8816 3.42482 95.8021 3.37999 95.7146 3.35457C95.6269 3.32915 95.5399 3.31421 95.4542 3.30975L94.9948 3.28678L94.9151 4.89927L95.3472 4.9209C95.5551 4.93116 95.7407 4.87608 95.9035 4.75454C96.0663 4.63301 96.1547 4.42852 96.1689 4.14019V4.14041Z" fill="white" fill-opacity="0.8"/>
<path d="M104.261 6.57421C104.163 7.06949 104.015 7.51035 103.82 7.89725C103.623 8.28393 103.392 8.60036 103.123 8.84677C102.855 9.09318 102.554 9.26533 102.218 9.36301C101.882 9.4609 101.525 9.47161 101.146 9.39512C100.767 9.31863 100.441 9.17011 100.17 8.94957C99.8975 8.72903 99.6847 8.45296 99.5318 8.12181C99.3788 7.79044 99.2858 7.40844 99.253 6.97538C99.2202 6.54255 99.253 6.07849 99.3518 5.58322C99.4506 5.08794 99.5956 4.64953 99.7872 4.26843C99.9788 3.88733 100.208 3.57469 100.476 3.33096C100.743 3.08767 101.045 2.91841 101.38 2.82342C101.714 2.72842 102.074 2.71995 102.46 2.79755C102.839 2.87404 103.164 3.02099 103.437 3.23864C103.71 3.45628 103.923 3.72923 104.077 4.05748C104.23 4.38595 104.324 4.76371 104.358 5.19075C104.392 5.61778 104.36 6.07872 104.261 6.57399L104.261 6.57421ZM102.781 6.27562C102.835 6.00446 102.864 5.74801 102.869 5.50673C102.873 5.26545 102.851 5.05093 102.804 4.86361C102.757 4.67629 102.683 4.52153 102.582 4.40022C102.481 4.27847 102.349 4.20131 102.187 4.16853C102.025 4.13575 101.872 4.15537 101.729 4.22785C101.587 4.30032 101.458 4.41383 101.342 4.56836C101.227 4.72312 101.127 4.91267 101.041 5.1379C100.956 5.3629 100.886 5.61109 100.832 5.88203C100.778 6.15342 100.747 6.41076 100.74 6.65449C100.732 6.89823 100.751 7.11387 100.798 7.30096C100.846 7.4885 100.921 7.64482 101.025 7.7697C101.128 7.89502 101.261 7.97396 101.423 8.00652C101.586 8.0393 101.737 8.01767 101.878 7.94185C102.018 7.86603 102.146 7.75074 102.261 7.59598C102.376 7.44145 102.478 7.25056 102.567 7.02311C102.656 6.79587 102.728 6.54656 102.782 6.2754L102.781 6.27562Z" fill="white" fill-opacity="0.8"/>
<path d="M107.816 11.163L107.957 9.97732L106.58 9.47825L105.937 10.482L104.552 9.97977L108.19 4.51123L109.93 5.14209L109.263 11.6875L107.816 11.1632V11.163ZM108.58 6.12862L108.545 6.11591L107.112 8.48213L108.16 8.86189L108.58 6.12862V6.12862Z" fill="white" fill-opacity="0.8"/>
<path d="M115.905 11.5977C115.679 12.0216 115.427 12.3802 115.149 12.6732C114.871 12.9667 114.569 13.1825 114.245 13.3208C113.92 13.4595 113.573 13.5139 113.202 13.4842C112.831 13.4546 112.441 13.3286 112.03 13.1067L110.416 12.2346L113.416 6.60791L115.029 7.48005C115.44 7.70215 115.761 7.96061 115.99 8.25518C116.219 8.54976 116.365 8.87288 116.429 9.22433C116.492 9.57599 116.479 9.95085 116.388 10.3489C116.297 10.7469 116.137 11.1635 115.905 11.5979L115.905 11.5977ZM114.599 10.8919C114.901 10.325 115.031 9.84403 114.988 9.44844C114.944 9.05307 114.766 8.77053 114.452 8.60105L114.136 8.43024L112.323 11.8316L112.639 12.0024C112.952 12.1719 113.285 12.1656 113.636 11.9837C113.987 11.8015 114.308 11.4376 114.599 10.8919V10.8919Z" fill="white" fill-opacity="0.8"/>
<path d="M120.763 12.9738C120.748 12.8064 120.7 12.6509 120.622 12.5078C120.543 12.3646 120.439 12.2458 120.311 12.1512C120.177 12.0529 120.026 12.0063 119.86 12.0109C119.693 12.0154 119.541 12.1128 119.404 12.3024C119.288 12.4632 119.252 12.6284 119.296 12.7986C119.339 12.9687 119.43 13.1857 119.565 13.449C119.643 13.5953 119.719 13.757 119.793 13.9343C119.867 14.1116 119.917 14.2991 119.942 14.4965C119.968 14.694 119.958 14.9005 119.912 15.1171C119.866 15.3331 119.762 15.5532 119.601 15.7773C119.4 16.0548 119.178 16.2666 118.935 16.4124C118.692 16.5585 118.444 16.6448 118.192 16.672C117.939 16.6992 117.687 16.6749 117.437 16.5995C117.187 16.5239 116.955 16.408 116.741 16.2514C116.424 16.0186 116.177 15.7486 116.001 15.4408C115.825 15.1333 115.714 14.8437 115.668 14.5716L116.911 14.1441C116.94 14.3444 117.004 14.5344 117.102 14.7141C117.2 14.8936 117.326 15.0397 117.479 15.1525C117.623 15.258 117.778 15.301 117.944 15.2814C118.11 15.262 118.253 15.1695 118.373 15.0042C118.496 14.8341 118.534 14.6555 118.487 14.4686C118.44 14.2817 118.343 14.0487 118.195 13.7695C118.101 13.596 118.02 13.4216 117.953 13.2461C117.887 13.0708 117.847 12.8893 117.835 12.7018C117.822 12.5142 117.845 12.3227 117.903 12.1271C117.961 11.9316 118.067 11.7268 118.222 11.5132C118.43 11.2262 118.656 11.0153 118.902 10.8795C119.149 10.7437 119.397 10.6674 119.648 10.6509C119.9 10.6344 120.143 10.6643 120.38 10.7412C120.617 10.8179 120.832 10.9274 121.025 11.069C121.313 11.28 121.538 11.515 121.7 11.7741C121.861 12.033 121.962 12.2986 122 12.5707L120.763 12.9745V12.9738Z" fill="white" fill-opacity="0.8"/>
</g>
<defs>
<clipPath id="clip0_1311_5037">
<rect width="57" height="66" fill="white" transform="translate(65 2)"/>
</clipPath>
</defs>
</svg>
