<svg width="186" height="71" viewBox="0 0 186 71" fill="none" xmlns="http://www.w3.org/2000/svg">
<path d="M36.9125 26.4335C37.1203 26.4863 37.1723 26.5919 37.2764 26.6977C37.5365 27.0674 37.9525 27.2786 38.3165 27.4898C38.5765 27.6484 38.8366 27.754 39.0967 28.0182C39.0967 28.0182 39.1486 28.0182 39.2005 28.0708C39.6166 28.1766 40.0326 28.2822 40.4487 28.335C40.6565 28.3878 40.8647 28.4406 41.0727 28.4406C41.1768 28.4406 41.3328 28.3879 41.4887 28.3879C41.7488 28.3351 41.9566 28.2294 42.1649 28.071C42.425 27.8069 42.6847 27.5428 42.8928 27.226C43.1529 26.7505 43.2568 26.2225 43.1006 25.6943C43.0488 25.4829 42.9447 25.3245 42.7887 25.1661C42.4248 24.8492 42.1129 24.4794 41.6968 24.2154C41.5927 24.1097 41.4367 24.0041 41.3326 23.8986C41.3326 23.8458 41.2808 23.7929 41.2285 23.7929C41.0207 23.7401 40.9166 23.6345 40.7606 23.5287C40.3967 23.3176 40.0326 23.0005 39.5646 22.7365C39.3564 22.6308 39.3564 22.4724 39.2004 22.4196C38.9926 22.314 38.7846 22.2082 38.5764 22.1556C38.5246 22.1028 38.4723 22.1028 38.3686 22.0498C38.1085 21.8385 37.7443 21.6801 37.4324 21.5216C37.3805 21.5216 37.3282 21.5216 37.3282 21.4688C37.1723 21.2578 36.8604 21.2048 36.6524 20.9936C36.4442 20.7295 36.1322 20.5184 35.9244 20.2543C35.6643 19.9901 35.4043 19.6733 35.1442 19.4092C34.9882 19.2507 34.8844 19.0394 34.7284 18.881C34.7284 18.8282 34.6761 18.7754 34.6761 18.7226C34.6761 18.5642 34.572 18.4584 34.5202 18.3528C34.3642 18.2472 34.3124 18.036 34.2601 17.8776C34.2601 17.7191 34.2082 17.5607 34.1563 17.4551C34.0521 17.1909 34 16.9795 34 16.7157V15.9234C34 15.765 34 15.6592 34.0523 15.5008C34.0523 15.3424 34.1041 15.2368 34.1041 15.0782V14.9198C34.2601 14.1805 34.4683 13.4939 34.6761 12.8073C35.3523 11.4869 36.6001 9.95518 37.9525 9.42702C38.3686 9.21566 38.7325 9.11006 39.1486 8.8987C39.4086 8.7931 39.7206 8.7931 40.0326 8.7403H40.1368C40.3446 8.7403 40.5007 8.6875 40.6566 8.6875H41.5929C41.697 8.6875 41.8007 8.6875 41.8529 8.7403C42.3208 8.7403 42.841 8.84606 43.309 8.8987C43.621 8.9515 43.933 8.9515 44.245 9.05726C44.6092 9.10991 44.9211 9.16286 45.233 9.32126C45.4413 9.42702 45.7009 9.47967 45.9092 9.53262C46.2731 9.63822 46.5332 9.95518 46.7933 10.2192C46.8974 10.272 46.8974 10.3777 46.8451 10.4833C46.7413 10.8531 46.7413 11.2227 46.5332 11.5397C46.2212 12.1736 45.9092 12.8073 45.4931 13.3883C45.2849 13.7582 44.9211 14.2864 44.609 14.6032C44.5049 14.7088 44.4008 14.7088 44.2971 14.656C44.193 14.5502 44.1411 14.4976 44.0889 14.4446C43.8811 14.2862 43.7249 14.1278 43.5168 14.0749C43.309 13.9691 43.049 13.8107 42.841 13.7051C42.6328 13.6523 42.4768 13.4938 42.269 13.441C41.9566 13.3882 41.6447 13.2826 41.3328 13.2826C40.9689 13.2826 40.6048 13.2826 40.2409 13.3354C39.9808 13.441 39.7207 13.5994 39.5648 13.8106C39.3047 14.0219 39.0969 14.3387 38.9408 14.6029C38.7325 15.0781 38.6284 15.5536 38.7848 16.0818C38.8886 16.2931 38.9926 16.4515 39.1487 16.6099C39.4606 16.8741 39.7727 17.1383 40.0849 17.3493C40.2409 17.4551 40.4488 17.5607 40.5528 17.6663C41.2286 18.1944 41.8007 18.2472 42.3208 18.7754C42.5809 18.9338 42.997 19.1451 43.2568 19.2506C43.5168 19.409 43.7769 19.5676 44.037 19.7261C44.2448 19.9375 44.5049 20.0959 44.765 20.2013C44.921 20.3071 45.0769 20.3597 45.1289 20.4655C45.1812 20.5183 45.233 20.5711 45.3372 20.6239C45.389 20.6767 45.4413 20.6767 45.4931 20.7295C45.7009 20.9936 45.9092 21.205 46.1171 21.4688C46.2212 21.5216 46.3254 21.6274 46.3772 21.733C46.4813 21.7858 46.5332 21.8914 46.585 21.9444C46.7413 22.2084 46.9492 22.4725 47.157 22.6837C47.2093 22.7365 47.2611 22.8421 47.313 22.9479C47.3653 23.0535 47.4171 23.1589 47.5212 23.2119C47.5731 23.3176 47.6772 23.4232 47.6772 23.5816C47.729 23.7401 47.8331 23.8458 47.885 23.9514C47.9891 24.1098 48.0932 24.2684 48.0412 24.4269C48.0412 24.5853 48.0931 24.6909 48.1451 24.8493C48.2492 25.0607 48.301 25.2719 48.301 25.536C48.301 25.5887 48.3533 25.6416 48.3533 25.6416C48.2492 25.9586 48.3533 26.2756 48.301 26.5924C48.2492 26.6452 48.2492 26.7508 48.2492 26.8565C48.1974 27.0679 48.1451 27.2263 48.1451 27.4375C48.0932 27.4901 48.0932 27.5959 48.0932 27.6489C47.9373 28.1241 47.7813 28.7052 47.5731 29.1804C47.4171 29.5501 47.2611 29.8671 47.0532 30.1839C46.7413 30.6065 46.3771 31.029 45.909 31.3988C45.6489 31.6628 45.337 31.874 45.0249 32.1382C44.5566 32.455 44.0369 32.6663 43.4647 32.8247C43.0487 32.9831 42.5806 33.0889 42.1127 33.1945C42.0604 33.2473 41.9565 33.2473 41.9045 33.2473H41.4366C41.3848 33.2473 41.2806 33.2473 41.1765 33.1945C41.1247 33.1417 41.0724 33.1945 40.9687 33.1945C40.6045 33.1945 40.1885 33.1417 39.7724 33.0889C39.4085 32.9831 38.9924 32.9303 38.6282 32.7719H38.5244C38.0561 32.7193 37.6403 32.5606 37.2243 32.4551C36.8601 32.3494 36.4963 32.2438 36.1842 32.1383C36.028 32.0855 35.9241 32.0326 35.7682 31.9269C35.5599 31.8212 35.3521 31.7156 35.092 31.61C34.7281 31.4516 34.4159 31.1876 34.1561 30.8706C34.052 30.7122 34.052 30.5538 34.1038 30.4482C34.2079 30.1841 34.2598 29.9727 34.3639 29.7615C34.468 29.4975 34.624 29.2863 34.78 29.0749C34.9359 28.7581 35.196 28.441 35.352 28.1242C35.6121 27.8074 35.8718 27.4903 36.1319 27.1735C36.3402 26.9093 36.6521 26.6983 36.9122 26.4341L36.9125 26.4335Z" fill="white" fill-opacity="0.8"/>
<path d="M64.0585 8.47551C64.3182 8.95072 64.5263 9.42624 64.5263 10.007C64.4222 11.6971 64.4222 13.3874 64.4222 15.0775V18.1938C64.3704 18.7748 64.3704 19.3029 64.3704 19.8311C64.3704 20.6762 64.3181 21.5212 64.3181 22.3664V25.1658C64.2663 25.694 64.2663 26.2221 64.2663 26.6975C64.2144 27.1727 64.1621 27.6482 64.0062 28.1234C63.7984 28.6516 63.6423 29.1798 63.4863 29.7607C63.3822 30.0249 63.278 30.2889 63.1739 30.553C62.9661 30.9756 62.706 31.2924 62.3421 31.5566C62.0302 31.7679 61.7701 32.0318 61.458 32.2959C61.3021 32.4543 61.0938 32.6127 60.8337 32.7185C60.6778 32.8241 60.5218 32.9825 60.2617 33.0882C60.0539 33.1409 59.7938 33.2993 59.5338 33.4051C59.0659 33.5107 58.6497 33.5107 58.1299 33.5107H56.1537C55.9459 33.5107 55.7895 33.5107 55.5817 33.4051C55.2697 33.2993 54.9577 33.2466 54.6457 33.1409C54.3334 33.0882 54.0737 32.9825 53.8655 32.7711C53.8136 32.6655 53.7095 32.6655 53.6577 32.6127C53.5536 32.5599 53.4494 32.5599 53.3976 32.4543C53.3458 32.4015 53.2416 32.3486 53.1893 32.3486C53.1375 32.2959 53.0855 32.2959 53.0855 32.243C52.8773 32.0316 52.6695 31.8732 52.5135 31.662C51.5773 30.7113 51.0051 29.3382 50.6932 28.0177C50.5894 27.331 50.4854 26.5914 50.5894 25.9049C50.6412 25.3239 50.6412 24.7428 50.6412 24.1618C50.6412 23.5809 50.6412 23.0527 50.5894 22.4717C50.5894 22.3661 50.5894 22.2604 50.6412 22.1549V21.9965C50.5371 21.521 50.5894 21.0458 50.5894 20.5703C50.5371 20.2535 50.5894 19.8837 50.5371 19.5669C50.5371 19.1972 50.5371 18.8802 50.4852 18.5104V17.0316C50.4852 15.6583 50.4852 14.2322 50.3811 12.8589V9.37328C50.3811 9.05648 50.3293 8.79232 50.433 8.52816C50.849 8.21136 51.3173 8.05295 51.8372 8H53.3456C53.6054 8.0528 53.8655 8.10575 54.1256 8.1584C54.2297 8.1584 54.3857 8.26416 54.4895 8.31681C54.6457 8.36961 54.8019 8.47536 55.0097 8.58096C55.0097 8.58096 55.0615 8.68657 55.1138 8.73937C55.3216 8.95072 55.3739 9.21488 55.3739 9.47873C55.3216 9.79569 55.3739 10.1655 55.3216 10.4823C55.3739 10.7991 55.3216 11.1162 55.3216 11.433C55.3216 12.2253 55.2697 13.0703 55.2697 13.8626V16.2392C55.2175 16.7148 55.2175 17.1373 55.2175 17.6125C55.1656 18.1935 55.1656 18.7746 55.1656 19.4082V21.2041C55.1138 22.049 55.1138 22.8413 55.1138 23.6337C55.1138 24.373 55.0615 25.1126 55.1138 25.8519C55.1656 26.8026 55.3216 27.7534 55.7378 28.5983C55.8937 28.9681 56.1538 29.2322 56.4657 29.4964C56.5699 29.5491 56.6217 29.6548 56.7777 29.7078C56.8818 29.8134 57.0378 29.8662 57.1937 29.8662H57.5056C58.0258 29.8662 58.3377 29.7604 58.702 29.3907C59.4299 28.7569 59.898 27.595 59.898 26.6442C59.898 26.3274 59.898 26.0103 59.9498 25.6935V24.2676C59.9498 23.6337 59.8457 22.9999 59.9498 22.3133C59.8457 21.6794 59.898 21.0458 59.898 20.4119C59.8457 19.3556 59.7938 18.2991 59.7938 17.2957C59.7938 16.8732 59.742 16.5034 59.742 16.0808C59.742 14.6549 59.6897 13.2287 59.742 11.8026C59.742 11.38 59.6897 10.9575 59.7938 10.5351C59.742 10.3237 59.7938 10.1125 59.7938 9.90114C59.8457 9.68978 59.8457 9.47858 59.898 9.26722C59.9498 8.89746 60.1058 8.63346 60.3659 8.42226C60.5218 8.26385 60.6778 8.2109 60.886 8.2109H62.082C62.6022 8.2637 63.0701 8.3165 63.59 8.3165C63.7459 8.3693 63.9023 8.42226 64.0583 8.47506L64.0585 8.47551Z" fill="white" fill-opacity="0.8"/>
<path d="M67.4386 9.74311C67.4386 9.42631 67.5428 9.16215 67.7506 8.89799C67.8547 8.79239 67.9588 8.73959 68.0625 8.68664C68.1666 8.68664 68.2707 8.63399 68.3749 8.58104C68.4787 8.58104 68.5826 8.52823 68.6868 8.52823H70.2988C70.5066 8.52823 70.6627 8.52823 70.8708 8.47559C71.2348 8.47559 71.6508 8.47559 71.9627 8.68664C72.0669 8.73944 72.2228 8.79239 72.3788 8.79239C72.4829 8.73959 72.5347 8.79239 72.6389 8.84519C72.8467 9.05655 73.0549 9.2676 73.159 9.58456C73.2109 9.84856 73.315 10.1127 73.523 10.3769C73.5748 10.4295 73.523 10.5353 73.5748 10.6409C73.7311 10.9577 73.8349 11.2748 73.939 11.5916C74.095 11.9084 74.2509 12.2255 74.355 12.5423C74.4069 12.7537 74.511 12.8591 74.667 12.9649C74.667 13.1762 74.7188 13.3873 74.8229 13.5987C74.9271 13.81 75.0312 14.0742 75.1349 14.338C75.1871 14.4438 75.239 14.6022 75.3431 14.655C75.3949 14.7606 75.4469 14.8663 75.4469 14.919C75.4992 15.1303 75.5511 15.3415 75.6552 15.4999C75.9671 16.0281 76.1751 16.6091 76.4351 17.19C76.6434 17.5598 76.7471 17.9824 77.0072 18.3521C77.0594 18.4577 77.1113 18.6163 77.1631 18.7219C77.1631 18.8275 77.2154 18.9332 77.3191 18.9332C77.3714 18.9332 77.3714 18.8804 77.3714 18.8275C77.4232 18.7748 77.4232 18.7219 77.4232 18.6691C77.3191 18.3523 77.4232 17.9825 77.3714 17.6657C77.3191 17.5599 77.3714 17.4015 77.3714 17.2959C77.3714 17.1375 77.4232 16.979 77.3714 16.8204V16.6091C77.4232 16.4507 77.3714 16.2393 77.3714 16.0809V15.183C77.3714 14.0209 77.3191 12.859 77.2154 11.6969C77.1631 11.0631 77.2154 10.4294 77.1631 9.84826C77.1631 9.42585 77.475 8.89754 77.8911 8.79193C78.3071 8.73913 78.8273 8.63353 79.2434 8.63353H80.8031C81.0632 8.63353 81.3233 8.63353 81.5834 8.73913C81.8435 8.95049 81.8435 9.2673 81.8435 9.53145C81.8953 9.79561 81.8435 10.0596 81.8435 10.2708V18.6688C81.8953 19.7252 81.8953 20.7286 81.8953 21.7323C81.8953 21.9965 81.8953 22.2075 81.9472 22.4717C81.9472 22.5774 81.9472 22.7358 81.8953 22.8414V23.4753C81.9472 23.6867 81.8953 23.8979 81.8953 24.1091C81.8953 24.4261 81.8953 24.743 81.9472 25.1126V30.5528C81.9472 30.7642 81.9472 30.9226 81.8953 31.1338V32.0845C81.8953 32.4013 81.7394 32.6655 81.5834 32.9295C81.5311 32.9823 81.4793 33.0352 81.4274 33.0352C81.3233 33.1408 81.1674 33.1936 81.0114 33.2466C80.9591 33.2466 80.9591 33.2992 80.9073 33.2466H80.6995C80.3875 33.2466 80.1275 33.2992 79.8154 33.2992H78.775C78.5672 33.2992 78.3593 33.2466 78.203 33.0882C78.0992 32.9824 78.0471 32.8768 77.9432 32.7712C77.7873 32.4014 77.579 32.0846 77.4749 31.7149C77.2671 31.2394 77.007 30.7642 76.7991 30.2886C76.7468 30.1302 76.6431 30.0246 76.539 29.8662C76.4871 29.7605 76.4871 29.6021 76.4348 29.4965C76.1748 28.9155 75.915 28.2816 75.6549 27.7006C75.4989 27.1725 74.7187 25.324 74.4067 24.9542C74.3549 24.9014 74.3549 24.7958 74.3549 24.6901C74.2508 24.4787 74.1467 24.2149 73.9907 24.0035L73.3667 22.5776C73.1589 22.2077 72.9506 21.7852 72.7947 21.3627C72.5869 21.2043 72.5346 20.9401 72.4828 20.7288C72.4828 20.6232 72.1708 20.2006 72.1185 20.1478V21.2571C72.1708 21.6795 72.1185 22.0493 72.1708 22.4189C72.2227 22.4717 72.2227 22.5774 72.1708 22.6302C72.0667 23 72.1708 23.3169 72.1708 23.6867C72.1708 23.9507 72.1185 24.2149 72.1708 24.4789V25.1656C72.2227 25.9049 72.2227 26.5915 72.2227 27.2784V30.4474C72.2227 30.6587 72.1708 30.9226 72.1708 31.1339C72.1185 31.3981 72.1185 31.6621 72.1185 31.8733C72.1708 32.243 72.0147 32.5072 71.8588 32.7712C71.8588 32.824 71.8065 32.824 71.7546 32.877C71.6505 32.9296 71.4945 33.0354 71.3904 33.0883C71.2863 33.1413 71.2345 33.141 71.1826 33.141H70.0904C69.9866 33.141 69.9345 33.0883 69.8826 33.141C69.7267 33.1938 69.5707 33.1938 69.4147 33.1938H68.9464C68.7904 33.1938 68.6345 33.0882 68.4785 32.9824C68.2184 32.6656 68.0625 32.3485 67.9587 31.9789C67.9587 31.9262 67.9064 31.8205 67.9064 31.7678C67.9064 31.0285 67.8545 30.3416 67.8545 29.655V27.4368C67.8027 26.6445 67.8027 25.8521 67.7504 25.0598V24.3733C67.7504 23.8981 67.6986 23.3697 67.6986 22.8416C67.6463 22.3664 67.6986 21.838 67.6463 21.3099V18.6689C67.6463 18.5105 67.6986 18.3521 67.6463 18.1937C67.5944 18.1937 67.5944 18.1409 67.5944 18.088C67.6986 17.7182 67.5944 17.3486 67.6463 16.9788C67.6986 16.7148 67.6463 16.4507 67.6463 16.1339C67.6463 15.7641 67.5944 15.3415 67.5944 14.919V13.7043C67.5944 13.2817 67.5426 12.8591 67.5426 12.4367C67.4903 11.5387 67.4385 10.6409 67.4385 9.74296L67.4386 9.74311Z" fill="white" fill-opacity="0.8"/>
<path d="M87.3044 26.4335C87.5122 26.4863 87.5642 26.5919 87.6683 26.6977C87.9284 27.0674 88.3445 27.2786 88.7084 27.4898C88.9685 27.6484 89.2286 27.754 89.4887 28.0182C89.4887 28.0182 89.5405 28.0182 89.5925 28.0708C90.0085 28.1766 90.4246 28.2822 90.8406 28.335C91.0484 28.3878 91.2567 28.4406 91.4646 28.4406C91.5688 28.4406 91.7247 28.3879 91.8807 28.3879C92.1408 28.3351 92.3486 28.2294 92.5568 28.071C92.8169 27.8069 93.0767 27.5428 93.2848 27.226C93.5449 26.7505 93.6487 26.2225 93.4926 25.6943C93.4408 25.4829 93.3366 25.3245 93.1807 25.1661C92.8167 24.8492 92.5048 24.4794 92.0888 24.2154C91.9847 24.1097 91.8287 24.0041 91.7246 23.8986C91.7246 23.8458 91.6727 23.7929 91.6204 23.7929C91.4126 23.7401 91.3085 23.6345 91.1526 23.5287C90.7886 23.3176 90.4246 23.0005 89.9565 22.7365C89.7483 22.6308 89.7483 22.4724 89.5923 22.4196C89.3845 22.314 89.1766 22.2082 88.9683 22.1556C88.9165 22.1028 88.8642 22.1028 88.7605 22.0498C88.5004 21.8385 88.1362 21.6801 87.8243 21.5216C87.7725 21.5216 87.7202 21.5216 87.7202 21.4688C87.5642 21.2578 87.2523 21.2048 87.0443 20.9936C86.8361 20.7295 86.5242 20.5184 86.3164 20.2543C86.0563 19.9901 85.7962 19.6733 85.5361 19.4092C85.3802 19.2507 85.2763 19.0394 85.1201 18.881C85.1201 18.8282 85.0682 18.7754 85.0682 18.7226C85.0682 18.5642 84.9641 18.4584 84.9123 18.3528C84.7563 18.2472 84.7045 18.036 84.6522 17.8776C84.6522 17.7191 84.6003 17.5607 84.5484 17.4551C84.4442 17.1909 84.3921 16.9795 84.3921 16.7157V15.9234C84.3921 15.765 84.3921 15.6592 84.4444 15.5008C84.4444 15.3424 84.4962 15.2368 84.4962 15.0782V14.9198C84.6522 14.1805 84.8604 13.4939 85.0682 12.8073C85.7444 11.4869 86.9922 9.95518 88.3446 9.42702C88.7607 9.21566 89.1246 9.11006 89.5406 8.8987C89.8007 8.7931 90.1127 8.7931 90.4247 8.7403H90.5289C90.7367 8.7403 90.8928 8.6875 91.0487 8.6875H91.985C92.0891 8.6875 92.1928 8.6875 92.245 8.7403C92.7129 8.7403 93.2331 8.84606 93.7011 8.8987C94.0131 8.9515 94.3251 8.9515 94.6371 9.05726C95.0013 9.10991 95.3132 9.16286 95.6251 9.32126C95.8334 9.42702 96.093 9.47967 96.3013 9.53262C96.6652 9.63822 96.9253 9.95518 97.1853 10.2192C97.2895 10.272 97.2895 10.3777 97.2372 10.4833C97.1334 10.8531 97.1334 11.2227 96.9253 11.5397C96.6133 12.1736 96.3013 12.8073 95.8852 13.3883C95.677 13.7582 95.3132 14.2864 95.0011 14.6032C94.897 14.7088 94.7929 14.7088 94.6892 14.656C94.5851 14.5502 94.5332 14.4976 94.4809 14.4446C94.2732 14.2862 94.117 14.1278 93.9089 14.0749C93.7011 13.9691 93.441 13.8107 93.2331 13.7051C93.0248 13.6523 92.8689 13.4938 92.6611 13.441C92.3487 13.3882 92.0368 13.2826 91.7249 13.2826C91.361 13.2826 90.9969 13.2826 90.633 13.3354C90.3729 13.441 90.1128 13.5994 89.9568 13.8106C89.6968 14.0219 89.489 14.3387 89.3328 14.6029C89.1246 15.0781 89.0205 15.5536 89.1769 16.0818C89.2807 16.2931 89.3847 16.4515 89.5408 16.6099C89.8527 16.8741 90.1648 17.1383 90.477 17.3493C90.633 17.4551 90.8409 17.5607 90.9449 17.6663C91.6207 18.1944 92.1927 18.2472 92.7129 18.7754C92.973 18.9338 93.3891 19.1451 93.6488 19.2506C93.9089 19.409 94.169 19.5676 94.4291 19.7261C94.6369 19.9375 94.897 20.0959 95.1571 20.2013C95.313 20.3071 95.469 20.3597 95.521 20.4655C95.5733 20.5183 95.6251 20.5711 95.7292 20.6239C95.7811 20.6767 95.8334 20.6767 95.8852 20.7295C96.093 20.9936 96.3013 21.205 96.5092 21.4688C96.6133 21.5216 96.7175 21.6274 96.7693 21.733C96.8734 21.7858 96.9253 21.8914 96.9771 21.9444C97.1334 22.2084 97.3413 22.4725 97.5491 22.6837C97.6014 22.7365 97.6532 22.8421 97.7051 22.9479C97.7574 23.0535 97.8092 23.1589 97.9133 23.2119C97.9652 23.3176 98.0693 23.4232 98.0693 23.5816C98.1211 23.7401 98.2252 23.8458 98.2771 23.9514C98.3812 24.1098 98.4853 24.2684 98.433 24.4269C98.433 24.5853 98.4853 24.6909 98.5372 24.8493C98.6413 25.0607 98.6931 25.2719 98.6931 25.536C98.6931 25.5887 98.7454 25.6416 98.7454 25.6416C98.6413 25.9586 98.7454 26.2756 98.6931 26.5924C98.6413 26.6452 98.6413 26.7508 98.6413 26.8565C98.5895 27.0679 98.5372 27.2263 98.5372 27.4375C98.4853 27.4901 98.4853 27.5959 98.4853 27.6489C98.3294 28.1241 98.1734 28.7052 97.9652 29.1804C97.8092 29.5501 97.6532 29.8671 97.4453 30.1839C97.1334 30.6065 96.7691 31.029 96.3011 31.3988C96.041 31.6628 95.7291 31.874 95.417 32.1382C94.9487 32.455 94.429 32.6663 93.8568 32.8247C93.4407 32.9831 92.9727 33.0889 92.5048 33.1945C92.4525 33.2473 92.3486 33.2473 92.2966 33.2473H91.8287C91.7764 33.2473 91.6727 33.2473 91.5686 33.1945C91.5168 33.1417 91.4645 33.1945 91.3608 33.1945C90.9966 33.1945 90.5805 33.1417 90.1645 33.0889C89.8006 32.9831 89.3845 32.9303 89.0203 32.7719H88.9165C88.4486 32.7193 88.0324 32.5606 87.6164 32.4551C87.2521 32.3494 86.8884 32.2438 86.5763 32.1383C86.4201 32.0855 86.3162 32.0326 86.1603 31.9269C85.952 31.8212 85.7442 31.7156 85.4841 31.61C85.1199 31.4516 84.808 31.1876 84.5482 30.8706C84.4441 30.7122 84.4441 30.5538 84.4959 30.4482C84.6 30.1841 84.6519 29.9727 84.756 29.7615C84.8601 29.4975 85.0161 29.2863 85.1721 29.0749C85.328 28.7581 85.5881 28.441 85.7441 28.1242C86.0042 27.8074 86.2639 27.4903 86.524 27.1735C86.7323 26.9093 87.0442 26.6983 87.3043 26.4341L87.3044 26.4335Z" fill="white" fill-opacity="0.8"/>
<path d="M106.286 22.2079C106.182 20.2538 106.182 18.2468 106.182 16.2924C106.234 15.8698 106.182 15.3945 106.234 14.9719V14.6551C106.13 14.3382 106.234 14.0212 106.234 13.6516C106.234 13.6516 106.286 13.5988 106.286 13.546C106.39 13.3346 106.442 13.0705 106.546 12.8593C106.754 12.2783 107.222 11.4861 107.586 10.9578C107.742 10.6938 107.95 10.4297 108.158 10.2185C108.47 9.84869 108.834 9.53189 109.198 9.26773C109.25 9.21508 109.302 9.16213 109.406 9.16213C109.458 9.10933 109.51 9.10933 109.562 9.05653C109.926 8.73957 110.342 8.58101 110.81 8.47556H110.914C111.59 8.15861 112.318 8.15861 113.046 8.15861C113.358 8.15861 113.722 8.15861 114.034 8.10596H114.294C114.555 8.10596 114.762 8.10596 114.97 8.15861C115.334 8.21141 115.699 8.31701 116.062 8.47556C116.478 8.68662 116.895 8.89797 117.311 9.21493C117.623 9.42629 117.935 9.69014 118.298 9.9015C118.402 9.9543 118.507 10.0599 118.558 10.1657C118.714 10.2713 118.87 10.4825 119.027 10.5881C119.079 10.6409 119.183 10.6938 119.183 10.7994C119.287 11.0636 119.495 11.2749 119.598 11.5388C119.703 11.6972 119.755 11.9085 119.859 12.0669C120.067 12.5425 120.17 13.0177 120.275 13.546C120.326 13.6516 120.326 13.7573 120.326 13.8628C120.326 14.6551 120.379 15.4473 120.326 16.2394C120.275 17.1375 120.275 18.0881 120.275 18.986C120.223 19.6726 120.223 20.4119 120.223 21.0985C120.17 21.8379 120.17 22.5775 120.17 23.3171C120.17 24.2678 120.17 25.1657 120.067 26.0635C120.067 26.6444 120.014 27.2256 119.911 27.8065C119.858 28.0179 119.807 28.2289 119.702 28.4403C119.598 28.7044 119.546 28.9684 119.495 29.2326C119.391 29.6024 119.235 29.9192 119.13 30.2361C119.079 30.3417 119.027 30.3945 119.027 30.5001C118.87 30.9756 118.506 31.3453 118.09 31.6622C117.778 31.9264 117.466 32.1904 117.154 32.4545C116.999 32.5601 116.894 32.6659 116.686 32.7713C116.686 32.7713 116.634 32.7713 116.582 32.8241C115.958 33.3523 114.814 33.6165 114.034 33.6165H112.89C112.786 33.6691 112.682 33.6691 112.578 33.6165C112.214 33.6165 111.902 33.6165 111.538 33.5637H111.434C111.07 33.4581 110.654 33.3523 110.29 33.2469C110.185 33.194 110.029 33.1411 109.926 33.0355C109.666 32.8771 109.405 32.7187 109.145 32.56C109.042 32.4544 108.833 32.4016 108.729 32.2432C108.678 32.1376 108.522 32.0318 108.417 31.9264C108.261 31.8206 108.157 31.6094 108.001 31.4509C107.221 30.5529 106.805 29.391 106.545 28.2289C106.493 27.8065 106.389 27.384 106.441 26.9614C106.285 26.5388 106.337 26.0635 106.337 25.6409V24.3734C106.337 23.634 106.337 22.9475 106.285 22.2078L106.286 22.2079ZM110.862 25.3243C110.914 25.7995 110.862 26.2222 110.914 26.6447C111.018 27.3841 111.122 28.1236 111.486 28.7575C111.746 29.3913 112.474 30.078 113.202 30.078C113.618 30.078 114.034 29.9723 114.347 29.6555C114.711 29.3387 115.023 28.9688 115.231 28.5463C115.283 28.3879 115.335 28.2294 115.439 28.0708C115.647 27.7011 115.647 27.3315 115.647 26.9617V26.1694C115.699 25.7996 115.751 25.43 115.751 25.0603V23.5286C115.699 22.842 115.699 22.1554 115.647 21.4687C115.595 20.7822 115.647 20.0956 115.595 19.4089C115.543 18.8807 115.595 18.3526 115.543 17.8773C115.543 16.9266 115.595 15.9231 115.491 14.9722C115.439 14.6025 115.491 14.1799 115.335 13.8101C115.283 13.7045 115.335 13.6517 115.283 13.5461C115.231 13.1236 115.127 12.701 114.815 12.3841C114.711 12.2783 114.555 12.1199 114.451 12.0143C114.191 11.8029 113.879 11.6973 113.619 11.6445C113.567 11.5917 113.514 11.5917 113.463 11.5917C113.307 11.6445 113.099 11.6445 112.891 11.6445C112.786 11.6972 112.683 11.6972 112.579 11.7501C112.267 11.9615 112.007 12.1727 111.747 12.4369C111.383 12.9121 111.175 13.4402 111.019 14.0213V14.1797C111.019 14.5495 111.019 14.9191 110.967 15.2889V16.6094C110.914 17.2961 110.914 17.9826 110.863 18.6692C110.863 19.7257 110.863 20.8348 110.811 21.8911C110.759 22.4721 110.759 23.0003 110.759 23.5812C110.759 23.687 110.759 23.7926 110.811 23.8982C110.863 24.3734 110.863 24.8487 110.863 25.3241L110.862 25.3243Z" fill="white" fill-opacity="0.8"/>
<path d="M136.501 8.47551C136.76 8.95072 136.969 9.42624 136.969 10.007C136.864 11.6971 136.864 13.3874 136.864 15.0775V18.1938C136.813 18.7748 136.813 19.3029 136.813 19.8311C136.813 20.6762 136.76 21.5212 136.76 22.3664V25.1658C136.708 25.694 136.708 26.2221 136.708 26.6975C136.657 27.1727 136.604 27.6482 136.448 28.1234C136.241 28.6516 136.084 29.1798 135.929 29.7607C135.824 30.0249 135.72 30.2889 135.616 30.553C135.408 30.9756 135.148 31.2924 134.784 31.5566C134.472 31.7679 134.212 32.0318 133.9 32.2959C133.744 32.4543 133.536 32.6127 133.276 32.7185C133.12 32.8241 132.964 32.9825 132.704 33.0882C132.496 33.1409 132.236 33.2993 131.976 33.4051C131.508 33.5107 131.092 33.5107 130.572 33.5107H128.596C128.388 33.5107 128.232 33.5107 128.024 33.4051C127.712 33.2993 127.4 33.2466 127.088 33.1409C126.776 33.0882 126.516 32.9825 126.308 32.7711C126.256 32.6655 126.152 32.6655 126.1 32.6127C125.996 32.5599 125.892 32.5599 125.84 32.4543C125.788 32.4015 125.684 32.3486 125.632 32.3486C125.58 32.2959 125.528 32.2959 125.528 32.243C125.32 32.0316 125.112 31.8732 124.956 31.662C124.02 30.7113 123.447 29.3382 123.135 28.0177C123.031 27.331 122.928 26.5914 123.031 25.9049C123.084 25.3239 123.084 24.7428 123.084 24.1618C123.084 23.5809 123.084 23.0527 123.031 22.4717C123.031 22.3661 123.031 22.2604 123.084 22.1549V21.9965C122.979 21.521 123.031 21.0458 123.031 20.5703C122.979 20.2535 123.031 19.8837 122.979 19.5669C122.979 19.1972 122.979 18.8802 122.928 18.5104V17.0316C122.928 15.6583 122.928 14.2322 122.824 12.8589V9.37328C122.824 9.05648 122.772 8.79232 122.875 8.52816C123.291 8.21136 123.76 8.05295 124.28 8H125.788C126.048 8.0528 126.308 8.10575 126.568 8.1584C126.672 8.1584 126.828 8.26416 126.932 8.31681C127.088 8.36961 127.244 8.47536 127.452 8.58096C127.452 8.58096 127.504 8.68657 127.556 8.73937C127.764 8.95072 127.816 9.21488 127.816 9.47873C127.764 9.79569 127.816 10.1655 127.764 10.4823C127.816 10.7991 127.764 11.1162 127.764 11.433C127.764 12.2253 127.712 13.0703 127.712 13.8626V16.2392C127.66 16.7148 127.66 17.1373 127.66 17.6125C127.608 18.1935 127.608 18.7746 127.608 19.4082V21.2041C127.556 22.049 127.556 22.8413 127.556 23.6337C127.556 24.373 127.504 25.1126 127.556 25.8519C127.608 26.8026 127.764 27.7534 128.18 28.5983C128.336 28.9681 128.596 29.2322 128.908 29.4964C129.012 29.5491 129.064 29.6548 129.22 29.7078C129.324 29.8134 129.48 29.8662 129.636 29.8662H129.948C130.468 29.8662 130.78 29.7604 131.144 29.3907C131.872 28.7569 132.34 27.595 132.34 26.6442C132.34 26.3274 132.34 26.0103 132.392 25.6935V24.2676C132.392 23.6337 132.288 22.9999 132.392 22.3133C132.288 21.6794 132.34 21.0458 132.34 20.4119C132.288 19.3556 132.236 18.2991 132.236 17.2957C132.236 16.8732 132.184 16.5034 132.184 16.0808C132.184 14.6549 132.132 13.2287 132.184 11.8026C132.184 11.38 132.132 10.9575 132.236 10.5351C132.184 10.3237 132.236 10.1125 132.236 9.90114C132.288 9.68978 132.288 9.47858 132.34 9.26722C132.392 8.89746 132.548 8.63346 132.808 8.42226C132.964 8.26385 133.12 8.2109 133.328 8.2109H134.524C135.045 8.2637 135.512 8.3165 136.032 8.3165C136.188 8.3693 136.344 8.42226 136.501 8.47506V8.47551Z" fill="white" fill-opacity="0.8"/>
<path d="M139.465 9.37331C139.621 9.16195 139.881 9.10915 140.037 9.00355V8.89779C140.141 8.79219 140.245 8.79219 140.348 8.73939C141.076 8.68659 141.805 8.63379 142.533 8.63379C142.793 8.63379 143.053 8.58099 143.261 8.58099H143.416C143.521 8.63379 143.677 8.63379 143.781 8.63379C144.041 8.63379 144.301 8.58099 144.613 8.52803H144.665C145.081 8.52803 145.497 8.42243 145.913 8.42243H147.057C147.213 8.36963 147.369 8.36963 147.525 8.36963C147.681 8.36963 147.837 8.36963 147.993 8.42243C148.045 8.42243 148.149 8.47523 148.201 8.47523H148.565C148.617 8.47523 148.669 8.42243 148.773 8.42243C148.877 8.47523 148.929 8.47523 149.033 8.47523C149.241 8.47523 149.449 8.42243 149.605 8.42243C149.761 8.42243 149.865 8.42243 150.021 8.47523C150.073 8.47523 150.177 8.52788 150.229 8.47523C150.385 8.42243 150.541 8.42243 150.645 8.42243H151.061C151.165 8.42243 151.217 8.42243 151.269 8.47523H151.477C151.529 8.42243 151.633 8.42243 151.685 8.42243C151.789 8.42243 151.841 8.42243 151.945 8.47523C152.101 8.58083 152.257 8.63363 152.413 8.68628C152.621 8.89764 152.725 9.05619 152.621 9.3202C152.673 9.4786 152.621 9.68996 152.621 9.84836C152.673 10.1653 152.673 10.5351 152.621 10.8519C152.569 11.0632 152.569 11.2744 152.569 11.4858C152.569 11.7498 152.569 11.961 152.517 12.2252C152.465 12.4365 152.413 12.5949 152.413 12.8061C152.413 12.9645 152.309 13.1229 152.153 13.1759C151.945 13.2285 151.737 13.2815 151.581 13.2815C151.269 13.2815 151.009 13.2815 150.749 13.3343C150.697 13.3869 150.645 13.3343 150.541 13.3343H150.385C150.125 13.3869 149.865 13.3869 149.553 13.3869H149.137C148.929 13.3869 148.721 13.3869 148.513 13.4927C148.461 13.4927 148.461 13.5983 148.461 13.6511V19.9364C148.513 20.623 148.513 21.2569 148.565 21.9434C148.565 22.63 148.513 23.3167 148.565 23.9505C148.565 24.5315 148.513 25.1126 148.565 25.6935V30.3414C148.565 30.8169 148.565 31.3449 148.513 31.8203C148.513 32.1372 148.357 32.4542 148.149 32.7184C147.993 32.8768 147.785 32.9824 147.473 32.9824H146.381C146.069 33.0352 145.705 33.0352 145.393 33.0881C145.185 33.0881 144.977 32.9824 144.821 32.824C144.509 32.4014 144.249 31.9788 144.249 31.4507V29.602C144.197 28.7041 144.197 27.8063 144.197 26.9083C144.145 26.3275 144.197 25.6935 144.145 25.1126C144.093 24.4787 144.093 23.8978 144.093 23.2639V21.9964C144.041 21.7322 144.041 21.4681 144.041 21.2041C144.041 21.1513 143.989 21.0983 144.041 21.0457C144.093 20.7815 144.041 20.4647 144.041 20.2006V18.3519C144.041 18.0351 143.989 17.7709 143.989 17.454V14.4434C143.989 14.1266 143.989 13.7569 143.937 13.3869C143.885 13.3869 143.885 13.3343 143.833 13.3343C143.729 13.2815 143.625 13.2815 143.521 13.2815C143.469 13.2815 143.417 13.2815 143.365 13.3343H143.209C143.053 13.2815 142.897 13.2815 142.741 13.2815H141.961C141.805 13.2815 141.649 13.2815 141.493 13.2287C141.389 13.176 141.285 13.2815 141.181 13.2815H140.297C140.037 13.2815 139.881 13.1759 139.725 12.9117C139.569 12.5949 139.465 12.2778 139.465 11.961V10.7463C139.361 10.2708 139.517 9.79556 139.465 9.373L139.465 9.37331Z" fill="white" fill-opacity="0.8"/>
<path d="M34.1824 38.4002C34.1824 37.9776 34.5466 37.3967 35.1705 37.3437C35.3783 37.3437 35.5865 37.2381 35.8466 37.1853C36.3665 37.0269 36.9385 36.9212 37.5105 36.8156C37.7706 36.7628 38.0307 36.7628 38.3426 36.71H38.8105C38.9664 36.7626 39.0706 36.7626 39.1747 36.7626H39.7467C40.5785 36.8684 41.4106 36.974 42.1387 37.2908C42.6066 37.4493 43.0228 37.6077 43.3869 37.9247C44.0109 38.136 44.3746 38.6113 44.8948 38.8754C45.0508 39.0868 45.259 39.1922 45.415 39.4036C45.5188 39.562 45.6748 39.7205 45.831 39.8261C45.987 39.9317 46.0388 40.1429 46.1429 40.3013C46.2468 40.4071 46.2989 40.5655 46.403 40.6711C46.5069 40.8297 46.8709 41.4634 46.8709 41.6218C47.131 42.0973 47.287 42.9423 47.287 43.4706C47.287 43.629 47.1828 43.8404 47.3388 43.9458V44.0514C47.287 44.2628 47.287 44.474 47.287 44.6853C47.287 45.8474 46.4029 47.6431 45.7786 48.5412C45.3107 49.122 44.8427 49.6503 44.2706 50.1257C44.2184 50.1785 44.1665 50.1785 44.1147 50.2314C44.1147 50.337 44.1665 50.3898 44.2706 50.3898C44.6867 50.6012 45.0506 50.865 45.3625 51.1292C45.6745 51.3932 45.9345 51.6044 46.2466 51.8686C46.715 52.3438 47.6509 53.9284 47.6509 54.5095C47.599 54.6679 47.7032 54.8793 47.755 55.0377C47.755 55.0905 47.8068 55.1433 47.755 55.2491C47.7032 55.4604 47.7032 55.6716 47.755 55.9356C47.7032 56.1998 47.7032 56.4111 47.6509 56.675C47.183 58.418 46.0907 59.7913 44.6346 60.7947C44.2706 61.006 43.9066 61.2702 43.4904 61.3756C43.4385 61.4284 43.3866 61.4814 43.3344 61.4814C43.0746 61.6398 42.8145 61.7454 42.5545 61.7982C42.4503 61.7982 42.3985 61.851 42.3462 61.9038C42.0343 62.0096 41.6182 62.0624 41.3062 62.2208C40.9423 62.2208 40.6303 62.3792 40.2661 62.3792C40.162 62.3792 40.006 62.432 39.8501 62.432C39.7462 62.4846 39.6423 62.4846 39.4862 62.4846H39.1219C38.758 62.5374 38.394 62.5374 38.0301 62.5374H36.574C36.2097 62.5374 35.846 62.4846 35.5336 62.4846C35.0137 62.1678 34.5977 61.4283 34.5977 60.7945C34.5977 60.4248 34.5977 60.108 34.5459 59.7382V59.474C34.5459 58.0481 34.5459 56.6747 34.4936 55.3016C34.4936 54.9846 34.4936 54.7206 34.4417 54.4564V52.4494C34.4417 52.1324 34.3376 51.8155 34.3899 51.4987C34.4417 51.1289 34.3376 50.7063 34.3899 50.3366C34.3899 50.1782 34.3376 50.0198 34.3899 49.8614V49.7556C34.3376 49.0163 34.3899 48.2767 34.3376 47.5374V43.1535C34.3376 42.7838 34.2858 42.4141 34.2858 42.0444C34.2335 41.4634 34.2335 40.8823 34.2335 40.3013C34.1816 39.6676 34.2335 39.0338 34.1816 38.4L34.1824 38.4002ZM38.8626 47.8015C38.9149 47.8015 38.9149 47.8543 38.9667 47.8015C40.1109 47.4318 41.2031 46.7452 41.8789 45.7417C42.1909 45.3719 42.3991 44.9495 42.5551 44.4212C42.6592 43.946 42.5032 43.4706 42.3991 42.9953C42.3991 42.9425 42.3468 42.8897 42.295 42.8897C42.2431 42.7839 42.1909 42.6783 42.0872 42.6255C41.8789 42.3087 41.6188 42.0973 41.2551 41.9916C40.9432 41.9389 40.6311 41.886 40.3189 41.7805C40.215 41.7277 40.1111 41.7277 40.0069 41.7277H39.851C39.7991 41.6749 39.7471 41.7277 39.6432 41.7277H39.4349C39.4349 41.6749 39.3831 41.6749 39.3311 41.7277H38.915C38.8109 41.8333 38.8109 41.9391 38.8109 41.9917V46.006C38.8109 46.5869 38.8109 47.2209 38.8628 47.8017L38.8626 47.8015ZM38.9149 54.5622V56.9919C38.9149 57.4144 38.8626 57.8369 38.9149 58.2067C39.0187 58.2595 39.1227 58.2067 39.175 58.1539C39.6429 58.0483 40.1109 57.9955 40.527 57.7315C40.7348 57.7315 40.8389 57.5201 40.9948 57.4673C41.3591 57.3089 41.671 57.0447 41.9311 56.7279C42.1909 56.5166 42.399 56.3054 42.5031 55.9886C42.5549 55.8828 42.6069 55.7244 42.659 55.566C42.7629 55.4604 42.7629 55.3547 42.7629 55.1963C42.711 55.0379 42.711 54.8265 42.659 54.6153C42.6068 54.5097 42.6068 54.4039 42.5031 54.3513C42.3468 54.1399 42.1389 53.9815 41.9829 53.823C41.515 53.6119 41.0988 53.3478 40.5786 53.3478C40.5268 53.4006 40.4748 53.3478 40.4748 53.3478C40.3186 53.295 40.1106 53.295 39.9028 53.295C39.695 53.295 39.5386 53.295 39.3308 53.2423C39.1748 53.2423 39.0184 53.295 38.8625 53.295C38.8625 53.7175 38.8625 54.1401 38.9147 54.5625L38.9149 54.5622Z" fill="white" fill-opacity="0.8"/>
<path d="M64.3964 37.8191C64.6561 38.2943 64.8642 38.7698 64.8642 39.3506C64.7601 41.0407 64.7601 42.7309 64.7601 44.421V47.5374C64.7083 48.1183 64.7083 48.6465 64.7083 49.1746C64.7083 50.0198 64.656 50.8647 64.656 51.71V54.5094C64.6042 55.0375 64.6042 55.5657 64.6042 56.0411C64.5523 56.5163 64.5 56.9918 64.3441 57.467C64.1363 57.9952 63.9802 58.5233 63.8242 59.1043C63.7201 59.3684 63.6159 59.6324 63.5118 59.8966C63.304 60.3192 63.0439 60.636 62.68 60.9001C62.3681 61.1115 62.108 61.3753 61.7959 61.6395C61.64 61.7979 61.4317 61.9563 61.1716 62.0621C61.0157 62.1677 60.8597 62.3261 60.5996 62.4318C60.3918 62.4845 60.1317 62.6429 59.8716 62.7486C59.4038 62.8542 58.9876 62.8542 58.4678 62.8542H56.4916C56.2838 62.8542 56.1274 62.8542 55.9196 62.7486C55.6076 62.6429 55.2956 62.5902 54.9836 62.4845C54.6713 62.4318 54.4116 62.3261 54.2034 62.1147C54.1515 62.0091 54.0474 62.0091 53.9956 61.9563C53.8914 61.9035 53.7873 61.9035 53.7355 61.7979C53.6836 61.7451 53.5795 61.6921 53.5272 61.6921C53.4754 61.6395 53.4234 61.6395 53.4234 61.5865C53.2152 61.3752 53.0074 61.2168 52.8514 61.0056C51.9152 60.0549 51.343 58.6817 51.0311 57.3612C50.9273 56.6745 50.8233 55.935 50.9273 55.2484C50.9791 54.6675 50.9791 54.0864 50.9791 53.5054C50.9791 52.9244 50.9791 52.3963 50.9273 51.8153C50.9273 51.7097 50.9273 51.6039 50.9791 51.4985V51.3401C50.875 50.8646 50.9273 50.3894 50.9273 49.9139C50.875 49.5971 50.9273 49.2273 50.875 48.9105C50.875 48.5407 50.875 48.2238 50.8231 47.854V46.3751C50.8231 45.0018 50.8231 43.5758 50.719 42.2025V38.7165C50.719 38.3997 50.6672 38.1356 50.7709 37.8714C51.1869 37.5546 51.6552 37.3962 52.1751 37.3433H53.6835C53.9433 37.3961 54.2034 37.449 54.4635 37.5017C54.5676 37.5017 54.7235 37.6074 54.8274 37.6601C54.9836 37.7129 55.1397 37.8186 55.3475 37.9242C55.3475 37.9242 55.3994 38.0298 55.4517 38.0826C55.6595 38.294 55.7118 38.5581 55.7118 38.822C55.6595 39.139 55.7118 39.5087 55.6595 39.8255C55.7118 40.1423 55.6595 40.4594 55.6595 40.7762C55.6595 41.5686 55.6076 42.4135 55.6076 43.2058V45.5825C55.5553 46.058 55.5553 46.4806 55.5553 46.9558C55.5035 47.5367 55.5035 48.1179 55.5035 48.7515V50.5473C55.4517 51.3923 55.4517 52.1846 55.4517 52.9769C55.4517 53.7163 55.3994 54.4558 55.4517 55.1952C55.5035 56.1459 55.6595 57.0966 56.0757 57.9416C56.2316 58.3114 56.4917 58.5755 56.8036 58.8397C56.9078 58.8923 56.9596 58.9981 57.1156 59.051C57.2197 59.1566 57.3757 59.2094 57.5316 59.2094H57.8435C58.3637 59.2094 58.6756 59.1037 59.0398 58.7339C59.7678 58.1001 60.2359 56.9382 60.2359 55.9875C60.2359 55.6707 60.2359 55.3536 60.2877 55.0368V53.6108C60.2877 52.9769 60.1836 52.3432 60.2877 51.6566C60.1836 51.0227 60.2359 50.3891 60.2359 49.7552C60.1836 48.6988 60.1317 47.6424 60.1317 46.639C60.1317 46.2164 60.0799 45.8467 60.0799 45.4241C60.0799 43.9982 60.0276 42.5719 60.0799 41.1458C60.0799 40.7233 60.0276 40.3007 60.1317 39.8783C60.0799 39.667 60.1317 39.4558 60.1317 39.2444C60.1836 39.033 60.1836 38.8218 60.2359 38.6105C60.2877 38.2407 60.4437 37.9767 60.7037 37.7655C60.8597 37.6071 61.0157 37.5542 61.2239 37.5542H62.4199C62.9401 37.607 63.408 37.6598 63.9279 37.6598C64.0838 37.7126 64.2402 37.7655 64.3962 37.8183L64.3964 37.8191Z" fill="white" fill-opacity="0.8"/>
<path d="M67.7765 39.0869C67.7765 38.7701 67.8806 38.5059 68.0884 38.2417C68.1926 38.1361 68.2967 38.0833 68.4004 38.0304C68.5045 38.0304 68.6086 37.9777 68.7127 37.9248C68.8166 37.9248 68.9205 37.872 69.0247 37.872H70.6367C70.8445 37.872 71.0006 37.872 71.2087 37.8193C71.5726 37.8193 71.9887 37.8193 72.3006 38.0304C72.4047 38.0832 72.5607 38.1361 72.7167 38.1361C72.8208 38.0833 72.8726 38.1361 72.9768 38.1889C73.1846 38.4003 73.3928 38.6114 73.4969 38.9283C73.5488 39.1923 73.6529 39.4565 73.8608 39.7206C73.9127 39.7733 73.8608 39.879 73.9127 39.9846C74.0689 40.3014 74.1728 40.6186 74.2769 40.9354C74.4329 41.2522 74.5888 41.5693 74.6929 41.8861C74.7448 42.0974 74.8489 42.2029 75.0049 42.3086C75.0049 42.52 75.0567 42.731 75.1608 42.9424C75.265 43.1538 75.3691 43.4179 75.4728 43.6818C75.525 43.7875 75.5769 43.9459 75.681 43.9987C75.7328 44.1043 75.7848 44.2101 75.7848 44.2627C75.8371 44.4741 75.8889 44.6853 75.9931 44.8437C76.305 45.3719 76.513 45.9528 76.773 46.5338C76.9813 46.9035 77.085 47.3261 77.345 47.6959C77.3973 47.8015 77.4492 47.96 77.501 48.0656C77.501 48.1712 77.5533 48.277 77.657 48.277C77.7093 48.277 77.7093 48.2242 77.7093 48.1712C77.7611 48.1186 77.7611 48.0656 77.7611 48.0128C77.657 47.696 77.7611 47.3263 77.7093 47.0095C77.657 46.9037 77.7093 46.7453 77.7093 46.6397C77.7093 46.4813 77.7611 46.3227 77.7093 46.1642V45.9528C77.7611 45.7944 77.7093 45.5831 77.7093 45.4247V44.5267C77.7093 43.3647 77.657 42.2027 77.5533 41.0407C77.501 40.4069 77.5533 39.7731 77.501 39.192C77.501 38.7696 77.8129 38.2413 78.229 38.1357C78.645 38.0829 79.1652 37.9773 79.5813 37.9773H81.141C81.4011 37.9773 81.6612 37.9773 81.9213 38.0829C82.1814 38.2942 82.1814 38.611 82.1814 38.8752C82.2332 39.1394 82.1814 39.4034 82.1814 39.6146V48.0125C82.2332 49.069 82.2332 50.0724 82.2332 51.076C82.2332 51.3402 82.2332 51.5513 82.2851 51.8154C82.2851 51.9212 82.2851 52.0796 82.2332 52.1852V52.8191C82.2851 53.0304 82.2332 53.2416 82.2332 53.4528C82.2332 53.7698 82.2332 54.0868 82.2851 54.4564V59.8966C82.2851 60.1079 82.2851 60.2663 82.2332 60.4775V61.4282C82.2332 61.745 82.0773 62.0092 81.9213 62.2732C81.869 62.326 81.8172 62.379 81.7653 62.379C81.6612 62.4846 81.5052 62.5374 81.3493 62.5903C81.297 62.5903 81.297 62.643 81.2452 62.5903H81.0374C80.7254 62.5903 80.4653 62.643 80.1533 62.643H79.1129C78.9051 62.643 78.6972 62.5903 78.5409 62.4319C78.4371 62.3262 78.3849 62.2206 78.2811 62.115C78.1252 61.7452 77.9169 61.4284 77.8128 61.0586C77.605 60.5831 77.3449 60.1079 77.1369 59.6324C77.0847 59.474 76.981 59.3684 76.8769 59.21C76.825 59.1042 76.825 58.9458 76.7727 58.8402C76.5126 58.2593 76.2529 57.6253 75.9928 57.0444C75.8368 56.5162 75.0566 54.6677 74.7446 54.298C74.6928 54.2452 74.6928 54.1396 74.6928 54.0338C74.5887 53.8225 74.4845 53.5586 74.3286 53.3473L73.7046 51.9213C73.4968 51.5514 73.2885 51.129 73.1326 50.7064C72.9248 50.548 72.8725 50.2839 72.8206 50.0725C72.8206 49.9669 72.5087 49.5444 72.4564 49.4916V50.6008C72.5087 51.0232 72.4564 51.393 72.5087 51.7626C72.5606 51.8154 72.5606 51.9212 72.5087 51.974C72.4046 52.3437 72.5087 52.6607 72.5087 53.0304C72.5087 53.2944 72.4564 53.5586 72.5087 53.8226V54.5093C72.5606 55.2487 72.5606 55.9353 72.5606 56.6221V59.7911C72.5606 60.0025 72.5087 60.2663 72.5087 60.4777C72.4564 60.7418 72.4564 61.0058 72.4564 61.217C72.5087 61.5868 72.3526 61.851 72.1966 62.115C72.1966 62.1678 72.1444 62.1678 72.0925 62.2207C71.9884 62.2734 71.8324 62.3791 71.7283 62.4321C71.6242 62.485 71.5723 62.4847 71.5205 62.4847H70.4283C70.3245 62.4847 70.2724 62.4321 70.2205 62.4847C70.0646 62.5375 69.9086 62.5375 69.7526 62.5375H69.2843C69.1283 62.5375 68.9724 62.4319 68.8164 62.3262C68.5563 62.0094 68.4004 61.6922 68.2965 61.3226C68.2965 61.27 68.2443 61.1642 68.2443 61.1116C68.2443 60.3722 68.1924 59.6854 68.1924 58.9988V56.7805C68.1406 55.9882 68.1406 55.1959 68.0883 54.4036V53.717C68.0883 53.2418 68.0365 52.7135 68.0365 52.1853C67.9842 51.7101 68.0365 51.1818 67.9842 50.6536V48.0127C67.9842 47.8543 68.0365 47.6959 67.9842 47.5375C67.9323 47.5375 67.9323 47.4847 67.9323 47.4317C68.0365 47.0619 67.9323 46.6923 67.9842 46.3226C68.0365 46.0586 67.9842 45.7944 67.9842 45.4776C67.9842 45.1079 67.9323 44.6853 67.9323 44.2627V43.048C67.9323 42.6254 67.8805 42.2029 67.8805 41.7805C67.8282 40.8824 67.7764 39.9846 67.7764 39.0867L67.7765 39.0869Z" fill="white" fill-opacity="0.8"/>
<path d="M87.6423 55.7773C87.8501 55.8301 87.9021 55.9357 88.0062 56.0414C88.2663 56.4112 88.6824 56.6224 89.0463 56.8336C89.3064 56.9921 89.5665 57.0977 89.8265 57.3619C89.8265 57.3619 89.8784 57.3619 89.9304 57.4145C90.3464 57.5203 90.7625 57.6259 91.1785 57.6787C91.3863 57.7315 91.5946 57.7843 91.8025 57.7843C91.9066 57.7843 92.0626 57.7317 92.2186 57.7317C92.4787 57.6789 92.6865 57.5731 92.8947 57.4147C93.1548 57.1507 93.4146 56.8865 93.6227 56.5697C93.8828 56.0942 93.9866 55.5662 93.8305 55.038C93.7786 54.8267 93.6745 54.6683 93.5185 54.5099C93.1546 54.1929 92.8427 53.8232 92.4267 53.5592C92.3225 53.4534 92.1666 53.3478 92.0625 53.2424C92.0625 53.1896 92.0106 53.1366 91.9583 53.1366C91.7505 53.0838 91.6464 52.9782 91.4904 52.8724C91.1265 52.6614 90.7625 52.3443 90.2944 52.0803C90.0862 51.9745 90.0862 51.8161 89.9302 51.7633C89.7224 51.6577 89.5145 51.552 89.3062 51.4993C89.2544 51.4465 89.2021 51.4465 89.0984 51.3936C88.8383 51.1822 88.4741 51.0238 88.1622 50.8654C88.1104 50.8654 88.0581 50.8654 88.0581 50.8126C87.9021 50.6015 87.5902 50.5486 87.3822 50.3374C87.174 50.0732 86.8621 49.8622 86.6543 49.598C86.3942 49.3339 86.1341 49.0171 85.874 48.7529C85.718 48.5945 85.6142 48.3831 85.458 48.2247C85.458 48.1719 85.4061 48.1191 85.4061 48.0663C85.4061 47.9079 85.302 47.8022 85.2502 47.6966C85.0942 47.591 85.0424 47.3798 84.9901 47.2214C84.9901 47.0628 84.9382 46.9044 84.8862 46.7988C84.7821 46.5346 84.73 46.3233 84.73 46.0594V45.2671C84.73 45.1087 84.73 45.003 84.7823 44.8446C84.7823 44.6862 84.8341 44.5806 84.8341 44.422V44.2636C84.9901 43.5242 85.1983 42.8377 85.4061 42.1511C86.0823 40.8306 87.3301 39.2989 88.6825 38.7708C89.0986 38.5594 89.4625 38.4538 89.8785 38.2425C90.1386 38.1369 90.4505 38.1369 90.7626 38.084H90.8667C91.0745 38.084 91.2307 38.0313 91.3866 38.0313H92.3228C92.427 38.0313 92.5306 38.0312 92.5829 38.084C93.0508 38.084 93.571 38.1898 94.039 38.2425C94.3509 38.2953 94.663 38.2953 94.9749 38.401C95.3392 38.4537 95.6511 38.5066 95.963 38.665C96.1713 38.7708 96.4309 38.8234 96.6391 38.8764C97.0031 38.982 97.2631 39.2989 97.5232 39.5629C97.6274 39.6157 97.6274 39.7215 97.5751 39.8271C97.4712 40.1969 97.4712 40.5665 97.2631 40.8834C96.9512 41.5173 96.6391 42.1511 96.2231 42.7321C96.0148 43.102 95.6511 43.6301 95.339 43.9469C95.2349 44.0525 95.1308 44.0525 95.0271 43.9997C94.923 43.894 94.8711 43.8413 94.8188 43.7884C94.611 43.63 94.4549 43.4716 94.2468 43.4186C94.039 43.3129 93.7789 43.1545 93.571 43.0489C93.3627 42.9961 93.2068 42.8375 92.999 42.7847C92.6866 42.7319 92.3747 42.6263 92.0628 42.6263C91.6988 42.6263 91.3348 42.6263 90.9709 42.6791C90.7108 42.7847 90.4507 42.9431 90.2947 43.1543C90.0346 43.3657 89.8268 43.6825 89.6707 43.9466C89.4625 44.4218 89.3584 44.8974 89.5148 45.4255C89.6186 45.6369 89.7226 45.7953 89.8787 45.9537C90.1906 46.2178 90.5027 46.482 90.8149 46.6931C90.9709 46.7988 91.1788 46.9044 91.2828 47.01C91.9586 47.5382 92.5306 47.591 93.0508 48.1191C93.3109 48.2775 93.727 48.4889 93.9867 48.5943C94.2468 48.7527 94.5069 48.9113 94.767 49.0699C94.9748 49.2812 95.2349 49.4396 95.495 49.5451C95.6509 49.6508 95.8069 49.7035 95.8589 49.8092C95.9112 49.862 95.963 49.9148 96.0671 49.9676C96.119 50.0204 96.1713 50.0204 96.2231 50.0732C96.4309 50.3374 96.6391 50.5487 96.8471 50.8126C96.9512 50.8654 97.0553 50.9712 97.1072 51.0768C97.2113 51.1296 97.2631 51.2352 97.315 51.2881C97.4712 51.5521 97.6792 51.8163 97.887 52.0275C97.9393 52.0803 97.9911 52.1859 98.043 52.2916C98.0952 52.3972 98.1471 52.5027 98.2512 52.5556C98.303 52.6614 98.4072 52.767 98.4072 52.9254C98.459 53.0838 98.5631 53.1896 98.615 53.2952C98.7191 53.4536 98.8232 53.6121 98.7709 53.7707C98.7709 53.9291 98.8232 54.0347 98.8751 54.1931C98.9792 54.4044 99.031 54.6156 99.031 54.8798C99.031 54.9324 99.0833 54.9854 99.0833 54.9854C98.9792 55.3024 99.0833 55.6193 99.031 55.9361C98.9792 55.9889 98.9792 56.0945 98.9792 56.2003C98.9273 56.4116 98.8751 56.57 98.8751 56.7812C98.8232 56.8339 98.8232 56.9396 98.8232 56.9926C98.6673 57.4678 98.5113 58.0489 98.303 58.5241C98.1471 58.8939 97.9911 59.2109 97.7832 59.5277C97.4712 59.9502 97.107 60.3728 96.639 60.7425C96.3789 61.0065 96.067 61.2177 95.7549 61.4819C95.2866 61.7987 94.7668 62.0101 94.1947 62.1685C93.7786 62.3269 93.3106 62.4326 92.8427 62.5382C92.7904 62.591 92.6865 62.591 92.6345 62.591H92.1666C92.1143 62.591 92.0106 62.591 91.9065 62.5382C91.8547 62.4854 91.8024 62.5382 91.6987 62.5382C91.3345 62.5382 90.9184 62.4854 90.5024 62.4326C90.1385 62.3269 89.7224 62.2741 89.3582 62.1157H89.2544C88.7865 62.063 88.3703 61.9043 87.9542 61.7989C87.59 61.6931 87.2263 61.5875 86.9142 61.4821C86.7579 61.4293 86.6541 61.3763 86.4981 61.2707C86.2899 61.1649 86.0821 61.0593 85.822 60.9537C85.4578 60.7953 85.1459 60.5313 84.8861 60.2144C84.782 60.056 84.782 59.8976 84.8338 59.792C84.9379 59.5278 84.9898 59.3165 85.0939 59.1052C85.198 58.8412 85.354 58.63 85.5099 58.4187C85.6659 58.1019 85.926 57.7848 86.082 57.468C86.342 57.1512 86.6018 56.834 86.8619 56.5172C87.0702 56.2531 87.3821 56.042 87.6422 55.7779L87.6423 55.7773Z" fill="white" fill-opacity="0.8"/>
<path d="M106.623 51.5517C106.52 49.5976 106.52 47.5905 106.52 45.6361C106.571 45.2136 106.52 44.7382 106.571 44.3157V43.9989C106.467 43.6819 106.571 43.3649 106.571 42.9953C106.571 42.9953 106.623 42.9425 106.623 42.8897C106.727 42.6784 106.779 42.4142 106.883 42.203C107.092 41.6221 107.559 40.8299 107.923 40.3016C108.08 40.0376 108.288 39.7734 108.495 39.5622C108.808 39.1924 109.171 38.8756 109.536 38.6115C109.588 38.5588 109.64 38.5059 109.743 38.5059C109.795 38.4531 109.848 38.4531 109.899 38.4003C110.264 38.0833 110.68 37.9248 111.148 37.8193H111.251C111.928 37.5024 112.656 37.5024 113.384 37.5024C113.696 37.5024 114.06 37.5024 114.372 37.4497H114.632C114.892 37.4497 115.1 37.4497 115.308 37.5024C115.672 37.5552 116.036 37.6608 116.4 37.8193C116.816 38.0304 117.232 38.2417 117.648 38.5587C117.96 38.77 118.272 39.0339 118.636 39.2452C118.74 39.298 118.844 39.4036 118.896 39.5094C119.052 39.615 119.208 39.8262 119.364 39.9318C119.416 39.9846 119.52 40.0376 119.52 40.1432C119.624 40.4073 119.832 40.6187 119.936 40.8825C120.04 41.0409 120.092 41.2523 120.196 41.4107C120.404 41.8862 120.508 42.3614 120.612 42.8897C120.664 42.9953 120.664 43.1011 120.664 43.2065C120.664 43.9989 120.716 44.791 120.664 45.5832C120.612 46.4813 120.612 47.4318 120.612 48.3298C120.56 49.0163 120.56 49.7557 120.56 50.4423C120.508 51.1816 120.508 51.9213 120.508 52.6608C120.508 53.6115 120.508 54.5095 120.404 55.4072C120.404 55.9882 120.352 56.5693 120.248 57.1503C120.196 57.3616 120.144 57.5727 120.04 57.784C119.936 58.0482 119.884 58.3122 119.832 58.5764C119.728 58.9461 119.572 59.2629 119.468 59.5799C119.416 59.6855 119.364 59.7383 119.364 59.8439C119.208 60.3194 118.844 60.689 118.428 61.006C118.116 61.2701 117.804 61.5341 117.492 61.7983C117.336 61.9039 117.232 62.0096 117.024 62.1151C117.024 62.1151 116.972 62.1151 116.92 62.1679C116.295 62.696 115.151 62.9602 114.371 62.9602H113.227C113.123 63.0129 113.019 63.0129 112.915 62.9602C112.551 62.9602 112.239 62.9602 111.875 62.9074H111.771C111.407 62.8018 110.991 62.696 110.627 62.5906C110.523 62.5378 110.367 62.4848 110.263 62.3792C110.003 62.2208 109.743 62.0624 109.483 61.9037C109.379 61.7981 109.171 61.7453 109.067 61.5869C109.015 61.4813 108.859 61.3756 108.755 61.2701C108.599 61.1644 108.495 60.9532 108.339 60.7946C107.559 59.8967 107.143 58.7348 106.883 57.5727C106.831 57.1503 106.727 56.7277 106.779 56.3051C106.623 55.8826 106.675 55.4072 106.675 54.9847V53.7171C106.675 52.9778 106.675 52.2912 106.622 51.5515L106.623 51.5517ZM111.2 54.668C111.252 55.1432 111.2 55.5659 111.252 55.9885C111.356 56.7279 111.46 57.4674 111.824 58.1013C112.084 58.7351 112.812 59.4218 113.54 59.4218C113.956 59.4218 114.372 59.316 114.684 58.9992C115.048 58.6824 115.36 58.3125 115.568 57.8901C115.62 57.7317 115.672 57.5731 115.776 57.4146C115.984 57.0448 115.984 56.6752 115.984 56.3055V55.5131C116.036 55.1434 116.088 54.7738 116.088 54.404V52.8723C116.036 52.1858 116.036 51.4992 115.984 50.8125C115.932 50.1259 115.984 49.4393 115.932 48.7526C115.88 48.2245 115.932 47.6963 115.88 47.2211C115.88 46.2704 115.932 45.2668 115.828 44.316C115.776 43.9462 115.828 43.5236 115.672 43.1539C115.62 43.0483 115.672 42.9955 115.62 42.8899C115.568 42.4673 115.464 42.0448 115.152 41.7278C115.048 41.6221 114.892 41.4636 114.788 41.358C114.528 41.1467 114.216 41.0411 113.956 40.9883C113.904 40.9355 113.852 40.9355 113.8 40.9355C113.644 40.9883 113.436 40.9883 113.228 40.9883C113.124 41.0409 113.02 41.0409 112.916 41.0939C112.604 41.3052 112.344 41.5164 112.084 41.7806C111.72 42.2558 111.512 42.784 111.356 43.3651V43.5235C111.356 43.8933 111.356 44.2629 111.304 44.6326V45.9531C111.252 46.6398 111.252 47.3264 111.2 48.013C111.2 49.0694 111.2 50.1786 111.148 51.2349C111.096 51.8158 111.096 52.344 111.096 52.925C111.096 53.0307 111.096 53.1363 111.148 53.2419C111.2 53.7171 111.2 54.1925 111.2 54.6679L111.2 54.668Z" fill="white" fill-opacity="0.8"/>
<path d="M136.839 37.8191C137.098 38.2943 137.306 38.7698 137.306 39.3506C137.202 41.0407 137.202 42.7309 137.202 44.421V47.5374C137.151 48.1183 137.151 48.6465 137.151 49.1746C137.151 50.0198 137.098 50.8647 137.098 51.71V54.5094C137.046 55.0375 137.046 55.5657 137.046 56.0411C136.995 56.5163 136.942 56.9918 136.786 57.467C136.579 57.9952 136.422 58.5233 136.266 59.1043C136.162 59.3684 136.058 59.6324 135.954 59.8966C135.746 60.3192 135.486 60.636 135.122 60.9001C134.81 61.1115 134.55 61.3753 134.238 61.6395C134.082 61.7979 133.874 61.9563 133.614 62.0621C133.458 62.1677 133.302 62.3261 133.042 62.4318C132.834 62.4845 132.574 62.6429 132.314 62.7486C131.846 62.8542 131.43 62.8542 130.91 62.8542H128.934C128.726 62.8542 128.57 62.8542 128.362 62.7486C128.05 62.6429 127.738 62.5902 127.426 62.4845C127.113 62.4318 126.854 62.3261 126.646 62.1147C126.594 62.0091 126.49 62.0091 126.438 61.9563C126.334 61.9035 126.23 61.9035 126.178 61.7979C126.126 61.7451 126.022 61.6921 125.969 61.6921C125.918 61.6395 125.866 61.6395 125.866 61.5865C125.657 61.3752 125.45 61.2168 125.294 61.0056C124.357 60.0549 123.785 58.6817 123.473 57.3612C123.369 56.6745 123.266 55.935 123.369 55.2484C123.421 54.6675 123.421 54.0864 123.421 53.5054C123.421 52.9244 123.421 52.3963 123.369 51.8153C123.369 51.7097 123.369 51.6039 123.421 51.4985V51.3401C123.317 50.8646 123.369 50.3894 123.369 49.9139C123.317 49.5971 123.369 49.2273 123.317 48.9105C123.317 48.5407 123.317 48.2238 123.266 47.854V46.3751C123.266 45.0018 123.266 43.5758 123.161 42.2025V38.7165C123.161 38.3997 123.11 38.1356 123.213 37.8714C123.629 37.5546 124.098 37.3962 124.617 37.3433H126.126C126.386 37.3961 126.646 37.449 126.906 37.5017C127.01 37.5017 127.166 37.6074 127.27 37.6601C127.426 37.7129 127.582 37.8186 127.79 37.9242C127.79 37.9242 127.842 38.0298 127.894 38.0826C128.102 38.294 128.154 38.5581 128.154 38.822C128.102 39.139 128.154 39.5087 128.102 39.8255C128.154 40.1423 128.102 40.4594 128.102 40.7762C128.102 41.5686 128.05 42.4135 128.05 43.2058V45.5825C127.998 46.058 127.998 46.4806 127.998 46.9558C127.946 47.5367 127.946 48.1179 127.946 48.7515V50.5473C127.894 51.3923 127.894 52.1846 127.894 52.9769C127.894 53.7163 127.842 54.4558 127.894 55.1952C127.946 56.1459 128.102 57.0966 128.518 57.9416C128.674 58.3114 128.934 58.5755 129.246 58.8397C129.35 58.8923 129.402 58.9981 129.558 59.051C129.662 59.1566 129.818 59.2094 129.974 59.2094H130.286C130.806 59.2094 131.118 59.1037 131.482 58.7339C132.21 58.1001 132.678 56.9382 132.678 55.9875C132.678 55.6707 132.678 55.3536 132.73 55.0368V53.6108C132.73 52.9769 132.626 52.3432 132.73 51.6566C132.626 51.0227 132.678 50.3891 132.678 49.7552C132.626 48.6988 132.574 47.6424 132.574 46.639C132.574 46.2164 132.522 45.8467 132.522 45.4241C132.522 43.9982 132.47 42.5719 132.522 41.1458C132.522 40.7233 132.47 40.3007 132.574 39.8783C132.522 39.667 132.574 39.4558 132.574 39.2444C132.626 39.033 132.626 38.8218 132.678 38.6105C132.73 38.2407 132.886 37.9767 133.146 37.7655C133.302 37.6071 133.458 37.5542 133.666 37.5542H134.862C135.382 37.607 135.85 37.6598 136.37 37.6598C136.526 37.7126 136.682 37.7655 136.839 37.8183V37.8191Z" fill="white" fill-opacity="0.8"/>
<path d="M139.802 38.7171C139.958 38.5057 140.218 38.4529 140.374 38.3473V38.2415C140.478 38.1359 140.582 38.1359 140.686 38.0831C141.414 38.0303 142.142 37.9775 142.87 37.9775C143.13 37.9775 143.39 37.9247 143.598 37.9247H143.754C143.858 37.9775 144.014 37.9775 144.118 37.9775C144.378 37.9775 144.638 37.9247 144.95 37.8718H145.002C145.418 37.8718 145.834 37.7662 146.25 37.7662H147.394C147.55 37.7134 147.706 37.7134 147.862 37.7134C148.018 37.7134 148.174 37.7134 148.33 37.7662C148.382 37.7662 148.486 37.819 148.538 37.819H148.902C148.954 37.819 149.006 37.7662 149.111 37.7662C149.214 37.819 149.267 37.819 149.37 37.819C149.579 37.819 149.786 37.7662 149.942 37.7662C150.098 37.7662 150.202 37.7662 150.358 37.819C150.41 37.819 150.514 37.8716 150.567 37.819C150.723 37.7662 150.879 37.7662 150.982 37.7662H151.398C151.503 37.7662 151.554 37.7662 151.607 37.819H151.814C151.867 37.7662 151.97 37.7662 152.023 37.7662C152.127 37.7662 152.179 37.7662 152.283 37.819C152.439 37.9246 152.595 37.9774 152.751 38.03C152.959 38.2414 153.063 38.3999 152.959 38.6639C153.011 38.8224 152.959 39.0337 152.959 39.1921C153.011 39.5091 153.011 39.8788 152.959 40.1956C152.907 40.407 152.907 40.6182 152.907 40.8296C152.907 41.0936 152.907 41.3048 152.855 41.5689C152.803 41.7803 152.751 41.9387 152.751 42.1499C152.751 42.3083 152.647 42.4667 152.491 42.5196C152.282 42.5723 152.075 42.6252 151.919 42.6252C151.607 42.6252 151.347 42.6252 151.087 42.678C151.035 42.7307 150.982 42.678 150.879 42.678H150.723C150.463 42.7307 150.203 42.7307 149.891 42.7307H149.475C149.267 42.7307 149.059 42.7307 148.851 42.8364C148.798 42.8364 148.798 42.942 148.798 42.9948V49.2802C148.851 49.9667 148.851 50.6006 148.902 51.2872C148.902 51.9738 148.851 52.6605 148.902 53.2942C148.902 53.8752 148.851 54.4563 148.902 55.0373V59.6851C148.902 60.1607 148.902 60.6887 148.851 61.164C148.851 61.481 148.695 61.7979 148.486 62.0621C148.33 62.2205 148.122 62.3261 147.811 62.3261H146.718C146.406 62.3789 146.042 62.3789 145.73 62.4319C145.523 62.4319 145.314 62.3261 145.158 62.1677C144.846 61.7451 144.586 61.3226 144.586 60.7944V58.9458C144.534 58.0479 144.534 57.1501 144.534 56.252C144.483 55.6712 144.534 55.0373 144.483 54.4563C144.43 53.8224 144.43 53.2416 144.43 52.6077V51.3402C144.378 51.076 144.378 50.8118 144.378 50.5478C144.378 50.495 144.326 50.4421 144.378 50.3894C144.43 50.1253 144.378 49.8085 144.378 49.5443V47.6957C144.378 47.3789 144.326 47.1147 144.326 46.7977V43.7872C144.326 43.4704 144.326 43.1006 144.274 42.7307C144.223 42.7307 144.223 42.678 144.17 42.678C144.066 42.6252 143.962 42.6252 143.858 42.6252C143.806 42.6252 143.754 42.6252 143.702 42.678H143.546C143.39 42.6252 143.234 42.6252 143.079 42.6252H142.298C142.142 42.6252 141.986 42.6252 141.83 42.5724C141.726 42.5198 141.623 42.6252 141.518 42.6252H140.634C140.374 42.6252 140.218 42.5196 140.062 42.2555C139.906 41.9387 139.802 41.6216 139.802 41.3048V40.09C139.698 39.6145 139.855 39.1393 139.802 38.7167L139.802 38.7171Z" fill="white" fill-opacity="0.8"/>
<path d="M86.0752 9.1383C86.028 9.37834 85.7953 9.4226 85.0753 10.2973C84.3144 11.2216 84.3741 11.5855 83.9801 11.881C83.8369 11.9476 83.7039 11.9476 83.6562 11.9476C83.5618 11.8516 83.4674 11.8516 83.4203 11.8035C83.0888 11.6595 83.0293 11.4672 83.0293 11.0831V10.4586C83.0293 9.97838 83.1783 9.52225 83.1306 9.23413C83.1306 8.65775 83.3328 8.4177 83.853 8.4177H84.3732C84.4675 8.4177 84.6091 8.4177 84.704 8.46577C84.7984 8.51384 84.8933 8.46577 84.9877 8.4177C85.0349 8.4177 85.1292 8.36963 85.177 8.36963C85.4129 8.36963 85.6494 8.56176 85.8859 8.70582C86.028 8.75389 86.0752 8.94601 86.0752 9.13814V9.1383Z" fill="white" fill-opacity="0.8"/>
</svg>
