<svg width="186" height="71" viewBox="0 0 186 71" fill="none" xmlns="http://www.w3.org/2000/svg">
<g clip-path="url(#clip0_1311_5038)">
<path fill-rule="evenodd" clip-rule="evenodd" d="M73.5445 21.2892C73.5397 21.2567 73.5382 21.2403 73.5343 21.2082C73.5259 21.1763 73.5217 21.1605 73.5136 21.1289C73.5136 21.1289 73.4442 19.8123 72.64 19.3897C72.2373 19.1782 71.7538 19.4588 71.373 19.7921C70.9921 20.1257 70.7133 20.5123 70.7133 20.5123C70.012 21.4116 69.4358 22.343 68.967 23.2375C68.4973 24.1323 68.1346 24.9905 67.8576 25.7426C67.5803 26.4944 67.3891 27.1399 67.2637 27.6103C67.1393 28.0806 67.08 28.3767 67.0684 28.4276C67.5746 28.5405 67.828 28.5968 68.3351 28.7109C68.3351 28.7109 68.4063 28.4154 68.5493 27.9322C68.6923 27.4494 68.9074 26.778 69.1937 26.0259C69.4801 25.2741 69.8391 24.4415 70.2693 23.6364C70.6995 22.8304 71.2019 22.0526 71.7754 21.4083C71.7754 21.4083 72.1168 20.9973 72.2415 21.4485C72.2415 21.4485 72.2607 21.5879 72.2903 21.8715C72.3202 22.1551 72.3624 22.5828 72.4088 23.1595C72.4551 23.7356 72.5063 24.4609 72.5545 25.3387C72.6032 26.2168 72.6493 27.2477 72.6867 28.4368C73.2067 28.4202 73.4667 28.4124 73.9866 28.3975C73.9585 27.4214 73.9235 26.5567 73.8861 25.7885C73.949 25.3432 74.0228 24.9017 74.1105 24.4671C74.3077 23.4889 74.5632 22.5423 74.8522 21.6427C75.1403 20.7438 75.4628 19.8928 75.7943 19.1067C76.1264 18.3212 76.4663 17.6001 76.7909 16.9606C77.1155 16.3213 77.4236 15.7637 77.6905 15.3044C77.9577 14.8445 78.1833 14.4841 78.3421 14.2377C78.5016 13.992 78.5929 13.86 78.5929 13.86C78.6027 14.6854 78.6117 15.4527 78.6201 16.1775C78.6288 16.9019 78.6365 17.584 78.644 18.2417C78.6515 18.8982 78.659 19.5306 78.6665 20.154C78.6736 20.7774 78.6808 21.3925 78.688 22.016C78.6955 22.6397 78.7027 23.2715 78.7104 23.9286C78.7185 24.5851 78.726 25.2678 78.7347 25.9928C78.7433 26.7175 78.752 27.484 78.7622 28.3099C79.2678 28.2995 79.5209 28.2948 80.0265 28.2858C80.0164 27.4369 80.0077 26.649 79.9987 25.9041C79.9897 25.1588 79.9823 24.4573 79.9745 23.7817C79.9664 23.1059 79.9589 22.4565 79.952 21.8152C79.9449 21.1739 79.9374 20.5424 79.9296 19.9011C79.9227 19.2598 79.9152 18.6104 79.9078 17.9349C79.8997 17.2593 79.8919 16.5578 79.8838 15.8126C79.8748 15.0679 79.8659 14.2797 79.8563 13.4299C79.7656 12.3761 79.3647 12.108 78.9863 12.1026C78.6078 12.0975 78.2533 12.3564 78.2533 12.3564C77.6866 12.9492 77.1699 13.6268 76.702 14.3441C76.2341 15.0616 75.8146 15.8182 75.4449 16.5706C75.0739 17.3237 74.7523 18.0707 74.477 18.7692C74.2024 19.4668 73.9753 20.1156 73.7943 20.6702C73.7048 20.9442 73.6267 21.1951 73.5597 21.4176C73.551 21.3443 73.5454 21.3005 73.5442 21.2892H73.5445Z" fill="white" fill-opacity="0.8"/>
<path fill-rule="evenodd" clip-rule="evenodd" d="M83.9811 28.1835C84.4176 28.3172 84.7485 28.3309 84.7485 28.3309C86.1134 28.2946 86.8105 27.5633 87.1665 26.8392C87.5222 26.1151 87.5372 25.399 87.5372 25.399C87.5306 24.5587 87.5243 23.7706 87.5195 23.0214C87.5133 22.2729 87.5082 21.5636 87.5031 20.8806C87.4983 20.1979 87.4932 19.5411 87.4881 18.8977C87.4833 18.2546 87.4786 17.6237 87.4741 16.9931C87.4693 16.3629 87.4642 15.7329 87.4594 15.0892C87.4546 14.4458 87.4492 13.7893 87.4439 13.1057C87.4394 12.4227 87.4334 11.714 87.428 10.9652C87.4223 10.2163 87.4166 9.42848 87.4097 8.58789C86.8814 8.59176 86.6178 8.59385 86.0892 8.59921C86.0966 9.41031 86.1032 10.1714 86.1107 10.8946C86.1173 11.6172 86.1239 12.3017 86.1301 12.9606C86.1358 13.6204 86.1421 14.2539 86.1478 14.8753C86.1535 15.4967 86.1598 16.1055 86.1651 16.7134C86.1714 17.322 86.1771 17.9308 86.1825 18.5522C86.1882 19.1732 86.1945 19.8074 86.2004 20.4666C86.2067 21.1261 86.2133 21.8106 86.2193 22.5335C86.2274 23.2561 86.2334 24.0169 86.2417 24.828C86.2519 25.9524 85.8746 26.5181 85.4953 26.8029C85.1159 27.0882 84.7333 27.0918 84.7333 27.0918C83.9081 27.1022 83.5102 26.6521 83.3178 26.1991C83.1249 25.746 83.1389 25.2906 83.1389 25.2906C83.1269 24.4384 83.1159 23.6472 83.1057 22.8996C83.0949 22.1516 83.0854 21.4472 83.0761 20.7692C83.0668 20.091 83.0572 19.4386 83.0489 18.795C83.0402 18.1516 83.0312 17.5171 83.0219 16.8737C83.0136 16.23 83.004 15.578 82.9947 14.8997C82.9857 14.2215 82.9762 13.517 82.9657 12.7691C82.9555 12.022 82.945 11.2306 82.9322 10.3781C82.4221 10.3855 82.1663 10.3888 81.6553 10.3971C81.6684 11.2356 81.6801 12.0149 81.6918 12.7509C81.7034 13.4866 81.7142 14.1798 81.7247 14.8479C81.7355 15.5151 81.7447 16.1573 81.7552 16.7903C81.7654 17.4242 81.7746 18.0491 81.7842 18.6827C81.7947 19.3156 81.8046 19.9575 81.815 20.6254C81.8255 21.2926 81.8363 21.9866 81.8476 22.7221C81.8593 23.4584 81.8716 24.2376 81.8848 25.0761C81.8474 26.1228 82.1534 26.8323 82.5783 27.314C83.0022 27.7957 83.5452 28.0494 83.9811 28.1829V28.1835Z" fill="white" fill-opacity="0.8"/>
<path fill-rule="evenodd" clip-rule="evenodd" d="M88.6705 12.2345C88.674 12.9205 88.6782 13.5815 88.6824 14.2267C88.686 14.8724 88.6896 15.5024 88.6932 16.1271C88.6977 16.7526 88.701 17.3719 88.7046 17.9968C88.7081 18.6223 88.7117 19.2526 88.7147 19.8978C88.7192 20.5433 88.7228 21.2039 88.7267 21.8908C88.7312 22.5774 88.7354 23.289 88.7399 24.0367C88.7435 24.7849 88.7485 25.5686 88.7536 26.3985C88.7536 26.3985 88.7231 26.8959 88.9502 27.3802C89.1776 27.8646 89.6622 28.3361 90.6929 28.2864C91.5276 28.2837 91.9465 28.2831 92.7827 28.2828C92.7827 27.8345 92.7833 27.6099 92.7818 27.161C91.9686 27.161 91.5614 27.1622 90.7474 27.164C90.7474 27.164 89.9647 27.2057 90.0027 26.1989C90.0021 26.176 90.0033 26.1649 90.0039 26.142C90.0009 25.3235 89.9973 24.5505 89.994 23.8121C89.9904 23.0749 89.9883 22.3716 89.9845 21.6945C89.9827 21.0172 89.9791 20.3651 89.977 19.7286C89.9749 19.0915 89.9722 18.4698 89.9695 17.8535C89.9668 17.2363 89.9641 16.6251 89.9617 16.0079C89.9596 15.3916 89.9569 14.77 89.9536 14.1328C89.9516 13.4963 89.9489 12.8443 89.9456 12.1669C89.9429 11.4901 89.9399 10.7875 89.9369 10.0494C89.9339 9.31154 89.9306 8.53767 89.9273 7.71973C89.4139 7.72122 89.1578 7.72271 88.645 7.72568C88.6495 8.55555 88.6543 9.33954 88.6588 10.0872C88.6627 10.8351 88.6672 11.5476 88.6711 12.2339L88.6705 12.2345Z" fill="white" fill-opacity="0.8"/>
<path fill-rule="evenodd" clip-rule="evenodd" d="M96.1902 28.4504C96.1902 28.4504 96.6853 28.4266 97.2553 28.1779C97.8228 27.9295 98.4673 27.4567 98.7647 26.5554C98.7647 26.5554 98.8122 26.3436 98.8786 25.9745C98.9454 25.6055 99.0318 25.0789 99.1066 24.451C99.1826 23.8222 99.2478 23.0912 99.2733 22.3126C99.2975 21.5336 99.2843 20.7076 99.1991 19.8879C99.1138 19.0682 98.96 18.2565 98.7057 17.5064C98.4499 16.7558 98.0954 16.0671 97.6089 15.4967C97.6089 15.4967 97.7974 15.3743 98.0329 15.0696C98.2695 14.7652 98.554 14.2784 98.7455 13.5484C98.9373 12.8198 99.0369 11.8472 98.9002 10.5712C98.9002 10.5712 98.8798 10.1232 98.7623 9.5325C98.6456 8.94213 98.4311 8.20967 98.0454 7.64104C97.6595 7.07211 97.1 6.66701 96.2943 6.73254C96.2943 6.73254 95.7465 6.6953 95.1984 6.94134C94.6497 7.18708 94.1007 7.7164 94.1004 8.84562C94.0983 9.6999 94.0965 10.5015 94.0956 11.2631C94.0947 12.0242 94.0926 12.7453 94.0917 13.4399C94.0908 14.1349 94.089 14.8024 94.0872 15.4571C94.0867 16.1115 94.0858 16.7528 94.0846 17.3936C94.0834 18.0349 94.0825 18.6762 94.0819 19.3306C94.0801 19.985 94.0792 20.6528 94.078 21.3478C94.0765 22.0421 94.0759 22.7635 94.0741 23.5249C94.0726 24.2859 94.072 25.0872 94.0696 25.9418C94.0696 25.9418 94.014 26.5676 94.2524 27.1931C94.4905 27.8193 95.0198 28.4457 96.1908 28.4507L96.1902 28.4504ZM95.6026 12.7397C95.6053 12.0763 95.6071 11.4612 95.6101 10.7984C95.6128 10.1348 95.6149 9.42467 95.6191 8.57277C95.8046 8.15784 96.2506 8.05329 96.2506 8.05329C96.7877 8.02022 97.1275 8.71783 97.3304 9.42259C97.5344 10.1273 97.6038 10.8401 97.6038 10.8401C97.7385 12.1594 97.5578 13.0566 97.2592 13.6678C96.9618 14.2784 96.5459 14.6028 96.2034 14.7744C95.862 14.946 95.5942 14.9656 95.5942 14.9656C95.5978 14.1128 95.5999 13.403 95.6026 12.74V12.7397ZM95.5523 25.702C95.5559 24.949 95.5577 24.2704 95.5604 23.6378C95.5631 23.0048 95.5652 22.4177 95.5667 21.8449C95.5697 21.2724 95.5721 20.7148 95.5748 20.1426C95.5769 19.5692 95.5784 18.9815 95.5814 18.3491C95.5832 17.7161 95.5868 17.0379 95.5888 16.2849C95.9266 16.1753 96.0954 16.1205 96.4334 16.012C96.4334 16.012 96.5791 16.1705 96.7784 16.5065C96.9771 16.8428 97.229 17.3551 97.442 18.0614C97.6535 18.7673 97.8252 19.6684 97.8659 20.78C97.8659 20.78 97.8881 21.1518 97.8925 21.7162C97.8979 22.2813 97.8878 23.0391 97.8267 23.8117C97.7639 24.585 97.6508 25.3723 97.4492 25.9969C97.2472 26.6206 96.9594 27.0817 96.5462 27.2015C96.5462 27.2015 95.4716 27.684 95.5526 25.702H95.5523Z" fill="white" fill-opacity="0.8"/>
<path fill-rule="evenodd" clip-rule="evenodd" d="M102.278 28.5058C102.862 28.5144 103.3 28.521 103.738 28.5278C104.174 28.535 104.613 28.5424 105.195 28.5529C105.204 28.0658 105.209 27.8225 105.217 27.3352C104.611 27.3245 104.156 27.3173 103.702 27.3105C103.247 27.3036 102.792 27.2959 102.185 27.2881C102.185 27.2881 101.317 27.5565 101.37 26.1654C101.39 25.3118 101.411 24.565 101.427 23.8719C101.444 23.1784 101.461 22.5386 101.477 21.8988C101.493 21.2587 101.507 20.6182 101.526 19.9251C101.543 19.2317 101.562 18.4849 101.584 17.6315C101.584 17.6315 101.374 16.8517 102.322 17.0382C102.776 17.079 103.117 17.1096 103.456 17.1403C103.797 17.1713 104.138 17.2023 104.59 17.2449C104.599 16.7868 104.603 16.5574 104.61 16.0987C104.083 16.0206 103.688 15.9623 103.292 15.9045C102.896 15.8458 102.5 15.7886 101.974 15.712C101.974 15.712 101.423 15.7049 101.504 15.0475C101.529 14.2415 101.549 13.5695 101.57 12.9425C101.587 12.316 101.606 11.734 101.625 11.1067C101.644 10.4797 101.665 9.80799 101.691 9.00166C101.691 9.00166 101.402 8.30494 102.658 8.63349C103.545 8.78362 103.988 8.85987 104.874 9.01268C104.963 9.01387 105.008 9.01477 105.097 9.01626C105.12 8.53698 105.132 8.2969 105.155 7.81793C104.622 7.69461 104.223 7.60197 103.823 7.51053C103.424 7.41819 103.025 7.32615 102.491 7.20521C102.491 7.20521 102.001 7.095 101.503 7.21564C101.005 7.33628 100.5 7.68776 100.473 8.60788C100.453 9.46604 100.434 10.2706 100.415 11.0346C100.398 11.7986 100.38 12.5231 100.364 13.2204C100.348 13.9174 100.332 14.5873 100.316 15.2441C100.301 15.9018 100.286 16.5449 100.272 17.1883C100.257 17.8323 100.241 18.4751 100.226 19.1325C100.211 19.7896 100.194 20.4598 100.179 21.1568C100.162 21.8544 100.146 22.5776 100.128 23.3428C100.11 24.1072 100.092 24.9114 100.073 25.7693C100.073 25.7693 99.9299 26.463 100.135 27.1508C100.341 27.8392 100.891 28.5216 102.279 28.5058H102.278Z" fill="white" fill-opacity="0.8"/>
<path fill-rule="evenodd" clip-rule="evenodd" d="M107.413 26.0935C107.429 25.3056 107.444 24.5594 107.459 23.841C107.474 23.1231 107.488 22.4327 107.502 21.755C107.517 21.0777 107.531 20.4146 107.545 19.7518C107.552 19.3616 107.561 18.9702 107.569 18.577C108.039 18.5869 108.397 18.5946 108.973 18.6074C108.973 18.6074 109.037 18.6753 109.134 18.8514C109.23 19.0274 109.361 19.311 109.491 19.7414C109.622 20.1718 109.754 20.75 109.853 21.514C109.953 22.2781 110.021 23.228 110.027 24.404C110.033 25.5793 109.977 26.9808 109.827 28.6468C110.309 28.6593 110.55 28.6662 111.032 28.6787C111.032 28.6787 111.063 28.3489 111.099 27.8041C111.135 27.2593 111.179 26.4989 111.203 25.6365C111.228 24.7748 111.234 23.8109 111.197 22.8595C111.161 21.9081 111.082 20.9695 110.935 20.1569C110.788 19.3444 110.573 18.6581 110.266 18.2128C110.266 18.2128 110.561 18.0865 110.924 17.7534C111.286 17.421 111.714 16.8825 111.983 16.0568C112.25 15.2317 112.357 14.1188 112.068 12.6384C112.068 12.6384 111.991 12.2071 111.788 11.6322C111.586 11.0568 111.259 10.3365 110.76 9.75895C110.261 9.18078 109.59 8.74619 108.701 8.74023C108.701 8.74023 108.174 8.76764 107.642 9.01278C107.11 9.25882 106.576 9.7229 106.559 10.5942C106.542 11.4931 106.527 12.3358 106.51 13.1362C106.495 13.9363 106.481 14.6952 106.466 15.4253C106.452 16.1557 106.439 16.8578 106.426 17.5458C106.413 18.2336 106.4 18.9077 106.387 19.5815C106.375 20.2561 106.361 20.9299 106.348 21.618C106.334 22.3058 106.322 23.0081 106.308 23.7379C106.294 24.4683 106.279 25.227 106.263 26.0273C106.248 26.828 106.232 27.6698 106.215 28.5691C106.673 28.5783 106.902 28.583 107.36 28.5932C107.378 27.7088 107.396 26.8798 107.412 26.0929L107.413 26.0935ZM107.677 13.4099C107.693 12.6221 107.71 11.7934 107.728 10.9093C107.728 10.9093 107.807 10.0386 108.612 10.0562C108.612 10.0562 108.84 10.0285 109.16 10.1456C109.48 10.2632 109.893 10.5248 110.264 11.102C110.633 11.6787 110.961 12.572 111.109 13.9509C111.109 13.9509 111.091 14.6619 110.818 15.4548C110.545 16.2474 110.017 17.1202 109 17.4463C109 17.4463 108.264 17.3912 107.594 17.3629C107.605 16.8083 107.617 16.2456 107.629 15.6624C107.645 14.9439 107.66 14.1978 107.678 13.4102L107.677 13.4099Z" fill="white" fill-opacity="0.8"/>
<path fill-rule="evenodd" clip-rule="evenodd" d="M113.97 26.4266C113.992 25.6971 114.013 25.0099 114.032 24.348C114.053 23.6862 114.072 23.0505 114.09 22.4223C114.109 21.7947 114.128 21.1754 114.148 20.5481C114.151 20.4456 114.154 20.3411 114.157 20.238C114.464 20.2437 114.723 20.2488 114.982 20.2541C115.326 20.2613 115.671 20.2687 116.13 20.2782C116.13 20.2782 116.224 20.3864 116.35 20.6556C116.478 20.9246 116.639 21.3544 116.776 21.9984C116.911 22.6424 117.023 23.5 117.052 24.6247C117.081 25.7492 117.026 27.1405 116.832 28.8512C117.313 28.8679 117.555 28.8765 118.036 28.8944C118.036 28.8944 118.066 28.6004 118.103 28.1146C118.14 27.6288 118.184 26.9517 118.208 26.1865C118.234 25.4207 118.241 24.5673 118.207 23.727C118.171 22.8876 118.094 22.0619 117.949 21.3533C117.804 20.6452 117.59 20.0537 117.286 19.6828C117.286 19.6828 117.74 19.3683 118.139 18.7121C118.538 18.057 118.882 17.0592 118.654 15.6923C118.654 15.6923 118.578 15.3369 118.378 14.8615C118.179 14.3852 117.855 13.7883 117.362 13.3063C116.867 12.8241 116.201 12.4568 115.318 12.4404C115.318 12.4404 114.793 12.4562 114.263 12.6516C113.733 12.847 113.199 13.2223 113.179 13.939C113.154 14.7841 113.131 15.5683 113.11 16.3097C113.09 17.0514 113.07 17.7496 113.051 18.4219C113.032 19.0945 113.013 19.7412 112.995 20.3792C112.976 21.017 112.958 21.6464 112.94 22.2844C112.922 22.9218 112.904 23.5685 112.885 24.2414C112.866 24.9137 112.845 25.6116 112.824 26.3536C112.803 27.095 112.781 27.8793 112.757 28.7237C113.214 28.7377 113.442 28.7446 113.9 28.7592C113.925 27.9278 113.948 27.1557 113.97 26.4266V26.4266ZM114.268 16.5445C114.291 15.815 114.313 15.0432 114.339 14.2119C114.339 14.2119 114.422 13.4973 115.221 13.5217C115.221 13.5217 115.656 13.4177 116.145 13.74C116.635 14.0632 117.179 14.813 117.396 16.5191C117.396 16.5191 117.459 17.0178 117.268 17.5799C117.078 18.1407 116.633 18.766 115.617 19.0206C115.617 19.0206 114.876 18.9766 114.196 18.9509C114.199 18.8407 114.202 18.7335 114.206 18.6221C114.225 17.9608 114.246 17.2733 114.269 16.5442L114.268 16.5445Z" fill="white" fill-opacity="0.8"/>
<path fill-rule="evenodd" clip-rule="evenodd" d="M124.671 22.6164C124.671 22.6164 124.506 22.9062 124.153 23.2306C123.801 23.5547 123.26 23.9142 122.511 24.0539C122.511 24.0539 122.137 23.9198 121.761 23.5678C121.386 23.2163 121.009 22.6462 121.002 21.774C121.032 21.1101 121.058 20.5566 121.082 20.0392C121.105 19.523 121.127 19.0428 121.149 18.526C121.174 18.0092 121.198 17.4555 121.229 16.791C120.717 16.7707 120.461 16.7609 119.95 16.7412C119.923 17.4445 119.9 18.0304 119.879 18.5779C119.858 19.1251 119.838 19.6323 119.819 20.1792C119.797 20.7264 119.774 21.312 119.747 22.0156C119.747 22.0156 119.724 22.4901 119.918 23.0888C120.112 23.6872 120.526 24.4095 121.4 24.9067C121.365 25.7717 121.338 26.4199 121.312 27.0686C121.286 27.7174 121.259 28.3661 121.224 29.2308C121.739 29.2523 121.996 29.2624 122.51 29.2842C122.543 28.4981 122.568 27.9092 122.593 27.3203C122.618 26.7305 122.643 26.1416 122.677 25.3562C122.677 25.3562 123.307 25.2242 123.997 24.8894C124.687 24.5552 125.434 24.0181 125.665 23.2035C125.268 22.9682 125.07 22.8511 124.672 22.6164H124.671Z" fill="white" fill-opacity="0.8"/>
<path fill-rule="evenodd" clip-rule="evenodd" d="M80.0189 53.907C79.4792 53.199 78.8039 52.7524 78.2639 52.4844C77.7236 52.2151 77.3188 52.1245 77.3188 52.1245C77.3188 52.1245 76.7818 51.961 76.052 51.7403C75.322 51.519 74.3988 51.2411 73.6293 51.0075C72.8595 50.7749 72.2435 50.5872 72.1292 50.5432C71.7845 50.4124 70.7778 49.9075 70.893 49.1006C71.0081 48.294 71.8049 48.268 71.8049 48.268C72.645 48.2421 73.3453 48.2219 73.9991 48.2034C74.6525 48.1858 75.2598 48.1709 75.9129 48.1534C76.5666 48.1379 77.267 48.1209 78.1077 48.1033C79.1019 48.0822 79.1453 48.8152 79.1453 48.8152C79.1528 49.1649 79.1558 49.3395 79.1632 49.6895C79.6728 49.657 79.9277 49.6397 80.4369 49.6076C80.4063 49.1351 80.3908 48.8986 80.36 48.425C80.3698 47.4662 79.822 47.0551 79.2706 46.885C78.7199 46.7149 78.1664 46.7846 78.1664 46.7846C77.3652 46.8052 76.698 46.8225 76.0754 46.8401C75.4531 46.8573 74.8745 46.8752 74.2519 46.8934C73.6287 46.9127 72.9618 46.9342 72.1612 46.9616C71.006 46.8832 70.3781 47.2845 70.0403 47.7045C69.7022 48.1248 69.6534 48.5638 69.6534 48.5638C69.5834 49.8211 70.0932 50.5792 70.6192 51.0245C71.1452 51.4692 71.6879 51.6003 71.6879 51.6003C72.4026 51.8225 72.998 52.009 73.553 52.1835C74.1086 52.3572 74.6232 52.5204 75.1778 52.6959C75.7322 52.8713 76.3258 53.0601 77.037 53.2886C78.2014 53.6475 78.8862 54.3827 79.2817 55.2015C79.6775 56.0201 79.784 56.9241 79.7918 57.6226C79.8005 58.3205 79.7104 58.815 79.7104 58.815C79.5791 59.9585 79.081 60.131 78.6142 60.0178C78.1481 59.9049 77.7131 59.5054 77.7131 59.5054C77.1707 58.9898 76.6944 58.54 76.2522 58.1227C75.8091 57.7048 75.3998 57.3206 74.99 56.9354C74.5801 56.5506 74.1696 56.1663 73.7238 55.7502C73.278 55.3338 72.7975 54.887 72.2467 54.3764C71.92 54.7473 71.7573 54.9322 71.4327 55.304C71.9437 55.7895 72.3904 56.2152 72.8044 56.6113C73.2182 57.0063 73.5997 57.3721 73.9802 57.7382C74.3611 58.1037 74.7413 58.4703 75.153 58.8677C75.5641 59.2647 76.0063 59.6928 76.5104 60.1822C77.5414 61.0311 78.3369 61.2539 78.8766 61.264C79.4166 61.2736 79.7 61.0713 79.7 61.0713C80.2262 60.9391 80.5425 60.4318 80.7304 59.8149C80.9182 59.1962 80.9772 58.4691 80.9894 57.8957C81.0011 57.3218 80.9664 56.9035 80.9664 56.9035C80.9628 55.5879 80.5592 54.6168 80.0189 53.9079V53.907Z" fill="white" fill-opacity="0.8"/>
<path fill-rule="evenodd" clip-rule="evenodd" d="M88.4513 46.8024C87.7225 46.8078 87.0502 46.8125 86.3779 46.8191C85.7057 46.8257 85.0337 46.8328 84.3049 46.8423C83.577 46.851 82.7925 46.862 81.8965 46.8763C81.9046 47.3722 81.9079 47.6201 81.9162 48.1169C82.8108 48.102 83.594 48.0913 84.3205 48.0821C84.7872 48.0764 85.23 48.0713 85.6653 48.0666C85.6725 48.7389 85.6799 49.3879 85.6862 50.0048C85.6937 50.7438 85.7009 51.4468 85.7084 52.1247C85.7158 52.8027 85.7221 53.4547 85.729 54.0919C85.7356 54.7299 85.7428 55.3518 85.7491 55.969C85.7553 56.5856 85.7628 57.1974 85.7694 57.8152C85.7757 58.4321 85.7817 59.0541 85.7885 59.6912C85.7951 60.3289 85.8023 60.981 85.8092 61.6589C85.8173 62.3372 85.8241 63.0398 85.8316 63.7785C85.8397 64.517 85.8475 65.2911 85.8568 66.1094C86.3642 66.1049 86.6188 66.1022 87.1277 66.098C87.1205 65.2792 87.1136 64.5042 87.1073 63.7657C87.1008 63.0279 87.0954 62.3241 87.0888 61.6464C87.0831 60.9688 87.0768 60.3164 87.072 59.6796C87.0663 59.0415 87.0613 58.4202 87.0556 57.803C87.0508 57.1855 87.0451 56.5728 87.0397 55.9562C87.034 55.3387 87.029 54.7174 87.023 54.0796C87.0182 53.4419 87.0128 52.7893 87.0065 52.1119C87.0002 51.4343 86.9942 50.731 86.988 49.9926C86.9829 49.3751 86.9772 48.7261 86.9712 48.0541C87.4526 48.0502 87.9415 48.0463 88.4593 48.043C89.1864 48.0374 89.9687 48.0341 90.8636 48.0317C90.8624 47.5352 90.8624 47.2876 90.8597 46.792C89.9633 46.7941 89.1795 46.7982 88.4513 46.8021V46.8024Z" fill="white" fill-opacity="0.8"/>
<path fill-rule="evenodd" clip-rule="evenodd" d="M99.3512 51.0464C99.2554 50.5748 99.0813 49.9469 98.766 49.3184C98.4497 48.6899 97.9917 48.0593 97.3281 47.586C96.6645 47.1124 95.7948 46.7937 94.6609 46.791C94.6609 46.791 93.8782 46.7919 93.1013 47.0219C92.3246 47.2533 91.5542 47.7129 91.5751 48.6241C91.5748 48.7474 91.5751 48.8103 91.5748 48.9336C91.5766 49.7774 91.5775 50.5739 91.5793 51.3344C91.5799 52.0949 91.582 52.8184 91.5838 53.5157C91.5847 54.2142 91.5859 54.8856 91.5865 55.5421C91.588 56.1977 91.5901 56.8387 91.5913 57.4732C91.5922 58.1091 91.5934 58.7388 91.5943 59.3739C91.5958 60.0092 91.597 60.6511 91.5979 61.3062C91.5985 61.9618 91.6006 62.6329 91.6024 63.3314C91.6032 64.029 91.6041 64.7537 91.6062 65.5133C91.6071 66.2737 91.6089 67.0702 91.6107 67.9141C92.0493 67.9135 92.2707 67.9129 92.7096 67.9135C92.7123 67.0604 92.7162 66.2558 92.7195 65.4882C92.7222 64.72 92.7252 63.9885 92.7279 63.2837C92.7297 62.5784 92.7327 61.9001 92.7354 61.2371C92.7374 60.5752 92.7401 59.9273 92.7428 59.2857C92.7458 58.6441 92.7482 58.0073 92.75 57.3657C92.7506 57.1959 92.7515 57.024 92.7524 56.853C93.033 56.853 93.2867 56.853 93.5369 56.853C93.9467 56.8542 94.3566 56.8548 94.9035 56.8557C94.9035 56.8557 95.1055 56.8167 95.3897 56.9611C95.6742 57.108 96.0431 57.4401 96.3749 58.1854C96.707 58.9304 97.0035 60.0876 97.1453 61.884C97.1405 62.6901 97.136 63.3606 97.1312 63.9876C97.1273 64.6146 97.1232 65.196 97.119 65.8224C97.116 66.4495 97.1109 67.1209 97.1061 67.9269C97.5911 67.9299 97.8346 67.9308 98.319 67.9352C98.3262 67.1241 98.3319 66.448 98.3363 65.8171C98.342 65.1874 98.3465 64.6021 98.3522 63.9712C98.3576 63.3397 98.3633 62.6632 98.3701 61.8533C98.3701 61.8533 98.3815 61.4012 98.3375 60.7459C98.2933 60.0923 98.1927 59.2342 97.9648 58.4237C97.7383 57.6132 97.384 56.8483 96.8335 56.3797C96.8335 56.3797 97.1507 56.257 97.5659 55.9651C97.9815 55.6752 98.4943 55.2162 98.8844 54.5425C99.2737 53.8684 99.5417 52.9798 99.4631 51.8298C99.4631 51.8298 99.4463 51.5161 99.3518 51.0461L99.3512 51.0464ZM98.1108 53.0632C97.9707 53.5517 97.6937 54.1651 97.1471 54.6616C96.6002 55.1576 95.7843 55.5355 94.5613 55.5588C94.0903 55.5495 93.737 55.5433 93.384 55.5376C93.1829 55.5344 92.9795 55.5311 92.7572 55.5275C92.7572 55.4894 92.7575 55.4524 92.7575 55.414C92.7602 54.7516 92.7629 54.073 92.7659 53.3683C92.7686 52.6632 92.7704 51.9316 92.7742 51.164C92.7769 50.3952 92.7808 49.591 92.7835 48.7382C92.7835 48.7382 92.8428 48.4808 93.1246 48.2628C93.4085 48.0456 93.9171 47.8678 94.8156 48.0313C94.8156 48.0313 95.1662 48.0293 95.6461 48.1821C96.1245 48.3352 96.7327 48.6435 97.2416 49.2621C97.7505 49.8817 98.1631 50.8119 98.255 52.2078C98.255 52.2078 98.2523 52.5735 98.1111 53.0632H98.1108Z" fill="white" fill-opacity="0.8"/>
<path fill-rule="evenodd" clip-rule="evenodd" d="M103.93 47.0851C103.451 47.0771 102.939 47.0694 102.323 47.061C102.323 47.061 101.825 46.9955 101.33 47.1885C100.834 47.3812 100.34 47.8316 100.349 48.8583C100.35 49.1148 100.349 49.5711 100.346 50.1731C100.341 50.7751 100.334 51.5225 100.325 52.3625C100.318 53.2016 100.308 54.133 100.296 55.1029C100.284 56.0721 100.273 57.0798 100.26 58.0717C100.249 59.0624 100.236 60.0377 100.225 60.9435C100.214 61.8487 100.203 62.6842 100.192 63.3952C100.183 64.1071 100.176 64.6942 100.17 65.1041C100.165 65.5137 100.162 65.7457 100.162 65.7457C100.162 65.7457 100.079 66.3742 100.285 66.9679C100.492 67.5612 100.987 68.1179 102.145 67.9779C102.96 67.7498 103.571 67.5794 104.183 67.4096C104.794 67.2398 105.406 67.0709 106.224 66.8481C106.126 66.396 106.077 66.1699 105.979 65.7189C105.199 65.9194 104.615 66.0725 104.031 66.2247C103.448 66.3778 102.863 66.5312 102.086 66.737C102.086 66.737 101.171 67.073 101.263 65.8756C101.264 65.7824 101.265 65.7362 101.266 65.6426C101.276 64.8053 101.286 64.0217 101.296 63.2767C101.306 62.5311 101.315 61.8258 101.324 61.146C101.332 60.4666 101.34 59.8125 101.349 59.1718C101.356 58.5304 101.365 57.9034 101.373 57.2764C101.378 56.8394 101.384 56.401 101.389 55.9598C101.893 55.9664 102.346 55.9726 102.774 55.9783C103.37 55.9875 103.923 55.9959 104.52 56.0069C105.115 56.0167 105.754 56.0289 106.52 56.0441C106.531 55.5321 106.536 55.2768 106.545 54.7654C105.778 54.7499 105.139 54.7386 104.541 54.7281C103.944 54.7174 103.39 54.7088 102.792 54.7001C102.363 54.6939 101.91 54.6876 101.405 54.6811C101.411 54.2641 101.416 53.8423 101.422 53.4071C101.431 52.7271 101.439 52.0214 101.449 51.2764C101.458 50.5309 101.468 49.7466 101.479 48.9108C101.479 48.9108 101.412 47.9933 102.191 48.0937C102.822 48.1021 103.347 48.1095 103.837 48.1176C104.326 48.1259 104.781 48.1333 105.271 48.1423C105.76 48.1515 106.285 48.161 106.916 48.1747C106.923 47.7613 106.928 47.5537 106.936 47.1408C106.321 47.1286 105.809 47.1179 105.33 47.1093C104.851 47.1012 104.407 47.0944 103.929 47.086L103.93 47.0851Z" fill="white" fill-opacity="0.8"/>
<path fill-rule="evenodd" clip-rule="evenodd" d="M111.628 47.2515C111.15 47.2378 110.637 47.2241 110.023 47.2092C110.023 47.2092 109.525 47.1446 109.028 47.3099C108.531 47.4743 108.033 47.8675 108.033 48.7778C108.033 49.0384 108.025 49.5299 108.013 50.182C108.002 50.8328 107.986 51.6448 107.966 52.5449C107.947 53.4451 107.924 54.4337 107.9 55.4399C107.877 56.4452 107.852 57.4678 107.829 58.4371C107.806 59.4055 107.782 60.3193 107.763 61.1078C107.743 61.8959 107.727 62.559 107.716 63.0249C107.704 63.491 107.697 63.7588 107.697 63.7588C107.697 63.7588 107.606 64.3778 107.809 64.9211C108.01 65.4638 108.503 65.9344 109.671 65.6419C110.48 65.2595 111.088 64.9747 111.696 64.6896C112.302 64.4061 112.912 64.1219 113.726 63.7454C113.539 63.3361 113.448 63.1318 113.262 62.7225C112.533 63.0663 111.986 63.3263 111.441 63.5872C110.896 63.8464 110.35 64.1061 109.624 64.4546C109.624 64.4546 108.699 64.9515 108.801 63.889C108.802 63.8059 108.803 63.7645 108.806 63.6823C108.826 62.8339 108.846 62.0458 108.863 61.3017C108.881 60.557 108.898 59.857 108.914 59.1812C108.931 58.5062 108.946 57.8574 108.961 57.2176C108.971 56.8426 108.979 56.4703 108.988 56.0976C109.434 56.108 109.843 56.1182 110.23 56.1286C110.826 56.1435 111.379 56.159 111.974 56.1757C112.57 56.1923 113.209 56.212 113.975 56.2349C113.991 55.7238 113.999 55.4679 114.015 54.9565C113.247 54.9333 112.608 54.9142 112.012 54.8975C111.413 54.8802 110.86 54.8659 110.263 54.8502C109.876 54.84 109.466 54.8299 109.019 54.8195C109.03 54.3351 109.042 53.846 109.055 53.3397C109.07 52.6647 109.087 51.9641 109.106 51.2194C109.123 50.4748 109.143 49.6872 109.162 48.8389C109.162 48.8389 109.103 48.0269 109.883 48.1243C110.513 48.1398 111.037 48.1532 111.526 48.1675C112.016 48.1803 112.471 48.1931 112.96 48.2074C113.451 48.2223 113.975 48.2372 114.604 48.258C114.616 47.8904 114.622 47.7067 114.633 47.3397C114.019 47.3212 113.507 47.3045 113.028 47.2905C112.55 47.2774 112.106 47.2646 111.628 47.2515H111.628Z" fill="white" fill-opacity="0.8"/>
<path fill-rule="evenodd" clip-rule="evenodd" d="M120.128 47.5392C119.453 47.5123 118.776 47.4864 118.045 47.4587C117.313 47.4319 116.524 47.4042 115.623 47.3735C115.605 47.8856 115.598 48.1414 115.579 48.6523C116.479 48.6821 117.266 48.7101 117.997 48.7372C118.452 48.7536 118.884 48.7699 119.308 48.7866C119.284 49.4107 119.262 49.9888 119.241 50.5321C119.215 51.1979 119.191 51.8159 119.167 52.4188C119.144 53.0217 119.121 53.6085 119.097 54.2105C119.074 54.8134 119.049 55.4309 119.024 56.0972C118.998 56.7627 118.97 57.4763 118.939 58.269C119.492 58.291 119.77 58.302 120.324 58.3238C120.356 57.5315 120.385 56.8181 120.413 56.152C120.44 55.4857 120.466 54.8682 120.49 54.2653C120.515 53.6633 120.539 53.0762 120.563 52.4745C120.589 51.8719 120.614 51.2536 120.641 50.5878C120.663 50.0442 120.688 49.4667 120.713 48.8423C121.18 48.8611 121.655 48.8808 122.157 48.9025C122.887 48.9338 123.675 48.9689 124.573 49.0106C124.597 48.4992 124.609 48.2436 124.633 47.7322C123.733 47.6914 122.945 47.6559 122.212 47.6249C121.481 47.5934 120.805 47.5657 120.129 47.5392H120.128Z" fill="white" fill-opacity="0.8"/>
<path fill-rule="evenodd" clip-rule="evenodd" d="M66.294 45.8629C65.5332 45.8924 64.8029 45.9222 64.0972 45.9522C63.3911 45.9808 62.7093 46.0106 62.0445 46.0401C61.38 46.0705 60.732 46.1003 60.0947 46.1307C59.4574 46.161 58.831 46.1914 58.2075 46.223C57.584 46.2552 56.9638 46.2873 56.34 46.3198C55.7168 46.3532 55.09 46.388 54.453 46.4232C53.8161 46.4589 53.1689 46.4959 52.5048 46.5352C51.84 46.5739 51.1587 46.6153 50.4539 46.6582C49.7484 46.7023 49.0199 46.7478 48.2597 46.7976C47.5 46.8467 46.709 46.8992 45.8809 46.9564C45.9159 47.4624 45.9335 47.7159 45.9688 48.2217C46.7955 48.1654 47.5841 48.113 48.3425 48.0629C49.101 48.0141 49.8292 47.9679 50.5325 47.9244C51.2365 47.8803 51.9172 47.8395 52.5798 47.8014C53.2428 47.7627 53.8888 47.7252 54.5248 47.69C55.1606 47.6543 55.7862 47.6191 56.4085 47.5866C57.0305 47.5536 57.6492 47.5217 58.2712 47.4898C58.8935 47.4583 59.5194 47.4279 60.1557 47.3975C60.7915 47.3671 61.4383 47.3373 62.1013 47.3072C62.7649 47.2775 63.4458 47.2483 64.1501 47.2179C64.855 47.1884 65.5838 47.1595 66.3431 47.1303C67.1027 47.1008 67.8932 47.0704 68.7216 47.0424C68.7028 46.5349 68.6944 46.2826 68.6758 45.7744C67.8468 45.8033 67.0549 45.8325 66.294 45.8623V45.8629Z" fill="white" fill-opacity="0.8"/>
<path fill-rule="evenodd" clip-rule="evenodd" d="M147.919 47.5608C147.018 47.4878 146.166 47.4213 145.354 47.3585C144.542 47.2965 143.769 47.2385 143.023 47.1839C142.277 47.1294 141.559 47.0779 140.857 47.0296C140.156 46.9805 139.471 46.9334 138.792 46.8885C138.113 46.8417 137.438 46.7979 136.759 46.7547C136.079 46.7106 135.395 46.668 134.692 46.6254C133.991 46.5822 133.272 46.5402 132.527 46.4965C131.78 46.4539 131.006 46.4095 130.192 46.366C129.378 46.3219 128.526 46.2763 127.623 46.2305C127.597 46.7371 127.585 46.9903 127.558 47.497C128.46 47.5429 129.311 47.5876 130.123 47.6319C130.935 47.6754 131.708 47.7189 132.453 47.7621C133.198 47.8056 133.915 47.8482 134.615 47.8911C135.316 47.9337 136 47.9769 136.678 48.0201C137.357 48.0636 138.029 48.1079 138.707 48.1532C139.385 48.1976 140.069 48.2456 140.768 48.2944C141.468 48.3427 142.185 48.3951 142.93 48.4496C143.674 48.5032 144.446 48.561 145.256 48.6229C146.067 48.6855 146.917 48.7528 147.816 48.8243C147.857 48.3182 147.878 48.0662 147.92 47.5608H147.919Z" fill="white" fill-opacity="0.8"/>
<path fill-rule="evenodd" clip-rule="evenodd" d="M130.294 29.1647C131.03 29.204 131.743 29.2431 132.437 29.2821C133.13 29.3208 133.807 29.3598 134.472 29.3991C135.137 29.4391 135.792 29.4787 136.442 29.5189C137.093 29.5594 137.74 29.6002 138.391 29.6428C139.042 29.6845 139.696 29.728 140.361 29.773C141.025 29.8176 141.701 29.8641 142.395 29.913C143.088 29.9621 143.799 30.0127 144.534 30.067C145.271 30.1218 146.032 30.1787 146.825 30.2397C147.618 30.3005 148.443 30.3654 149.308 30.4348C149.348 29.9282 149.369 29.6756 149.41 29.1692C148.545 29.0995 147.717 29.0348 146.923 28.9738C146.129 28.9127 145.367 28.8555 144.63 28.8013C143.892 28.7471 143.179 28.6956 142.484 28.6461C141.79 28.5979 141.113 28.5505 140.447 28.5058C139.782 28.4612 139.125 28.418 138.473 28.3751C137.822 28.3328 137.174 28.2923 136.522 28.2515C135.869 28.2112 135.214 28.1713 134.548 28.1323C133.882 28.0924 133.204 28.0537 132.508 28.0143C131.814 27.9753 131.1 27.936 130.362 27.8964C129.624 27.8574 128.86 27.8181 128.064 27.7784C127.269 27.7385 126.441 27.6986 125.573 27.6587C125.548 28.1657 125.537 28.4192 125.514 28.9267C126.378 28.9669 127.206 29.0068 128.001 29.0465C128.796 29.0864 129.557 29.1263 130.294 29.165V29.1647Z" fill="white" fill-opacity="0.8"/>
<path fill-rule="evenodd" clip-rule="evenodd" d="M66.4296 37.95C66.4048 37.3016 66.3802 36.6528 66.3539 35.9808C66.3282 35.3076 66.3018 34.6109 66.2725 33.8669C66.2438 33.1219 66.2139 32.3293 66.1807 31.4648C65.5703 31.4875 65.062 31.5071 64.5875 31.5265C64.1136 31.5456 63.6723 31.564 63.1984 31.584C62.7236 31.6042 62.2153 31.6257 61.605 31.6534C61.6433 32.5181 61.6792 33.3104 61.7133 34.0545C61.7465 34.7986 61.7779 35.4956 61.8078 36.1676C61.8377 36.8402 61.8674 37.4886 61.8961 38.1368C61.9257 38.785 61.9547 39.4334 61.9846 40.1054C62.0152 40.7783 62.0466 41.475 62.0801 42.2188C62.1136 42.9641 62.1489 43.7561 62.1881 44.6208C63.0862 44.5803 63.7591 44.5523 64.4331 44.524C65.1069 44.496 65.7801 44.4686 66.6782 44.4346C66.6453 43.5699 66.6148 42.7779 66.5864 42.0329C66.5579 41.2877 66.5316 40.5918 66.5053 39.919C66.4796 39.2467 66.4547 38.5973 66.4299 37.9494L66.4296 37.95Z" fill="white" fill-opacity="0.8"/>
<path fill-rule="evenodd" clip-rule="evenodd" d="M81.1349 41.0077C80.439 41.0193 79.8295 41.0304 79.2635 41.042C78.698 41.0533 78.1763 41.0643 77.6536 41.0756C77.1315 41.0872 76.6091 41.0992 76.0437 41.1126C75.4779 41.126 74.8691 41.1415 74.1732 41.1608C74.6932 40.591 75.1629 40.0793 75.6021 39.6015C76.0413 39.1246 76.4497 38.6814 76.8494 38.2503C77.2476 37.8187 77.6368 37.3996 78.0371 36.9689C78.4374 36.5382 78.85 36.0971 79.294 35.6217C79.7383 35.1466 80.2152 34.6378 80.7465 34.073C80.7364 33.471 80.7277 33.0201 80.7202 32.5685C80.7118 32.1169 80.7043 31.6654 80.6939 31.064C79.8903 31.078 79.154 31.0914 78.4626 31.1063C77.7703 31.1203 77.1231 31.1346 76.4984 31.1492C75.8734 31.1638 75.2715 31.1783 74.6689 31.1941C74.0661 31.2096 73.4641 31.2257 72.8394 31.2442C72.2147 31.2615 71.5676 31.2805 70.8765 31.3023C70.1845 31.3237 69.4488 31.3478 68.6455 31.3761C68.667 31.9817 68.6823 32.4354 68.6982 32.8899C68.714 33.3436 68.7299 33.7978 68.7511 34.4034C69.6032 34.3739 70.3137 34.3509 70.9761 34.3298C71.6394 34.3092 72.2545 34.2908 72.9172 34.2717C73.5802 34.2527 74.2908 34.2333 75.1434 34.2121C74.6241 34.7745 74.1579 35.2818 73.7238 35.7548C73.2897 36.2284 72.8876 36.6684 72.4957 37.0979C72.1046 37.5271 71.7247 37.945 71.3349 38.3752C70.945 38.8044 70.5456 39.2461 70.1169 39.7221C69.6879 40.1978 69.2289 40.7078 68.7203 41.2749C68.7418 41.8918 68.758 42.3541 68.7748 42.8164C68.7912 43.2787 68.8074 43.7398 68.8289 44.3569C69.6523 44.3287 70.4071 44.3027 71.1168 44.2816C71.8261 44.2593 72.4891 44.239 73.1302 44.2205C73.7711 44.2021 74.3886 44.1848 75.007 44.1696C75.6245 44.1529 76.2423 44.1383 76.8832 44.1231C77.524 44.1085 78.1879 44.0936 78.8976 44.0799C79.6072 44.065 80.3618 44.0513 81.1863 44.0373C81.1759 43.4309 81.1681 42.9769 81.1603 42.5224C81.1528 42.0678 81.145 41.6139 81.1346 41.008L81.1349 41.0077Z" fill="white" fill-opacity="0.8"/>
<path fill-rule="evenodd" clip-rule="evenodd" d="M86.3918 36.83C85.9914 37.2509 85.6028 37.6616 85.2043 38.0834C84.8064 38.5055 84.3977 38.9389 83.96 39.406C83.5214 39.8724 83.0526 40.374 82.5332 40.9314C82.5419 41.5476 82.5488 42.0102 82.5556 42.4728C82.5628 42.9354 82.5697 43.3977 82.579 44.0146C83.4032 44.0018 84.1581 43.9925 84.868 43.9842C85.5783 43.9759 86.2413 43.9693 86.8824 43.964C87.5239 43.9577 88.1423 43.9538 88.7601 43.95C89.3785 43.9464 89.9966 43.9437 90.6374 43.9416C91.2792 43.9398 91.9422 43.9386 92.653 43.938C93.3621 43.938 94.1178 43.938 94.9424 43.941C94.9439 43.3346 94.9454 42.8797 94.9472 42.4261C94.9484 41.9712 94.9499 41.5173 94.952 40.9111C94.254 40.909 93.6457 40.9084 93.0785 40.9081C92.513 40.9081 91.9909 40.9087 91.4683 40.9096C90.9447 40.9102 90.4226 40.9114 89.8569 40.9144C89.2905 40.9171 88.6811 40.9206 87.9849 40.9248C88.5162 40.3657 88.997 39.8635 89.4443 39.3949C89.8937 38.9267 90.3119 38.4921 90.7197 38.0685C91.1275 37.6456 91.5251 37.2336 91.9332 36.8112C92.3428 36.3883 92.7631 35.9555 93.217 35.4893C93.6712 35.0231 94.1582 34.5239 94.7015 33.9702C94.7024 33.3679 94.7042 32.9163 94.7045 32.4653C94.7057 32.0138 94.7072 31.5622 94.7093 30.9605C93.9048 30.9581 93.1685 30.9575 92.4765 30.9575C91.7842 30.9584 91.1368 30.9593 90.5127 30.962C89.8862 30.9641 89.2842 30.9668 88.6817 30.9703C88.0791 30.9739 87.4763 30.9781 86.8516 30.9834C86.2266 30.9888 85.5795 30.9951 84.8872 31.0031C84.1946 31.0111 83.4583 31.0201 82.655 31.0314C82.6636 31.6379 82.6705 32.0918 82.6771 32.5464C82.6837 33.0006 82.6903 33.4549 82.6993 34.0604C83.5519 34.0482 84.2625 34.0396 84.9252 34.0321C85.589 34.0244 86.2054 34.0181 86.8686 34.0128C87.5316 34.0068 88.2419 34.002 89.0955 33.997C88.5641 34.5495 88.0893 35.047 87.6453 35.5116C87.2019 35.9763 86.7906 36.4085 86.3912 36.83H86.3918Z" fill="white" fill-opacity="0.8"/>
<path fill-rule="evenodd" clip-rule="evenodd" d="M97.1609 33.3749C97.1564 34.1196 97.1519 34.8169 97.1487 35.4898C97.1439 36.1629 97.1403 36.8117 97.1358 37.461C97.1322 38.1095 97.1277 38.7589 97.1244 39.4317C97.1196 40.1049 97.1151 40.8022 97.1104 41.5466C97.1056 42.2922 97.1017 43.0854 97.0957 43.951C97.8589 43.9555 98.5587 43.9608 99.216 43.9677C99.8736 43.9733 100.488 43.9796 101.082 43.9868C101.676 43.9939 102.249 44.0016 102.82 44.01C103.393 44.018 103.966 44.0282 104.559 44.0374C105.152 44.0472 105.767 44.0585 106.423 44.0716C107.081 44.0845 107.781 44.0993 108.544 44.1166C108.558 43.5111 108.568 43.0568 108.578 42.6023L108.612 41.0882C107.915 41.0721 107.304 41.0593 106.738 41.0483C106.169 41.0361 105.646 41.0262 105.122 41.0173C104.599 41.0075 104.075 40.9994 103.507 40.9905C102.94 40.9816 102.329 40.9726 101.63 40.964C101.641 40.1496 101.647 39.7427 101.656 38.9278C102.416 38.9379 103.05 38.9465 103.641 38.9566C104.232 38.9653 104.781 38.9745 105.372 38.9849C105.962 38.9963 106.596 39.0082 107.355 39.0237C107.367 38.4181 107.378 37.9644 107.388 37.5099C107.397 37.0559 107.407 36.602 107.419 35.9964C106.656 35.9803 106.021 35.9684 105.426 35.9571C104.834 35.9467 104.282 35.9377 103.688 35.9282C103.095 35.919 102.459 35.91 101.696 35.8996C101.704 35.1576 101.709 34.7862 101.72 34.0442C102.625 34.0549 103.378 34.0665 104.082 34.0779C104.785 34.0892 105.439 34.1008 106.141 34.1136C106.845 34.1273 107.599 34.1425 108.503 34.1627C108.517 33.5572 108.526 33.1026 108.537 32.6487C108.547 32.1944 108.558 31.7402 108.571 31.134C107.812 31.1173 107.116 31.103 106.462 31.0908C105.807 31.078 105.196 31.0667 104.605 31.0569C104.014 31.0467 103.444 31.0381 102.875 31.0298C102.305 31.0214 101.735 31.0143 101.144 31.0074C100.553 31.0006 99.9415 30.9943 99.2869 30.9884C98.6326 30.9818 97.9361 30.9764 97.1771 30.9717C97.1708 31.837 97.166 32.6302 97.1612 33.3755L97.1609 33.3749Z" fill="white" fill-opacity="0.8"/>
<path fill-rule="evenodd" clip-rule="evenodd" d="M118.564 40.3806C118.891 40.7446 118.944 41.3114 118.912 42.158C118.889 42.7343 118.9 43.2294 118.928 43.6187C118.957 44.0074 119.003 44.2898 119.054 44.4366C119.66 44.4596 120.166 44.4792 120.638 44.4983C121.109 44.5177 121.547 44.5355 122.02 44.5558C122.49 44.576 122.996 44.5981 123.603 44.6249C123.61 44.4655 123.613 44.3857 123.621 44.2269C123.354 44.215 123.242 44.0655 123.206 43.7081C123.169 43.3506 123.208 42.7844 123.246 41.9381C123.284 41.0681 123.214 40.4476 123.049 39.9856C122.886 39.5242 122.626 39.2219 122.289 38.9871C121.951 38.7527 121.055 38.4212 121.057 38.3991C121.057 38.3991 122.469 37.8308 122.873 37.2932C123.277 36.7558 123.486 36.0752 123.519 35.3284C123.546 34.6975 123.476 34.1471 123.281 33.6741C123.085 33.1999 122.766 32.8022 122.297 32.4784C121.828 32.154 121.21 31.9029 120.418 31.7227C119.627 31.5419 118.661 31.432 117.497 31.3912C116.617 31.3605 115.885 31.3358 115.201 31.314C114.516 31.292 113.882 31.2726 113.197 31.2533C112.513 31.2336 111.78 31.2134 110.9 31.1904C110.878 32.056 110.857 32.849 110.838 33.5933C110.818 34.3383 110.801 35.035 110.782 35.7076C110.765 36.3808 110.749 37.0298 110.731 37.678C110.715 38.3268 110.698 38.9752 110.681 39.6487C110.663 40.3213 110.645 41.018 110.626 41.7627C110.606 42.5082 110.587 43.3003 110.563 44.1659C111.462 44.1888 112.136 44.2076 112.811 44.2275C113.485 44.2469 114.158 44.2672 115.057 44.2966C115.077 43.6929 115.093 43.1907 115.108 42.7218C115.123 42.2518 115.137 41.8166 115.153 41.3478C115.168 40.878 115.185 40.3761 115.205 39.7726C115.755 39.7899 116.032 39.7994 116.583 39.8182C117.638 39.8545 118.237 40.0169 118.564 40.3809L118.564 40.3806ZM115.338 35.6382C115.352 35.2522 115.364 34.8652 115.38 34.3499C116.23 34.3776 116.655 34.3925 117.505 34.422C118.036 34.4408 118.491 34.5659 118.808 34.8012C119.125 35.0362 119.305 35.3811 119.288 35.8402C119.27 36.2902 119.071 36.589 118.7 36.7692C118.33 36.9488 117.788 37.0105 117.086 36.9858C116.37 36.9607 116.012 36.9488 115.297 36.9256C115.313 36.4103 115.325 36.0236 115.338 35.6379V35.6382Z" fill="white" fill-opacity="0.8"/>
<path fill-rule="evenodd" clip-rule="evenodd" d="M130.148 44.9481C130.195 44.0843 130.238 43.2922 130.28 42.5487C130.319 41.8044 130.358 41.1083 130.395 40.4369C130.431 39.7643 130.468 39.1161 130.502 38.4679C130.538 37.8198 130.573 37.1722 130.611 36.4996C130.648 35.8276 130.685 35.1321 130.726 34.388C130.766 33.6443 130.811 32.8519 130.857 31.9875C130.247 31.9548 129.739 31.9279 129.264 31.9032C128.79 31.8788 128.35 31.8559 127.876 31.8323C127.401 31.8088 126.892 31.7841 126.283 31.7549C126.241 32.6187 126.203 33.4116 126.167 34.156C126.131 34.9004 126.098 35.5965 126.065 36.2688C126.033 36.9411 126.002 37.5895 125.971 38.2377C125.94 38.8862 125.908 39.5343 125.876 40.2066C125.844 40.8792 125.81 41.575 125.774 42.3191C125.738 43.0632 125.699 43.8558 125.659 44.7208C126.556 44.7634 127.231 44.7968 127.904 44.8313C128.577 44.8653 129.25 44.9004 130.148 44.9487V44.9481Z" fill="white" fill-opacity="0.8"/>
<path fill-rule="evenodd" clip-rule="evenodd" d="M136.212 45.3038C136.461 44.6336 136.586 44.2979 136.837 43.6277C137.732 43.6843 138.403 43.729 139.075 43.7743C139.745 43.8193 140.417 43.8648 141.313 43.9283C141.477 44.6268 141.559 44.975 141.723 45.6741C142.616 45.7378 143.285 45.7867 143.956 45.8373C144.624 45.8865 145.294 45.9377 146.186 46.0059C145.964 45.2461 145.756 44.5389 145.561 43.8708C145.365 43.2033 145.179 42.5742 144.999 41.9683C144.821 41.3633 144.648 40.781 144.476 40.2061C144.304 39.6321 144.135 39.0659 143.963 38.4907C143.791 37.9173 143.616 37.335 143.433 36.7297C143.251 36.1241 143.061 35.4962 142.858 34.829C142.655 34.1618 142.44 33.4564 142.207 32.696C141.587 32.6519 141.072 32.6167 140.59 32.584C140.108 32.5509 139.66 32.5214 139.179 32.4892C138.697 32.4577 138.179 32.4237 137.56 32.3838C137.227 33.1055 136.919 33.7766 136.627 34.4102C136.336 35.0446 136.064 35.6419 135.801 36.2168C135.538 36.7922 135.286 37.3451 135.037 37.8911C134.79 38.4374 134.545 38.9759 134.298 39.5225C134.05 40.0685 133.801 40.6225 133.541 41.1986C133.283 41.7747 133.013 42.3734 132.729 43.0085C132.444 43.6438 132.143 44.3164 131.821 45.0411C132.7 45.0909 133.358 45.1296 134.017 45.1692C134.676 45.2088 135.334 45.2493 136.212 45.3038V45.3038ZM138.464 39.4007C138.641 38.9286 138.806 38.4904 138.984 38.0192C139.162 37.5476 139.352 37.0422 139.581 36.4366C139.734 37.0687 139.86 37.595 139.979 38.0862C140.099 38.5777 140.208 39.0334 140.326 39.5249C140.444 40.0164 140.57 40.5427 140.72 41.1745C140.15 41.1355 139.723 41.1063 139.296 41.0777C138.868 41.0485 138.44 41.0199 137.87 40.9833C138.097 40.3768 138.287 39.8713 138.464 39.4004V39.4007Z" fill="white" fill-opacity="0.8"/>
<path fill-rule="evenodd" clip-rule="evenodd" d="M129.19 52.6824C129.222 52.0962 128.929 51.4757 128.058 51.4307C127.692 51.4117 127.254 51.4954 126.762 51.8793C126.193 52.324 125.857 53.0535 125.818 53.6782C125.782 54.2489 126.111 54.8273 126.937 54.869C127.407 54.8923 127.902 54.7544 128.344 54.3686C128.837 53.9385 129.159 53.2695 129.19 52.6824V52.6824ZM127.59 53.996C127.356 54.3424 127.166 54.5202 126.963 54.5095C126.809 54.5015 126.718 54.3665 126.729 54.1634C126.749 53.7729 126.897 53.3392 127.079 52.9597C127.263 52.5802 127.481 52.2543 127.641 52.0783C127.815 51.8755 127.966 51.7846 128.096 51.7915C128.275 51.8007 128.315 51.9741 128.306 52.1456C128.273 52.7652 127.829 53.643 127.59 53.9957V53.996Z" fill="white" fill-opacity="0.8"/>
<path fill-rule="evenodd" clip-rule="evenodd" d="M133.965 50.0375C133.991 49.6673 133.716 49.2869 133.063 49.2485C132.304 49.2032 131.702 49.6974 131.298 50.3321C131.031 50.7482 130.846 51.2219 130.673 51.685C130.368 51.6684 130.215 51.6603 129.908 51.6428C129.809 51.6785 129.715 51.8858 129.763 52.0601C130.069 52.0764 130.222 52.0848 130.528 52.1015C130.306 52.7717 130.089 53.4297 129.876 54.0751C129.661 54.7212 129.454 55.3575 129.248 55.9773C129.077 56.4971 128.993 56.6568 128.904 56.6523C128.815 56.6475 128.581 56.4462 128.447 56.0899C128.415 56.0024 128.36 55.9145 128.23 55.9079C128.012 55.8966 127.767 56.0947 127.752 56.3643C127.73 56.7959 128.165 57.0139 128.536 57.0336C129.077 57.0622 129.581 56.7381 129.851 56.3774C130.078 56.0718 130.296 55.5672 130.502 55.0414C130.683 54.5759 130.849 54.1002 131.018 53.6206C131.185 53.1416 131.357 52.6549 131.544 52.1587C131.912 52.1792 132.096 52.1908 132.463 52.212C132.605 52.1548 132.668 51.9135 132.619 51.7959C132.247 51.7744 132.062 51.7637 131.69 51.7425C131.868 51.2132 132.061 50.6672 132.321 50.1689C132.526 49.7775 132.699 49.5863 132.804 49.5928C132.911 49.5985 133.078 49.7671 133.185 50.3756C133.209 50.515 133.277 50.6181 133.407 50.6255C133.569 50.6357 133.937 50.4492 133.966 50.0375H133.965Z" fill="white" fill-opacity="0.8"/>
<path fill-rule="evenodd" clip-rule="evenodd" d="M138.386 52.3865C138.923 52.3201 139.54 51.9981 139.586 51.3315C139.61 50.9889 139.501 50.6788 139.214 50.4313C138.897 50.1573 138.317 50.0027 137.493 49.9488C136.808 49.9047 136.258 49.8493 135.882 49.9184C135.792 49.9351 135.746 50.1215 135.815 50.1927C135.908 50.2177 135.955 50.2314 136.049 50.2556C136.331 50.3303 136.304 50.4769 136.099 51.0196C135.866 51.6216 135.693 52.0723 135.521 52.5235C135.347 52.9742 135.174 53.4261 134.945 54.0275C134.655 54.7695 134.603 54.8225 134.234 54.8654C134.139 54.8767 134.091 54.8821 133.997 54.8934C133.889 54.9101 133.882 55.1472 133.939 55.1665C134.206 55.2607 134.726 55.1904 135.049 55.21C135.228 55.2213 135.615 55.2782 135.963 55.3006C136.456 55.3313 136.864 55.3396 137.338 55.2741C137.77 55.216 138.169 55.0498 138.467 54.7841C138.763 54.5175 138.96 54.1529 138.991 53.7019C139.026 53.1812 138.73 52.744 138.302 52.5515C138.175 52.4944 138.144 52.4655 138.146 52.4512C138.147 52.4419 138.182 52.4115 138.387 52.3862L138.386 52.3865ZM136.285 54.9452C135.88 54.9193 135.732 54.7069 135.921 54.1791C136.123 53.6522 136.225 53.3892 136.428 52.8628C136.517 52.6385 136.542 52.6245 136.891 52.6475C137.525 52.6889 137.859 53.0469 137.821 53.6239C137.763 54.4859 137.022 54.9926 136.284 54.9455L136.285 54.9452ZM137.003 52.2954C136.679 52.2742 136.656 52.2483 136.734 52.0487C136.96 51.4753 137.075 51.1885 137.301 50.6151C137.411 50.3357 137.436 50.3208 137.713 50.339C138.251 50.3747 138.514 50.7274 138.484 51.1513C138.436 51.8664 137.825 52.3484 137.003 52.2957L137.003 52.2954Z" fill="white" fill-opacity="0.8"/>
<path fill-rule="evenodd" clip-rule="evenodd" d="M140.157 55.6636C140.885 55.7146 141.779 55.3196 141.992 54.8123C142.022 54.7388 141.895 54.5967 141.843 54.6139C141.537 54.7152 141.041 55.1284 140.748 55.1078C140.506 55.0905 140.418 54.8555 140.433 54.6363C140.445 54.4653 140.459 54.2818 140.501 54.2479C140.635 54.1397 141.356 54.0817 141.801 53.8895C142.246 53.6965 142.616 53.4153 142.646 52.9959C142.674 52.6379 142.378 52.3218 141.907 52.287C141.525 52.2605 141.076 52.3534 140.598 52.6692C140.261 52.8911 139.961 53.2071 139.742 53.5601C139.522 53.9134 139.382 54.3012 139.356 54.6676C139.32 55.1882 139.575 55.6228 140.157 55.6636H140.157ZM141.231 52.8112C141.364 52.6814 141.49 52.6182 141.596 52.6248C141.694 52.6328 141.744 52.7362 141.737 52.8232C141.719 53.0218 141.569 53.3283 141.394 53.4859C141.145 53.7141 140.618 53.925 140.591 53.8946C140.59 53.894 140.916 53.11 141.23 52.8112H141.231Z" fill="white" fill-opacity="0.8"/>
<path fill-rule="evenodd" clip-rule="evenodd" d="M143.055 54.6529C142.937 54.9222 142.895 55.1403 142.885 55.2954C142.869 55.4909 143.013 55.8688 143.36 55.8948C143.683 55.9189 144.052 55.8772 144.722 55.4158C145.124 55.14 145.512 54.7492 145.802 54.3497C146.091 53.95 146.288 53.5413 146.312 53.2336C146.334 52.9569 146.276 52.6364 145.898 52.5866C145.629 52.5518 145.337 52.7934 145.363 53.0445C145.375 53.1544 145.407 53.4239 145.39 53.645C145.37 53.9032 145.145 54.4858 144.893 54.7918C144.563 55.1924 144.232 55.3467 144.094 55.3366C143.957 55.3261 143.918 55.1843 143.925 55.0941C143.931 55.0047 143.989 54.8046 144.094 54.5835C144.309 54.1156 144.417 53.8818 144.632 53.4138C144.721 53.2247 144.793 53.0328 144.802 52.9116C144.816 52.7326 144.703 52.4946 144.443 52.4743C143.744 52.4219 142.856 53.0385 142.775 53.3653C142.765 53.4096 142.879 53.5222 142.928 53.5073C143.081 53.4585 143.475 53.0719 143.637 53.0844C143.727 53.0915 143.699 53.23 143.632 53.3715C143.4 53.8838 143.285 54.1394 143.055 54.6526V54.6529Z" fill="white" fill-opacity="0.8"/>
<path fill-rule="evenodd" clip-rule="evenodd" d="M148.856 52.8249C148.475 52.7933 148.026 52.8812 147.543 53.1925C147.204 53.4111 146.902 53.7242 146.679 54.0747C146.456 54.4247 146.311 54.8123 146.282 55.1778C146.24 55.6984 146.49 56.1357 147.073 56.1828C147.799 56.2408 148.699 55.856 148.916 55.3508C148.947 55.2769 148.821 55.1337 148.769 55.1503C148.462 55.2492 147.961 55.657 147.671 55.6332C147.428 55.6135 147.341 55.3776 147.358 55.1578C147.372 54.9868 147.388 54.8045 147.431 54.7712C147.566 54.6633 148.287 54.6136 148.736 54.4259C149.183 54.2377 149.555 53.9592 149.59 53.541C149.619 53.1826 149.329 52.8636 148.856 52.8249ZM148.333 54.0176C148.079 54.243 147.552 54.4486 147.525 54.4182C147.524 54.4176 147.858 53.6363 148.176 53.3411C148.309 53.213 148.437 53.1502 148.543 53.1585C148.64 53.1668 148.69 53.2711 148.681 53.3578C148.66 53.5573 148.509 53.8618 148.333 54.0176Z" fill="white" fill-opacity="0.8"/>
<path fill-rule="evenodd" clip-rule="evenodd" d="M152.642 53.147C152.349 53.1211 152.078 53.326 151.797 53.6391C151.585 53.8735 151.339 54.205 151.029 54.6601C151.013 54.6593 151.005 54.6581 150.989 54.6572C151.135 54.3233 151.209 54.1559 151.356 53.8216C151.538 53.4189 151.546 53.0511 151.074 53.0112C150.482 52.9596 149.848 53.5175 149.723 53.8056C149.693 53.8773 149.802 54.0206 149.854 54.0048C150.031 53.9494 150.431 53.5536 150.569 53.5649C150.658 53.5723 150.641 53.6793 150.579 53.8282C150.438 54.1669 150.271 54.5452 150.104 54.9282C149.938 55.3107 149.771 55.7006 149.622 56.0646C149.519 56.3175 149.836 56.4092 150.038 56.4256C150.217 56.442 150.382 56.422 150.44 56.313C150.755 55.7095 151.03 55.1073 151.453 54.4844C151.694 54.1293 151.937 53.8145 152.074 53.827C152.139 53.8318 152.175 53.8863 152.189 54.0245C152.208 54.2375 152.227 54.404 152.391 54.4189C152.609 54.4373 152.954 54.1338 152.996 53.67C153.025 53.3361 152.878 53.1681 152.642 53.1473V53.147Z" fill="white" fill-opacity="0.8"/>
<path fill-rule="evenodd" clip-rule="evenodd" d="M139.348 60.2411C139.52 59.7964 139.692 59.3537 139.922 58.7607C140.208 58.0205 140.286 57.9689 140.62 57.9347C140.714 57.9246 140.762 57.9207 140.856 57.9115C140.964 57.8849 140.968 57.6484 140.917 57.6288C140.663 57.5299 140.149 57.599 139.761 57.5722C139.391 57.5463 138.889 57.4289 138.569 57.4658C138.475 57.4769 138.424 57.6931 138.477 57.7458C138.567 57.7646 138.612 57.7738 138.701 57.7941C139.109 57.8781 139.097 58.0413 138.834 58.6856C138.697 59.0362 138.628 59.2108 138.491 59.5613C138.384 59.8318 138.343 59.8455 137.916 59.8172C137.396 59.7812 137.135 59.7654 136.613 59.7311C136.171 59.7025 136.173 59.6859 136.269 59.4386C136.406 59.0779 136.474 58.898 136.612 58.537C136.895 57.7956 136.964 57.7184 137.282 57.6991C137.376 57.6916 137.423 57.6886 137.518 57.6812C137.624 57.6553 137.641 57.4203 137.576 57.3994C137.314 57.3142 136.824 57.3747 136.453 57.3512C136.067 57.3255 135.557 57.1998 135.212 57.2475C135.124 57.2594 135.063 57.442 135.13 57.5284C135.229 57.5469 135.279 57.557 135.378 57.5767C135.786 57.6586 135.767 57.8215 135.523 58.4682C135.295 59.0618 135.127 59.5068 134.957 59.9525C134.787 60.3981 134.618 60.8434 134.393 61.4376C134.113 62.1796 134.044 62.2407 133.696 62.277C133.619 62.2854 133.58 62.2892 133.502 62.2976C133.388 62.3226 133.382 62.5594 133.445 62.5799C133.684 62.6586 134.167 62.5993 134.55 62.6234C134.934 62.6476 135.501 62.7935 135.822 62.728C135.887 62.7152 135.918 62.4974 135.88 62.4465C135.776 62.4254 135.724 62.4161 135.619 62.3959C135.214 62.3217 135.224 62.1501 135.475 61.5058C135.648 61.0611 135.735 60.8395 135.908 60.3957C136.006 60.1401 136.032 60.1258 136.489 60.155C137.003 60.1884 137.261 60.2056 137.776 60.2399C138.208 60.2688 138.208 60.2864 138.138 60.4779C137.961 60.9461 137.872 61.1806 137.695 61.6494C137.413 62.3908 137.344 62.451 136.988 62.4849C136.91 62.4933 136.871 62.4968 136.793 62.5043C136.68 62.5299 136.673 62.7667 136.735 62.7876C136.979 62.8689 137.457 62.8105 137.849 62.8367C138.234 62.8626 138.769 63.0065 139.087 62.9454C139.154 62.9335 139.209 62.7173 139.163 62.6648C139.066 62.6416 139.017 62.6297 138.919 62.6071C138.514 62.5138 138.532 62.3673 138.778 61.723C139.006 61.1293 139.176 60.6852 139.347 60.2405L139.348 60.2411Z" fill="white" fill-opacity="0.8"/>
<path fill-rule="evenodd" clip-rule="evenodd" d="M141.826 59.7304C141.4 59.6989 140.49 60.0617 140.144 60.5493C140.103 60.6065 140.206 60.7655 140.258 60.7542C140.352 60.7331 140.868 60.3312 141.006 60.3408C141.046 60.3443 141.051 60.3932 141.014 60.456C140.622 61.2424 140.425 61.6356 140.035 62.4229C139.959 62.5804 139.921 62.6755 139.914 62.7663C139.907 62.8634 140.05 63.102 140.258 63.116C140.915 63.1637 141.807 62.6376 142.01 62.2704C142.051 62.1947 141.929 62.0461 141.872 62.0636C141.708 62.117 141.194 62.5298 141.082 62.5224C141.026 62.5185 141.021 62.4681 141.059 62.3975C141.449 61.6252 141.645 61.2382 142.038 60.4653C142.103 60.3479 142.163 60.1969 142.17 60.1153C142.182 59.9368 142.003 59.7435 141.826 59.731V59.7304Z" fill="white" fill-opacity="0.8"/>
<path fill-rule="evenodd" clip-rule="evenodd" d="M142.073 58.898C142.459 58.9257 142.741 58.6279 142.769 58.2546C142.792 57.9371 142.613 57.7357 142.331 57.7146C141.944 57.6869 141.637 57.9997 141.61 58.3738C141.589 58.6508 141.759 58.8757 142.073 58.898Z" fill="white" fill-opacity="0.8"/>
<path fill-rule="evenodd" clip-rule="evenodd" d="M144.252 62.1357C144.083 62.2075 143.54 62.8098 143.363 62.7964C143.252 62.7887 143.287 62.6433 143.384 62.4223C143.705 61.669 143.948 61.1057 144.189 60.5412C144.432 59.9756 144.675 59.4114 144.999 58.6599C145.178 58.2408 145.386 57.917 145.461 57.6242C145.471 57.5846 145.438 57.5429 145.387 57.5366C145.021 57.4899 144.088 57.5909 143.882 57.6984C143.817 57.7317 143.806 57.8241 143.826 57.8911C143.913 57.9495 143.957 57.9796 144.042 58.0385C144.179 58.1392 144.181 58.2214 144.063 58.5065C143.726 59.2914 143.474 59.8791 143.222 60.468C142.97 61.056 142.718 61.6445 142.384 62.4288C142.288 62.651 142.246 62.7869 142.236 62.9087C142.224 63.071 142.322 63.267 142.722 63.2965C143.634 63.365 144.228 62.7252 144.391 62.3264C144.424 62.2436 144.302 62.1143 144.252 62.136L144.252 62.1357Z" fill="white" fill-opacity="0.8"/>
<path fill-rule="evenodd" clip-rule="evenodd" d="M146.455 62.3087C146.286 62.3799 145.74 62.9789 145.565 62.9652C145.452 62.9565 145.489 62.8121 145.586 62.5922C145.91 61.8398 146.154 61.2762 146.398 60.7127C146.642 60.1494 146.886 59.5849 147.214 58.8349C147.393 58.4158 147.604 58.0935 147.679 57.801C147.69 57.7614 147.658 57.72 147.606 57.7131C147.24 57.6652 146.308 57.7638 146.1 57.8701C146.035 57.9035 146.024 57.9958 146.044 58.0622C146.13 58.1215 146.173 58.151 146.26 58.2109C146.397 58.3116 146.398 58.3938 146.278 58.6782C145.938 59.4616 145.684 60.049 145.431 60.6367C145.177 61.2238 144.924 61.8118 144.587 62.5964C144.49 62.8171 144.447 62.953 144.438 63.0754C144.425 63.2377 144.522 63.4334 144.922 63.4641C145.834 63.5353 146.429 62.8975 146.593 62.4999C146.628 62.4168 146.506 62.2872 146.455 62.3087V62.3087Z" fill="white" fill-opacity="0.8"/>
<path fill-rule="evenodd" clip-rule="evenodd" d="M148.675 60.2641C148.345 60.237 148.032 60.3576 147.787 60.5345C147.53 60.7207 147.293 61.0341 147.265 61.384C147.241 61.6769 147.363 61.9571 147.59 62.2371C147.687 62.3593 147.735 62.4206 147.831 62.5428C147.977 62.7262 148.038 62.863 148.028 62.9768C148.02 63.0992 147.882 63.201 147.737 63.1888C147.578 63.176 147.426 63.0658 147.141 62.7164C147.054 62.6113 146.995 62.5228 146.907 62.5162C146.7 62.4996 146.497 62.697 146.476 62.9559C146.444 63.3547 146.849 63.616 147.217 63.6455C147.601 63.6776 147.956 63.5778 148.246 63.3702C148.564 63.1439 148.774 62.8421 148.802 62.5088C148.826 62.2246 148.719 61.9625 148.462 61.6459C148.352 61.5086 148.296 61.44 148.184 61.3033C148.037 61.1273 147.999 61.0099 148.006 60.92C148.015 60.8151 148.12 60.7168 148.232 60.7255C148.393 60.7386 148.541 60.8416 148.827 61.2423C148.872 61.303 148.931 61.3659 149.003 61.3715C149.123 61.3814 149.381 61.2977 149.407 60.9801C149.438 60.6147 149.11 60.2998 148.675 60.2638L148.675 60.2641Z" fill="white" fill-opacity="0.8"/>
<path fill-rule="evenodd" clip-rule="evenodd" d="M51.1693 51.0001C50.9937 51.3361 50.8979 51.401 50.6107 51.4183C50.3696 51.4338 50.3038 51.4108 50.258 51.3546C50.2146 51.3018 50.1946 51.1967 50.1847 51.0451C50.1751 50.8884 50.1703 50.8086 50.1607 50.6528C50.1539 50.5539 50.1575 50.5503 50.2466 50.5455C50.3385 50.5393 50.3839 50.5369 50.4755 50.5306C50.6478 50.5196 50.6852 50.5443 50.7322 50.7013C50.7409 50.7329 50.745 50.7493 50.7534 50.7818C50.7792 50.8095 50.8722 50.7949 50.8755 50.7698C50.8878 50.6957 50.8522 50.5473 50.8447 50.4216C50.8369 50.2971 50.8539 50.1449 50.8327 50.0725C50.8255 50.0496 50.7319 50.0493 50.7097 50.077C50.7059 50.1104 50.7029 50.1261 50.6984 50.1601C50.6717 50.3206 50.637 50.3454 50.4647 50.3555C50.3732 50.3618 50.3271 50.3656 50.2358 50.3704C50.1467 50.3752 50.1425 50.3698 50.1365 50.2772C50.1224 50.0472 50.115 49.9319 50.1003 49.702C50.0925 49.5799 50.0925 49.573 50.2017 49.5656C50.3073 49.5602 50.3606 49.5569 50.4674 49.5498C50.6293 49.5402 50.7334 49.5727 50.798 49.632C50.8444 49.6728 50.8878 49.8119 50.9407 49.884C50.9599 49.9099 51.0607 49.8938 51.0625 49.8628C51.0756 49.6886 50.9991 49.3624 50.988 49.3544C50.9808 49.3505 50.7561 49.3791 50.544 49.3916C50.2622 49.4089 50.1213 49.4172 49.8403 49.4351C49.6815 49.4458 49.4663 49.4211 49.3616 49.4553C49.3359 49.4646 49.3314 49.5542 49.3631 49.5718C49.3963 49.5766 49.4128 49.579 49.4463 49.5828C49.5977 49.6004 49.6189 49.6216 49.6381 49.9215C49.6698 50.4136 49.6853 50.659 49.7171 51.1511C49.7359 51.4537 49.718 51.477 49.5702 51.5077C49.5082 51.5205 49.4777 51.5261 49.4161 51.5398C49.3906 51.5586 49.402 51.6506 49.4233 51.6551C49.5857 51.695 49.8328 51.6199 49.9914 51.6101C50.1634 51.5991 50.2502 51.5925 50.4216 51.5824C50.693 51.5657 51.1181 51.5899 51.1863 51.5452C51.2234 51.5205 51.3183 51.1449 51.2923 51.0096C51.2863 50.978 51.1878 50.9646 51.169 51.0004L51.1693 51.0001Z" fill="white" fill-opacity="0.8"/>
<path fill-rule="evenodd" clip-rule="evenodd" d="M52.7121 50.1613C52.6223 50.1199 52.5766 50.0994 52.4859 50.0586C52.3154 49.9826 52.1715 49.8525 52.1622 49.7014C52.1523 49.5355 52.2627 49.3878 52.482 49.3744C52.7211 49.3598 52.8656 49.641 52.9443 49.7577C52.964 49.7863 53.0681 49.7732 53.0729 49.7387C53.0977 49.5641 53.0161 49.294 52.985 49.2713C52.9703 49.2609 52.9144 49.2618 52.8707 49.2511C52.7387 49.218 52.5987 49.215 52.4889 49.2216C52.0078 49.2502 51.7335 49.5254 51.7577 49.8971C51.779 50.2221 52.0518 50.4047 52.2971 50.509C52.5015 50.595 52.763 50.7389 52.7782 51.0073C52.7884 51.1699 52.6858 51.346 52.4404 51.3606C52.1598 51.3772 51.9345 51.0395 51.8403 50.8762C51.8214 50.8441 51.7224 50.8587 51.7152 50.8947C51.6838 51.0615 51.7882 51.3749 51.8529 51.4216C51.9073 51.4612 52.1188 51.5312 52.4234 51.5131C52.9224 51.4836 53.2417 51.2009 53.2177 50.7943C53.1971 50.4333 52.9236 50.257 52.7118 50.1613H52.7121Z" fill="white" fill-opacity="0.8"/>
<path fill-rule="evenodd" clip-rule="evenodd" d="M55.6489 49.0121C55.6292 49.0126 55.6124 49.0168 55.6058 49.0249C55.5741 49.063 55.5304 49.1008 55.3114 49.1127C54.8169 49.1398 54.5701 49.1535 54.0758 49.1818C53.8242 49.1958 53.8185 49.1616 53.7937 49.1291C53.7859 49.1199 53.7623 49.1178 53.7461 49.1181C53.7294 49.1193 53.7057 49.1273 53.7006 49.1378C53.6614 49.2134 53.6043 49.5512 53.6234 49.7046C53.627 49.7341 53.7294 49.749 53.7476 49.726C53.855 49.5986 53.8957 49.3451 54.1377 49.3317C54.22 49.3263 54.2613 49.3236 54.3439 49.3195C54.4235 49.315 54.4244 49.3308 54.4288 49.4097C54.4621 49.992 54.4782 50.2831 54.5117 50.8648C54.5285 51.1704 54.5102 51.1936 54.3624 51.2258C54.3035 51.2353 54.2742 51.2398 54.2149 51.2496C54.1886 51.2711 54.1994 51.3605 54.2212 51.3658C54.3732 51.403 54.6242 51.3333 54.7834 51.3235C54.9318 51.3161 55.1834 51.3575 55.3123 51.3051C55.3309 51.2973 55.3312 51.2079 55.3063 51.1898C55.2528 51.1859 55.2262 51.1841 55.1726 51.1805C55.0224 51.1651 55.0009 51.1433 54.9844 50.8374C54.9515 50.256 54.9354 49.9643 54.9027 49.3835C54.898 49.2974 54.9078 49.2882 54.9877 49.2837C55.0673 49.2789 55.1065 49.2763 55.1867 49.2724C55.4353 49.2587 55.4748 49.4526 55.5586 49.6188C55.5708 49.6426 55.6761 49.6269 55.6809 49.6024C55.7061 49.4669 55.7126 49.0996 55.6992 49.0323C55.698 49.0252 55.6675 49.0109 55.6483 49.0118L55.6489 49.0121Z" fill="white" fill-opacity="0.8"/>
<path fill-rule="evenodd" clip-rule="evenodd" d="M56.1796 50.7509C56.0306 50.7595 55.9178 50.8849 55.9262 51.0398C55.9349 51.2016 56.0761 51.2993 56.2092 51.2921C56.3675 51.2835 56.4704 51.162 56.4624 51.0106C56.4549 50.8692 56.3385 50.7423 56.1793 50.7509H56.1796Z" fill="white" fill-opacity="0.8"/>
<path fill-rule="evenodd" clip-rule="evenodd" d="M59.5382 50.9605C59.3745 50.9557 59.353 50.9224 59.3398 50.6597L59.277 49.3898C59.2692 49.2245 59.2758 49.0595 59.2674 48.9967C59.2644 48.9746 59.2354 48.9624 59.2189 48.9624C59.1956 48.9636 59.0714 49.0345 58.929 49.083C58.7995 49.1265 58.6011 49.1521 58.5084 49.1962C58.4856 49.2073 58.4904 49.2969 58.5206 49.3115C58.582 49.3154 58.6122 49.3178 58.6738 49.3234C58.8207 49.3335 58.8378 49.3851 58.8477 49.6031C58.8701 50.0341 58.8806 50.2495 58.9018 50.6805C58.9159 50.945 58.8976 50.9793 58.7358 51.0001C58.6816 51.0064 58.655 51.0088 58.6005 51.0156C58.5715 51.0368 58.5844 51.1294 58.6128 51.1312C58.7121 51.1374 58.9311 51.1056 59.1495 51.0951C59.3548 51.085 59.575 51.0951 59.6725 51.0788C59.7009 51.074 59.7042 50.9817 59.6731 50.9632C59.6192 50.9617 59.5917 50.9614 59.5379 50.9605H59.5382Z" fill="white" fill-opacity="0.8"/>
<path fill-rule="evenodd" clip-rule="evenodd" d="M61.0638 48.8885C60.6515 48.907 60.3413 49.2224 60.3607 49.6445C60.3766 49.9784 60.6411 50.2203 60.9522 50.2054C61.088 50.1982 61.2532 50.1398 61.2753 50.088C61.2831 50.0713 61.267 50.0222 61.2526 50.0195C61.2314 50.015 61.2017 50.0231 61.1589 50.0177C60.9355 49.9927 60.8092 49.7094 60.7963 49.4398C60.7874 49.2415 60.8681 49.0493 61.0237 49.0428C61.3026 49.0288 61.3983 49.5042 61.4097 49.7538C61.4378 50.3603 60.9486 50.8669 60.4909 51.1189C60.4651 51.1335 60.4762 51.2232 60.51 51.2268C60.7254 51.2563 61.2182 50.9885 61.4812 50.7234C61.7498 50.4529 61.9111 50.0975 61.8928 49.699C61.8722 49.2412 61.5718 48.8647 61.0638 48.8888V48.8885Z" fill="white" fill-opacity="0.8"/>
<path fill-rule="evenodd" clip-rule="evenodd" d="M63.1364 48.7948C62.7247 48.813 62.4124 49.1261 62.4315 49.549C62.4465 49.8833 62.7097 50.1257 63.0215 50.1114C63.1573 50.1052 63.3231 50.0468 63.3455 49.995C63.3524 49.9783 63.3365 49.9297 63.3222 49.9258C63.3003 49.922 63.2719 49.9288 63.2297 49.925C63.005 49.8984 62.88 49.6149 62.8683 49.345C62.8593 49.1472 62.9407 48.9557 63.0966 48.9488C63.3757 48.9369 63.4691 49.4114 63.4801 49.6622C63.5065 50.2678 63.0167 50.773 62.5575 51.0238C62.5314 51.0384 62.5425 51.128 62.5754 51.1319C62.7914 51.1614 63.2848 50.8948 63.5486 50.6306C63.8182 50.3613 63.9801 50.0069 63.9633 49.6077C63.9433 49.1505 63.6444 48.7731 63.1364 48.7948V48.7948Z" fill="white" fill-opacity="0.8"/>
<path fill-rule="evenodd" clip-rule="evenodd" d="M65.7379 50.6854C65.5754 50.6779 65.5548 50.6457 65.5437 50.3824C65.5234 49.8749 65.5129 49.6211 65.4926 49.1129C65.486 48.947 65.4938 48.7826 65.486 48.7197C65.4839 48.6983 65.4552 48.6846 65.4393 48.6846C65.4151 48.6864 65.2897 48.7564 65.147 48.8028C65.0175 48.8445 64.8185 48.8692 64.7258 48.9124C64.7039 48.9226 64.7066 49.0128 64.7368 49.0271C64.7988 49.0328 64.8293 49.0346 64.8909 49.0399C65.0381 49.0512 65.0534 49.1037 65.0617 49.3214C65.0797 49.7524 65.0884 49.9684 65.106 50.4006C65.1171 50.6639 65.0979 50.6979 64.9367 50.7184C64.8831 50.7232 64.8553 50.7268 64.8011 50.7321C64.7727 50.7536 64.7847 50.845 64.8122 50.8483C64.9115 50.8548 65.1299 50.8259 65.3484 50.8167C65.5542 50.8084 65.7741 50.8203 65.8722 50.8054C65.9012 50.8009 65.9045 50.7083 65.874 50.6898C65.8193 50.688 65.7923 50.6877 65.7376 50.686L65.7379 50.6854Z" fill="white" fill-opacity="0.8"/>
<path fill-rule="evenodd" clip-rule="evenodd" d="M47.4442 32.4038C47.4442 32.4038 47.2207 31.9374 47.145 31.8564C47.116 31.8257 47.019 31.8433 46.9586 31.8096C46.6594 31.6404 46.1511 31.4724 45.7188 31.4396C45.5468 31.4271 45.372 31.3568 45.1869 31.3592C44.8934 31.364 44.6322 31.4474 44.4233 31.4694C44.3859 31.4727 44.3363 31.437 44.2995 31.4402C43.936 31.4635 43.5237 31.6145 43.2362 31.6118C43.0396 31.6094 42.7736 31.6583 42.6345 31.7131C42.2193 31.8793 41.1213 32.4107 40.9328 32.2895C40.8026 32.2061 40.8065 31.3714 40.8361 31.0021C40.8664 30.6312 40.9708 30.1097 41.0061 29.6554C41.0411 29.2003 41.1823 28.6698 41.1904 28.3674C41.1946 28.2119 41.1946 27.9025 41.1811 27.6799C41.1443 27.0532 41.0626 26.366 40.9774 25.7539C40.9262 25.3858 40.8717 24.9714 40.8074 24.5586C40.7428 24.146 40.668 23.7344 40.575 23.3716C40.5127 23.1285 40.3518 22.8411 40.3763 22.6203C40.388 22.5095 40.3978 22.3433 40.3533 22.31C40.3377 22.2987 40.2952 22.3532 40.2943 22.3526C40.2943 22.3526 40.3024 22.0297 40.2671 21.9823C40.2132 21.9111 40.0173 21.7071 39.9877 21.5704C39.9332 21.3148 39.6382 20.4021 39.5233 20.3315C39.5042 20.3196 39.4025 20.196 39.3875 20.1641C39.3848 20.1588 39.2924 20.1805 39.284 20.1528C39.1622 19.759 38.6126 19.1812 38.23 18.7472C37.8473 18.3126 37.17 17.9417 36.8983 17.6468C36.8768 17.6245 36.8633 17.5369 36.8466 17.5137C36.7697 17.405 36.2093 17.2778 35.9532 17.2307C35.7049 17.1851 35.175 17.1869 34.9147 17.217C34.7292 17.2391 34.4082 17.2939 34.2485 17.4282C34.1913 17.4336 34.1626 17.4356 34.1048 17.4404C33.861 17.5599 33.6291 17.7588 33.4784 17.8839C33.2821 18.0469 33.003 18.4237 32.8028 18.7254C32.6921 18.8919 32.6469 19.0861 32.559 19.2762C32.5365 19.325 32.471 19.3676 32.4471 19.4233C32.3723 19.5952 32.3666 19.7936 32.3104 19.9839C32.2754 20.1013 32.1901 20.1885 32.17 20.291C32.1467 20.4117 32.1796 20.5379 32.1638 20.683C32.0955 21.3029 32.0234 21.8501 32.0031 22.405C31.9893 22.7925 32.0665 23.1181 32.0923 23.4386C32.1066 23.6122 32.1685 23.8267 32.1778 23.9605C32.1916 24.1633 32.302 24.605 32.3295 24.7722C32.3762 25.0495 32.3881 25.5332 32.4707 25.9186C32.565 26.3556 32.7941 26.9371 32.9587 27.4562C33.1229 27.9748 33.42 28.5318 33.5439 28.9098C33.6303 29.1735 33.8158 29.7421 33.9179 29.9372C33.9508 29.9997 34.0124 30.1326 34.0438 30.2231C34.0621 30.2771 34.1695 30.3763 34.2458 30.4409C34.1775 30.6658 34.4037 30.8612 34.4743 30.9905C34.7017 31.4069 35.0913 32.0232 35.2235 32.4208C35.2684 32.5543 35.4362 32.7806 35.4386 32.7958C35.4392 32.7988 35.4575 32.9513 35.4727 32.9701C35.5038 33.0118 35.6322 33.1741 35.6588 33.2671C35.675 33.3246 35.8093 33.4467 35.8616 33.5063C36.2476 33.9489 37.059 34.8535 37.1783 35.2643C37.1897 35.3021 37.2379 35.2795 37.2388 35.2804C37.2388 35.2804 37.4518 35.6223 37.5152 35.6896C37.6169 35.7954 38.0741 36.188 38.4167 36.3646C38.4553 36.3843 38.5286 36.3679 38.5785 36.3893C38.6955 36.4391 38.7766 36.5383 38.8732 36.5442C38.939 36.5481 39.0479 36.4772 39.1506 36.4817C39.1972 36.4837 39.2322 36.5162 39.2741 36.5126C39.845 36.465 40.0514 35.9172 40.1732 35.8544C40.1824 35.8496 40.2001 35.9806 40.239 35.9494C40.2689 35.9252 40.3604 35.8561 40.3299 35.8049C40.3027 35.7599 40.1693 35.8019 40.1657 35.7584C40.1516 35.5881 40.134 34.9759 40.0699 34.7853C39.9437 34.4136 39.383 33.7615 39.1736 33.382C38.9232 32.9278 38.5318 32.1486 38.2674 31.6461C38.2506 31.6136 38.1285 31.6613 38.1217 31.6005C38.095 31.3711 37.6331 31.3315 37.5625 31.467C37.5577 31.4769 37.5502 31.5028 37.5466 31.5079C37.5083 31.557 37.687 31.8954 37.7498 32.0404C37.8461 32.2653 38.1498 32.761 38.2985 33.0758C38.4229 33.338 38.8669 33.6537 39.0539 33.9215C39.2011 34.1324 39.4007 34.4639 39.515 34.6507C39.6032 34.7939 39.7112 35.1139 39.7417 35.2419C39.7776 35.3918 39.7633 35.8436 39.6978 35.9714C39.6499 36.0661 39.2538 36.1338 39.2053 36.1463C39.1721 36.1561 38.9722 35.9518 38.9262 35.913C38.8675 35.8645 38.5453 35.7882 38.3918 35.7984C38.3559 35.8004 38.3823 35.9157 38.3392 35.8996C38.1241 35.8177 37.5709 35.3816 37.5843 35.2917C37.5849 35.2842 37.663 35.2646 37.6379 35.2089C37.5969 35.1186 37.4422 35.0716 37.4201 35.0102C37.4075 34.9762 37.3848 34.9274 37.3713 34.8955C37.3169 34.774 37.0769 34.6078 36.907 34.4028C36.7529 34.2176 36.492 33.8396 36.4442 33.6951C36.437 33.6722 36.367 33.6993 36.361 33.6629C36.3562 33.6084 36.3547 33.5816 36.3502 33.5265C36.1402 33.3597 36.0008 33.0306 35.87 32.8575C35.6729 32.5975 35.4957 32.1876 35.312 31.8701C35.1284 31.5522 34.9955 31.056 34.8289 30.8439C34.7364 30.7265 34.6239 30.4778 34.5165 30.2613C34.3813 29.9896 34.2209 29.6679 34.2054 29.4829C34.2033 29.4555 34.0926 29.496 34.0806 29.4535C33.9783 29.0758 33.6896 28.6844 33.6486 28.4493C33.636 28.3779 33.6118 28.1369 33.5762 28.0624C33.5421 27.9921 33.4643 27.7794 33.4143 27.6058C33.3497 27.3803 33.1331 27.1652 33.0924 26.966C32.9611 26.3214 32.8082 25.7685 32.6939 25.174C32.5826 24.5964 32.3211 23.8413 32.4474 23.5062C32.4686 23.4502 32.6933 23.2745 32.6936 23.2503C32.6936 23.2325 32.5826 22.7267 32.565 22.7118C32.565 22.7118 32.4378 23.0913 32.41 23.0776C32.3852 23.0645 32.3319 22.0324 32.3843 21.803C32.3944 21.7604 32.5105 21.7035 32.4961 21.6758C32.4441 21.5772 32.4764 21.1152 32.5129 20.89C32.5237 20.8266 32.4842 20.7348 32.4947 20.6762C32.5054 20.6163 32.57 20.5633 32.5838 20.5102C32.6161 20.3828 32.6401 20.1516 32.6789 20.168C32.7008 20.1775 32.9003 20.224 32.9096 20.2079C32.9276 20.1757 33.0137 19.8117 32.9976 19.7885C32.9946 19.7846 32.8336 19.8272 32.7762 19.8427C32.7609 19.882 32.7499 19.9121 32.7415 19.9363C32.7361 19.9657 32.7304 19.9917 32.7259 19.9884C32.7244 19.9872 32.731 19.9666 32.7415 19.9363C32.7487 19.8963 32.7546 19.8487 32.7546 19.8487L32.7762 19.8427C32.9291 19.4489 33.3955 18.3757 33.7099 18.1776C33.8428 18.0939 34.1431 17.8211 34.2039 17.8625C34.2332 17.8836 34.0974 18.1443 34.1252 18.183C34.1345 18.1967 34.214 18.2488 34.2538 18.2316C34.3502 18.1901 34.4525 17.9355 34.4935 17.8592C34.5183 17.8124 34.6458 17.9182 34.6826 17.9042C34.7532 17.8753 34.7666 17.6477 34.848 17.6346C34.9123 17.6248 35.0233 17.7314 35.0628 17.735C35.2049 17.7478 36.1189 17.7246 36.3125 17.8303C36.4884 17.9256 36.8083 18.1476 37.0548 18.3021C37.2391 18.418 37.3028 18.5148 37.4551 18.6644C37.5637 18.7698 37.7067 18.8609 37.8108 18.9706C37.911 19.0757 38.0391 19.2911 38.1761 19.432C38.2967 19.5553 38.405 19.7173 38.4544 19.8034C38.5274 19.9324 38.9229 20.4212 39.05 20.602C39.1766 20.7807 39.366 21.1861 39.4629 21.4137C39.6642 21.8876 39.9554 22.6239 40.1145 23.248C40.1319 23.3174 40.0717 23.3343 40.0846 23.3871C40.096 23.4326 40.1603 23.4505 40.1753 23.4991C40.2213 23.6426 40.2177 23.8109 40.23 23.9655C40.242 24.1106 40.3419 24.2461 40.3652 24.3858C40.4155 24.6896 40.3898 25.0268 40.4553 25.322C40.531 25.6672 40.5579 26.0741 40.5857 26.4757C40.6139 26.8766 40.753 27.3865 40.7269 27.5971C40.7165 27.6788 40.639 27.8488 40.6336 27.9754C40.6112 28.5047 40.6165 29.0495 40.5504 29.5911C40.4897 30.0921 40.3862 30.5895 40.356 31.0751C40.3281 31.5222 40.2575 32.0676 40.3703 32.3312C40.3969 32.3937 40.4864 32.5561 40.5328 32.6124C40.5783 32.6657 40.8158 32.7288 40.8867 32.7238C40.9657 32.7175 41.1802 32.7101 41.2897 32.694C41.7445 32.6261 42.5876 32.0247 42.9861 32.0407C43.0962 32.0449 43.4573 32.0008 43.5674 31.9612C43.8986 31.8433 44.4512 31.815 44.8554 31.7703C45.2596 31.7259 45.6856 31.812 45.9525 31.8573C46.4066 31.9341 47.3885 32.4432 47.4466 32.4041L47.4442 32.4038Z" fill="white" fill-opacity="0.8"/>
<path fill-rule="evenodd" clip-rule="evenodd" d="M32.6101 24.2198C32.6738 24.2225 32.6999 24.1942 32.6849 24.1353C32.652 24.1376 32.6361 24.1391 32.6035 24.1421C32.6062 24.1728 32.6074 24.1889 32.6101 24.2198V24.2198Z" fill="white" fill-opacity="0.8"/>
<path fill-rule="evenodd" clip-rule="evenodd" d="M32.5515 21.1216C32.5515 21.1216 32.4956 21.1615 32.518 21.2244C32.5829 21.2357 32.6757 21.2992 32.6894 21.2872C32.7059 21.2727 32.5599 21.1184 32.5515 21.1216V21.1216Z" fill="white" fill-opacity="0.8"/>
<path fill-rule="evenodd" clip-rule="evenodd" d="M37.7713 35.3755C37.7815 35.3648 37.7614 35.2998 37.7441 35.2793C37.7115 35.2811 37.6947 35.2823 37.6621 35.2853C37.6642 35.3553 37.7537 35.394 37.7713 35.3755V35.3755Z" fill="white" fill-opacity="0.8"/>
<path fill-rule="evenodd" clip-rule="evenodd" d="M38.284 35.7277C38.2953 35.7143 38.2516 35.6661 38.1993 35.6762C38.1966 35.7277 38.2714 35.7429 38.284 35.7277Z" fill="white" fill-opacity="0.8"/>
<path fill-rule="evenodd" clip-rule="evenodd" d="M40.8907 24.0543C40.8488 24.0379 40.772 24.1026 40.7776 24.1812C40.7932 24.1827 40.8159 24.1934 40.8195 24.1967C40.8282 24.2027 40.9239 24.0668 40.8907 24.0543V24.0543Z" fill="white" fill-opacity="0.8"/>
<path fill-rule="evenodd" clip-rule="evenodd" d="M40.9195 24.4439C40.9291 24.4373 40.9668 24.3852 40.9522 24.3244C40.8546 24.2672 40.8926 24.4644 40.9195 24.4439Z" fill="white" fill-opacity="0.8"/>
<path fill-rule="evenodd" clip-rule="evenodd" d="M59.5558 22.5411C59.4822 22.5256 59.2994 22.4824 59.283 22.4163C59.2528 22.2974 59.3796 21.8914 59.4164 21.7833C59.5367 21.4265 59.68 20.4569 59.5184 20.0161C59.4598 19.8576 59.4574 19.6416 59.429 19.4325C59.3679 18.9777 59.2303 18.5446 59.0469 18.1544C58.8635 17.763 58.451 17.3415 58.3908 17.1333C58.3777 17.0868 58.3771 16.9981 58.3618 16.9573C58.2735 16.721 57.0158 15.8152 56.7749 16.2322C56.716 16.3344 56.5847 16.5772 56.5311 16.677C56.4784 16.7738 56.479 17.0284 56.5332 17.1461C56.5808 17.2507 56.6185 17.4455 56.6382 17.6117C56.6945 18.0692 56.7914 18.5771 56.9138 18.9685C57.0044 19.258 57.1717 19.6768 57.2973 20.0259C57.3362 20.134 57.3404 20.2475 57.3763 20.3538C57.5082 20.7509 57.7171 21.2069 57.8637 21.4852C57.8885 21.5313 57.9756 21.5727 57.9923 21.6165C58.0737 21.8283 58.2083 22.1685 58.3142 22.2879C58.3899 22.3731 58.6843 22.6588 58.681 22.7002C58.6792 22.7192 58.6484 22.9033 58.5961 23.0564C58.5763 23.116 58.4925 23.1496 58.462 23.2182C58.4492 23.2465 58.4773 23.3033 58.4674 23.337C58.4468 23.4106 58.3582 23.4904 58.3349 23.5583C58.2664 23.757 58.2915 23.8758 58.173 24.0176C58.1455 24.0489 58.0883 24.0677 58.0551 24.1007C57.9854 24.1716 57.9729 24.3417 57.9064 24.4221C57.8544 24.4856 57.744 24.5779 57.6533 24.6503C57.4505 24.8118 57.0717 24.8749 57.0265 24.779C56.9553 24.628 57.1558 23.7183 57.0173 23.2602C56.8791 22.8014 56.3405 22.3493 56.0877 22.4771C56.0297 22.5068 55.8478 22.6546 55.834 22.7252C55.8095 22.8482 55.8747 23.303 55.767 23.3757C55.7341 23.3981 55.6847 23.3382 55.6225 23.3617C55.0636 23.575 54.5828 24.0727 54.4282 24.7397C54.3815 24.4555 54.231 24.1758 54.1359 23.8741C54.0646 23.6471 54.0542 23.3975 53.9737 23.1768C53.9489 23.1082 53.8594 23.0311 53.8184 22.951C53.6817 22.6844 53.5901 22.3713 53.4115 22.2668C53.4088 22.2203 53.4076 22.1974 53.4046 22.1509C52.9858 21.7118 52.3644 21.2623 51.883 21.0604C51.7933 21.022 51.5222 20.9424 51.4238 20.9305C51.2299 20.907 50.6354 21.1182 50.432 21.1852C50.3045 21.2269 49.9506 21.3654 49.8934 21.4536C49.8357 21.5423 49.6281 21.7002 49.5862 21.825C49.5126 22.0457 49.354 22.2471 49.2993 22.4878C49.2326 22.7821 49.3175 23.3007 49.2984 23.4693C49.2819 23.6143 49.3412 23.8708 49.3762 24.051C49.401 24.1791 49.3723 24.314 49.4001 24.4418C49.4752 24.7751 49.5859 25.1513 49.6864 25.4435C49.8016 25.7798 50.2309 26.593 50.2091 26.646C50.2091 26.646 50.1911 26.7509 50.1959 26.7655C50.2184 26.8271 50.2961 27.016 50.362 27.1473C50.4769 27.3764 50.6653 27.5837 50.7686 27.8083C50.7931 27.8634 50.7766 27.9221 50.7985 27.9826C50.8188 28.0389 50.8496 28.0937 50.8846 28.1479C50.3102 28.1821 49.7253 28.2179 49.1186 28.2554C48.4269 28.2983 47.7109 28.3436 46.9618 28.3921C46.2132 28.441 45.4308 28.4934 44.6084 28.5497C44.6434 29.0561 44.6611 29.3099 44.6961 29.8162C45.5176 29.7599 46.2976 29.7081 47.0449 29.659C47.7929 29.6107 48.5076 29.5651 49.1982 29.5222C49.8881 29.4794 50.5543 29.4394 51.2033 29.401C51.2969 29.3954 51.3879 29.3903 51.4809 29.3846C51.4597 29.4251 51.4357 29.4722 51.4399 29.5112C51.4573 29.6888 51.9695 30.0224 52.041 30.0644C52.3147 30.2264 52.8212 31.154 53.1638 31.5871C53.2697 31.7214 53.4058 31.8966 53.5309 32.0601C52.8248 32.0997 52.2052 32.1352 51.6254 32.1694C50.9283 32.2108 50.2806 32.2495 49.5835 32.2924C48.8861 32.3359 48.1393 32.3827 47.2436 32.4408C47.3001 33.3043 47.3522 34.096 47.401 34.8401C47.4494 35.583 47.4955 36.2788 47.5395 36.9499C47.5838 37.6222 47.6265 38.2692 47.669 38.9173C47.7118 39.5646 47.7546 40.2125 47.7983 40.8841C47.8423 41.5555 47.888 42.2514 47.9371 42.9945C47.9856 43.7383 48.0373 44.5304 48.0945 45.3942C48.9917 45.3352 49.6652 45.2926 50.3377 45.2509C51.0109 45.2086 51.6844 45.1681 52.5822 45.1163C52.5349 44.3102 52.4993 43.705 52.4634 43.1012C52.4275 42.4959 52.3916 41.8909 52.344 41.0852C52.7994 41.0581 53.1405 41.0387 53.4818 41.0194C53.8235 41 54.1649 40.9813 54.6196 40.9559C55.6099 40.9005 56.456 40.7456 57.1672 40.4993C57.8789 40.2536 58.4551 39.9158 58.9045 39.4976C59.3536 39.0797 59.6752 38.5807 59.876 38.0124C60.0773 37.4438 60.1581 36.8054 60.1249 36.1075C60.0938 35.4412 59.9442 34.8404 59.6752 34.3167C59.4056 33.7931 59.0164 33.3469 58.5054 32.99C57.9938 32.6338 57.3607 32.3675 56.6044 32.2043C55.869 32.0452 55.0145 31.9856 54.0452 32.0339C53.8277 31.7858 53.5602 31.4417 53.3604 31.1456C53.1198 30.7897 52.5831 30.2079 52.6277 30.0504C52.6495 29.9735 53.0361 29.7269 53.2296 29.566C53.3652 29.4534 53.375 29.3903 53.4385 29.2723C53.9504 29.2437 54.4599 29.2154 54.9673 29.188C55.5842 29.1547 56.2005 29.1222 56.8249 29.0903C57.4499 29.0585 58.0839 29.0269 58.7328 28.995C59.3823 28.9634 60.0486 28.9322 60.7397 28.9006C61.4299 28.869 62.1459 28.8374 62.8941 28.8059C63.6424 28.774 64.4241 28.7421 65.2466 28.7097C65.2268 28.2021 65.2167 27.9483 65.1966 27.4407C64.3724 27.4732 63.5897 27.5054 62.8394 27.5372C62.0896 27.5691 61.3731 27.601 60.6808 27.6323C59.989 27.6638 59.3216 27.6954 58.6706 27.727C58.0198 27.7586 57.3856 27.7904 56.7594 27.8223C56.1338 27.8545 55.516 27.8867 54.8979 27.9203C54.6561 27.9334 54.4114 27.9474 54.1694 27.9605C54.2005 27.8649 54.2307 27.7714 54.2591 27.6859C54.4033 27.2546 54.5227 26.3407 54.535 26.3389C54.535 26.3389 54.8156 26.7354 54.9068 26.8081C55.0178 26.8968 55.4044 26.9338 55.6431 26.828C55.7395 26.7854 55.8918 26.6907 55.9794 26.6356C56.094 26.5635 56.2502 26.2999 56.3621 26.1837C56.555 25.9833 56.7169 25.3548 56.9084 25.274C57.0385 25.2192 57.4493 25.3488 57.642 25.2577C57.6931 25.2338 57.7189 25.1674 57.7589 25.134C57.8795 25.0325 58.0186 24.9732 58.1129 24.8621C58.2643 24.6819 58.4578 24.3801 58.5533 24.2535C58.7552 23.9873 58.9751 22.9861 59.1017 22.9352C59.1376 22.9206 59.5813 23.079 59.8015 22.9995C59.9469 22.9459 60.2556 22.7904 60.3181 22.6614C60.3346 22.6257 60.3364 22.5441 60.3523 22.5039C60.4597 22.228 60.6903 21.775 60.7657 21.3377C60.842 20.9004 60.9811 20.3354 60.9566 20.0095C60.939 19.7638 60.8549 19.0251 60.8438 18.8785C60.8327 18.7379 60.7938 18.3394 60.7702 18.1565C60.7436 17.9512 60.8486 17.5518 60.8654 17.547C60.8654 17.547 61.3545 18.3027 61.5268 18.74C61.6992 19.1773 61.8386 19.6393 61.9888 20.0822C62.0947 20.3958 62.2802 20.8632 62.5303 20.7441C62.7735 20.6285 62.5046 20.1418 62.4483 19.8076C62.4417 19.7665 62.4657 19.709 62.463 19.6693C62.4465 19.44 62.2787 19.2529 62.209 19.034C62.1874 18.9667 62.2072 18.8898 62.18 18.8201C62.092 18.5943 61.9029 18.435 61.8835 18.1872C61.8571 17.8476 61.7261 17.5682 61.7396 17.2346C61.7488 16.9873 61.7728 16.6609 61.8565 16.6016C61.9397 16.5429 62.1117 16.9048 62.1856 17.0579C62.2554 17.2036 62.4017 17.3481 62.4528 17.4979C62.539 17.7469 62.5477 18.0132 62.6063 18.214C62.6589 18.396 62.805 18.7028 62.9593 18.768C63.1376 18.8425 63.4389 18.6346 63.4219 18.4743C63.3988 18.2598 63.2657 18.0906 63.2118 17.8949C63.2038 17.8658 63.2543 17.8208 63.2498 17.7969C63.2391 17.7368 63.1717 17.7055 63.1595 17.6421C63.1346 17.5104 63.1861 17.3013 63.1206 17.1955C62.9046 16.8447 62.7625 15.9376 62.7753 15.3884C62.7774 15.3226 62.7622 15.1605 62.8079 15.1718C63.0443 15.232 63.5095 16.73 64.0594 16.9611C64.2748 17.0511 64.5788 17.242 64.9327 17.1226C65.0395 17.0868 65.1855 16.9912 65.257 16.9534C65.3914 16.8825 65.5709 16.3076 65.6409 16.195C65.7274 16.0556 66.3057 15.7524 66.5052 15.4134C66.7051 15.075 66.8017 14.5034 66.9755 14.2851C67.1634 14.0486 67.748 13.7278 67.9596 13.4099C68.0972 13.2029 68.2806 12.875 68.3494 12.6712C68.4406 12.4019 68.3464 11.6394 68.3569 11.6337C68.3569 11.6337 69.7926 11.6924 70.0254 11.2066C70.1259 10.9966 70.2809 10.3755 70.4117 10.2564C70.464 10.209 70.6588 10.1638 70.7629 10.128C70.9813 10.0524 71.3038 9.74973 71.5563 9.5162C71.8498 9.24514 72.0922 8.94191 72.2794 8.59519C72.3961 8.37894 72.438 8.30655 72.6017 8.15613C72.6666 8.09775 72.7249 8.03102 72.7851 7.97443C72.9676 7.80167 73.1632 7.67269 73.294 7.49039C73.3984 7.34503 73.5426 7.19223 73.5746 7.05282C73.6338 6.79844 73.5827 6.57594 73.5148 6.40824C73.4953 6.36177 73.3945 6.38768 73.39 6.37279C73.3472 6.25334 73.192 6.1902 73.0672 6.10769C73.0361 6.08713 73.034 6.03262 73.0017 6.01118C72.7626 5.85629 72.3168 5.90394 72.2914 6.05109C72.2783 6.12943 72.6118 6.12288 72.7133 6.17649C72.7985 6.22147 72.9652 6.29594 72.9903 6.34479C73.0187 6.3987 73.1207 6.52649 73.1444 6.63313C73.1653 6.72874 73.0977 6.89555 73.0295 7.00874C72.9415 7.15589 72.777 7.4049 72.6866 7.48771C72.654 7.5178 72.5631 7.54103 72.5227 7.57052C72.456 7.62056 72.3997 7.7126 72.359 7.67299C72.1457 7.46358 71.9171 6.84104 71.5569 6.55538C71.1967 6.26943 70.6175 6.07194 70.0574 6.27449C69.5482 6.45828 68.8876 7.05491 69.057 7.67597C69.1249 7.92647 69.2215 8.36672 69.4429 8.62289C69.445 8.68514 69.4462 8.71642 69.448 8.77867C69.4644 8.8177 69.5742 8.77838 69.5742 8.81382C69.5757 9.10156 69.8824 9.08876 69.8447 9.45186C69.8241 9.64756 69.515 9.84177 69.4881 10.0116C69.4549 10.2221 69.7888 10.3041 69.836 10.4497C69.927 10.7321 69.4923 11.2757 69.3253 11.4252C69.2703 11.4738 69.0818 11.489 69.016 11.4753C68.8227 11.4324 68.3859 11.072 68.2058 10.895C68.0622 10.7547 67.8689 10.2841 67.7465 10.2463C67.7088 10.2341 67.6161 10.235 67.5802 10.2329C67.4351 10.2216 67.4423 10.8036 67.4803 10.9606C67.5236 11.1381 67.8004 11.4643 67.9012 11.7279C67.9329 11.811 67.9733 11.9683 67.9964 12.0174C68.1029 12.2408 67.7537 13.082 67.5443 13.3253C67.4177 13.4725 67.062 13.7864 66.9163 13.7584C66.8592 13.7477 66.852 13.4245 66.7963 13.3331C66.7132 13.1967 66.5534 12.8648 66.4442 12.7385C66.3209 12.5968 66.0915 12.2331 65.9224 12.1324C65.8255 12.0749 65.5616 12.0043 65.441 12.0525C65.3528 12.0883 65.1484 12.2867 65.141 12.3579C65.1314 12.4594 64.9971 12.7421 64.9773 12.9497C64.9381 13.3575 65.2573 13.8722 65.3929 14.0512C65.5263 14.2273 66.3305 14.4129 66.4038 14.501C66.4188 14.5186 66.2372 14.837 66.1564 15.0396C66.1435 15.0711 66.1603 15.1441 66.1396 15.1775C66.1091 15.2278 66.0023 15.2612 65.9598 15.3217C65.9108 15.3899 65.9212 15.478 65.8847 15.5203C65.833 15.5775 65.5476 15.7396 65.5 15.7494C65.3863 15.7726 65.0781 15.6565 65.0575 15.5114C65.0309 15.3273 65.2852 15.1834 65.1855 15.1146C64.9405 14.9449 64.9845 15.9865 65.1024 16.1566C65.1556 16.2337 64.8828 16.6448 64.7299 16.6603C64.2536 16.7053 63.7632 15.624 63.4934 15.2409C63.4 15.109 63.2017 14.8978 63.0195 14.7709C62.7556 14.5877 62.463 14.5031 62.3406 14.8582C62.2266 15.1879 62.3687 16.1125 62.2524 16.1733C62.2063 16.1977 61.8751 15.9615 61.6872 16.0231C61.3075 16.1482 61.2974 17.2599 61.2268 17.2763C61.2259 17.2769 60.6951 16.9307 60.5354 17.0707C60.3128 17.2664 60.3923 18.2047 60.4193 18.6235C60.4333 18.8389 60.4315 19.1517 60.4546 19.3852C60.4884 19.7248 60.483 20.1004 60.4636 20.4429C60.439 20.8677 60.451 21.3809 60.2927 21.6442C60.1575 21.8685 59.8281 22.5962 59.5555 22.5411H59.5558ZM55.7915 36.3417C55.8214 36.8993 55.6491 37.288 55.3383 37.5441C55.0265 37.8009 54.5762 37.9254 54.0482 37.9546C53.2948 37.9969 52.9188 38.0181 52.1657 38.0621C52.1316 37.4864 52.1065 37.0545 52.0811 36.6225C52.055 36.1903 52.0296 35.7581 51.9952 35.1826C52.5125 35.152 52.7704 35.1371 53.2874 35.1076C53.7697 35.0802 54.38 35.0873 54.8769 35.252C55.3742 35.4168 55.7589 35.7391 55.7915 36.3414V36.3417ZM52.3859 29.7117C52.3168 29.6992 52.204 29.5339 52.093 29.3486C52.3435 29.334 52.5909 29.32 52.8377 29.306C52.6543 29.4817 52.4886 29.7308 52.3856 29.7117H52.3859ZM53.0376 28.0231C52.4909 28.0538 51.9354 28.0859 51.3708 28.119C51.3295 28.0966 51.2903 28.074 51.2724 28.0529C51.1916 27.9578 51.0701 27.6921 51.0019 27.6171C50.934 27.5435 50.8083 27.2689 50.7527 27.2016C50.7063 27.1456 50.6013 26.8224 50.5624 26.7428C50.5163 26.6484 50.4152 26.4608 50.3578 26.4024C50.2342 26.2799 50.0906 25.7074 50.064 25.5978C50.049 25.535 49.962 25.3446 49.9635 25.2889C49.9656 25.213 49.8991 25.0777 49.8632 24.9806C49.7917 24.7894 49.7884 24.4525 49.7095 24.1478C49.6239 23.8207 49.5652 23.2277 49.5667 22.8241C49.5682 22.3427 50.0221 21.6803 50.3898 21.5015C50.7353 21.3338 51.4046 21.2829 51.8669 21.453C52.1418 21.5543 52.3381 21.7428 52.5529 21.9623C52.8245 22.2388 53.1701 22.5608 53.3032 22.9009C53.4241 23.2071 53.6129 23.6906 53.7583 24.0701C53.8435 24.2941 53.913 24.5863 53.9629 24.8022C54.0081 24.9958 54.0063 25.1579 54.0141 25.3694C54.0228 25.61 54.1011 25.8635 54.0952 26.1093C54.0931 26.193 54.0347 26.2856 54.0284 26.3663C54.018 26.495 54.0536 26.6323 54.0302 26.7577C54.0207 26.8105 53.9692 26.8483 53.9563 26.8992C53.9013 27.128 53.8995 27.3725 53.831 27.5918C53.7942 27.71 53.7107 27.8038 53.6667 27.9152C53.6572 27.9397 53.6455 27.965 53.6347 27.99C53.4352 28.001 53.2386 28.0115 53.0376 28.0231V28.0231ZM56.2517 25.602C56.193 25.7286 56.0033 26.0279 55.895 26.1694C55.8011 26.2916 55.4322 26.4378 55.3173 26.4551C55.2886 26.4593 55.192 26.4369 55.1525 26.4232C54.9089 26.3407 54.786 25.3607 54.8865 24.9106C54.9763 24.8183 55.0645 24.7173 55.0959 24.5857C55.1121 24.5163 54.9933 24.5601 55.0086 24.5124C55.0977 24.2336 55.595 23.6667 55.7873 23.7644C55.9519 23.8478 56.0126 24.7167 55.9366 25.0495C55.9133 25.151 55.9085 25.5439 56.0231 25.5353C56.1224 25.5278 56.1993 25.2225 56.2092 25.1719C56.2164 25.1358 56.161 24.8585 56.255 24.8764C56.3256 24.8901 56.4695 25.056 56.471 25.1007C56.474 25.1716 56.3103 25.4748 56.2511 25.6017L56.2517 25.602ZM56.6247 24.5249C56.5132 24.5154 56.4764 23.872 56.3513 23.5789C56.2789 23.4088 56.1697 22.9429 56.2331 22.881C56.2717 22.8428 56.4644 23.051 56.5311 23.0993C56.6687 23.2003 56.655 23.7728 56.6645 24.1112C56.6699 24.2661 56.687 24.5306 56.6247 24.5246V24.5249ZM59.0882 20.9177C59.0786 20.9698 59.0269 21.0104 59.0125 21.0586C58.921 21.3726 58.9111 21.9811 58.813 22.0073C58.734 22.0291 58.4342 21.5289 58.3519 21.3836C58.2972 21.2862 58.2089 21.0744 58.1467 20.9818C57.9911 20.7488 57.8894 20.285 57.7676 19.9062C57.6462 19.527 57.5283 19.1374 57.4191 18.7653C57.3871 18.6563 57.2994 18.5047 57.2563 18.4019C57.201 18.2703 57.212 18.1169 57.1758 17.9956C57.1112 17.7797 57.0645 17.5256 57.1046 17.4112C57.1274 17.3454 57.1184 16.9328 57.122 16.9203C57.122 16.9203 57.0642 16.559 57.1022 16.5295C57.1432 16.4973 57.4319 16.5373 57.5408 16.6257C57.9741 16.9796 58.4683 17.777 58.7418 18.4079C59.0248 19.0605 59.0909 19.8522 59.0727 20.585C59.0703 20.6994 59.1101 20.798 59.0885 20.9171L59.0882 20.9177ZM70.4152 9.70743C70.4152 9.70743 70.9457 9.28714 71.2739 9.13195C71.0349 9.35386 70.429 9.725 70.4152 9.70743ZM69.7885 8.31817C69.7813 8.2723 69.714 8.24013 69.7011 8.20319C69.6338 8.00839 69.5509 7.77605 69.5345 7.56307C69.486 6.95691 70.09 6.60602 70.7201 6.68347C71.2892 6.75347 71.5147 7.48235 71.6945 7.80881C71.755 7.91783 71.8947 8.12783 71.7708 8.2577C71.7358 8.29464 71.6299 8.32204 71.5432 8.38191C71.4621 8.4391 71.4049 8.51983 71.3619 8.54366C71.1791 8.64255 70.9651 8.76408 70.9089 8.81114C70.8927 8.82484 70.832 8.8445 70.7641 8.83527C70.689 9.01965 70.3395 9.20969 70.2752 9.20254C70.2163 9.19629 70.1104 8.94072 70.0547 8.79804C69.9937 8.64136 69.8214 8.52698 69.7885 8.31787V8.31817ZM66.2016 14.0197C66.1013 14.0128 65.9859 13.8043 65.8183 13.7599C65.5326 13.468 65.447 12.5348 65.5817 12.4577C65.6517 12.4186 66.3278 13.1341 66.3607 13.309C66.3652 13.3346 66.3167 13.4058 66.3446 13.4472C66.4185 13.5544 66.5645 13.8407 66.5097 13.9488C66.4879 13.9902 66.2656 14.0247 66.2019 14.0197H66.2016Z" fill="white" fill-opacity="0.8"/>
<path fill-rule="evenodd" clip-rule="evenodd" d="M65.7864 3.50445C65.9794 4.00635 65.9519 4.6989 66.1278 5.33247C66.1649 5.4668 66.1802 5.58029 66.2044 5.69974C66.2556 5.94578 66.3217 6.32377 66.3815 6.51679C66.4306 6.67764 66.4503 7.29274 66.5165 7.33474C66.5344 7.34546 66.6562 7.39282 66.6849 7.36631C66.7615 7.29542 66.8076 6.94751 66.7872 6.71756C66.7468 6.25497 66.7025 5.78701 66.6517 5.30089C66.6008 4.81477 66.611 4.18805 66.4707 3.77253C66.407 3.58427 66.2418 3.23726 65.9633 3.14641C65.9187 3.13211 66.0141 3.03024 65.9585 3.00909C65.8843 2.98139 65.7894 3.02696 65.729 3.05586C65.7544 3.14432 65.7817 3.29564 65.8035 3.34777C65.8104 3.36475 65.7676 3.455 65.787 3.50474L65.7864 3.50445Z" fill="white" fill-opacity="0.8"/>
<path fill-rule="evenodd" clip-rule="evenodd" d="M42.2551 27.8771C42.431 28.0719 43.0309 28.1868 43.3579 28.1913C43.6718 28.1961 44.146 27.9045 44.4457 27.7037C44.6555 27.5622 44.8733 27.3084 44.9989 27.1568C45.2374 26.8694 45.5381 26.2427 45.6841 25.8176C45.7867 25.5182 45.8489 24.6821 46.0051 24.5016C46.0275 24.4766 46.1173 24.5147 46.1481 24.4924C46.5409 24.2094 47.0645 23.7224 47.2338 23.2449C47.3406 22.9435 47.3684 22.2917 47.4968 22.2089C47.5312 22.1866 47.6551 22.303 47.7493 22.3299C47.9839 22.3945 48.3967 22.3891 48.59 22.2977C48.6756 22.2569 48.803 22.1193 48.8814 22.043C49.0355 21.8914 49.1719 21.6579 49.2784 21.4914C49.306 21.4488 49.3718 21.4261 49.3954 21.3856C49.5211 21.1738 49.5193 20.8015 49.621 20.7047C49.6647 20.6621 49.752 20.559 49.7745 20.5194C49.8412 20.4029 49.9537 20.1495 49.9851 19.9186C50.0632 19.3547 50.2412 18.1823 50.3902 18.093C50.465 18.0489 51.0481 17.8541 51.0666 17.6408C51.0882 17.3972 51.1319 17.0296 51.0747 16.7198C51.063 16.6581 50.9966 16.6167 50.9796 16.5479C50.903 16.2453 50.7633 15.6519 50.7755 15.5414C50.7797 15.5072 50.786 15.1408 50.8144 15.1485C50.8722 15.1646 51.2976 16.1824 51.5241 16.2828C51.636 16.332 51.8017 16.4851 51.9528 16.5318C52.1066 16.5792 52.345 16.5503 52.4889 16.5208C52.7639 16.4642 53.1223 15.7392 53.3009 15.5158C53.4203 15.3663 53.5202 15.013 53.6097 14.7157C53.6336 14.6353 53.7177 14.5617 53.7416 14.4733C53.7551 14.4214 53.7228 14.3556 53.7312 14.2978C53.7745 14.0113 53.8407 13.4802 53.8736 13.4659C53.8736 13.4659 54.5668 13.7352 54.9841 13.6616C55.7025 13.5344 56.2045 12.6247 56.4049 12.1979C56.4585 12.0829 56.5031 11.8228 56.5494 11.7799C56.6338 11.701 57.152 11.5309 57.3854 11.4428C57.5475 11.3823 57.5855 11.3573 57.6896 11.2911C57.9957 11.0975 58.2994 10.9152 58.5576 10.6826C58.6482 10.6019 58.7042 10.4899 58.7936 10.416C58.8926 10.3344 59.0135 10.293 59.0976 10.2063C59.3154 9.98141 59.5529 9.67789 59.6487 9.49529C59.7277 9.34427 59.7749 8.81883 59.6774 8.78964C59.5808 8.76105 59.2744 9.27398 59.1837 9.40087C59.1443 9.45687 59.0823 9.70201 59.0527 9.71869C59.0354 9.72823 58.9037 9.7592 58.8472 9.80657C58.6611 9.96324 58.5438 10.122 58.3909 10.2596C58.2416 10.3937 58.0292 10.4744 57.8647 10.5977C57.7686 10.6704 57.7094 10.7651 57.6262 10.8244C57.3767 10.9995 56.746 11.242 56.708 11.2015C56.6934 11.1866 56.8771 10.7457 56.9013 10.4887C56.9414 10.0636 56.7987 9.68623 56.597 9.34844C56.396 9.01126 56.1324 8.5999 55.9403 8.44084C55.8401 8.35773 55.5161 8.30501 55.4102 8.29309C55.3288 8.28356 54.9862 8.21386 54.9084 8.29756C54.7777 8.43905 54.7576 8.68867 54.7334 8.95407C54.7143 9.16853 54.5853 9.40206 54.6003 9.58793C54.6057 9.65138 54.6628 9.71214 54.6736 9.78035C54.684 9.8432 54.6538 9.91767 54.6616 9.97635C54.684 10.1274 54.7621 10.2432 54.8091 10.3806C54.8339 10.4532 54.8196 10.531 54.8408 10.5947C54.8998 10.7699 55.073 11.0463 55.1403 11.1273C55.1933 11.1908 55.3677 11.3641 55.5119 11.4597C55.6645 11.5592 56.0244 11.6158 56.0244 11.6879C56.0244 11.7123 56.0112 11.8622 55.9939 11.8857C55.9394 11.9575 55.9005 12.0975 55.8416 12.1871C55.8242 12.213 55.759 12.2208 55.7414 12.2512C55.7183 12.2935 55.7408 12.3623 55.7072 12.4096C55.6636 12.4719 55.5636 12.5067 55.5077 12.5773C55.4625 12.6351 55.4613 12.723 55.4152 12.7781C55.2815 12.9363 55.0024 13.123 54.8121 13.1627C54.2577 13.2767 54.0049 12.8797 53.8843 12.5264C53.8332 12.3778 53.7617 12.2172 53.7365 12.1222C53.6958 11.9709 53.7374 11.8404 53.7132 11.6918C53.6444 11.2798 53.099 10.581 52.8976 10.8956C52.8363 10.9906 52.8426 11.3037 52.8845 11.3847C52.9222 11.4579 52.9685 11.6912 53.035 11.847C53.0547 11.8937 53.108 11.9289 53.1259 11.9789C53.1477 12.0406 53.1358 12.1255 53.1585 12.1934C53.2578 12.4856 53.4317 12.7998 53.4152 13.0795C53.4116 13.1403 53.3566 13.196 53.3425 13.2607C53.2647 13.6339 53.3371 14.1206 53.2384 14.4027C53.2196 14.4569 53.3249 14.4229 53.3063 14.4968C53.2839 14.588 53.143 14.6594 53.1307 14.6827C53.1184 14.7068 53.0741 14.9543 53.0469 15.0586C53.0041 15.2257 52.7148 15.5584 52.5913 15.7904C52.4171 16.1184 52.0168 15.9507 51.7993 15.7172C51.5247 15.4211 51.3063 14.9403 51.1223 14.4045C51.0005 14.047 50.8309 13.5448 50.7698 13.3467C50.7423 13.2574 50.5951 12.9804 50.4372 12.9741C50.3576 12.9711 50.2014 13.0328 50.1912 13.0471C50.1891 13.0507 50.1075 13.1394 50.0775 13.2121C50.024 13.3426 50.0817 13.5252 50.0838 13.7015C50.0856 13.8445 50.0395 13.9824 50.044 14.0753C50.0629 14.4825 50.24 15.2334 50.2185 15.2424C50.2185 15.2424 50.1691 14.9975 50.1368 14.9138C50.0781 14.761 49.9432 14.3783 49.8439 14.2055C49.6213 13.8162 49.4864 13.1358 49.2674 12.667C49.0484 12.1993 48.5125 11.4865 48.5469 11.3448C48.5493 11.334 48.5424 11.2125 48.5356 11.1687C48.5059 10.9724 48.1667 10.4744 48.0207 10.259C47.9444 10.1467 47.8044 9.83605 47.7391 9.78661C47.6964 9.75414 47.5707 9.58972 47.5156 9.56708C47.4489 9.53848 47.3963 9.27457 47.3194 9.08781C47.2482 8.91594 46.9511 8.4736 46.8192 8.45394C46.7435 8.44292 46.6064 8.49088 46.5708 8.52871C46.4574 8.65262 46.6684 9.03747 46.7258 9.28321C46.7423 9.35321 46.7267 9.42529 46.7399 9.49797C46.7767 9.70946 46.9203 9.95431 46.9705 10.1878C47.0235 10.4318 47.057 10.606 47.0896 10.7493C47.2227 11.3331 47.8528 12.5008 47.7855 12.8228C47.7816 12.8392 47.761 12.9232 47.7741 12.9604C47.8023 13.0429 47.8747 13.2368 47.8809 13.3455C47.8986 13.6375 48.1843 14.2529 48.3414 14.7271C48.4757 15.1328 48.625 15.615 48.7477 15.9176C48.8784 16.2387 49.1163 16.8839 49.4059 17.2098C49.5256 17.3447 49.7523 17.4371 49.8439 17.5955C50.0138 17.8904 49.7556 18.2276 49.7802 18.5973C49.7846 18.6625 49.8684 18.6979 49.869 18.7102C49.8714 18.762 49.72 19.1599 49.6476 19.4685C49.5022 20.083 49.1926 21.0189 48.9933 21.1944C48.9362 21.2447 48.8204 21.4285 48.7261 21.5244C48.695 21.5566 48.6358 21.5557 48.5861 21.5908C48.4287 21.6993 48.3166 21.9206 48.1529 21.9128C48.0261 21.9063 47.7756 21.8336 47.711 21.7448C47.5743 21.5578 47.4923 21.0669 47.4199 20.6642C47.3481 20.2621 47.308 19.8483 47.3221 19.5153C47.329 19.3574 47.407 19.2806 47.4657 19.1921C47.5848 19.0113 47.6192 18.8093 47.726 18.7456C48.012 18.5719 48.5903 18.9249 48.6705 18.6863C48.7312 18.5088 48.54 18.2583 48.3426 18.0596C48.2118 17.9274 48.0033 17.7445 47.8645 17.6771C47.6987 17.597 47.5381 17.6125 47.4483 17.645C47.3963 17.664 47.2512 17.7731 47.2308 17.7957C47.2174 17.8115 47.1073 17.9449 47.0791 17.9828C47.002 18.0864 46.9652 18.5481 46.9394 18.7164C46.8981 18.9875 46.6797 19.7575 46.7198 20.0827C46.7423 20.2662 46.8006 20.6645 46.861 20.9951C46.9044 21.2316 47.0612 21.4589 47.0666 21.6296C47.0684 21.6909 47.0223 21.7702 47.0172 21.8265C46.9861 22.1455 47.0049 22.4904 46.8745 22.7585C46.8437 22.8219 46.9663 22.8356 46.902 22.8747C46.7994 22.7892 46.8165 23.0894 46.815 23.1344C46.8147 23.1579 46.6534 23.2747 46.6229 23.3045C46.5382 23.3885 46.2256 23.9586 46.032 23.989C45.9126 24.0078 45.9264 23.7215 45.8615 23.5696C45.8339 23.5061 45.7562 23.4475 45.725 23.3828C45.5701 23.0605 45.5491 22.5816 45.305 22.3316C45.2661 22.2911 45.2018 22.2888 45.1754 22.2432C45.0214 21.9778 44.3204 21.3624 44.1612 21.5271C44.1178 21.5712 44.186 21.9852 44.1965 22.0353C44.1986 22.0451 44.0368 22.0362 44.0577 22.1222C44.0795 22.2089 44.0858 22.3227 44.1193 22.4317C44.1358 22.4824 44.2231 22.4591 44.23 22.5226C44.2698 22.8788 44.4667 23.317 44.6716 23.6497C44.8763 23.9818 45.3792 24.241 45.5063 24.3968C45.6948 24.6279 45.4157 25.453 45.2945 25.8215C45.2398 25.9892 45.0414 26.3773 44.9349 26.5131C44.8413 26.6317 44.6501 26.9656 44.5017 27.0532C44.3647 27.1342 44.2504 27.2825 44.1166 27.3921C44.052 27.4446 43.7543 27.6283 43.6864 27.6581C43.1934 27.8759 42.4987 27.6033 42.3521 27.2629C42.2016 26.9114 42.5893 26.6892 42.6743 26.6317C42.732 26.5918 42.9534 26.4321 42.945 26.4163C42.9438 26.4127 42.8619 26.3028 42.7733 26.3097C42.5094 26.3302 42.2844 26.503 42.1172 26.5533C41.9539 26.6031 41.9284 27.2039 41.9547 27.4073C41.973 27.5518 42.1642 27.7761 42.2539 27.8762L42.2551 27.8771ZM55.3093 10.3543C55.3055 10.3129 55.3856 10.2325 55.3853 10.2132C55.3841 10.1396 55.3318 9.88937 55.318 9.68742C55.3117 9.59567 55.2534 9.51882 55.2627 9.45627C55.2923 9.24419 55.3973 8.865 55.4353 8.76045C55.4811 8.63356 55.9849 9.09406 56.0627 9.19802C56.1626 9.33087 56.3646 9.78274 56.416 9.96444C56.4941 10.2409 56.3484 11.0895 56.2051 11.1497C56.0639 11.2092 55.3381 10.657 55.309 10.3543H55.3093ZM49.7236 16.6218C49.4633 16.4279 49.2916 15.3645 49.0612 14.9382C49.0035 14.8319 48.9825 14.5111 48.9484 14.4551C48.9194 14.4068 48.8569 14.2287 48.8261 14.1689C48.7827 14.0869 48.6448 13.5934 48.6121 13.3786C48.6059 13.3429 48.5146 13.3747 48.5071 13.3649C48.4518 13.2922 48.3623 12.9503 48.429 12.7826C48.4365 12.7638 48.3704 12.7629 48.365 12.7656C48.365 12.7656 48.4302 12.6762 48.4195 12.6256C48.4057 12.5583 48.3318 12.6268 48.3136 12.5934C48.1655 12.3206 47.9309 11.6778 47.9776 11.5554C47.9922 11.5166 47.9219 11.318 47.8977 11.2855C47.8744 11.2557 47.9492 11.0198 47.9432 11.0091C47.9417 11.0052 47.6578 10.7651 47.7358 10.7088C47.7861 10.6722 47.9303 10.8723 47.9572 10.9105C47.9896 10.9554 48.0332 11.1535 48.0802 11.197C48.1933 11.3004 48.257 11.6876 48.4135 11.8616L48.6337 12.3971C48.7809 12.5458 48.8162 12.7039 48.8955 12.9503C48.9957 13.2583 49.1967 13.5815 49.2883 13.9055C49.3167 14.0083 49.3197 14.1364 49.37 14.2344C49.3927 14.2782 49.4675 14.3383 49.484 14.4042C49.5088 14.5078 49.5028 14.6031 49.5432 14.6946C49.6078 14.8388 49.7003 15.0529 49.7006 15.2325C49.7012 15.4005 49.7978 15.5894 49.8167 15.7747C49.8211 15.8187 49.796 15.8923 49.8044 15.9322C49.8116 15.9668 49.8657 15.9933 49.8726 16.0264C49.878 16.0538 49.8358 16.0853 49.8379 16.1264C49.8469 16.2864 49.9615 16.7698 49.9187 16.7883C49.9067 16.7928 49.7697 16.6569 49.7233 16.6224L49.7236 16.6218ZM47.6404 18.0251C47.7041 18.0352 47.8806 18.1549 47.9064 18.3223C47.7963 18.42 47.4088 18.3664 47.393 18.3551C47.393 18.3551 47.5608 18.0117 47.6404 18.0251ZM44.5714 22.7153V22.7162C44.5675 22.7394 44.5666 22.7639 44.5675 22.7883C44.5627 22.7475 44.5633 22.7186 44.5714 22.7153ZM44.6058 22.9569C44.6486 23.0692 44.7111 23.1579 44.7228 23.1713C44.6728 23.1311 44.633 23.0444 44.6058 22.9569ZM45.4456 23.7733C45.4417 23.7763 44.8664 23.0209 44.7111 22.6465C44.689 22.5944 44.6791 22.6268 44.6282 22.6328C44.7333 22.4398 44.481 22.1371 44.5104 22.1115C44.5202 22.1032 44.7216 22.2211 44.7877 22.2485C44.9546 22.3176 45.5096 23.7227 45.4456 23.7733V23.7733Z" fill="white" fill-opacity="0.8"/>
</g>
<defs>
<clipPath id="clip0_1311_5038">
<rect width="121" height="65" fill="white" transform="translate(32 3)"/>
</clipPath>
</defs>
</svg>
