<svg width="186" height="71" viewBox="0 0 186 71" fill="none" xmlns="http://www.w3.org/2000/svg">
<g clip-path="url(#clip0_1311_5039)">
<path d="M46.5522 41.0082C46.0341 40.3255 45.4451 39.4921 44.8019 38.5168C44.154 37.5355 43.49 36.5281 42.8099 35.4947C42.2159 34.5752 41.5634 33.6956 40.8566 32.8614C40.2885 32.1588 39.5485 31.6184 38.7098 31.2937C38.4064 31.1702 38.1022 31.0572 37.7971 30.9549C38.1993 30.9508 38.7821 30.9063 39.5308 30.8222C40.365 30.7255 41.1796 30.4999 41.9459 30.1531C42.7723 29.7775 43.5021 29.2149 44.0788 28.509C44.7091 27.7522 45.0277 26.7039 45.0277 25.3936C45.0388 24.7149 44.9255 24.0399 44.6935 23.4028C44.4836 22.8477 44.181 22.333 43.7989 21.8811C43.4368 21.4566 43.0139 21.0891 42.5443 20.7908C42.0991 20.5096 41.633 20.2633 41.1504 20.0542C39.952 19.606 38.6962 19.333 37.4213 19.2437L20 19.2427V20.3097H23.2727V41.8875H20V42.8594H34.4385V41.8875H31.1658V31.703C31.5509 32.1265 31.8486 32.7213 32.402 33.5066C33.0703 34.4494 33.6839 35.4306 34.2397 36.4452C34.8177 37.5033 35.4623 38.5228 36.1695 39.4976C36.8297 40.4095 37.6235 41.2145 38.5236 41.8851C39.4561 42.5543 40.5801 42.8965 41.7236 42.8594H47.9146V41.8875H47.4909C47.4884 41.8875 47.2212 41.8911 46.5522 41.0082ZM31.1658 20.31H31.9361C32.7768 20.4749 33.5876 20.7688 34.3402 21.1813C34.9964 21.576 35.5648 22.1032 36.0098 22.7299C36.4947 23.3883 36.7488 24.2861 36.7488 25.3934V26.1131C36.7626 26.7781 36.6937 27.4421 36.5436 28.0897C36.4475 28.5036 36.2373 28.8815 35.9373 29.1798C35.6088 29.4551 35.2124 29.635 34.7905 29.7002C34.1375 29.8113 33.4752 29.8564 32.8134 29.8348H31.1658V20.31Z" fill="white" fill-opacity="0.8"/>
<path d="M60.6131 34.3064C61.2284 34.3064 61.8906 34.294 62.5815 34.25C63.2692 34.2123 63.9495 34.0867 64.606 33.8762C65.2196 33.6833 65.781 33.3505 66.2469 32.9035C66.4906 32.6511 66.6801 32.3506 66.8035 32.0208C66.9268 31.691 66.9815 31.3391 66.9639 30.987C66.9639 29.7347 66.6851 28.6872 66.1349 27.871C65.6022 27.0775 64.8895 26.4239 64.0562 25.9647C63.1939 25.4962 62.262 25.1726 61.2967 25.0064C60.3441 24.8323 59.3781 24.7428 58.4099 24.7388C57.9658 24.7388 57.4129 24.7724 56.7667 24.8389C56.053 24.9176 55.3474 25.0587 54.6578 25.2607C53.8808 25.4871 53.1311 25.8 52.4225 26.1936C51.6523 26.6233 50.9602 27.182 50.3756 27.8461C49.7276 28.5938 49.2242 29.4576 48.8916 30.3927C48.4964 31.5407 48.307 32.7507 48.3323 33.9659C48.3323 35.7253 48.6697 37.2519 49.3342 38.5027C50.0008 39.7591 50.8267 40.6999 51.7805 41.2957C52.3754 41.6999 52.999 42.0594 53.6462 42.3713C54.1417 42.605 54.6569 42.7936 55.1857 42.9347C55.662 43.0586 56.1495 43.1338 56.6408 43.1592C57.1048 43.1805 57.6345 43.1922 58.2142 43.1922C59.3449 43.2195 60.4723 43.0573 61.5504 42.7122C62.4036 42.4245 63.1888 41.962 63.8569 41.3538C64.4776 40.7718 64.9848 40.0775 65.3521 39.3068C65.7334 38.5058 66.069 37.6835 66.3574 36.8439L66.521 36.3728L65.4052 36.2602L65.3013 36.5459C65.0732 37.1743 64.8042 37.7868 64.4961 38.3794C64.2129 38.9271 63.8531 39.4308 63.4278 39.8749C63.015 40.2999 62.5274 40.6435 61.9899 40.8879C61.3915 41.1477 60.7449 41.2751 60.0936 41.2616C59.0997 41.2616 58.3192 41.0655 57.7739 40.6784C57.2214 40.2891 56.7794 39.7605 56.4921 39.1452C56.1779 38.4472 55.9853 37.6997 55.9227 36.9356C55.8384 36.0821 55.8061 35.2257 55.8061 34.3901V34.3049L60.6131 34.3064ZM57.8591 25.9474C58.104 25.9322 58.3487 25.9794 58.5708 26.0846C58.8426 26.2434 59.0635 26.4777 59.2073 26.7596C59.4657 27.2606 59.6418 27.8006 59.7288 28.3586C59.8805 29.2837 59.9487 30.2207 59.9325 31.1582C59.9325 31.2187 59.927 31.3215 59.9173 31.4717C59.9066 31.6271 59.8861 31.8013 59.8564 31.9921C59.8265 32.1784 59.7787 32.3612 59.7136 32.5381C59.6701 32.6684 59.6005 32.7883 59.5093 32.8903C59.3333 33.0678 59.1072 33.1858 58.8621 33.228C58.45 33.2823 58.3005 33.3345 58.248 33.3345H55.8087V31.9046C55.8087 31.2327 55.8192 30.5204 55.8618 29.7843C55.8943 29.1092 55.9915 28.4388 56.1522 27.7826C56.2701 27.2826 56.4842 26.8109 56.7825 26.3944C56.8916 26.2446 57.0365 26.125 57.2036 26.0469C57.3707 25.9687 57.5547 25.9344 57.7385 25.9472L57.8591 25.9474Z" fill="white" fill-opacity="0.8"/>
<path d="M87.1883 41.8877V18.4277L86.7216 18.5708C86.1874 18.7169 85.643 18.8222 85.0931 18.886C84.424 18.9712 83.7793 19.0849 83.1551 19.1283C82.4282 19.1922 81.6694 19.1434 80.8856 19.3379H78.1392V20.31H80.4494V26.3932C80.4494 26.2767 80.2596 26.1562 80.1373 26.0312C79.7159 25.6093 79.2101 25.2833 78.6537 25.075C77.9879 24.8374 77.2849 24.7234 76.5788 24.7386C75.1973 24.7426 73.8426 25.1239 72.6583 25.8421C71.9172 26.2791 71.2542 26.8389 70.697 27.4979C70.1976 28.0991 69.7899 28.7722 69.4874 29.4949C69.194 30.202 68.9944 30.945 68.8937 31.7049C68.7959 32.4325 68.7461 33.1658 68.7446 33.9001C68.7453 34.6453 68.7952 35.3897 68.8939 36.1282C68.9958 36.8922 69.1951 37.6397 69.4867 38.3522C70.1132 39.8988 71.231 41.1913 72.6644 42.0265C73.3438 42.4285 74.0772 42.7292 74.8418 42.9192C75.5503 43.0963 76.2771 43.1879 77.0069 43.192C77.5735 43.191 78.1385 43.1339 78.694 43.0216C78.8944 42.9889 79.0873 42.9199 79.2634 42.8178C79.3994 42.7486 79.5428 42.6675 79.689 42.5768C79.8529 42.4675 80.0034 42.3388 80.1371 42.1935C80.2636 42.0657 80.449 41.946 80.449 41.8368V42.8589H89.6896V41.8871L87.1883 41.8877ZM79.976 40.6724C79.8917 40.8669 79.7748 41.0454 79.6306 41.1999C79.3944 41.4167 79.2279 41.5685 79.1312 41.6554C79.0759 41.6832 79.0139 41.6941 78.9526 41.6867C78.7537 41.687 78.5577 41.6395 78.3806 41.548C78.1777 41.4455 77.9909 41.3133 77.8262 41.1556C77.6593 40.9986 77.5052 40.8281 77.3654 40.646C77.2328 40.4716 77.1238 40.3194 77.0441 40.1988C76.6929 39.6477 76.4791 38.8243 76.4082 37.7514C76.3338 36.6245 76.2958 35.3401 76.2958 33.9333C76.2958 32.53 76.3283 31.2164 76.3924 30.0288C76.4531 28.9038 76.6615 28.0543 77.0082 27.5094C77.2148 27.2022 77.4665 26.9286 77.7547 26.6979C77.9785 26.4978 78.2649 26.3838 78.5637 26.3759C78.686 26.3742 78.8068 26.4035 78.915 26.4611C79.1033 26.5751 79.2783 26.7102 79.4366 26.8638L79.4513 26.8765C79.6398 27.0308 79.7922 27.2252 79.8978 27.4458C80.0251 27.7157 80.1386 27.992 80.2379 28.2737C80.3486 28.623 80.4137 28.9855 80.4317 29.3518C80.4631 29.7539 80.4507 30.1727 80.4507 30.5969V37.8928C80.4637 38.5894 80.379 39.2843 80.1991 39.9569C80.1466 40.202 80.0715 40.4415 79.9747 40.6724H79.976Z" fill="white" fill-opacity="0.8"/>
<path d="M119.678 29.9845C119.662 27.8286 120.544 26.8782 123.028 25.871C126.665 24.4055 129.099 22.8142 130.778 21.4541C132.395 23.3732 135.837 25.6374 139.223 26.3305L139.227 26.8697C137.537 26.8827 136.741 27.5177 136.753 29.1348L136.822 38.2078C136.832 39.4656 136.978 41.2163 138.179 41.2069C138.713 41.2029 139.067 40.8856 139.864 40.4752L140.135 40.9671C138.042 42.4769 136.089 44.176 134.302 46.0433C132.423 44.7101 130.409 43.064 130.259 40.9539C128.045 42.5392 125.933 44.2659 123.937 46.1234C120.228 43.9513 119.774 42.6524 119.754 39.9573L119.678 29.9845ZM130.075 28.2419C128.736 27.6685 127.393 26.4208 126.317 25.4413L126.425 39.5898C126.434 40.8474 126.708 41.7435 127.553 41.7371C127.891 41.7416 128.22 41.6279 128.485 41.4154L130.166 40.1449L130.075 28.2419Z" fill="white" fill-opacity="0.8"/>
<path d="M146.348 21.3332C147.963 23.0725 149.755 24.8104 152.031 25.6913L152.035 26.2301C150.3 26.2435 149.638 26.8327 149.651 28.5846L149.73 39.095C149.739 40.218 150.411 40.8411 151.167 40.8356C151.79 40.8307 152.188 40.4682 152.851 40.0145L153.077 40.4616L146.713 45.946C143.137 43.6829 143.073 41.1228 143.062 39.5958L142.978 28.6364C142.967 27.2437 142.959 26.2107 142.025 26.2177C141.624 26.2209 140.96 26.5855 140.563 26.9479L140.16 26.5009L146.348 21.3332ZM149.424 16.2336C149.437 18.0753 147.668 19.3916 145.808 20.439C144.465 19.3264 143.029 17.7655 143.017 16.1035C143.003 14.2619 144.729 13.1706 146.197 13.1593C147.799 13.1467 149.408 14.2125 149.424 16.2336V16.2336Z" fill="white" fill-opacity="0.8"/>
<path d="M156.103 22.9646C156.08 20.0451 156.117 19.0564 156.117 19.0564C156.707 14.605 162.166 13.0356 166.347 13.003L166.748 13L166.754 13.8092L166.531 13.8111C163.818 13.8324 162.721 15.8171 162.745 19.007L162.888 37.8271C162.901 39.444 163.088 40.7444 164.512 40.7338C165.134 40.7291 166.064 40.1831 166.773 39.8181L167 40.4003C164.566 42.0364 162.356 43.9401 160.102 45.8442C158.497 43.797 156.484 42.1137 154.192 40.9039L154.41 40.3183C154.721 40.4585 155.052 40.5469 155.391 40.5802C155.496 40.5859 155.602 40.5705 155.701 40.5348C155.8 40.4991 155.892 40.4438 155.97 40.3722C156.048 40.3006 156.111 40.2141 156.156 40.1177C156.201 40.0213 156.226 39.9168 156.23 39.8104L156.103 22.9646Z" fill="white" fill-opacity="0.8"/>
<path d="M114.475 14.921L114.347 15.6408C116.576 16.2524 119.343 17.4438 119.363 20.0939C119.367 20.2833 119.333 20.4716 119.264 20.6477C119.194 20.8237 119.091 20.9839 118.959 21.1189C118.828 21.2538 118.67 21.3608 118.497 21.4335C118.324 21.5061 118.138 21.543 117.95 21.5419C115.103 21.5632 109.034 13.1662 100.405 13.2328C94.3099 13.2801 89.797 16.5944 89.8476 23.0622C89.8725 26.3415 92.1606 28.9288 95.5415 28.9026C96.6971 28.9315 97.8368 28.6265 98.8265 28.0236L98.5987 27.3066C97.7117 27.7176 96.7362 28.0847 95.7577 28.0923C93.3557 28.1109 90.9408 26.4676 90.9208 23.8626C90.8997 20.9429 93.3365 19.756 95.9165 19.736C97.8035 19.7213 100.092 20.398 102.079 21.2958C102.205 21.9216 102.275 22.558 102.285 23.1967L102.413 40.0407C102.409 40.1471 102.383 40.2515 102.338 40.348C102.294 40.4444 102.23 40.5309 102.152 40.6025C102.074 40.6741 101.983 40.7294 101.884 40.7651C101.784 40.8008 101.679 40.8162 101.573 40.8105C101.235 40.7772 100.904 40.6887 100.593 40.5486L100.375 41.1344C102.666 42.3441 104.68 44.0274 106.284 46.0747C108.538 44.1706 110.749 42.2668 113.183 40.6308L112.956 40.0488C112.247 40.4138 111.317 40.9596 110.694 40.9645C109.271 40.9753 109.083 39.6744 109.07 38.0578L108.971 24.8513C111.065 25.7693 112.577 26.1654 113.626 26.1573C117.007 26.1311 120.194 24.1303 120.165 20.3571C120.142 17.1683 117.105 15.6191 114.475 14.921Z" fill="white" fill-opacity="0.8"/>
<path d="M126.649 56.7155C126.661 57.0605 126.581 57.4022 126.417 57.7055C126.268 57.9677 126.058 58.1891 125.804 58.3503C125.537 58.5177 125.242 58.6362 124.934 58.7004C124.605 58.7718 124.27 58.8075 123.934 58.8068H121.099V51.6187H123.934C124.218 51.6196 124.501 51.6486 124.779 51.7051C125.055 51.7581 125.32 51.8575 125.563 51.9994C125.818 52.1447 126.027 52.3591 126.168 52.6184C126.308 52.8777 126.374 53.1715 126.357 53.4666C126.371 53.8248 126.257 54.176 126.036 54.4564C125.814 54.7222 125.52 54.9178 125.191 55.02V55.0403C125.389 55.0731 125.58 55.1365 125.759 55.2281C125.933 55.3163 126.089 55.4349 126.222 55.5784C126.355 55.7238 126.46 55.8923 126.533 56.0758C126.613 56.2793 126.652 56.4967 126.649 56.7155V56.7155ZM124.699 53.7002C124.706 53.5943 124.684 53.4885 124.635 53.3946C124.586 53.3006 124.512 53.2221 124.422 53.1678C124.168 53.0406 123.886 52.9828 123.603 53.0005H122.759V54.4817H123.684C123.948 54.4978 124.211 54.4284 124.433 54.2837C124.522 54.2161 124.592 54.1274 124.639 54.0256C124.685 53.9238 124.706 53.812 124.699 53.7002V53.7002ZM124.931 56.5537C124.942 56.4289 124.917 56.3035 124.858 56.1933C124.799 56.0832 124.709 55.9931 124.599 55.9344C124.321 55.8075 124.018 55.7483 123.713 55.7617H122.758V57.4065H123.723C123.863 57.4061 124.003 57.3942 124.14 57.3709C124.277 57.3496 124.409 57.3065 124.533 57.2432C124.659 57.1805 124.764 57.0815 124.835 56.9587C124.905 56.8358 124.938 56.6946 124.93 56.5528L124.931 56.5537Z" fill="white" fill-opacity="0.8"/>
<path d="M131.495 55.7611V58.8062H129.776V55.7611L127.101 51.6187H129.182L130.701 54.2788L132.219 51.6187H134.23L131.495 55.7611Z" fill="white" fill-opacity="0.8"/>
<path d="M137.197 58.807V57.3017L140.584 53.0805H137.277V51.6187H142.737V53.0096L139.268 57.3043H142.808V58.807H137.197Z" fill="white" fill-opacity="0.8"/>
<path d="M151.354 55.1823C151.361 55.7162 151.262 56.246 151.063 56.7406C150.879 57.1956 150.603 57.6071 150.253 57.9489C149.899 58.2896 149.48 58.5539 149.022 58.7255C148.526 58.9118 148.001 59.0048 147.473 58.9998C146.946 59.0051 146.423 58.9122 145.93 58.7255C145.473 58.5531 145.056 58.2889 144.703 57.9489C144.353 57.6071 144.077 57.1957 143.893 56.7406C143.694 56.246 143.595 55.7162 143.602 55.1823C143.594 54.6482 143.693 54.1179 143.893 53.6235C144.077 53.1758 144.353 52.7726 144.703 52.4408C145.058 52.1099 145.475 51.8543 145.93 51.6894C146.425 51.5096 146.947 51.4202 147.473 51.4255C148.001 51.4206 148.525 51.5099 149.022 51.6894C149.478 51.8536 149.897 52.1092 150.253 52.4408C150.603 52.7726 150.879 53.1758 151.063 53.6235C151.263 54.1179 151.362 54.6482 151.354 55.1823V55.1823ZM149.514 55.1823C149.516 54.8845 149.465 54.5887 149.363 54.3092C149.271 54.052 149.129 53.8157 148.946 53.6137C148.765 53.4184 148.546 53.2628 148.303 53.157C148.041 53.0429 147.758 52.9858 147.473 52.9894C147.199 52.9851 146.927 53.0385 146.674 53.1459C146.421 53.2534 146.194 53.4127 146.005 53.6137C145.82 53.8138 145.678 54.0507 145.588 54.3092C145.489 54.5894 145.44 54.8849 145.442 55.1823C145.439 55.4885 145.49 55.7927 145.593 56.0807C145.685 56.341 145.827 56.5807 146.01 56.7864C146.189 56.9835 146.406 57.1409 146.649 57.2485C146.91 57.359 147.19 57.4159 147.473 57.4159C147.756 57.4159 148.036 57.359 148.298 57.2485C148.541 57.1401 148.76 56.9828 148.941 56.7864C149.127 56.5818 149.27 56.3419 149.363 56.0807C149.466 55.7927 149.517 55.4885 149.514 55.1823V55.1823Z" fill="white" fill-opacity="0.8"/>
<path d="M158.559 57.279C158.421 57.6252 158.21 57.937 157.941 58.1927C157.66 58.4543 157.33 58.6563 156.97 58.7866C156.151 59.0711 155.261 59.0711 154.441 58.7866C154.086 58.6571 153.761 58.4549 153.486 58.1927C153.223 57.9355 153.017 57.6238 152.883 57.279C152.738 56.902 152.667 56.5005 152.672 56.0963V51.6187H154.382V55.9542C154.381 56.143 154.406 56.331 154.457 56.5126C154.505 56.683 154.583 56.8431 154.689 56.9844C154.797 57.1271 154.939 57.2404 155.101 57.3145C155.498 57.4772 155.941 57.4772 156.338 57.3145C156.501 57.2396 156.644 57.1264 156.755 56.9844C156.863 56.8446 156.942 56.6841 156.987 56.5126C157.035 56.3304 157.059 56.1426 157.058 55.9542V51.6187H158.777V56.0963C158.782 56.5011 158.707 56.9029 158.559 57.279V57.279Z" fill="white" fill-opacity="0.8"/>
<path d="M164.757 58.807L162.113 55.497H162.093V58.807H160.414V51.6187H162.093V54.5428H162.123L164.668 51.6187H166.819L163.752 54.9289L167 58.8075L164.757 58.807Z" fill="white" fill-opacity="0.8"/>
</g>
<defs>
<clipPath id="clip0_1311_5039">
<rect width="147" height="46" fill="white" transform="translate(20 13)"/>
</clipPath>
</defs>
</svg>
