<svg width="225" height="92" viewBox="0 0 225 92" fill="none" xmlns="http://www.w3.org/2000/svg">
<path d="M169.375 8.46219L162.313 26.4879C162.047 27.1085 161.929 27.6109 161.929 27.995C161.929 28.7633 162.49 29.2952 163.702 29.768H154.6C156.373 28.9997 156.876 28.5269 157.496 27.0789L169.375 0.276714L181.255 27.0789C181.905 28.5269 182.407 28.9997 184.15 29.768H175.049C176.261 29.2952 176.822 28.7929 176.822 27.995C176.822 27.6109 176.704 27.138 176.438 26.4879L169.375 8.46219Z" fill="white"/>
<path d="M18.0778 3.14268C11.3699 3.14268 7.05551 7.81163 7.05551 14.9037C7.05551 22.0549 11.1926 26.7534 17.9892 26.7534C24.2834 26.7534 27.2975 22.38 27.2975 22.38L26.7656 28.3196C22.3331 29.6494 20.3236 30.0335 17.1913 30.0335C7.64652 30.0335 1.79556 23.3551 1.79556 15.1106C1.79556 6.51142 8.23753 0.305843 17.1617 0.305843C21.092 0.305843 23.5742 0.985502 24.6971 0.985502C25.4063 0.985502 25.82 0.778646 26.3224 0.0398865V6.89557C26.3519 6.92512 24.3129 3.14268 18.0778 3.14268Z" fill="white"/>
<path d="M53.3293 26.8124C48.0691 26.8124 43.9913 21.6115 43.9913 14.9035C43.9913 8.2547 48.0989 3.34933 53.6837 3.34933C59.3575 3.34933 63.0515 7.92965 63.0515 15.0217C63.0217 21.9365 58.9733 26.8124 53.3293 26.8124ZM53.5066 0.305634C44.9959 0.305634 39.1745 6.27482 39.1745 14.9331C39.1745 23.5027 45.4095 30.0333 53.5066 30.0333C61.6034 30.0333 67.7795 23.5027 67.7795 14.9331C67.7795 6.27482 61.9283 0.305634 53.5066 0.305634Z" fill="white"/>
<path d="M102.473 21.1689V5.714C102.473 2.64075 102.177 2.10884 99.9908 1.39963H108.472C106.492 2.34524 106.374 2.69985 106.374 5.77307V30.2999L84.5065 9.52601V25.5718C84.5065 28.3496 84.8612 28.8815 87.1955 29.7385H78.0941C79.8377 29.1179 80.517 28.3496 80.517 25.6014V0.276714L102.473 21.1689Z" fill="white"/>
<path d="M140.712 8.40304C140.712 14.3131 135.6 15.2587 135.6 15.2587L141.126 21.9371C143.578 25.0399 146.119 28.1722 148.572 29.7384H142.426L130.34 14.9041C133.265 14.2836 135.954 12.5401 135.954 9.2009C135.954 6.54137 133.797 4.38423 130.606 4.38423C129.039 4.38423 127.887 4.7388 127.887 4.7388V23.7102C127.887 25.69 127.917 28.9405 130.546 29.7384H129.837H121.947H121.268C124.045 28.9701 123.838 25.6604 123.838 23.7102V7.54608C123.838 5.56621 124.193 2.22703 121.711 1.48828H131.788C135.511 1.48828 140.712 2.9067 140.712 8.40304Z" fill="white"/>
<path d="M202.946 26.4288H200.848C199.104 26.4288 198.484 25.7491 198.484 23.7102V4.26603H202.562C209.624 4.26603 213.968 8.9645 213.968 15.7315C213.968 22.3804 209.418 26.4288 202.946 26.4288ZM219.051 15.6429C219.051 6.09815 211.9 1.48828 202.621 1.48828H191.953C194.376 2.34524 194.494 2.96579 194.494 5.71396V25.6309C194.494 28.3791 193.874 29.1178 191.953 29.7384H201.084C212.136 29.7384 219.051 24.6853 219.051 15.6429Z" fill="white"/>
<path d="M218.28 3.61475C218.28 2.28498 219.344 1.19162 220.733 1.19162C222.122 1.19162 223.156 2.22588 223.156 3.61475C223.156 4.94452 222.093 6.00833 220.733 6.00833C219.315 6.03788 218.28 5.00362 218.28 3.61475ZM220.733 5.74238C221.915 5.74238 222.772 4.79677 222.772 3.61475C222.772 2.46229 221.886 1.48712 220.733 1.48712C219.551 1.48712 218.694 2.40319 218.694 3.61475C218.665 4.76722 219.581 5.74238 220.733 5.74238ZM220.379 3.8216V4.11711C220.379 4.70812 220.408 4.73767 220.438 4.79677C220.467 4.82632 220.526 4.82632 220.674 4.82632C220.704 4.82632 220.733 4.82632 220.733 4.88542C220.733 4.91497 220.704 4.94452 220.674 4.94452H220.556C220.526 4.94452 220.29 4.94452 220.113 4.94452C219.935 4.94452 219.758 4.94452 219.699 4.94452H219.581C219.551 4.94452 219.522 4.91497 219.522 4.88542C219.522 4.85587 219.551 4.82632 219.581 4.82632C219.788 4.82632 219.847 4.79677 219.847 4.64902C219.847 4.53081 219.847 4.35351 219.847 3.91026V3.28969C219.847 2.87599 219.847 2.69869 219.847 2.55093C219.847 2.40318 219.758 2.37363 219.551 2.37363C219.522 2.37363 219.492 2.34409 219.492 2.31453C219.492 2.28499 219.522 2.28498 219.581 2.28498H219.699C219.728 2.28498 219.965 2.28498 220.113 2.28498C220.26 2.28498 220.349 2.28498 220.556 2.28498C221.058 2.28498 221.206 2.37364 221.324 2.43274C221.442 2.52139 221.561 2.66914 221.561 2.90554C221.561 3.14195 221.472 3.37835 221.088 3.7034C221.413 4.08756 221.679 4.41261 221.856 4.61947C221.974 4.73767 222.093 4.82632 222.151 4.82632C222.211 4.82632 222.211 4.85587 222.211 4.88542C222.211 4.91497 222.211 4.91497 222.122 4.91497H221.974C221.826 4.91497 221.649 4.91497 221.531 4.85587C221.383 4.76722 221.235 4.58992 221.058 4.35351C220.911 4.14666 220.763 3.93981 220.704 3.8216H220.379ZM220.379 3.5852C220.438 3.6443 220.556 3.6443 220.615 3.6443C220.704 3.6443 220.792 3.6443 220.881 3.5852C221.029 3.49655 221.088 3.31925 221.088 3.05329C221.088 2.66914 220.881 2.43274 220.526 2.43274C220.467 2.43274 220.408 2.43274 220.379 2.46229V3.5852Z" fill="white"/>
<path d="M54.3651 58.9334C54.3651 60.1743 54.3946 61.1495 54.4244 61.7998C54.4538 62.4795 54.5719 62.8931 54.7788 63.0705C54.8675 63.1591 54.9561 63.218 55.0743 63.2773C55.1928 63.3362 55.3403 63.366 55.5177 63.3954C55.6951 63.4248 55.9019 63.4547 56.1676 63.4841C56.4337 63.5135 56.7586 63.5135 57.1134 63.5135C57.6157 63.5135 58.0591 63.4841 58.4433 63.4248C58.8271 63.366 59.1226 63.218 59.3593 62.952C59.4774 62.8338 59.5661 62.6565 59.6842 62.4202C59.7729 62.184 59.8321 61.9771 59.8616 61.7998C59.8616 61.7111 59.891 61.6518 59.9208 61.5929C59.9503 61.5337 60.0091 61.5043 60.0684 61.5043C60.1571 61.5043 60.2163 61.6224 60.2163 61.8292C60.2163 61.8884 60.2163 62.0066 60.1865 62.1839C60.1865 62.361 60.1571 62.5681 60.1276 62.8044C60.0978 63.0407 60.0684 63.2773 60.039 63.4841C60.0091 63.7203 59.9797 63.8977 59.9208 64.0457C59.891 64.134 59.8616 64.2227 59.8321 64.3114C59.8023 64.3706 59.7435 64.4295 59.6548 64.4887C59.5661 64.5182 59.4479 64.548 59.3 64.5774C59.1524 64.5774 58.9456 64.6069 58.709 64.6069C58.0293 64.6069 57.4089 64.6069 56.8771 64.5774C56.345 64.5774 55.8721 64.548 55.429 64.548C54.9856 64.5182 54.6018 64.5182 54.2176 64.4887C53.8628 64.4887 53.4786 64.4887 53.065 64.4887C52.9763 64.4887 52.7989 64.4887 52.5921 64.4887C52.3853 64.4887 52.1785 64.4887 51.9422 64.5182C51.735 64.5182 51.4988 64.5182 51.2625 64.548C51.0259 64.548 50.8191 64.5774 50.6123 64.5774C50.3462 64.5774 50.2281 64.5182 50.2281 64.3706C50.2281 64.2819 50.3168 64.2227 50.5236 64.2227C50.6715 64.2227 50.7896 64.2227 50.9078 64.1932C51.0259 64.1932 51.1146 64.1638 51.2033 64.134C51.4101 64.1045 51.5282 63.9864 51.5875 63.7796C51.6467 63.5728 51.7056 63.3362 51.7648 63.0705C51.8237 62.6565 51.8535 62.0953 51.8535 61.3861C51.8535 60.6766 51.8535 59.8494 51.8535 58.9628V55.5644C51.8535 54.8258 51.8535 54.2348 51.8535 53.7913C51.8535 53.3188 51.8535 52.9641 51.8535 52.6686C51.8535 52.3731 51.8535 52.1368 51.8535 51.9594C51.8535 51.7821 51.8237 51.6345 51.8237 51.4571C51.7943 51.1318 51.735 50.8661 51.6169 50.7182C51.5282 50.5408 51.292 50.4227 50.967 50.3638C50.8191 50.334 50.6123 50.3045 50.3168 50.3045C50.1099 50.3045 49.9918 50.2453 49.9918 50.1272C49.9918 50.009 50.1394 49.9498 50.4055 49.9498C50.6417 49.9498 50.8783 49.9498 51.1146 49.9498C51.3512 49.9498 51.6169 49.9498 51.8535 49.9796C52.0898 49.9796 52.326 49.9796 52.5332 50.009C52.74 50.009 52.9171 50.009 53.0355 50.009C53.1537 50.009 53.3311 50.009 53.5379 50.009C53.7447 50.009 53.9809 50.009 54.247 49.9796C54.4833 49.9796 54.7493 49.9796 54.9856 49.9498C55.2222 49.9498 55.4585 49.9498 55.6358 49.9498C55.9019 49.9498 56.0495 50.009 56.0495 50.1272C56.0495 50.2453 55.9313 50.3045 55.6951 50.3045C55.6064 50.3045 55.4585 50.3045 55.3403 50.3045C55.1928 50.3045 55.0743 50.334 54.9561 50.3638C54.6901 50.4227 54.5131 50.5408 54.4244 50.6887C54.3357 50.8661 54.2764 51.1024 54.247 51.4571C54.247 51.6047 54.2176 51.7821 54.2176 51.9594C54.2176 52.1368 54.2176 52.3731 54.2176 52.6686C54.2176 52.9641 54.2176 53.3188 54.2176 53.7913C54.2176 54.2348 54.2176 54.8258 54.2176 55.5644V58.9334H54.3651Z" fill="white"/>
<path d="M66.3048 59.4948C66.2161 59.4948 66.1568 59.5537 66.1274 59.6423L65.0933 62.3906C65.0046 62.6268 64.9159 62.8635 64.8567 63.0703C64.7978 63.2771 64.7978 63.4545 64.7978 63.5726C64.7978 63.75 64.8567 63.8975 64.9748 64.0157C65.0933 64.1342 65.3001 64.193 65.5956 64.193H65.8911C66.0093 64.193 66.098 64.193 66.1274 64.2228C66.1568 64.2523 66.1866 64.2817 66.1866 64.341C66.1866 64.4591 66.0685 64.5478 65.8613 64.5478C65.5658 64.5478 65.2114 64.5478 64.8273 64.5183C64.4431 64.4885 64.1181 64.4885 63.8226 64.4885C63.7634 64.4885 63.6747 64.4885 63.5271 64.4885C63.3792 64.4885 63.2018 64.4885 62.995 64.5183C62.7882 64.5183 62.5519 64.5183 62.3153 64.5478C62.079 64.5478 61.813 64.5478 61.5767 64.5478C61.3405 64.5478 61.222 64.4885 61.222 64.341C61.222 64.2523 61.3107 64.193 61.4586 64.193C61.5473 64.193 61.6654 64.193 61.7541 64.193C61.8722 64.193 61.9609 64.1636 62.0496 64.1636C62.4927 64.1044 62.8474 63.9273 63.0542 63.602C63.2905 63.3065 63.4973 62.8929 63.6747 62.42L68.5209 50.3044C68.6394 50.0088 68.7281 49.8315 68.7869 49.7133C68.8462 49.5952 68.9349 49.536 69.053 49.536C69.2006 49.536 69.3485 49.7428 69.5259 50.1568C69.6146 50.3338 69.7327 50.6885 69.969 51.1909C70.1758 51.6932 70.4418 52.314 70.7079 53.0526C71.0034 53.7617 71.2989 54.5595 71.6238 55.3872C71.9488 56.2144 72.2741 57.0421 72.6285 57.8693C72.9534 58.6966 73.2787 59.465 73.5742 60.2039C73.8698 60.9425 74.106 61.5335 74.3128 62.0358C74.4902 62.4793 74.6676 62.8336 74.8151 63.0997C74.9631 63.3658 75.1405 63.5726 75.2586 63.7202C75.3767 63.8681 75.5246 63.9568 75.6428 64.0157C75.7609 64.0749 75.879 64.1043 75.9677 64.1342C76.1157 64.1636 76.2632 64.193 76.3814 64.193C76.5293 64.193 76.6474 64.2228 76.7655 64.2228C76.9429 64.2228 77.0022 64.2817 77.0022 64.3704C77.0022 64.4591 76.9429 64.4885 76.8248 64.5183C76.7067 64.5478 76.47 64.5478 76.1157 64.5478C75.7609 64.5478 75.2586 64.5478 74.6083 64.5478C73.9584 64.5478 73.2489 64.5478 72.4809 64.5183C72.3035 64.5183 72.1556 64.4885 72.0669 64.4885C71.9786 64.4885 71.9194 64.4297 71.9194 64.3704C71.9194 64.2817 72.008 64.2228 72.1854 64.193C72.2443 64.1636 72.3035 64.1043 72.3624 64.0455C72.4217 63.9568 72.4217 63.8681 72.3624 63.75L70.826 59.6718C70.7966 59.5831 70.7373 59.5242 70.6192 59.5242H66.3048V59.4948ZM70.235 58.5196C70.3237 58.5196 70.3531 58.4898 70.3237 58.4011L68.5801 53.6436C68.5801 53.6141 68.5507 53.5549 68.5507 53.5255C68.5507 53.496 68.5209 53.4662 68.4914 53.4662C68.462 53.4662 68.4326 53.496 68.4326 53.5255C68.4027 53.5549 68.4027 53.6141 68.3733 53.6436L66.6003 58.3716C66.5708 58.4603 66.6003 58.5196 66.689 58.5196H70.235Z" fill="white"/>
<path d="M81.1969 64.6655C80.7538 64.5769 80.3104 64.4587 79.8967 64.2814C79.7492 64.2221 79.6307 64.1334 79.6012 64.0745C79.542 63.9858 79.542 63.8379 79.542 63.6311C79.542 63.365 79.542 63.0993 79.542 62.8333C79.542 62.5672 79.5718 62.331 79.5718 62.0947C79.5718 61.8581 79.6012 61.6513 79.6012 61.4739C79.6012 61.2965 79.6307 61.1784 79.6307 61.0897C79.6307 60.9421 79.6605 60.824 79.6899 60.7353C79.7194 60.6466 79.7786 60.5874 79.8673 60.5874C79.956 60.5874 80.0149 60.6172 80.0447 60.7055C80.0741 60.7647 80.0741 60.8534 80.0741 60.9127C80.0741 61.0308 80.1036 61.2082 80.133 61.3852C80.1628 61.5626 80.1923 61.7399 80.2515 61.9173C80.4583 62.6265 80.8425 63.1288 81.3448 63.4243C81.8471 63.7198 82.4087 63.8677 82.9997 63.8677C83.4428 63.8677 83.827 63.8085 84.1225 63.6605C84.4474 63.513 84.7135 63.365 84.9203 63.1288C85.1271 62.922 85.3045 62.6857 85.3932 62.4196C85.5113 62.1536 85.5706 61.9173 85.5706 61.6513C85.5706 61.415 85.5408 61.1784 85.5113 60.9421C85.4524 60.7055 85.3637 60.4692 85.2453 60.233C85.0977 59.9964 84.9203 59.7307 84.6542 59.4646C84.418 59.1985 84.093 58.903 83.679 58.5781L82.7925 57.8984C82.2608 57.4848 81.8177 57.1006 81.4629 56.7164C81.1082 56.3322 80.8127 55.948 80.5764 55.5936C80.3402 55.2389 80.1922 54.8547 80.1036 54.4705C80.0149 54.0863 79.956 53.7319 79.956 53.3477C79.956 52.8156 80.0741 52.3431 80.2809 51.8702C80.4878 51.4267 80.7833 51.0426 81.1969 50.7176C81.5811 50.3927 82.054 50.156 82.6155 49.979C83.1767 49.8017 83.7677 49.713 84.4474 49.713C85.0682 49.713 85.6 49.7424 86.0136 49.8311C86.4273 49.9198 86.7526 49.979 87.0183 50.0379C87.1957 50.0674 87.2843 50.156 87.2843 50.2745C87.2843 50.3927 87.2843 50.6289 87.2549 50.9539C87.2255 51.2792 87.2255 51.8109 87.2255 52.5793C87.2255 52.7861 87.1957 52.9635 87.1662 53.0224C87.1368 53.1111 87.0775 53.1409 86.9888 53.1409C86.8707 53.1409 86.782 53.0224 86.782 52.7861C86.782 52.6974 86.7526 52.5201 86.6933 52.2838C86.6345 52.0476 86.4865 51.7815 86.2797 51.5154C86.191 51.4267 86.1023 51.3381 86.0136 51.2199C85.8955 51.1018 85.7774 51.0131 85.6 50.9244C85.4226 50.8357 85.2453 50.747 85.009 50.6882C84.7727 50.6289 84.5067 50.5995 84.2112 50.5995C83.502 50.5995 82.9405 50.7769 82.5268 51.161C82.1132 51.5449 81.906 52.0178 81.906 52.5793C81.906 52.7861 81.9358 53.0224 81.9947 53.2296C82.054 53.4364 82.1721 53.6432 82.32 53.85C82.4676 54.0568 82.6744 54.2931 82.9405 54.5297C83.2065 54.766 83.5315 55.0615 83.9451 55.357L84.4772 55.7706C85.0682 56.2141 85.5408 56.6277 85.9548 57.0119C86.3684 57.3961 86.6933 57.8097 86.93 58.1939C87.1662 58.5781 87.373 58.9623 87.4617 59.3759C87.5798 59.7895 87.6391 60.2032 87.6391 60.6761C87.6391 60.9716 87.6093 61.2376 87.5504 61.5331C87.4912 61.8286 87.4025 62.1241 87.2549 62.4196C87.107 62.7151 86.93 63.0106 86.6933 63.2767C86.4571 63.5424 86.1616 63.8085 85.8363 64.0153C85.3339 64.3108 84.8316 64.5176 84.3293 64.6357C83.7975 64.7542 83.2952 64.8131 82.7925 64.8131C82.1426 64.7837 81.6403 64.7542 81.1969 64.6655Z" fill="white"/>
<path d="M100.021 51.8413C99.9024 51.5753 99.8137 51.339 99.6953 51.1911C99.6069 51.0137 99.4884 50.8956 99.3703 50.7774C99.2522 50.6887 99.1341 50.6 98.9861 50.5408C98.8385 50.4819 98.6906 50.4227 98.543 50.3638C98.3951 50.334 98.2475 50.3045 98.1294 50.3045C97.9815 50.3045 97.8928 50.3045 97.8041 50.3045C97.6565 50.3045 97.5678 50.2453 97.5678 50.1272C97.5678 50.0385 97.6267 50.009 97.7154 49.9796C97.8041 49.9498 97.9222 49.9498 98.0702 49.9498C98.5725 49.9498 99.1042 49.9498 99.6069 49.9796C100.109 50.009 100.523 50.009 100.877 50.009C101.114 50.009 101.468 50.009 101.882 49.9796C102.296 49.9498 102.769 49.9498 103.241 49.9498C103.36 49.9498 103.448 49.9498 103.537 49.9796C103.625 50.009 103.685 50.0385 103.685 50.1272C103.685 50.2453 103.596 50.3045 103.389 50.3045C103.241 50.3045 103.094 50.3045 102.946 50.334C102.798 50.334 102.71 50.3932 102.621 50.4525C102.503 50.5408 102.414 50.6887 102.414 50.8661C102.414 50.9842 102.443 51.1911 102.532 51.4571C102.621 51.7228 102.71 52.0183 102.857 52.3731L106.167 61.1201H106.256C106.403 60.7653 106.581 60.3222 106.787 59.7607C106.994 59.1991 107.231 58.6081 107.497 57.9582C107.763 57.308 108.029 56.6581 108.295 55.9784C108.56 55.2987 108.826 54.6779 109.033 54.0868C109.27 53.4958 109.477 52.9641 109.654 52.521C109.831 52.0776 109.949 51.7228 110.038 51.516C110.097 51.3979 110.127 51.2503 110.156 51.1318C110.186 51.0137 110.215 50.8956 110.215 50.8069C110.215 50.7182 110.186 50.6593 110.156 50.5706C110.127 50.5114 110.068 50.4525 109.949 50.4227C109.831 50.3932 109.713 50.3638 109.565 50.334C109.417 50.334 109.299 50.3045 109.181 50.3045C109.093 50.3045 109.004 50.3045 108.945 50.2751C108.886 50.2453 108.856 50.2159 108.856 50.157C108.856 50.0385 109.033 49.9498 109.388 49.9498C109.89 49.9498 110.304 49.9498 110.659 49.9796C111.013 50.009 111.279 50.009 111.397 50.009C111.486 50.009 111.575 50.009 111.722 50.009C111.87 50.009 112.018 50.009 112.195 49.9796C112.372 49.9796 112.55 49.9796 112.727 49.9498C112.904 49.9498 113.082 49.9498 113.2 49.9498C113.466 49.9498 113.614 50.009 113.614 50.1272C113.614 50.2453 113.525 50.3045 113.318 50.3045C113.23 50.3045 113.082 50.3045 112.904 50.334C112.727 50.3638 112.55 50.4227 112.372 50.5408C112.313 50.5706 112.254 50.6295 112.166 50.7182C112.106 50.7774 112.018 50.8956 111.929 51.0137C111.841 51.1318 111.752 51.3092 111.663 51.516C111.575 51.7228 111.457 51.9889 111.309 52.2844C111.102 52.7278 110.924 53.1415 110.777 53.5256C110.599 53.9098 110.452 54.294 110.275 54.6779C110.097 55.062 109.92 55.4761 109.713 55.9486C109.506 56.392 109.27 56.9238 109.033 57.5148C108.413 58.9334 107.881 60.1449 107.467 61.1495C107.024 62.1541 106.699 62.8931 106.492 63.3954C106.374 63.6909 106.256 63.8977 106.167 64.0751C106.078 64.2525 106.019 64.4 105.96 64.5182C105.901 64.6367 105.842 64.6956 105.783 64.7548C105.724 64.8137 105.665 64.8137 105.605 64.8137C105.487 64.8137 105.369 64.725 105.28 64.5774C105.192 64.4 105.044 64.1045 104.867 63.6615L100.021 51.8413Z" fill="white"/>
<path d="M117.693 55.5353C117.693 54.7964 117.693 54.2054 117.693 53.7623C117.693 53.2894 117.693 52.9347 117.693 52.6392C117.693 52.3437 117.693 52.1074 117.693 51.93C117.693 51.7527 117.664 51.6051 117.664 51.4277C117.634 51.1028 117.575 50.8367 117.457 50.6888C117.368 50.5118 117.132 50.3933 116.807 50.3344C116.718 50.3049 116.63 50.3049 116.482 50.2751C116.334 50.2751 116.186 50.2751 116.068 50.2751C115.861 50.2751 115.743 50.2163 115.743 50.0978C115.743 49.9796 115.891 49.9208 116.157 49.9208C116.423 49.9208 116.689 49.9208 116.955 49.9208C117.221 49.9208 117.487 49.9208 117.723 49.9208C117.989 49.9208 118.225 49.9502 118.403 49.9502C118.61 49.9502 118.787 49.9502 118.935 49.9502C119.023 49.9502 119.23 49.9502 119.466 49.9502C119.732 49.9502 120.028 49.9502 120.383 49.9502C120.708 49.9502 121.062 49.9502 121.446 49.9502C121.83 49.9502 122.156 49.9502 122.481 49.9502C122.806 49.9502 123.072 49.9502 123.308 49.9502C123.545 49.9502 123.692 49.9502 123.751 49.9502C123.929 49.9208 124.106 49.8909 124.254 49.8909C124.401 49.8909 124.52 49.8615 124.579 49.8321C124.638 49.8321 124.667 49.8026 124.727 49.7728C124.785 49.7434 124.815 49.7434 124.874 49.7434C124.963 49.7434 124.992 49.8026 124.992 49.9208C124.992 49.9796 124.963 50.0978 124.933 50.2457C124.904 50.3933 124.874 50.7186 124.845 51.1617C124.845 51.2209 124.845 51.3096 124.845 51.3983C124.845 51.5164 124.815 51.6345 124.815 51.7825C124.815 51.93 124.785 52.0482 124.785 52.1663C124.785 52.2848 124.756 52.3735 124.756 52.4324C124.756 52.4916 124.727 52.521 124.697 52.5803C124.667 52.6392 124.638 52.6392 124.549 52.6392C124.431 52.6392 124.372 52.5505 124.372 52.3735C124.372 52.3142 124.372 52.1961 124.342 52.078C124.342 51.93 124.283 51.8119 124.254 51.6938C124.194 51.5164 124.076 51.3983 123.929 51.2798C123.781 51.1617 123.456 51.073 122.983 51.0141C122.894 51.0141 122.747 50.9843 122.481 50.9843C122.215 50.9843 121.949 50.9846 121.653 50.9548C121.358 50.9548 121.062 50.9548 120.796 50.9254C120.53 50.9254 120.353 50.9254 120.264 50.9254C120.176 50.9254 120.117 50.9843 120.117 51.1322V56.0078C120.117 56.1558 120.176 56.215 120.264 56.215C120.353 56.215 120.56 56.215 120.855 56.215C121.151 56.215 121.446 56.215 121.771 56.215C122.096 56.215 122.421 56.215 122.717 56.215C123.012 56.215 123.219 56.1852 123.338 56.1852C123.574 56.1558 123.751 56.1263 123.899 56.0965C124.047 56.0671 124.165 56.0078 124.254 55.8897C124.401 55.7123 124.49 55.6535 124.549 55.6535C124.638 55.6535 124.697 55.7123 124.697 55.801C124.697 55.8603 124.667 56.0078 124.638 56.1852C124.608 56.392 124.579 56.7173 124.52 57.2197C124.52 57.3084 124.52 57.4265 124.49 57.5741C124.49 57.6926 124.46 57.8401 124.46 57.9582C124.46 58.0764 124.46 58.1949 124.431 58.313C124.431 58.4017 124.431 58.4904 124.431 58.5198C124.431 58.6085 124.431 58.6674 124.401 58.7561C124.401 58.8448 124.342 58.8746 124.254 58.8746C124.136 58.8746 124.076 58.8153 124.076 58.6972C124.076 58.6085 124.047 58.4904 124.047 58.3719C124.047 58.2537 124.017 58.1356 123.988 58.0175C123.929 57.8107 123.84 57.6627 123.692 57.5152C123.545 57.3672 123.278 57.3084 122.924 57.2491C122.835 57.2491 122.658 57.2197 122.392 57.2197C122.126 57.2197 121.86 57.2197 121.565 57.1899C121.269 57.1899 121.003 57.1899 120.737 57.1899C120.471 57.1899 120.294 57.1899 120.176 57.1899C120.087 57.1899 120.057 57.2491 120.057 57.397V58.9334C120.057 59.1108 120.057 59.3176 120.057 59.6131C120.057 59.8792 120.057 60.1747 120.057 60.4702C120.057 60.7657 120.057 61.0612 120.057 61.3269C120.057 61.593 120.057 61.7704 120.057 61.9179C120.057 62.2432 120.117 62.5387 120.176 62.7456C120.235 62.9524 120.353 63.1297 120.501 63.2479C120.648 63.366 120.885 63.4547 121.18 63.4841C121.476 63.5434 121.89 63.5434 122.363 63.5434C122.628 63.5434 122.924 63.5434 123.278 63.5139C123.633 63.4841 123.929 63.4253 124.194 63.3071C124.46 63.1886 124.638 63.0116 124.785 62.8044C124.904 62.5976 125.022 62.2727 125.081 61.8885C125.111 61.6817 125.199 61.593 125.288 61.593C125.376 61.593 125.406 61.6224 125.436 61.6817C125.436 61.7409 125.465 61.8296 125.465 61.9179C125.465 62.0364 125.465 62.184 125.436 62.3908C125.406 62.5976 125.406 62.8044 125.376 63.0116C125.347 63.2184 125.318 63.4253 125.288 63.6321C125.258 63.8389 125.229 63.9865 125.199 64.0751C125.17 64.1936 125.111 64.3118 125.081 64.3706C125.051 64.4299 124.992 64.4891 124.904 64.5186C124.815 64.548 124.727 64.5775 124.608 64.5775C124.49 64.5775 124.342 64.5775 124.165 64.5775C123.426 64.5775 122.806 64.5775 122.244 64.548C121.712 64.548 121.239 64.5186 120.826 64.5186C120.412 64.4891 120.057 64.4891 119.732 64.4593C119.407 64.4593 119.112 64.4593 118.816 64.4593C118.728 64.4593 118.55 64.4593 118.344 64.4593C118.137 64.4593 117.93 64.4593 117.693 64.4891C117.487 64.4891 117.25 64.4891 117.014 64.5186C116.777 64.5186 116.571 64.548 116.364 64.548C116.098 64.548 115.98 64.4891 115.98 64.3412C115.98 64.2525 116.068 64.1936 116.275 64.1936C116.423 64.1936 116.541 64.1936 116.659 64.1638C116.777 64.1638 116.866 64.1344 116.955 64.105C117.162 64.0751 117.28 63.957 117.339 63.7502C117.398 63.5434 117.457 63.3071 117.516 63.0411C117.575 62.6274 117.605 62.0659 117.605 61.3567C117.605 60.6476 117.605 59.82 117.605 58.9334V55.5353H117.693Z" fill="white"/>
<path d="M143.49 63.2175C143.49 63.4835 143.49 63.6315 143.46 63.7202C143.43 63.7791 143.371 63.8677 143.253 63.927C142.958 64.104 142.603 64.2225 142.219 64.3406C141.835 64.4588 141.451 64.5474 141.037 64.6067C140.623 64.6656 140.209 64.7248 139.796 64.7543C139.382 64.7837 138.968 64.7837 138.614 64.7837C137.432 64.7837 136.309 64.6361 135.245 64.3406C134.181 64.0451 133.236 63.6017 132.408 62.9812C131.581 62.3608 130.931 61.5924 130.458 60.6466C129.985 59.7012 129.749 58.5487 129.749 57.2187C129.749 56.4507 129.837 55.7412 130.015 55.0913C130.192 54.4411 130.458 53.85 130.753 53.3183C131.049 52.7862 131.403 52.3431 131.817 51.9295C132.231 51.5453 132.645 51.1905 133.088 50.9244C133.561 50.6289 134.004 50.4221 134.447 50.2746C134.89 50.1266 135.334 49.9791 135.777 49.8904C136.22 49.8017 136.634 49.7424 137.047 49.713C137.461 49.6835 137.875 49.6836 138.289 49.6836C138.614 49.6836 138.968 49.6835 139.323 49.713C139.678 49.7424 140.032 49.7722 140.357 49.8017C140.682 49.8311 140.948 49.8609 141.185 49.9198C141.421 49.9492 141.598 49.9791 141.687 50.0085C141.894 50.0379 142.13 50.0972 142.426 50.1266C142.721 50.1859 142.987 50.1859 143.194 50.2153C143.312 50.2153 143.371 50.2447 143.401 50.304C143.43 50.3334 143.46 50.3927 143.46 50.4519C143.46 50.5108 143.46 50.5701 143.43 50.6882C143.43 50.8063 143.401 50.9543 143.371 51.1905C143.342 51.4271 143.342 51.7226 143.312 52.1065C143.312 52.4907 143.283 52.993 143.283 53.584C143.283 53.7319 143.253 53.85 143.224 53.9093C143.194 53.9682 143.135 53.998 143.046 53.998C142.958 53.998 142.869 53.9093 142.839 53.7614C142.81 53.5545 142.751 53.2885 142.692 52.993C142.603 52.6975 142.455 52.4318 142.189 52.1657C142.042 52.0181 141.835 51.8408 141.569 51.6634C141.303 51.486 140.978 51.3384 140.623 51.1611C140.269 51.0131 139.855 50.895 139.382 50.7769C138.909 50.6588 138.407 50.6289 137.875 50.6289C137.609 50.6289 137.314 50.6289 137.018 50.6587C136.723 50.6882 136.398 50.7176 136.072 50.8063C135.747 50.895 135.422 51.0131 135.068 51.1611C134.713 51.3086 134.388 51.5453 134.063 51.811C133.531 52.2544 133.088 52.8748 132.763 53.6138C132.438 54.3524 132.29 55.3276 132.29 56.5394C132.29 57.5735 132.438 58.5487 132.763 59.4057C133.088 60.2923 133.531 61.0603 134.122 61.7105C134.713 62.3608 135.422 62.8631 136.25 63.2473C137.077 63.6017 137.993 63.8085 139.027 63.8085C139.293 63.8085 139.559 63.8085 139.855 63.7791C140.15 63.7496 140.416 63.6904 140.653 63.6017C140.8 63.5428 140.889 63.4541 140.948 63.336C141.007 63.2175 141.037 63.0699 141.037 62.8925V61.0901C141.037 60.5878 141.037 60.1738 141.037 59.8194C141.037 59.4352 141.037 59.1102 141.007 58.8147C141.007 58.4894 140.948 58.2237 140.83 58.0758C140.712 57.8984 140.505 57.7803 140.18 57.7214C140.091 57.6916 140.003 57.6916 139.855 57.6622C139.707 57.6622 139.559 57.6622 139.441 57.6622C139.234 57.6622 139.146 57.6029 139.146 57.5142C139.146 57.3961 139.293 57.3074 139.559 57.3074C139.796 57.3074 140.062 57.3074 140.328 57.3074C140.594 57.3074 140.86 57.3074 141.096 57.3372C141.332 57.3372 141.569 57.3372 141.805 57.3667C142.012 57.3667 142.189 57.3667 142.337 57.3667C142.485 57.3667 142.662 57.3667 142.869 57.3667C143.076 57.3667 143.253 57.3667 143.46 57.3372C143.667 57.3372 143.874 57.3372 144.081 57.3074C144.287 57.3074 144.465 57.3074 144.612 57.3074C144.879 57.3074 144.997 57.3667 144.997 57.5142C144.997 57.6029 144.908 57.6622 144.76 57.6622C144.672 57.6622 144.612 57.6622 144.524 57.6622C144.435 57.6622 144.346 57.6916 144.228 57.7214C143.962 57.7803 143.785 57.8984 143.667 58.0464C143.549 58.2237 143.49 58.46 143.49 58.8147C143.49 59.1102 143.46 59.4646 143.46 59.8488C143.46 60.233 143.46 60.6466 143.46 61.149V63.2175H143.49Z" fill="white"/>
<path d="M151.557 59.4948C151.468 59.4948 151.409 59.5537 151.38 59.6423L150.345 62.3906C150.257 62.6268 150.168 62.8635 150.109 63.0703C150.05 63.2771 150.05 63.4545 150.05 63.5726C150.05 63.75 150.109 63.8975 150.227 64.0157C150.345 64.1342 150.552 64.193 150.848 64.193H151.143C151.261 64.193 151.35 64.193 151.38 64.2228C151.409 64.2523 151.439 64.2817 151.439 64.341C151.439 64.4591 151.321 64.5478 151.113 64.5478C150.818 64.5478 150.464 64.5478 150.079 64.5183C149.695 64.4885 149.37 64.4885 149.075 64.4885C149.016 64.4885 148.927 64.4885 148.779 64.4885C148.631 64.4885 148.454 64.4885 148.247 64.5183C148.04 64.5183 147.804 64.5183 147.567 64.5478C147.331 64.5478 147.065 64.5478 146.829 64.5478C146.593 64.5478 146.474 64.4885 146.474 64.341C146.474 64.2523 146.563 64.193 146.711 64.193C146.799 64.193 146.918 64.193 147.006 64.193C147.124 64.193 147.213 64.1636 147.302 64.1636C147.745 64.1044 148.1 63.9273 148.306 63.602C148.543 63.3065 148.749 62.8929 148.927 62.42L153.773 50.3044C153.892 50.0088 153.98 49.8315 154.039 49.7133C154.098 49.5952 154.187 49.536 154.305 49.536C154.453 49.536 154.601 49.7428 154.778 50.1568C154.866 50.3338 154.985 50.6885 155.221 51.1909C155.428 51.6932 155.694 52.314 155.96 53.0526C156.256 53.7617 156.551 54.5595 156.876 55.3872C157.201 56.2144 157.526 57.0421 157.881 57.8693C158.206 58.6966 158.531 59.465 158.826 60.2039C159.122 60.9425 159.358 61.5335 159.565 62.0358C159.742 62.4793 159.92 62.8336 160.067 63.0997C160.215 63.3658 160.393 63.5726 160.511 63.7202C160.658 63.8681 160.776 63.9568 160.895 64.0157C161.013 64.0749 161.131 64.1043 161.22 64.1342C161.367 64.1636 161.515 64.193 161.633 64.193C161.781 64.193 161.9 64.2228 162.018 64.2228C162.195 64.2228 162.254 64.2817 162.254 64.3704C162.254 64.4591 162.195 64.4885 162.077 64.5183C161.958 64.5478 161.722 64.5478 161.367 64.5478C161.013 64.5478 160.511 64.5478 159.86 64.5478C159.211 64.5478 158.501 64.5478 157.733 64.5183C157.556 64.5183 157.408 64.4885 157.319 64.4885C157.23 64.4885 157.171 64.4297 157.171 64.3704C157.171 64.2817 157.26 64.2228 157.438 64.193C157.496 64.1636 157.556 64.1043 157.615 64.0455C157.674 63.9568 157.674 63.8681 157.615 63.75L156.078 59.6718C156.048 59.5831 155.989 59.5242 155.871 59.5242H151.557V59.4948ZM155.487 58.5196C155.576 58.5196 155.605 58.4898 155.576 58.4011L153.832 53.6436C153.832 53.6141 153.803 53.5549 153.803 53.5255C153.803 53.496 153.773 53.4662 153.744 53.4662C153.714 53.4662 153.685 53.496 153.685 53.5255C153.655 53.5549 153.655 53.6141 153.625 53.6436L151.852 58.3716C151.823 58.4603 151.852 58.5196 151.941 58.5196H155.487Z" fill="white"/>
<path d="M166.45 64.6655C166.007 64.5769 165.564 64.4587 165.15 64.2814C165.002 64.2221 164.884 64.1334 164.854 64.0745C164.795 63.9858 164.795 63.8379 164.795 63.6311C164.795 63.365 164.795 63.0993 164.795 62.8333C164.795 62.5672 164.825 62.331 164.825 62.0947C164.825 61.8581 164.854 61.6513 164.854 61.4739C164.854 61.2965 164.884 61.1784 164.884 61.0897C164.884 60.9421 164.914 60.824 164.943 60.7353C164.973 60.6466 165.032 60.5874 165.12 60.5874C165.209 60.5874 165.268 60.6172 165.298 60.7055C165.327 60.7647 165.327 60.8534 165.327 60.9127C165.327 61.0308 165.357 61.2082 165.387 61.3852C165.416 61.5626 165.445 61.7399 165.505 61.9173C165.711 62.6265 166.096 63.1288 166.598 63.4243C167.1 63.7198 167.662 63.8677 168.253 63.8677C168.696 63.8677 169.08 63.8085 169.376 63.6605C169.701 63.513 169.967 63.365 170.173 63.1288C170.38 62.922 170.558 62.6857 170.646 62.4196C170.764 62.1536 170.824 61.9173 170.824 61.6513C170.824 61.415 170.794 61.1784 170.764 60.9421C170.706 60.7055 170.617 60.4692 170.498 60.233C170.351 59.9964 170.173 59.7307 169.907 59.4646C169.671 59.1985 169.346 58.903 168.933 58.5781L168.046 57.8984C167.514 57.4848 167.071 57.1006 166.716 56.7164C166.361 56.3322 166.066 55.948 165.83 55.5936C165.593 55.2389 165.445 54.8547 165.357 54.4705C165.268 54.0863 165.209 53.7319 165.209 53.3477C165.209 52.8156 165.327 52.3431 165.534 51.8702C165.741 51.4267 166.036 51.0426 166.45 50.7176C166.834 50.3927 167.307 50.156 167.869 49.979C168.43 49.8017 169.021 49.713 169.701 49.713C170.321 49.713 170.853 49.7424 171.267 49.8311C171.68 49.9198 172.006 49.979 172.271 50.0379C172.449 50.0674 172.537 50.156 172.537 50.2745C172.537 50.3927 172.537 50.6289 172.508 50.9539C172.479 51.2792 172.479 51.8109 172.479 52.5793C172.479 52.7861 172.449 52.9635 172.419 53.0224C172.39 53.1111 172.331 53.1409 172.242 53.1409C172.124 53.1409 172.035 53.0224 172.035 52.7861C172.035 52.6974 172.006 52.5201 171.946 52.2838C171.888 52.0476 171.74 51.7815 171.533 51.5154C171.444 51.4267 171.355 51.3381 171.267 51.2199C171.149 51.1018 171.031 51.0131 170.853 50.9244C170.676 50.8357 170.498 50.747 170.262 50.6882C170.026 50.6289 169.76 50.5995 169.464 50.5995C168.755 50.5995 168.194 50.7769 167.78 51.161C167.366 51.5449 167.16 52.0178 167.16 52.5793C167.16 52.7861 167.189 53.0224 167.248 53.2296C167.307 53.4364 167.425 53.6432 167.573 53.85C167.721 54.0568 167.928 54.2931 168.194 54.5297C168.46 54.766 168.785 55.0615 169.198 55.357L169.73 55.7706C170.321 56.2141 170.794 56.6277 171.208 57.0119C171.622 57.3961 171.946 57.8097 172.183 58.1939C172.419 58.5781 172.626 58.9623 172.715 59.3759C172.804 59.7895 172.892 60.2032 172.892 60.6761C172.892 60.9716 172.862 61.2376 172.804 61.5331C172.744 61.8286 172.656 62.1241 172.508 62.4196C172.36 62.7151 172.183 63.0106 171.946 63.2767C171.71 63.5424 171.415 63.8085 171.089 64.0153C170.587 64.3108 170.085 64.5176 169.582 64.6357C169.051 64.7542 168.548 64.8131 168.016 64.8131C167.396 64.7837 166.893 64.7542 166.45 64.6655Z" fill="white"/>
<path d="M11.104 80.0619C11.104 79.3229 11.104 78.7319 11.104 78.2888C11.104 77.816 11.104 77.4612 11.104 77.1657C11.104 76.8702 11.104 76.6339 11.104 76.4566C11.104 76.2792 11.0745 76.1316 11.0745 75.9543C11.0449 75.6293 10.9858 75.3633 10.8676 75.2157C10.779 75.0383 10.5425 74.9202 10.2175 74.8609C10.1288 74.8315 10.0402 74.8315 9.89244 74.8017C9.74469 74.8017 9.59693 74.8017 9.47873 74.8017C9.27188 74.8017 9.15368 74.7428 9.15368 74.6247C9.15368 74.5062 9.30143 74.4473 9.56738 74.4473C9.83334 74.4473 10.0993 74.4473 10.3652 74.4473C10.6312 74.4473 10.8972 74.4473 11.1336 74.4767C11.37 74.4767 11.5768 74.4767 11.7837 74.5062C11.9905 74.5062 12.1383 74.5062 12.2269 74.5062C12.4042 74.5062 12.6111 74.5062 12.8475 74.5062C13.0839 74.5062 13.3498 74.5062 13.6158 74.4767C13.8817 74.4767 14.1181 74.4767 14.3545 74.4473C14.591 74.4473 14.7978 74.4473 14.9456 74.4473C15.5661 74.4473 16.1867 74.5062 16.7777 74.5949C17.3982 74.6836 17.9597 74.9202 18.4916 75.2746C18.6098 75.3632 18.7576 75.4814 18.9053 75.6588C19.0531 75.8361 19.2008 76.0135 19.3486 76.2498C19.4963 76.486 19.585 76.7226 19.6736 77.0181C19.7623 77.3137 19.7918 77.6092 19.7918 77.9341C19.7918 78.2888 19.7623 78.6432 19.6736 78.998C19.585 79.3527 19.4668 79.6777 19.2599 80.0324C19.0531 80.3868 18.8167 80.7416 18.4916 81.096C18.1665 81.4507 17.7528 81.8349 17.28 82.2485C18.137 83.3419 18.9053 84.3171 19.585 85.1443C20.2646 85.972 20.8852 86.7105 21.4762 87.3015C21.7421 87.597 22.0081 87.8039 22.215 87.9812C22.4514 88.1586 22.6582 88.2767 22.8355 88.3654C23.0128 88.4541 23.1901 88.5134 23.3083 88.5428C23.4265 88.5722 23.5447 88.602 23.6038 88.602C23.8107 88.6315 23.988 88.6609 24.1357 88.6609C24.2835 88.6609 24.3721 88.7202 24.3721 88.8089C24.3721 88.927 24.2539 89.0157 24.0175 89.0157H22.1854C21.6535 89.0157 21.2398 88.9859 20.9443 88.927C20.6488 88.8677 20.3828 88.7791 20.1464 88.6315C19.7327 88.4247 19.319 88.0699 18.9349 87.597C18.5212 87.1245 18.0483 86.5335 17.5164 85.7946C17.3096 85.5285 17.1323 85.2628 16.9254 84.9673C16.7186 84.6718 16.5413 84.4352 16.364 84.1695C16.1867 83.9329 16.0389 83.6966 15.8912 83.5192C15.7434 83.3419 15.6548 83.1943 15.5957 83.135C15.507 83.0463 15.3888 82.9875 15.2411 82.9875L13.5567 82.9577C13.468 82.9577 13.4089 83.0169 13.4089 83.1056V83.3713C13.4089 84.2578 13.4089 85.0854 13.4089 85.7946C13.4089 86.5037 13.4385 87.0653 13.4976 87.4789C13.5271 87.7744 13.5862 88.011 13.6749 88.188C13.7635 88.3949 13.9704 88.4836 14.2659 88.5428C14.4137 88.5722 14.5614 88.602 14.7683 88.602C14.9456 88.602 15.0933 88.6315 15.2115 88.6315C15.3593 88.6315 15.4479 88.6904 15.4479 88.7791C15.4479 88.8976 15.3297 88.9862 15.0638 88.9862C14.7683 88.9862 14.5023 88.9862 14.1772 88.9862C13.8817 88.9862 13.5862 88.9859 13.3203 88.9564C13.0543 88.9564 12.8179 88.9564 12.6406 88.927C12.4338 88.927 12.3156 88.927 12.2269 88.927C12.1383 88.927 11.9905 88.927 11.8132 88.927C11.6359 88.927 11.4291 88.927 11.1927 88.9564C10.9858 88.9564 10.7494 88.9564 10.513 88.9862C10.2766 88.9862 10.0697 88.9862 9.86289 88.9862C9.59694 88.9862 9.47873 88.927 9.47873 88.7791C9.47873 88.6904 9.56738 88.6315 9.77424 88.6315C9.92199 88.6315 10.0402 88.6315 10.1584 88.602C10.2766 88.602 10.3652 88.5722 10.4539 88.5428C10.6607 88.5134 10.779 88.3949 10.8381 88.188C10.8972 87.9812 10.9563 87.745 11.0154 87.4789C11.0745 87.0653 11.104 86.5037 11.104 85.7946C11.104 85.0854 11.104 84.2578 11.104 83.3713V80.0619ZM13.3794 81.5983C13.3794 81.7757 13.4385 81.8938 13.5567 81.953C13.7635 82.0123 13.9999 82.0711 14.2659 82.101C14.5319 82.1304 14.7978 82.1598 15.0342 82.1598C15.2411 82.1598 15.3888 82.1598 15.5366 82.1304C15.6843 82.1304 15.8025 82.101 15.8912 82.0712C15.9798 82.0417 16.098 82.0123 16.1571 81.9825C16.2162 81.953 16.3049 81.8938 16.3935 81.8349C16.689 81.6281 16.955 81.2733 17.1914 80.8303C17.4278 80.3868 17.546 79.7369 17.546 78.9387C17.546 78.2594 17.4573 77.6978 17.2505 77.225C17.0436 76.7819 16.8072 76.3977 16.5117 76.1316C16.2162 75.8656 15.8912 75.6588 15.5366 75.5701C15.182 75.4519 14.8865 75.3927 14.591 75.3927C14.0886 75.3927 13.734 75.4225 13.5567 75.4814C13.4385 75.5112 13.3794 75.5999 13.3794 75.7474V81.5983Z" fill="white"/>
<path d="M27.5643 80.0623C27.5643 79.3237 27.5643 78.7327 27.5643 78.2892C27.5643 77.8163 27.5643 77.462 27.5643 77.1665C27.5643 76.871 27.5643 76.6343 27.5643 76.4573C27.5643 76.2799 27.5348 76.132 27.5348 75.9546C27.5052 75.6297 27.4461 75.3636 27.3279 75.2161C27.2393 75.0387 27.0029 74.9206 26.6778 74.8613C26.5891 74.8319 26.5005 74.8319 26.3527 74.8024C26.205 74.8024 26.0572 74.8024 25.939 74.8024C25.7322 74.8024 25.614 74.7432 25.614 74.6251C25.614 74.5069 25.7617 74.4477 26.0277 74.4477C26.2936 74.4477 26.5596 74.4477 26.8255 74.4477C27.0915 74.4477 27.3575 74.4477 27.5939 74.4477C27.8598 74.4477 28.0962 74.4771 28.2735 74.4771C28.4804 74.4771 28.6577 74.4771 28.8054 74.4771C28.8941 74.4771 29.1009 74.4771 29.3373 74.4771C29.6033 74.4771 29.8988 74.4771 30.2534 74.4771C30.5784 74.4771 30.9331 74.4771 31.3172 74.4771C31.7014 74.4771 32.0264 74.4771 32.3515 74.4771C32.6765 74.4771 32.9425 74.4771 33.1789 74.4771C33.4153 74.4771 33.563 74.4771 33.6221 74.4771C33.7994 74.4477 33.9767 74.4182 34.1245 74.4182C34.2723 74.4182 34.3905 74.3884 34.4496 74.359C34.5087 74.359 34.5382 74.3296 34.5973 74.3001C34.6564 74.2703 34.686 74.2703 34.7451 74.2703C34.8337 74.2703 34.8633 74.3296 34.8633 74.4477C34.8633 74.5069 34.8337 74.6251 34.8042 74.7726C34.7746 74.9206 34.7451 75.2455 34.7155 75.6889C34.7155 75.7478 34.7155 75.8365 34.7155 75.9252C34.7155 76.0433 34.686 76.1618 34.686 76.3094C34.686 76.4573 34.6564 76.5754 34.6564 76.6936C34.6564 76.8117 34.6269 76.9004 34.6269 76.9596C34.6269 77.0185 34.5973 77.0483 34.5678 77.1072C34.5382 77.1665 34.5087 77.1665 34.42 77.1665C34.3018 77.1665 34.2427 77.0778 34.2427 76.9004C34.2427 76.8411 34.2427 76.723 34.2131 76.6049C34.2131 76.4573 34.154 76.3388 34.1245 76.2207C34.0654 76.0433 33.9472 75.9252 33.7994 75.8071C33.6517 75.6889 33.3266 75.6002 32.8538 75.541C32.7652 75.541 32.6174 75.5116 32.3515 75.5116C32.0855 75.5116 31.8196 75.5116 31.5241 75.4821C31.2286 75.4821 30.9331 75.4821 30.6671 75.4523C30.4011 75.4523 30.2238 75.4523 30.1352 75.4523C30.0465 75.4523 29.9874 75.5116 29.9874 75.6591V80.5351C29.9874 80.6827 30.0465 80.742 30.1352 80.742C30.2238 80.742 30.4307 80.742 30.7262 80.742C31.0217 80.742 31.3172 80.742 31.6423 80.742C31.9673 80.742 32.2924 80.742 32.5879 80.742C32.8834 80.742 33.0902 80.7125 33.2084 80.7125C33.4448 80.6827 33.6221 80.6533 33.7699 80.6238C33.9176 80.5944 34.0358 80.5351 34.1245 80.417C34.2723 80.2396 34.3609 80.1804 34.42 80.1804C34.5087 80.1804 34.5678 80.2396 34.5678 80.3283C34.5678 80.3872 34.5382 80.5351 34.5087 80.7125C34.4791 80.9193 34.4496 81.2443 34.3905 81.7466C34.3905 81.8353 34.3905 81.9534 34.3609 82.1013C34.3609 82.2195 34.3313 82.3674 34.3313 82.4855C34.3313 82.6037 34.3314 82.7218 34.3018 82.8399C34.3018 82.9286 34.3018 83.0173 34.3018 83.0467C34.3018 83.1354 34.3018 83.1947 34.2722 83.2834C34.2722 83.372 34.2132 83.4015 34.1245 83.4015C34.0063 83.4015 33.9472 83.3426 33.9472 83.2241C33.9472 83.1354 33.9176 83.0173 33.9176 82.8992C33.9176 82.781 33.8881 82.6629 33.8585 82.5444C33.7994 82.3376 33.7108 82.19 33.563 82.0421C33.4153 81.8945 33.1493 81.8353 32.7947 81.7764C32.7061 81.7764 32.5288 81.7466 32.2628 81.7466C31.9969 81.7466 31.7309 81.7466 31.4354 81.7171C31.1399 81.7171 30.874 81.7171 30.608 81.7171C30.342 81.7171 30.1647 81.7171 30.0465 81.7171C29.9579 81.7171 29.9283 81.7764 29.9283 81.924V83.4607C29.9283 83.6381 29.9283 83.8449 29.9283 84.1404C29.9283 84.4061 29.9283 84.7016 29.9283 84.9971C29.9283 85.2926 29.9283 85.5881 29.9283 85.8542C29.9283 86.1203 29.9283 86.2976 29.9283 86.4452C29.9283 86.7702 29.9874 87.0657 30.0465 87.2725C30.1056 87.4797 30.2238 87.6567 30.3716 87.7752C30.5194 87.8933 30.7558 87.982 31.0513 88.0114C31.3468 88.0707 31.7605 88.0707 32.2333 88.0707C32.4992 88.0707 32.7947 88.0707 33.1493 88.0409C33.5039 88.0114 33.7994 87.9522 34.0654 87.834C34.3314 87.7159 34.5087 87.5385 34.6564 87.3317C34.7746 87.1249 34.8928 86.8 34.9519 86.4158C34.9815 86.209 35.0701 86.1203 35.1588 86.1203C35.2474 86.1203 35.277 86.1497 35.3065 86.209C35.3065 86.2678 35.3361 86.3565 35.3361 86.4452C35.3361 86.5633 35.3361 86.7113 35.3065 86.9181C35.277 87.1249 35.277 87.3317 35.2474 87.5385C35.2179 87.7454 35.1883 87.9522 35.1588 88.159C35.1292 88.3662 35.0997 88.5137 35.0701 88.6024C35.0406 88.7206 34.9815 88.8387 34.9519 88.8979C34.9224 88.9572 34.8633 89.0161 34.7746 89.0455C34.686 89.0753 34.5973 89.1047 34.4791 89.1047C34.3609 89.1047 34.2132 89.1047 34.0358 89.1047C33.2971 89.1047 32.6765 89.1047 32.1151 89.0753C31.5832 89.0753 31.1104 89.0455 30.6967 89.0455C30.2829 89.0161 29.9283 89.0161 29.6033 88.9866C29.2782 88.9866 28.9827 88.9866 28.6872 88.9866C28.5986 88.9866 28.4213 88.9866 28.2144 88.9866C28.0076 88.9866 27.8007 88.9866 27.5643 89.0161C27.3575 89.0161 27.1211 89.0161 26.8847 89.0455C26.6482 89.0455 26.4414 89.0753 26.2345 89.0753C25.9686 89.0753 25.8504 89.0161 25.8504 88.8685C25.8504 88.7798 25.939 88.7206 26.1459 88.7206C26.2936 88.7206 26.4118 88.7206 26.53 88.6911C26.6482 88.6911 26.7369 88.6617 26.8255 88.6319C27.0324 88.6024 27.1506 88.4843 27.2097 88.2775C27.2688 88.0707 27.3279 87.834 27.387 87.568C27.4461 87.1544 27.4757 86.5931 27.4757 85.8836C27.4757 85.1745 27.4757 84.3472 27.4757 83.4607V80.0623H27.5643Z" fill="white"/>
<path d="M41.9249 89.1925C41.4819 89.1038 41.0388 88.9856 40.6248 88.8083C40.4772 88.7494 40.3591 88.6607 40.3293 88.6015C40.2704 88.5128 40.2704 88.3652 40.2704 88.1584C40.2704 87.8923 40.2704 87.6263 40.2704 87.3602C40.2704 87.0945 40.2998 86.8579 40.2998 86.6216C40.2998 86.3854 40.3293 86.1782 40.3293 86.0012C40.3293 85.8238 40.3591 85.7057 40.3591 85.617C40.3591 85.469 40.3885 85.3509 40.418 85.2622C40.4478 85.1735 40.5067 85.1147 40.5953 85.1147C40.684 85.1147 40.7433 85.1441 40.7727 85.2328C40.8022 85.2917 40.8022 85.3803 40.8022 85.4396C40.8022 85.5577 40.8316 85.7351 40.8614 85.9125C40.8909 86.0899 40.9203 86.2669 40.9795 86.4442C41.1864 87.1534 41.5705 87.6557 42.0729 87.9512C42.5752 88.2467 43.1368 88.3946 43.7278 88.3946C44.1708 88.3946 44.555 88.3354 44.8505 88.1878C45.1755 88.0399 45.4415 87.8923 45.6484 87.6557C45.8552 87.4489 46.0325 87.2126 46.1212 86.9466C46.2394 86.6809 46.2986 86.4442 46.2986 86.1782C46.2986 85.9419 46.2692 85.7057 46.2394 85.469C46.1805 85.2328 46.0918 84.9962 45.9737 84.7599C45.8257 84.5236 45.6484 84.2576 45.3827 83.9915C45.146 83.7258 44.8211 83.4303 44.4075 83.105L43.5209 82.4253C42.9888 82.0117 42.5457 81.6275 42.191 81.2433C41.8366 80.8591 41.5411 80.4753 41.3045 80.1205C41.0682 79.7658 40.9203 79.3816 40.8316 78.9978C40.7433 78.6136 40.684 78.2588 40.684 77.8746C40.684 77.3429 40.8022 76.87 41.009 76.3971C41.2158 75.954 41.5113 75.5698 41.9249 75.2445C42.3091 74.9196 42.782 74.6833 43.3436 74.5059C43.8753 74.3286 44.4961 74.2399 45.1755 74.2399C45.7963 74.2399 46.328 74.2697 46.7417 74.358C47.1557 74.4467 47.4806 74.5059 47.7467 74.5652C47.9237 74.5946 48.0124 74.6833 48.0124 74.8015C48.0124 74.9196 48.0124 75.1562 47.9829 75.4812C47.9535 75.8061 47.9535 76.3382 47.9535 77.1062C47.9535 77.3131 47.9237 77.4904 47.8943 77.5497C47.8648 77.6384 47.8056 77.6678 47.7169 77.6678C47.5988 77.6678 47.5101 77.5497 47.5101 77.3131C47.5101 77.2247 47.4806 77.0474 47.4214 76.8107C47.3625 76.5745 47.2146 76.3084 47.0077 76.0427C46.9191 75.954 46.8304 75.8653 46.7417 75.7472C46.6236 75.6287 46.5054 75.54 46.328 75.4517C46.1507 75.363 45.9737 75.2743 45.737 75.2151C45.5008 75.1562 45.2347 75.1264 44.9392 75.1264C44.2301 75.1264 43.6685 75.3038 43.2549 75.688C42.8412 76.0722 42.6344 76.545 42.6344 77.1062C42.6344 77.3131 42.6639 77.5497 42.7231 77.7565C42.782 77.9633 42.9001 78.1701 43.0481 78.3769C43.1956 78.5838 43.4024 78.8204 43.6685 79.0566C43.9346 79.2933 44.2595 79.5888 44.6732 79.8843L45.2053 80.2979C45.7963 80.741 46.2692 81.1546 46.6828 81.5388C47.0964 81.923 47.4214 82.3366 47.658 82.7208C47.8943 83.105 48.1011 83.4892 48.1898 83.9028C48.3079 84.3168 48.3671 84.7305 48.3671 85.2033C48.3671 85.4988 48.3377 85.7645 48.2785 86.06C48.2192 86.3555 48.1305 86.6511 47.9829 86.9466C47.835 87.2421 47.658 87.5376 47.4214 87.8036C47.1851 88.0697 46.8896 88.3354 46.5647 88.5422C46.062 88.8377 45.5597 89.0449 45.0573 89.163C44.5256 89.2811 44.0233 89.3404 43.5209 89.3404C42.8707 89.3106 42.3684 89.2811 41.9249 89.1925Z" fill="white"/>
<path d="M56.9354 88.603C55.9605 88.1305 55.1624 87.5395 54.5125 86.8005C53.892 86.0619 53.4191 85.2637 53.1236 84.3772C52.8281 83.4907 52.6802 82.6042 52.6802 81.7769C52.6802 80.9497 52.8281 80.0926 53.1236 79.2061C53.4191 78.3196 53.8622 77.4923 54.5125 76.7534C55.1329 76.0144 55.9605 75.394 56.9652 74.9211C57.9698 74.4486 59.2111 74.212 60.6588 74.212C61.8408 74.212 62.9341 74.3893 63.9093 74.7143C64.8845 75.0396 65.6824 75.5419 66.3621 76.1624C67.0418 76.7828 67.5441 77.5512 67.9283 78.4377C68.283 79.3242 68.4604 80.3289 68.4604 81.4222C68.4604 82.5159 68.283 83.55 67.8988 84.5252C67.5146 85.4709 66.9829 86.3276 66.3032 87.0371C65.6235 87.7463 64.7664 88.3075 63.7912 88.7215C62.816 89.1351 61.6932 89.3419 60.4818 89.3419C59.0926 89.3125 57.9106 89.0758 56.9354 88.603ZM62.0774 88.278C62.3729 88.2191 62.6979 88.1305 63.0526 87.9825C63.3776 87.835 63.7025 87.6281 64.0278 87.3326C64.3528 87.0371 64.6483 86.6824 64.8845 86.2095C65.1506 85.7366 65.3574 85.1754 65.5054 84.5252C65.6529 83.8455 65.7416 83.0476 65.7416 82.1317C65.7416 81.0384 65.5937 80.0926 65.2982 79.2355C65.0027 78.3788 64.6189 77.6399 64.0867 77.0194C63.5844 76.3986 62.964 75.9556 62.2843 75.6306C61.6046 75.3053 60.8656 75.1577 60.0678 75.1577C59.5066 75.1577 58.945 75.2464 58.3835 75.4234C57.8219 75.6008 57.3196 75.9261 56.8471 76.3692C56.4036 76.8126 56.0194 77.4331 55.7534 78.2309C55.4579 79.0287 55.3103 80.0039 55.3103 81.1859C55.3103 82.1906 55.4579 83.1363 55.7239 83.9934C55.99 84.8799 56.3742 85.6185 56.8765 86.2688C57.3788 86.9186 57.9993 87.421 58.7382 87.8052C59.4768 88.1893 60.3044 88.3667 61.2204 88.3667C61.5159 88.3667 61.7819 88.3373 62.0774 88.278Z" fill="white"/>
<path d="M74.6075 80.0619C74.6075 79.3229 74.6075 78.7319 74.6075 78.2888C74.6075 77.816 74.6075 77.4612 74.6075 77.1657C74.6075 76.8702 74.6075 76.6339 74.6075 76.4566C74.6075 76.2792 74.5781 76.1316 74.5781 75.9543C74.5487 75.6293 74.4894 75.3633 74.3713 75.2157C74.2826 75.0383 74.0463 74.9202 73.721 74.8609C73.6323 74.8315 73.544 74.8315 73.3961 74.8017C73.2485 74.8017 73.1006 74.8017 72.9825 74.8017C72.7756 74.8017 72.6575 74.7428 72.6575 74.6247C72.6575 74.5062 72.8051 74.4473 73.0711 74.4473C73.3368 74.4473 73.6029 74.4473 73.869 74.4473C74.1347 74.4473 74.4007 74.4473 74.6374 74.4767C74.8736 74.4767 75.0804 74.4767 75.2872 74.5062C75.4941 74.5062 75.642 74.5062 75.7307 74.5062C75.9081 74.5062 76.1149 74.5062 76.3511 74.5062C76.5874 74.5062 76.8535 74.5062 77.1195 74.4767C77.3852 74.4767 77.6218 74.4767 77.8581 74.4473C78.0947 74.4473 78.3015 74.4473 78.4491 74.4473C79.0699 74.4473 79.6904 74.5062 80.2814 74.5949C80.9018 74.6836 81.4634 74.9202 81.9951 75.2746C82.1133 75.3632 82.2612 75.4814 82.4088 75.6588C82.5567 75.8361 82.7043 76.0135 82.8522 76.2498C82.9998 76.486 83.0885 76.7226 83.1772 77.0181C83.2659 77.3137 83.2953 77.6092 83.2953 77.9341C83.2953 78.2888 83.2659 78.6432 83.1772 78.998C83.0885 79.3527 82.9704 79.6777 82.7635 80.0324C82.5567 80.3868 82.3205 80.7416 81.9951 81.096C81.6702 81.4507 81.2566 81.8349 80.7837 82.2485C81.6408 83.3419 82.4088 84.3171 83.0885 85.1443C83.7682 85.972 84.389 86.7105 84.98 87.3015C85.2457 87.597 85.5118 87.8039 85.7186 87.9812C85.9548 88.1586 86.162 88.2767 86.339 88.3654C86.5164 88.4541 86.6938 88.5134 86.8119 88.5428C86.93 88.5722 87.0485 88.602 87.1074 88.602C87.3142 88.6315 87.4916 88.6609 87.6395 88.6609C87.7871 88.6609 87.8758 88.7202 87.8758 88.8089C87.8758 88.927 87.7577 89.0157 87.521 89.0157H85.6891C85.157 89.0157 84.7434 88.9859 84.4479 88.927C84.1524 88.8677 83.8863 88.7791 83.65 88.6315C83.2364 88.4247 82.8228 88.0699 82.4386 87.597C82.025 87.1245 81.5521 86.5335 81.0199 85.7946C80.8131 85.5285 80.6358 85.2628 80.4289 84.9673C80.2221 84.6718 80.0447 84.4352 79.8677 84.1695C79.6904 83.9329 79.5424 83.6966 79.3949 83.5192C79.2469 83.3419 79.1582 83.1943 79.0994 83.135C79.0107 83.0463 78.8925 82.9875 78.7446 82.9875L77.0603 82.9577C76.9716 82.9577 76.9127 83.0169 76.9127 83.1056V83.3713C76.9127 84.2578 76.9127 85.0854 76.9127 85.7946C76.9127 86.5037 76.9421 87.0653 77.0014 87.4789C77.0308 87.7744 77.0897 88.011 77.1784 88.188C77.2671 88.3949 77.4739 88.4836 77.7694 88.5428C77.9173 88.5722 78.0649 88.602 78.2721 88.602C78.4491 88.602 78.597 88.6315 78.7152 88.6315C78.8631 88.6315 78.9514 88.6904 78.9514 88.7791C78.9514 88.8976 78.8333 88.9862 78.5676 88.9862C78.2721 88.9862 78.006 88.9862 77.6811 88.9862C77.3856 88.9862 77.0897 88.9859 76.824 88.9564C76.5579 88.9564 76.3217 88.9564 76.1443 88.927C75.9375 88.927 75.8194 88.927 75.7307 88.927C75.642 88.927 75.4941 88.927 75.3171 88.927C75.1397 88.927 74.9329 88.927 74.6962 88.9564C74.4894 88.9564 74.2532 88.9564 74.0165 88.9862C73.7803 88.9862 73.5735 88.9862 73.3667 88.9862C73.1006 88.9862 72.9825 88.927 72.9825 88.7791C72.9825 88.6904 73.0711 88.6315 73.278 88.6315C73.4255 88.6315 73.544 88.6315 73.6622 88.602C73.7803 88.602 73.869 88.5722 73.9577 88.5428C74.1645 88.5134 74.2826 88.3949 74.3419 88.188C74.4007 87.9812 74.46 87.745 74.5189 87.4789C74.5781 87.0653 74.6075 86.5037 74.6075 85.7946C74.6075 85.0854 74.6075 84.2578 74.6075 83.3713V80.0619ZM76.8829 81.5983C76.8829 81.7757 76.9421 81.8938 77.0603 81.953C77.2671 82.0123 77.5037 82.0711 77.7694 82.101C78.0355 82.1304 78.3015 82.1598 78.5378 82.1598C78.7446 82.1598 78.8925 82.1598 79.0401 82.1304C79.188 82.1304 79.3062 82.101 79.3949 82.0712C79.4835 82.0417 79.6017 82.0123 79.6609 81.9825C79.7198 81.953 79.8085 81.8938 79.8972 81.8349C80.1927 81.6281 80.4587 81.2733 80.695 80.8303C80.9313 80.3868 81.0498 79.7369 81.0498 78.9387C81.0498 78.2594 80.9611 77.6978 80.7542 77.225C80.5474 76.7819 80.3108 76.3977 80.0153 76.1316C79.7198 75.8656 79.3949 75.6588 79.0401 75.5701C78.6857 75.4519 78.3902 75.3927 78.0947 75.3927C77.5924 75.3927 77.2376 75.4225 77.0603 75.4814C76.9421 75.5112 76.8829 75.5999 76.8829 75.7474V81.5983Z" fill="white"/>
<path d="M93.6685 75.5699L90.8022 75.6586C90.2406 75.6884 89.827 75.7179 89.5609 75.8065C89.2952 75.8654 89.0884 76.0134 88.9405 76.2202C88.8518 76.3677 88.7631 76.4862 88.7337 76.6044C88.6744 76.7225 88.645 76.8112 88.6155 76.8999C88.5857 77.0474 88.4974 77.1361 88.4087 77.1361C88.2902 77.1361 88.2313 77.0474 88.2313 76.8406C88.2313 76.7519 88.2608 76.6044 88.2902 76.3976C88.32 76.1609 88.3789 75.9247 88.4087 75.6884C88.4676 75.4518 88.4974 75.2155 88.5563 75.0087C88.6155 74.8019 88.6155 74.6834 88.645 74.654C88.7042 74.4177 88.7631 74.2992 88.8812 74.2992C88.9699 74.2992 89.0586 74.329 89.1767 74.3879C89.2952 74.4472 89.4722 74.5064 89.7089 74.5358C90.0044 74.5653 90.2999 74.5947 90.6543 74.5947C91.009 74.6245 91.334 74.6245 91.6593 74.6245H99.2831C99.5786 74.6245 99.8447 74.6245 100.081 74.5947C100.288 74.5653 100.465 74.5653 100.613 74.5358C100.761 74.5064 100.879 74.4766 100.938 74.4766C101.027 74.4472 101.086 74.4472 101.115 74.4472C101.204 74.4472 101.263 74.5947 101.263 74.8608C101.263 74.9495 101.263 75.1268 101.263 75.3042C101.263 75.511 101.263 75.7179 101.234 75.9247C101.234 76.1315 101.234 76.3677 101.204 76.5749C101.204 76.7817 101.204 76.9588 101.204 77.0772C101.174 77.2841 101.115 77.3728 101.027 77.3728C100.909 77.3728 100.82 77.2543 100.82 76.9886L100.79 76.7817C100.79 76.6633 100.731 76.5157 100.643 76.3976C100.554 76.2794 100.436 76.1609 100.258 76.0722C100.081 75.9839 99.8447 75.8952 99.5786 75.836C99.2831 75.7767 98.9287 75.7473 98.5147 75.7179L96.0918 75.6586V83.5485C96.0918 84.435 96.0918 85.2332 96.0918 85.9718C96.0918 86.7108 96.1213 87.272 96.1805 87.6856C96.21 87.9516 96.2688 88.1883 96.3575 88.3653C96.4462 88.5721 96.653 88.6608 96.9485 88.72C97.0965 88.7495 97.244 88.7793 97.4512 88.7793C97.6282 88.7793 97.8056 88.8087 97.9535 88.8087C98.1604 88.8087 98.249 88.8676 98.249 88.9563C98.249 89.0748 98.1305 89.1631 97.8943 89.1631C97.244 89.1631 96.653 89.1631 96.0918 89.1337C95.5303 89.1042 95.1166 89.1042 94.8506 89.1042C94.7324 89.1042 94.5845 89.1042 94.3777 89.1042C94.1709 89.1042 93.964 89.1042 93.7572 89.1337C93.521 89.1337 93.3138 89.1337 93.0775 89.1631C92.8413 89.1631 92.6345 89.1631 92.4273 89.1631C92.1616 89.1631 92.0435 89.1042 92.0435 88.9563C92.0435 88.8676 92.1318 88.8087 92.339 88.8087C92.4865 88.8087 92.6047 88.8087 92.7228 88.7793C92.8413 88.7793 92.93 88.7495 93.0183 88.72C93.2255 88.6906 93.3436 88.5721 93.4323 88.3653C93.521 88.1585 93.5504 87.9222 93.5799 87.6561C93.6391 87.2425 93.6685 86.6809 93.6685 85.9718C93.6685 85.2627 93.6685 84.435 93.6685 83.5485V75.5699Z" fill="white"/>
<path d="M106.936 89.1925C106.492 89.1038 106.049 88.9856 105.635 88.8083C105.488 88.7494 105.37 88.6607 105.34 88.6015C105.281 88.5128 105.281 88.3652 105.281 88.1584C105.281 87.8923 105.281 87.6263 105.281 87.3602C105.281 87.0945 105.31 86.8579 105.31 86.6216C105.31 86.3854 105.34 86.1782 105.34 86.0012C105.34 85.8238 105.37 85.7057 105.37 85.617C105.37 85.469 105.399 85.3509 105.429 85.2622C105.458 85.1735 105.517 85.1147 105.606 85.1147C105.695 85.1147 105.754 85.1441 105.783 85.2328C105.813 85.2917 105.813 85.3803 105.813 85.4396C105.813 85.5577 105.843 85.7351 105.872 85.9125C105.901 86.0899 105.931 86.2669 105.99 86.4442C106.197 87.1534 106.581 87.6557 107.083 87.9512C107.586 88.2467 108.147 88.3946 108.738 88.3946C109.181 88.3946 109.566 88.3354 109.861 88.1878C110.186 88.0399 110.452 87.8923 110.659 87.6557C110.866 87.4489 111.043 87.2126 111.132 86.9466C111.25 86.6809 111.309 86.4442 111.309 86.1782C111.309 85.9419 111.28 85.7057 111.25 85.469C111.191 85.2328 111.102 84.9962 110.984 84.7599C110.836 84.5236 110.659 84.2576 110.393 83.9915C110.157 83.7258 109.832 83.4303 109.418 83.105L108.532 82.4253C107.999 82.0117 107.556 81.6275 107.202 81.2433C106.847 80.8591 106.552 80.4753 106.315 80.1205C106.079 79.7658 105.931 79.3816 105.843 78.9978C105.754 78.6136 105.695 78.2588 105.695 77.8746C105.695 77.3429 105.813 76.87 106.02 76.3971C106.226 75.954 106.522 75.5698 106.936 75.2445C107.32 74.9196 107.793 74.6833 108.354 74.5059C108.886 74.3286 109.507 74.2399 110.186 74.2399C110.807 74.2399 111.339 74.2697 111.753 74.358C112.166 74.4467 112.491 74.5059 112.757 74.5652C112.935 74.5946 113.023 74.6833 113.023 74.8015C113.023 74.9196 113.023 75.1562 112.994 75.4812C112.964 75.8061 112.964 76.3382 112.964 77.1062C112.964 77.3131 112.935 77.4904 112.905 77.5497C112.875 77.6384 112.816 77.6678 112.728 77.6678C112.609 77.6678 112.521 77.5497 112.521 77.3131C112.521 77.2247 112.491 77.0474 112.432 76.8107C112.373 76.5745 112.225 76.3084 112.018 76.0427C111.93 75.954 111.841 75.8653 111.753 75.7472C111.634 75.6287 111.516 75.54 111.339 75.4517C111.162 75.363 110.984 75.2743 110.748 75.2151C110.511 75.1562 110.245 75.1264 109.95 75.1264C109.241 75.1264 108.679 75.3038 108.265 75.688C107.852 76.0722 107.645 76.545 107.645 77.1062C107.645 77.3131 107.674 77.5497 107.734 77.7565C107.793 77.9633 107.911 78.1701 108.059 78.3769C108.207 78.5838 108.413 78.8204 108.679 79.0566C108.945 79.2933 109.27 79.5888 109.684 79.8843L110.216 80.2979C110.807 80.741 111.28 81.1546 111.693 81.5388C112.107 81.923 112.432 82.3366 112.669 82.7208C112.905 83.105 113.112 83.4892 113.2 83.9028C113.319 84.3168 113.378 84.7305 113.378 85.2033C113.378 85.4988 113.348 85.7645 113.289 86.06C113.23 86.3555 113.141 86.6511 112.994 86.9466C112.846 87.2421 112.669 87.5376 112.432 87.8036C112.196 88.0697 111.9 88.3354 111.575 88.5422C111.073 88.8377 110.571 89.0449 110.068 89.163C109.536 89.2811 109.034 89.3404 108.532 89.3404C107.881 89.3106 107.379 89.2811 106.936 89.1925Z" fill="white"/>
<path d="M125.848 76.3687C125.73 76.0143 125.612 75.7188 125.523 75.4822C125.405 75.2459 125.287 75.098 125.139 74.9799C125.05 74.9206 124.903 74.8618 124.755 74.8323C124.607 74.8025 124.459 74.8025 124.371 74.8025C124.282 74.8025 124.194 74.8025 124.134 74.7731C124.075 74.7436 124.046 74.7138 124.046 74.6251C124.046 74.507 124.194 74.4481 124.459 74.4481C124.696 74.4481 124.962 74.4481 125.198 74.4481C125.435 74.4481 125.671 74.4481 125.878 74.4776C126.085 74.4776 126.262 74.4776 126.41 74.507C126.558 74.507 126.646 74.507 126.676 74.507C126.765 74.507 127.001 74.507 127.385 74.4776C127.769 74.4481 128.242 74.4481 128.803 74.4481C129.069 74.4481 129.217 74.507 129.217 74.6251C129.217 74.7138 129.187 74.7436 129.129 74.7731C129.069 74.8025 128.981 74.8025 128.892 74.8025C128.803 74.8025 128.744 74.8025 128.656 74.8025C128.567 74.8025 128.478 74.8323 128.419 74.8618C128.271 74.9206 128.212 75.0686 128.212 75.2754C128.212 75.3935 128.242 75.6301 128.331 75.9256C128.419 76.2211 128.508 76.6053 128.626 77.0484C128.685 77.2552 128.774 77.5802 128.892 78.0236C129.01 78.4667 129.158 78.969 129.335 79.5011C129.483 80.0329 129.66 80.6239 129.867 81.2149C130.045 81.8059 130.222 82.3675 130.399 82.8992C130.547 83.4314 130.695 83.9042 130.842 84.3179C130.96 84.7315 131.079 85.027 131.138 85.2044H131.197L134.95 75.1573C135.039 74.8912 135.127 74.7138 135.216 74.5957C135.275 74.507 135.364 74.4481 135.423 74.4481C135.511 74.4481 135.6 74.5368 135.689 74.6844C135.748 74.8323 135.866 75.0686 135.984 75.3641L140.003 85.0565H140.062C140.121 84.8496 140.21 84.5247 140.328 84.1111C140.446 83.6971 140.565 83.254 140.742 82.7222C140.889 82.2195 141.067 81.6583 141.244 81.0673C141.421 80.4763 141.599 79.9148 141.747 79.3532C141.924 78.792 142.071 78.2599 142.219 77.7281C142.367 77.2258 142.515 76.7823 142.633 76.3982C142.692 76.1913 142.751 75.9845 142.781 75.7777C142.81 75.5709 142.84 75.4233 142.84 75.2754C142.84 75.1278 142.781 74.9799 142.662 74.8618C142.544 74.7436 142.278 74.6844 141.924 74.6844C141.717 74.6844 141.599 74.6251 141.599 74.507C141.599 74.3889 141.747 74.3296 142.042 74.3296C142.544 74.3296 142.987 74.3296 143.372 74.3594C143.726 74.3889 143.963 74.3889 144.051 74.3889C144.081 74.3889 144.169 74.3889 144.258 74.3889C144.376 74.3889 144.495 74.3889 144.642 74.3594C144.79 74.3594 144.967 74.3594 145.145 74.3296C145.322 74.3296 145.47 74.3296 145.647 74.3296C145.884 74.3296 146.002 74.3889 146.002 74.4776C146.002 74.5957 145.913 74.6844 145.736 74.6844C145.647 74.6844 145.529 74.6844 145.411 74.7138C145.293 74.7138 145.174 74.7436 145.086 74.8025C144.849 74.8912 144.672 75.1278 144.524 75.4822C144.376 75.837 144.199 76.3098 143.992 76.8416C143.844 77.2552 143.667 77.7575 143.46 78.3486C143.253 78.9396 143.047 79.56 142.81 80.2695C142.574 80.9492 142.338 81.6878 142.101 82.4267C141.865 83.1653 141.628 83.9043 141.392 84.6134C141.156 85.3225 140.919 86.0022 140.712 86.6521C140.505 87.3024 140.328 87.8639 140.151 88.3364C140.062 88.6618 139.974 88.898 139.885 89.0459C139.826 89.1935 139.707 89.2528 139.589 89.2528C139.501 89.2528 139.383 89.1935 139.323 89.0459C139.235 88.898 139.146 88.6618 138.998 88.307L134.979 78.6441H134.95C134.891 78.8214 134.773 79.1169 134.595 79.5898C134.418 80.0329 134.241 80.565 133.975 81.1855C133.738 81.8059 133.472 82.4562 133.236 83.1653C132.97 83.8744 132.704 84.5541 132.438 85.2044C132.172 85.8543 131.936 86.4453 131.729 87.0069C131.522 87.5386 131.345 87.9526 131.197 88.2481C131.02 88.6319 130.872 88.9275 130.813 89.0459C130.724 89.1935 130.635 89.2528 130.517 89.2528C130.429 89.2528 130.34 89.1935 130.281 89.0754C130.222 88.9573 130.163 88.7799 130.074 88.5138L125.848 76.3687Z" fill="white"/>
<path d="M152.501 88.603C151.526 88.1305 150.728 87.5395 150.078 86.8005C149.458 86.0619 148.985 85.2637 148.689 84.3772C148.394 83.4907 148.246 82.6042 148.246 81.7769C148.246 80.9497 148.394 80.0926 148.689 79.2061C148.985 78.3196 149.428 77.4923 150.078 76.7534C150.699 76.0144 151.526 75.394 152.531 74.9211C153.535 74.4486 154.777 74.212 156.225 74.212C157.407 74.212 158.5 74.3893 159.475 74.7143C160.45 75.0396 161.248 75.5419 161.928 76.1624C162.608 76.7828 163.11 77.5512 163.494 78.4377C163.849 79.3242 164.026 80.3289 164.026 81.4222C164.026 82.5159 163.849 83.55 163.464 84.5252C163.08 85.4709 162.548 86.3276 161.869 87.0371C161.189 87.7463 160.332 88.3075 159.357 88.7215C158.382 89.1351 157.259 89.3419 156.047 89.3419C154.658 89.3125 153.476 89.0758 152.501 88.603ZM157.643 88.278C157.938 88.2191 158.263 88.1305 158.618 87.9825C158.943 87.835 159.268 87.6281 159.593 87.3326C159.918 87.0371 160.214 86.6824 160.45 86.2095C160.716 85.7366 160.923 85.1754 161.071 84.5252C161.219 83.8455 161.307 83.0476 161.307 82.1317C161.307 81.0384 161.16 80.0926 160.864 79.2355C160.569 78.3788 160.184 77.6399 159.653 77.0194C159.15 76.3986 158.529 75.9556 157.85 75.6306C157.17 75.3053 156.432 75.1577 155.634 75.1577C155.072 75.1577 154.511 75.2464 153.949 75.4234C153.388 75.6008 152.885 75.9261 152.413 76.3692C151.94 76.8126 151.585 77.4331 151.319 78.2309C151.024 79.0287 150.876 80.0039 150.876 81.1859C150.876 82.1906 151.024 83.1363 151.29 83.9934C151.556 84.8799 151.94 85.6185 152.442 86.2688C152.945 86.9186 153.565 87.421 154.304 87.8052C155.043 88.1893 155.87 88.3667 156.786 88.3667C157.082 88.3667 157.347 88.3373 157.643 88.278Z" fill="white"/>
<path d="M170.175 80.0619C170.175 79.3229 170.175 78.7319 170.175 78.2888C170.175 77.816 170.175 77.4612 170.175 77.1657C170.175 76.8702 170.175 76.6339 170.175 76.4566C170.175 76.2792 170.145 76.1316 170.145 75.9543C170.116 75.6293 170.057 75.3633 169.938 75.2157C169.849 75.0383 169.613 74.9202 169.288 74.8609C169.2 74.8315 169.111 74.8315 168.963 74.8017C168.815 74.8017 168.667 74.8017 168.549 74.8017C168.343 74.8017 168.224 74.7428 168.224 74.6247C168.224 74.5062 168.372 74.4473 168.638 74.4473C168.904 74.4473 169.17 74.4473 169.436 74.4473C169.702 74.4473 169.968 74.4473 170.204 74.4767C170.44 74.4767 170.648 74.4767 170.855 74.5062C171.061 74.5062 171.209 74.5062 171.298 74.5062C171.475 74.5062 171.682 74.5062 171.918 74.5062C172.155 74.5062 172.421 74.5062 172.686 74.4767C172.952 74.4767 173.189 74.4767 173.425 74.4473C173.662 74.4473 173.868 74.4473 174.016 74.4473C174.637 74.4473 175.257 74.5062 175.848 74.5949C176.469 74.6836 177.03 74.9202 177.562 75.2746C177.681 75.3632 177.828 75.4814 177.976 75.6588C178.124 75.8361 178.272 76.0135 178.419 76.2498C178.567 76.486 178.656 76.7226 178.744 77.0181C178.833 77.3137 178.863 77.6092 178.863 77.9341C178.863 78.2888 178.833 78.6432 178.744 78.998C178.656 79.3527 178.538 79.6777 178.331 80.0324C178.124 80.3868 177.887 80.7416 177.562 81.096C177.237 81.4507 176.823 81.8349 176.351 82.2485C177.208 83.3419 177.976 84.3171 178.656 85.1443C179.335 85.972 179.956 86.7105 180.547 87.3015C180.813 87.597 181.079 87.8039 181.286 87.9812C181.522 88.1586 181.729 88.2767 181.906 88.3654C182.084 88.4541 182.261 88.5134 182.379 88.5428C182.497 88.5722 182.615 88.602 182.675 88.602C182.881 88.6315 183.059 88.6609 183.206 88.6609C183.354 88.6609 183.443 88.7202 183.443 88.8089C183.443 88.927 183.325 89.0157 183.088 89.0157H181.256C180.724 89.0157 180.311 88.9859 180.015 88.927C179.72 88.8677 179.454 88.7791 179.217 88.6315C178.803 88.4247 178.39 88.0699 178.005 87.597C177.592 87.1245 177.119 86.5335 176.587 85.7946C176.38 85.5285 176.203 85.2628 175.996 84.9673C175.789 84.6718 175.612 84.4352 175.435 84.1695C175.257 83.9329 175.11 83.6966 174.962 83.5192C174.814 83.3419 174.725 83.1943 174.666 83.135C174.578 83.0463 174.459 82.9875 174.312 82.9875L172.628 82.9577C172.539 82.9577 172.48 83.0169 172.48 83.1056V83.3713C172.48 84.2578 172.48 85.0854 172.48 85.7946C172.48 86.5037 172.509 87.0653 172.568 87.4789C172.598 87.7744 172.657 88.011 172.746 88.188C172.834 88.3949 173.041 88.4836 173.337 88.5428C173.484 88.5722 173.632 88.602 173.839 88.602C174.016 88.602 174.164 88.6315 174.282 88.6315C174.43 88.6315 174.519 88.6904 174.519 88.7791C174.519 88.8976 174.401 88.9862 174.134 88.9862C173.839 88.9862 173.573 88.9862 173.248 88.9862C172.952 88.9862 172.657 88.9859 172.391 88.9564C172.125 88.9564 171.889 88.9564 171.711 88.927C171.504 88.927 171.386 88.927 171.298 88.927C171.209 88.927 171.061 88.927 170.884 88.927C170.707 88.927 170.5 88.927 170.263 88.9564C170.057 88.9564 169.82 88.9564 169.584 88.9862C169.347 88.9862 169.14 88.9862 168.934 88.9862C168.667 88.9862 168.549 88.927 168.549 88.7791C168.549 88.6904 168.638 88.6315 168.845 88.6315C168.993 88.6315 169.111 88.6315 169.229 88.602C169.347 88.602 169.436 88.5722 169.525 88.5428C169.731 88.5134 169.849 88.3949 169.909 88.188C169.968 87.9812 170.027 87.745 170.086 87.4789C170.145 87.0653 170.175 86.5037 170.175 85.7946C170.175 85.0854 170.175 84.2578 170.175 83.3713V80.0619ZM172.45 81.5983C172.45 81.7757 172.509 81.8938 172.628 81.953C172.834 82.0123 173.071 82.0711 173.337 82.101C173.603 82.1304 173.868 82.1598 174.105 82.1598C174.312 82.1598 174.459 82.1598 174.607 82.1304C174.755 82.1304 174.873 82.101 174.962 82.0712C175.05 82.0417 175.169 82.0123 175.228 81.9825C175.317 81.953 175.375 81.8938 175.464 81.8349C175.76 81.6281 176.026 81.2733 176.262 80.8303C176.499 80.3868 176.617 79.7369 176.617 78.9387C176.617 78.2594 176.528 77.6978 176.321 77.225C176.114 76.7819 175.878 76.3977 175.583 76.1316C175.287 75.8656 174.962 75.6588 174.607 75.5701C174.253 75.4519 173.957 75.3927 173.662 75.3927C173.159 75.3927 172.805 75.4225 172.628 75.4814C172.509 75.5112 172.45 75.5999 172.45 75.7474V81.5983Z" fill="white"/>
<path d="M189.055 83.4605C189.055 84.7017 189.085 85.6766 189.114 86.3268C189.144 87.0065 189.262 87.4201 189.469 87.5975C189.558 87.6862 189.646 87.7451 189.765 87.8043C189.883 87.8636 190.031 87.893 190.208 87.9225C190.385 87.9523 190.592 87.9817 190.858 88.0111C191.124 88.0406 191.449 88.0406 191.804 88.0406C192.306 88.0406 192.749 88.0111 193.133 87.9523C193.517 87.893 193.813 87.7451 194.05 87.4794C194.168 87.3613 194.286 87.1839 194.374 86.9473C194.463 86.711 194.522 86.5042 194.552 86.3268C194.552 86.2381 194.581 86.1792 194.611 86.12C194.641 86.0607 194.699 86.0313 194.759 86.0313C194.847 86.0313 194.906 86.1494 194.906 86.3562C194.906 86.4155 194.906 86.5336 194.877 86.711C194.877 86.8884 194.847 87.0952 194.818 87.3314C194.788 87.5681 194.759 87.8043 194.729 88.0111C194.699 88.2478 194.67 88.4248 194.611 88.5727C194.581 88.6614 194.552 88.7501 194.522 88.8388C194.493 88.8977 194.433 88.9569 194.345 89.0158C194.256 89.0456 194.138 89.075 193.99 89.1045C193.842 89.1045 193.636 89.1343 193.399 89.1343C192.72 89.1343 192.099 89.1343 191.567 89.1045C191.035 89.1045 190.562 89.075 190.119 89.075C189.676 89.0456 189.292 89.0456 188.907 89.0158C188.553 89.0158 188.169 89.0158 187.755 89.0158C187.667 89.0158 187.489 89.0158 187.282 89.0158C187.076 89.0158 186.869 89.0158 186.632 89.0456C186.425 89.0456 186.189 89.0456 185.952 89.075C185.716 89.075 185.509 89.1045 185.303 89.1045C185.036 89.1045 184.918 89.0456 184.918 88.8977C184.918 88.809 185.007 88.7501 185.214 88.7501C185.361 88.7501 185.48 88.7501 185.598 88.7203C185.716 88.7203 185.805 88.6908 185.894 88.6614C186.1 88.6316 186.218 88.5135 186.278 88.3066C186.337 88.0998 186.396 87.8636 186.455 87.5975C186.514 87.1839 186.543 86.6223 186.543 85.9132C186.543 85.204 186.543 84.3764 186.543 83.4899V80.0918C186.543 79.3528 186.543 78.7618 186.543 78.3188C186.543 77.8459 186.543 77.4911 186.543 77.1956C186.543 76.9001 186.543 76.6639 186.543 76.4865C186.543 76.3091 186.514 76.1615 186.514 75.9842C186.485 75.6592 186.425 75.3932 186.307 75.2456C186.218 75.0682 185.982 74.9501 185.657 74.8908C185.509 74.8614 185.303 74.8316 185.007 74.8316C184.8 74.8316 184.682 74.7727 184.682 74.6546C184.682 74.5361 184.83 74.4772 185.096 74.4772C185.332 74.4772 185.568 74.4772 185.805 74.4772C186.041 74.4772 186.307 74.4772 186.543 74.5066C186.78 74.5066 187.016 74.5066 187.223 74.5361C187.43 74.5361 187.607 74.5361 187.725 74.5361C187.844 74.5361 188.021 74.5361 188.228 74.5361C188.435 74.5361 188.671 74.5361 188.937 74.5066C189.174 74.5066 189.44 74.5067 189.676 74.4772C189.912 74.4772 190.149 74.4772 190.326 74.4772C190.592 74.4772 190.74 74.5361 190.74 74.6546C190.74 74.7727 190.622 74.8316 190.385 74.8316C190.296 74.8316 190.149 74.8316 190.031 74.8316C189.883 74.8316 189.765 74.8614 189.646 74.8908C189.38 74.9501 189.203 75.0682 189.114 75.2158C189.026 75.3932 188.967 75.6298 188.937 75.9842C188.937 76.1321 188.907 76.3091 188.907 76.4865C188.907 76.6639 188.907 76.9001 188.907 77.1956C188.907 77.4911 188.907 77.8459 188.907 78.3188C188.907 78.7618 188.907 79.3528 188.907 80.0918V83.4605H189.055Z" fill="white"/>
<path d="M200.227 80.0619C200.227 79.3229 200.227 78.7319 200.227 78.2888C200.227 77.816 200.227 77.4612 200.227 77.1657C200.227 76.8702 200.227 76.634 200.227 76.4566C200.227 76.2792 200.197 76.1316 200.197 75.9543C200.167 75.6293 200.108 75.3633 199.99 75.2157C199.901 75.0383 199.665 74.9202 199.34 74.8609C199.251 74.8315 199.163 74.8315 199.015 74.8017C198.867 74.8017 198.719 74.8017 198.601 74.8017C198.394 74.8017 198.276 74.7428 198.276 74.6247C198.276 74.5062 198.424 74.4473 198.69 74.4473C198.956 74.4473 199.222 74.4473 199.488 74.4473C199.754 74.4473 200.02 74.4473 200.256 74.4767C200.492 74.4767 200.729 74.4767 200.936 74.5062C201.142 74.5062 201.32 74.5062 201.467 74.5062C201.763 74.5062 202.177 74.5062 202.738 74.4767C203.3 74.4473 203.861 74.4473 204.422 74.4473C205.013 74.4473 205.664 74.4473 206.343 74.4767C207.023 74.5062 207.703 74.5949 208.383 74.713C209.062 74.8609 209.742 75.0677 210.392 75.3633C211.042 75.6588 211.633 76.0724 212.135 76.634C212.372 76.9 212.608 77.1657 212.845 77.491C213.081 77.816 213.258 78.1707 213.436 78.5844C213.613 78.998 213.76 79.4411 213.849 79.9139C213.938 80.4163 213.997 80.9484 213.997 81.5096C213.997 82.1006 213.938 82.6916 213.82 83.2237C213.702 83.7555 213.554 84.2578 213.347 84.7012C213.14 85.1443 212.933 85.5583 212.667 85.9421C212.431 86.2969 212.165 86.6218 211.899 86.8879C211.692 87.1242 211.396 87.3608 211.012 87.6268C210.658 87.8925 210.185 88.1292 209.653 88.3654C209.121 88.6017 208.501 88.7791 207.792 88.927C207.082 89.0746 206.284 89.1633 205.398 89.1633C205.043 89.1633 204.689 89.1632 204.304 89.1338C203.92 89.1044 203.536 89.0746 203.182 89.0451C202.797 89.0157 202.472 88.9859 202.147 88.9564C201.822 88.927 201.556 88.927 201.29 88.927C201.202 88.927 201.024 88.927 200.818 88.927C200.611 88.927 200.404 88.927 200.167 88.9564C199.96 88.9564 199.724 88.9564 199.488 88.9859C199.251 88.9859 199.045 89.0157 198.838 89.0157C198.572 89.0157 198.454 88.9564 198.454 88.8089C198.454 88.7202 198.542 88.6609 198.749 88.6609C198.897 88.6609 199.015 88.6609 199.133 88.6315C199.251 88.6315 199.34 88.6017 199.429 88.5722C199.636 88.5428 199.754 88.4247 199.813 88.2179C199.872 88.0107 199.931 87.7744 199.99 87.5084C200.049 87.0947 200.079 86.5332 200.079 85.824C200.079 85.1149 200.079 84.2876 200.079 83.4011V80.0619H200.227ZM202.649 82.1893C202.649 83.2237 202.649 84.0808 202.649 84.7601C202.649 85.4398 202.679 85.8833 202.679 86.0606C202.679 86.1788 202.679 86.2969 202.709 86.4448C202.709 86.5924 202.738 86.7403 202.738 86.8879C202.738 87.0358 202.768 87.154 202.797 87.2721C202.827 87.3902 202.857 87.4789 202.886 87.5084C203.004 87.6857 203.27 87.8631 203.654 88.0405C204.038 88.2179 204.63 88.2767 205.398 88.2767C206.373 88.2767 207.23 88.1586 207.91 87.9518C208.589 87.745 209.239 87.3902 209.83 86.8879C210.451 86.3561 210.865 85.6764 211.101 84.8488C211.338 84.0216 211.456 83.1056 211.456 82.1006C211.456 81.4801 211.396 80.9189 211.278 80.4163C211.16 79.9139 211.012 79.4709 210.835 79.0572C210.658 78.673 210.451 78.3183 210.244 77.9933C210.037 77.6978 209.801 77.4318 209.594 77.2544C209.151 76.8408 208.678 76.486 208.205 76.2498C207.732 76.0135 207.23 75.8067 206.757 75.6588C206.284 75.5112 205.812 75.4225 205.368 75.3927C204.925 75.3338 204.511 75.3338 204.127 75.3338C204.038 75.3338 203.92 75.3338 203.802 75.3338C203.684 75.3338 203.566 75.3633 203.418 75.3633C203.3 75.3633 203.182 75.3927 203.093 75.4225C203.004 75.4519 202.916 75.4519 202.886 75.4814C202.738 75.5406 202.649 75.6882 202.649 75.8656C202.649 76.0429 202.649 76.2498 202.649 76.5158C202.649 76.7815 202.649 77.1068 202.649 77.4612C202.649 77.816 202.649 78.1707 202.649 78.5545C202.649 78.9387 202.649 79.3229 202.649 79.7071V82.1893Z" fill="white"/>
</svg>
