<svg width="309" height="58" viewBox="0 0 309 58" fill="none" xmlns="http://www.w3.org/2000/svg">
<path d="M15.7532 9.14681C13.9386 2.7754 12.9413 1.51243 10.6192 1.51243C5.43716 1.51243 4.88704 8.41291 4.88704 12.6301C4.88704 18.7963 5.35522 24.9158 11.0624 24.9158C14.1329 24.9158 15.3587 19.0382 16.0665 16.279L17.2619 16.3035L17.3165 24.6781C17.3165 24.6781 14.3513 26.3389 11.1412 26.3389C4.63188 26.3405 0 21.629 0 12.8408C0 6.56353 3.72985 0.0612392 10.5162 0.0612392C14.5979 0.0612392 15.0489 0.90902 17.082 1.54169V9.09422L15.7532 9.1476" fill="white"/>
<path d="M113.32 9.14808C111.504 2.77667 110.509 1.5137 108.188 1.5137C103.004 1.5137 102.453 8.41418 102.453 12.6313C102.453 18.7975 102.924 24.917 108.63 24.917C111.701 24.917 112.924 19.0395 113.633 16.2803L114.83 16.3048L114.885 24.6794C114.885 24.6794 111.919 26.3402 108.707 26.3402C102.2 26.3402 97.5681 21.6272 97.5681 12.8405C97.5681 6.56124 101.298 0.0609264 108.082 0.0609264C112.165 0.0625081 112.616 0.910289 114.649 1.54296V9.09549L113.32 9.14887" fill="white"/>
<path d="M231.983 12.1364H234.15C236.933 12.1364 239.524 10.7524 239.524 6.87726C239.524 3.73051 237.534 2.12708 234.429 2.12708C233.381 2.12708 232.471 2.07805 231.983 2.11284V12.1364ZM227.653 1.91276H225.572V0.593243H235.893C240.291 0.593243 244.048 2.15713 244.048 7.17976C244.048 11.0604 239.324 13.2665 236.756 13.2665L244.454 24.4023H246.189V25.5913H240.427L231.983 13.7722V24.3363L234.407 24.3758V25.5917H225.651L225.608 24.3351H227.605L227.653 1.91276Z" fill="white"/>
<path d="M37.4869 12.1364H39.653C42.4363 12.1364 45.0273 10.7524 45.0273 6.87726C45.0273 3.73051 43.0375 2.12708 39.9323 2.12708C38.8844 2.12708 37.9742 2.07805 37.4869 2.11284V12.1364ZM33.1562 1.91276H31.0767V0.593243H41.3966C45.794 0.593243 49.5507 2.15713 49.5507 7.17976C49.5507 11.0604 44.8276 13.2665 42.2588 13.2665L49.9592 24.4023H51.6927V25.5913H45.9301L37.4869 13.7722V24.3363L39.9101 24.3758V25.5917H31.1535L31.111 24.3351H33.1097L33.1562 1.91276Z" fill="white"/>
<path d="M73.7182 24.8771C77.7293 24.8771 78.8417 20.3694 78.8417 13.2676C78.8417 7.29162 78.2006 1.36071 73.257 1.36071C68.5155 1.36071 68.1312 7.97451 68.1312 12.714C68.1312 20.0882 68.8233 24.8771 73.7182 24.8771ZM73.3117 0.0119343C79.0824 0.0119343 83.5871 5.40349 83.5871 12.9374C83.5871 21.072 79.2174 26.2769 73.447 26.2769C67.7024 26.2769 63.3132 20.7707 63.3132 13.1672C63.3132 5.80959 67.6763 0.0119343 73.3117 0.0119343Z" fill="white"/>
<path d="M201.544 24.8771C205.555 24.8771 206.668 20.3694 206.668 13.2676C206.668 7.29162 206.026 1.36071 201.083 1.36071C196.342 1.36071 195.957 7.97451 195.957 12.714C195.957 20.0882 196.649 24.8771 201.544 24.8771ZM201.137 0.0119343C206.908 0.0119343 211.413 5.40349 211.413 12.9374C211.413 21.072 207.043 26.2769 201.273 26.2769C195.529 26.2769 191.139 20.7707 191.139 13.1672C191.139 5.80959 195.502 0.0119343 201.137 0.0119343Z" fill="white"/>
<path d="M141.07 0.645689H147.949V1.91103H145.528L137.787 10.3181L147.953 24.3258H149.28V25.6438H143.572L134.005 12.1362L143.416 1.91262H141.07V0.647271V0.645689ZM128.327 24.3258H130.439L130.419 1.91262H128.327V0.647271H137.632V1.91262H134.739V24.3258H137.632V25.6438H128.327V24.3258Z" fill="white"/>
<path d="M166.712 11.6481H169.291C171.002 11.6481 172.007 8.61843 172.007 6.8513H173.412V17.9749H172.007C172.007 15.8036 170.814 13.159 169.571 13.159H166.712V29.3523H169.839V30.6176H160.301L160.372 29.4314H162.411L162.378 2.0683H160.337L160.301 0.67207H178.368L178.437 9.14909H177.213C177.213 9.14909 175.467 2.07107 173.338 2.07107H166.712V11.6481Z" fill="white"/>
<path d="M264.199 24.3344C268.449 24.3344 273.777 24.7014 273.777 13.0713C273.777 1.5954 268.418 2.0442 264.199 2.0442V24.3344ZM257.722 24.3261H259.781L259.763 1.91292H257.722V0.647573H265.748C274.171 0.647573 278.579 5.98575 278.579 13.0729C278.579 21.1481 272.735 26.1071 265.886 25.6971C264.35 25.6275 258.629 25.6971 257.722 25.6971V24.3261Z" fill="white"/>
<path d="M306.219 9.10613C305.094 6.43072 305.626 1.4595 300.598 1.4595C297.841 1.4595 295.658 2.97475 295.658 5.76958C295.657 11.744 309 8.92978 309 18.2842C309 23.1653 304.174 26.3508 299.706 26.3508C296.277 26.3508 293.053 24.1266 293.053 24.1266V15.9208H294.327C295.498 20.5907 296.188 24.8897 300.187 24.8897C302.726 24.8897 305.468 23.0095 305.468 20.1621C305.468 13.5795 292.64 15.852 292.64 7.36786C292.64 2.64655 296.305 0 301.421 0C304.303 0 307.596 1.5971 307.596 1.5971V9.10613H306.218" fill="white"/>
<path d="M15.7403 9.14458C13.9284 2.77752 12.9285 1.51376 10.6121 1.51376C5.4313 1.51376 4.88041 8.4091 4.88041 12.6251C4.88041 18.7849 5.35249 24.9009 11.0518 24.9009C14.1231 24.9009 15.347 19.0301 16.0547 16.272L17.2467 16.2958L17.3021 24.6648C17.3021 24.6648 14.3389 26.3256 11.1306 26.3256C4.6272 26.326 0 21.6157 0 12.8358C0 6.56051 3.72673 0.0637531 10.5041 0.0637531C14.5835 0.0637531 15.038 0.911139 17.0691 1.54144V9.08843L15.7403 9.14458Z" fill="white"/>
<path d="M113.239 9.14514C111.426 2.77887 110.429 1.51353 108.11 1.51353C102.932 1.51353 102.381 8.40886 102.381 12.6248C102.381 18.7847 102.85 24.9007 108.553 24.9007C111.621 24.9007 112.845 19.0299 113.55 16.2718L114.748 16.2955L114.8 24.6646C114.8 24.6646 111.84 26.3254 108.629 26.3254C102.122 26.3254 97.4983 21.6151 97.4983 12.8352C97.4983 6.55988 101.228 0.0631237 108.002 0.0631237C112.087 0.0631237 112.539 0.910509 114.567 1.54239V9.08899L113.239 9.14514Z" fill="white"/>
<path d="M227.494 1.91575H225.417V0.59544H235.731C240.125 0.59544 243.881 2.16091 243.881 7.178C243.881 11.0587 239.16 13.2615 236.593 13.2615L244.286 24.3918H246.019V25.5761H240.263L231.824 13.7637V24.3214L234.246 24.361V25.5749H225.495L225.456 24.3199H227.452L227.494 1.91575ZM231.825 12.1306H233.99C236.77 12.1306 239.36 10.7467 239.36 6.87392C239.36 3.72875 237.373 2.12888 234.27 2.12888C233.221 2.12888 232.312 2.08182 231.825 2.11425V12.1306Z" fill="white"/>
<path d="M33.1315 1.91575H31.054V0.59544H41.3688C45.7599 0.59544 49.5128 2.16091 49.5128 7.178C49.5128 11.0587 44.7955 13.2615 42.2283 13.2615L49.9205 24.3918H51.6544V25.5761H45.8938L37.4583 13.7637V24.3214L39.88 24.361V25.5749H31.1296L31.0906 24.3199H33.0835L33.1315 1.91575ZM37.4583 12.1306H39.6233C42.4062 12.1306 44.9964 10.7467 44.9964 6.87392C44.9964 3.72875 43.0066 2.12888 39.9003 2.12888C38.857 2.12888 37.9452 2.08182 37.4583 2.11425V12.1306Z" fill="white"/>
<path d="M73.2614 0.016016C79.0279 0.016016 83.5267 5.39966 83.5267 12.9273C83.5267 21.0603 79.1617 26.2636 73.3984 26.2636C67.6553 26.2636 63.27 20.759 63.27 13.1606C63.27 5.81011 67.6261 0.016016 73.2614 0.016016ZM73.6664 24.8638C77.6729 24.8638 78.7887 20.3604 78.7887 13.261C78.7887 7.29017 78.1449 1.36559 73.206 1.36559C68.468 1.36559 68.0833 7.97187 68.0833 12.7086C68.0833 20.0769 68.7739 24.8638 73.6664 24.8638Z" fill="white"/>
<path d="M201 0.016016C206.766 0.016016 211.265 5.39966 211.265 12.9273C211.265 21.0603 206.903 26.2636 201.134 26.2636C195.398 26.2636 191.008 20.759 191.008 13.1606C191.008 5.81011 195.37 0.016016 201 0.016016ZM201.407 24.8638C205.414 24.8638 206.527 20.3604 206.527 13.261C206.527 7.29017 205.886 1.36559 200.948 1.36559C196.21 1.36559 195.826 7.97187 195.826 12.7086C195.826 20.0769 196.516 24.8638 201.408 24.8638" fill="white"/>
<path d="M128.236 24.3086H130.346L130.326 1.91513H128.236V0.649783H137.534V1.91513H134.643V24.3086H137.533V25.6257H128.236V24.3086ZM140.972 0.648201H147.849V1.91355H145.424L137.689 10.3123L147.852 24.307H149.175V25.6241H143.469L133.911 12.1284L143.313 1.91355H140.972V0.648201Z" fill="white"/>
<path d="M166.594 11.6428H169.173C170.883 11.6428 171.889 8.61307 171.889 6.84713H173.29V17.9656H171.889C171.889 15.7951 170.694 13.1521 169.453 13.1521H166.594V29.3323H169.721V30.602H160.19L160.26 29.4157H162.299L162.26 2.07559H160.226L160.187 0.66987H178.241L178.311 9.14531H177.09C177.09 9.14531 175.344 2.07559 173.217 2.07559H166.594V11.6428Z" fill="white"/>
<path d="M257.542 24.3086H259.599L259.581 1.91513H257.542V0.648201H265.56C273.981 0.648201 278.387 5.97847 278.387 13.0644C278.387 21.1353 272.548 26.0907 265.703 25.683C264.167 25.6091 258.446 25.683 257.542 25.683V24.3086ZM264.015 24.3181C268.262 24.3181 273.586 24.687 273.586 13.0636C273.586 1.59642 268.234 2.04522 264.015 2.04522V24.3181Z" fill="white"/>
<path d="M306.009 9.10139C304.884 6.42597 305.415 1.45871 300.391 1.45871C297.637 1.45871 295.455 2.97396 295.455 5.76879C295.455 11.7396 308.788 8.92542 308.788 18.2751C308.788 23.1538 303.963 26.3342 299.499 26.3342C296.07 26.3342 292.85 24.1104 292.85 24.1104V15.9145H294.123C295.294 20.5773 295.982 24.8743 299.976 24.8743C302.512 24.8743 305.255 22.9988 305.255 20.1522C305.255 13.5724 292.437 15.8421 292.437 7.3651C292.439 2.64615 296.099 0 301.213 0C304.092 0 307.384 1.60343 307.384 1.60343V9.10139H306.009Z" fill="white"/>
<path d="M102.962 57.1385H105.334C106.391 57.1385 106.696 56.9435 107.657 52.9806H108.009V57.4959H100.27V57.1401H101.231V46.6148H100.27V46.2589H104.561V46.6148H102.962V57.1385Z" fill="white"/>
<path d="M111.744 57.4981V57.1423H112.674L116.392 46.1298H117.418L120.943 57.1423H121.584V57.4981H118.027V57.1423H119.212L117.898 52.9844H114.517L113.122 57.1391H114.661V57.495L111.744 57.4981ZM114.629 52.625H117.787L116.266 47.8661H116.234L114.629 52.625Z" fill="white"/>
<path d="M126.377 53.2749C127.051 56.2959 127.66 57.4007 129.214 57.4007C130.672 57.4007 131.826 56.426 131.826 55.0282C131.826 51.8123 125.864 53.063 125.864 49.2155C125.864 47.2989 127.339 45.9996 129.518 45.9996C130.557 45.9941 131.585 46.2156 132.531 46.6489V49.8976H132.18L131.604 48.0135C131.203 46.7303 130.418 46.3566 129.376 46.3566C127.965 46.3566 126.957 47.3151 126.957 48.5006C126.957 49.7189 127.806 50.0428 129.97 50.8731C132.342 51.7826 133.175 52.3998 133.175 54.1868C133.175 56.2334 131.476 57.7602 129.008 57.7602C127.955 57.7167 126.93 57.4039 126.028 56.8507V53.2773L126.377 53.2749Z" fill="white"/>
<path d="M144.699 46.2583H148.673V46.6141H147.295L150.051 55.434H150.083L152.904 46.6141H151.59V46.2583H154.058V46.6141H153.321L149.923 57.4969H148.961L145.532 46.6141H144.698L144.699 46.2583Z" fill="white"/>
<path d="M157.856 57.4975V57.1416H158.817V46.6148H157.856V46.2589H165.998V49.8627H165.647C164.782 46.8251 164.525 46.614 163.724 46.614H160.548V51.4867H161.796C162.598 51.4867 162.982 50.9834 163.303 49.2455H163.654V54.0858H163.303C162.982 52.346 162.598 51.8442 161.796 51.8442H160.548V57.1385H163.368C164.506 57.1385 164.843 56.7 165.787 53.3377H166.138V57.4959L157.856 57.4975Z" fill="white"/>
<path d="M180.087 52.5913V52.9472H179.382V56.8943C178.334 57.4691 177.16 57.7653 175.969 57.7551C173.228 57.7551 171.048 56.0983 171.048 51.8752C171.048 48.3833 173.194 45.9957 176.209 45.9957C177.207 46.0113 178.191 46.2437 179.094 46.6774V49.8938H178.742C178.021 47.5212 177.46 46.3528 176.002 46.3528C173.903 46.3528 173.037 47.8949 173.037 51.8752C173.037 56.3261 173.934 57.3981 175.873 57.3981C176.947 57.3981 177.652 56.6993 177.652 56.0331V52.9488H175.954V52.5913H180.087Z" fill="white"/>
<path d="M183.823 57.4981V57.1423H184.752L188.47 46.1298H189.497L193.023 57.1423H193.664V57.4981H190.107V57.1423H191.292L189.978 52.9844H186.597L185.201 57.1391H186.74V57.495L183.823 57.4981ZM186.708 52.625H189.865L188.343 47.8661H188.311L186.708 52.625Z" fill="white"/>
<path d="M198.456 53.2749C199.13 56.2959 199.738 57.4007 201.293 57.4007C202.751 57.4007 203.907 56.426 203.907 55.0282C203.907 51.8123 197.945 53.063 197.945 49.2155C197.945 47.2989 199.419 45.9996 201.599 45.9996C202.638 45.9942 203.665 46.2156 204.612 46.6489V49.8976H204.261L203.684 48.0135C203.283 46.7303 202.498 46.3566 201.456 46.3566C200.046 46.3566 199.037 47.3151 199.037 48.5006C199.037 49.7189 199.886 50.0428 202.05 50.8731C204.422 51.7826 205.255 52.3998 205.255 54.1868C205.255 56.2334 203.557 57.7602 201.088 57.7602C200.035 57.7167 199.01 57.4038 198.108 56.8507V53.2773L198.456 53.2749Z" fill="white"/>
</svg>
