<svg viewBox="0 0 24 24" fill="none" xmlns="http://www.w3.org/2000/svg">
<g clip-path="url(#clip0_1320_4975)">
<path d="M3 4.09091C3 3.48483 3.20271 2.98483 3.60811 2.59091C4.01351 2.19696 4.54055 2 5.18919 2C5.82626 2 6.34169 2.19393 6.73552 2.58182C7.14092 2.98182 7.34363 3.50302 7.34363 4.14545C7.34363 4.72727 7.14672 5.2121 6.7529 5.59999C6.3475 5.99999 5.81467 6.19999 5.15444 6.19999H5.13707C4.49999 6.19999 3.98456 5.99999 3.59073 5.59999C3.19691 5.19999 3 4.69696 3 4.09091ZM3.22587 20V7.85454H7.08301V20H3.22587ZM9.22008 20H13.0772V13.2182C13.0772 12.7939 13.1236 12.4666 13.2162 12.2363C13.3784 11.8242 13.6245 11.4757 13.9546 11.1909C14.2847 10.906 14.6988 10.7636 15.1969 10.7636C16.4942 10.7636 17.1429 11.6788 17.1429 13.5091V20H21V13.0363C21 11.2424 20.5946 9.8818 19.7838 8.95453C18.973 8.02726 17.9016 7.56363 16.5695 7.56363C15.0753 7.56363 13.9112 8.23635 13.0772 9.58181V9.61817H13.0598L13.0772 9.58181V7.85454H9.22008C9.24324 8.24241 9.25483 9.44846 9.25483 11.4727C9.25483 13.4969 9.24324 16.3394 9.22008 20Z" fill="white"/>
</g>
<defs>
<clipPath id="clip0_1320_4975">
<rect width="18" height="18" fill="white" transform="translate(3 2)"/>
</clipPath>
</defs>
</svg>
