<svg viewBox="0 0 24 24" fill="none" xmlns="http://www.w3.org/2000/svg">
<path d="M19.0549 8.73421C19.0664 8.89695 19.0664 9.05969 19.0664 9.22393C19.0664 14.2284 15.1452 20 7.97517 20V19.997C5.85712 20 3.78306 19.4105 2 18.2991C2.30798 18.3351 2.61751 18.3531 2.92781 18.3539C4.68308 18.3554 6.38818 17.7832 7.76909 16.7295C6.10103 16.6987 4.63831 15.6421 4.12732 14.0994C4.71164 14.2089 5.31371 14.1864 5.88722 14.0341C4.06866 13.6771 2.76031 12.1247 2.76031 10.3219C2.76031 10.3054 2.76031 10.2896 2.76031 10.2739C3.30217 10.5671 3.90888 10.7298 4.52947 10.7478C2.81666 9.63565 2.28868 7.42179 3.32302 5.6909C5.30214 8.057 8.22218 9.49541 11.3568 9.64765C11.0426 8.33223 11.4719 6.95382 12.4846 6.02913C14.0546 4.59522 16.5239 4.66872 17.9997 6.19337C18.8727 6.02613 19.7094 5.7149 20.4751 5.27393C20.1841 6.15062 19.5751 6.89533 18.7615 7.36854C19.5342 7.28005 20.2891 7.07906 21 6.77234C20.4767 7.53428 19.8175 8.19799 19.0549 8.73421Z" fill="white"/>
</svg>
