<svg width="80" height="80" viewBox="0 0 80 80" fill="none" xmlns="http://www.w3.org/2000/svg">
<path d="M58.6855 41.8826C59.6081 41.8826 60.0512 41.1946 60.0512 39.9116V20.0388C60.0512 18.5326 59.6081 17.7796 58.6855 17.7796H53.684V41.8826H58.6855Z" fill="#111111"/>
<path d="M44.5221 62.6945C45.2366 62.6945 47.4163 62.6759 47.4163 59.5893H47.4072V20.8569C47.4072 17.8725 45.7883 17.4355 44.5854 17.4355C43.3825 17.4355 41.7545 17.7424 41.6641 20.5408V59.5893C41.6641 62.6666 43.8076 62.6945 44.5221 62.6945Z" fill="#111111"/>
<path d="M25.8817 47.0287H35.4687V22.6978L25.8817 47.0287Z" fill="#111111"/>
<path fill-rule="evenodd" clip-rule="evenodd" d="M80 0H0V80H80V0ZM61.2361 16.0317C64.492 16.0317 66.1562 18.5326 66.1471 21.9912V37.4664C66.1471 41.799 64.1664 43.7049 61.6069 43.7049H53.6749V56.8931C53.6749 62.1553 55.2577 62.7596 57.9439 62.7596V63.9683H31.1274V62.7596C33.6688 62.7596 35.4596 62.5086 35.4596 57.3207V48.7859H25.1039C25.1039 48.7859 24.5939 50.0569 23.945 51.6759C23.315 53.2477 22.5541 55.1474 22.0016 56.5305C20.8801 59.3382 21.5585 62.7504 23.8286 62.7504V63.959H13.8527V62.7504C16.6203 62.7504 18.4563 59.487 19.7586 56.5211C20.7837 54.2049 29.3281 31.9653 33.0185 22.3599L33.2709 21.703C34.1663 19.3973 33.904 17.2868 31.1274 17.2868V16.0317H61.2361Z" fill="#111111"/>
</svg>
