<svg width="217" height="22" viewBox="0 0 217 22" fill="none" xmlns="http://www.w3.org/2000/svg">
<path d="M63.5916 0C63.1034 0.680577 62.5847 1.02086 62.066 1.02086C61.7913 1.02086 61.3947 0.92806 60.8759 0.711512C59.6859 0.247483 58.6484 0 57.7025 0C55.5666 0 53.5527 0.618707 51.6303 1.85612C49.7385 3.09353 48.2128 4.7331 47.0838 6.77483C45.9548 8.81656 45.4055 10.982 45.4055 13.2403C45.4055 15.7461 46.1073 17.7259 47.511 19.2108C48.9146 20.6648 50.7454 21.4072 52.9729 21.4072C56.543 21.4072 59.3503 19.7058 61.3947 16.272H60.8454C58.8925 19.0871 56.5735 20.4792 53.8578 20.4792C49.6774 20.4792 47.1448 17.7878 47.1448 13.5806C47.1448 10.7655 48.1823 7.64102 49.891 5.07339C51.6303 2.50576 54.4986 0.680577 57.6415 0.680577C59.7774 0.680577 62.7067 1.91799 62.0965 6.62015H62.4626L63.9578 0H63.5916Z" fill="white"/>
<path d="M68.7108 20.9432L68.8328 20.541C66.9715 20.541 66.2087 20.1079 66.2087 18.9943C66.2087 18.5612 66.3612 17.8187 66.6359 16.7979L68.4056 10.4561H78.9328L76.8274 17.9734C76.3392 19.7986 75.3933 20.541 73.2268 20.541L73.1047 20.9432H80.6416L80.7637 20.541C78.8413 20.541 78.1395 20.077 78.1395 18.9943C78.1395 18.5612 78.2921 17.8187 78.5667 16.7979L82.2894 3.52662C82.8691 1.54676 83.754 0.866188 85.9205 0.866188L86.0425 0.464029H78.5057L78.3836 0.866188C80.2449 0.866188 80.9773 1.33022 80.9773 2.41295C80.9773 3.00072 80.7942 3.86691 80.4585 5.04245L79.1159 9.80649H68.5887L70.3585 3.52662C70.9383 1.5777 71.8842 0.866188 73.9896 0.866188L74.1117 0.464029H66.5748L66.4528 0.866188C68.3751 0.866188 69.0464 1.33022 69.0464 2.41295C69.0464 3.00072 68.8633 3.86691 68.5277 5.04245L64.8966 17.9734C64.3778 19.8295 63.4014 20.541 61.296 20.541L61.1739 20.9432H68.7108Z" fill="white"/>
<path d="M100.252 20.9432L100.405 20.541C99.2757 20.541 98.4518 20.2936 97.9331 19.8295C97.4449 19.3346 96.9261 18.2209 96.3464 16.4885L94.424 10.7345C95.9802 10.518 97.2923 9.86836 98.3908 8.8475C99.5198 7.7957 100.069 6.52735 100.069 5.01152C100.069 2.16547 98.2077 0.464029 94.5766 0.464029H88.0772L87.9551 0.866188C89.6334 0.866188 90.4572 1.39209 90.4572 2.41295C90.4572 3.00072 90.2742 3.86691 89.9385 5.04245L86.3074 17.9734C85.8192 19.7367 84.9038 20.541 82.7068 20.541L82.5847 20.9432H90.1216L90.2436 20.541C88.2908 20.541 87.6195 20.0151 87.6195 18.9943C87.6195 18.654 87.772 17.9115 88.0467 16.7979L89.8164 10.4871C90.6098 10.7655 91.4642 10.8892 92.3491 10.8892H93.0509L96.3464 20.9432H100.252ZM92.4101 1.23741C92.7763 1.17554 93.1729 1.14461 93.6001 1.14461C96.682 1.14461 98.2382 2.44389 98.2382 5.04245C98.2382 6.43454 97.689 7.67195 96.621 8.69282C95.553 9.71368 94.0884 10.2086 92.2881 10.2086C91.5252 10.2086 90.7319 10.1158 89.969 9.8993L92.4101 1.23741Z" fill="white"/>
<path d="M113.581 0C111.841 0 110.194 0.464029 108.576 1.39209C106.99 2.32015 105.647 3.49569 104.579 4.91871C102.474 7.73382 101.101 11.2604 101.101 14.2612C101.101 16.272 101.65 17.9734 102.779 19.3655C103.908 20.7267 105.403 21.4072 107.325 21.4072C110.407 21.4072 113.337 19.9533 115.259 17.8497C116.235 16.7979 117.09 15.6223 117.791 14.354C119.226 11.7863 119.897 9.21872 119.897 7.11512C119.897 5.04246 119.317 3.34101 118.158 2.01079C117.029 0.680577 115.503 0 113.581 0ZM113.306 0.58777C116.266 0.58777 118.097 2.59856 118.097 6.46548C118.097 8.90937 117.578 11.2604 116.51 13.5187C115.472 15.777 114.16 17.5403 112.543 18.8705C110.926 20.1698 109.339 20.8195 107.722 20.8195C104.579 20.8195 102.901 18.6849 102.901 14.8799C102.901 13.1784 103.206 11.4461 103.786 9.71369C104.365 7.95037 105.128 6.43454 106.074 5.10432C107.997 2.41295 110.712 0.58777 113.306 0.58777Z" fill="white"/>
<path d="M122.779 0.464029L122.626 0.92806C124.182 0.92806 125.189 1.29928 126.013 2.6295L121.68 18.0043C121.192 19.7677 120.246 20.541 118.507 20.541L118.415 20.9432H124.518L124.64 20.541C123.084 20.541 122.321 20.0151 122.321 18.9943C122.321 18.5612 122.473 17.8187 122.748 16.7979L126.44 3.71224H126.501L133.062 21.4072H133.306L138.31 3.77411C138.646 2.6295 139.042 1.88705 139.5 1.4849C139.958 1.08274 140.69 0.897124 141.697 0.897124L141.819 0.464029H135.472L135.35 0.866188C137.089 0.866188 137.73 1.29928 137.73 2.41295C137.73 2.93885 137.547 3.80504 137.212 5.04245L133.489 18.4065H133.428L126.806 0.464029H122.779Z" fill="white"/>
<path d="M145.385 20.9432L145.507 20.541C143.584 20.541 142.883 20.077 142.883 18.9943C142.883 18.5612 143.035 17.8187 143.31 16.7979L147.032 3.52662C147.612 1.54676 148.467 0.866188 150.663 0.866188L150.786 0.464029H143.249L143.127 0.866188C145.049 0.866188 145.72 1.39209 145.72 2.41295C145.72 3.12447 145.537 3.99065 145.202 5.04245L141.57 17.9734C141.052 19.8295 140.075 20.541 137.97 20.541L137.848 20.9432H145.385Z" fill="white"/>
<path d="M167.503 0C167.014 0.680577 166.496 1.02086 165.977 1.02086C165.702 1.02086 165.306 0.92806 164.787 0.711512C163.597 0.247483 162.559 0 161.613 0C159.477 0 157.464 0.618707 155.541 1.85612C153.649 3.09353 152.124 4.7331 150.995 6.77483C149.866 8.81656 149.316 10.982 149.316 13.2403C149.316 15.7461 150.018 17.7259 151.422 19.2108C152.825 20.6648 154.656 21.4072 156.884 21.4072C160.454 21.4072 163.261 19.7058 165.306 16.272H164.756C162.803 19.0871 160.484 20.4792 157.769 20.4792C153.588 20.4792 151.056 17.7878 151.056 13.5806C151.056 10.7655 152.093 7.64102 153.802 5.07339C155.541 2.50576 158.409 0.680577 161.552 0.680577C163.688 0.680577 166.618 1.91799 166.007 6.62015H166.373L167.869 0H167.503Z" fill="white"/>
<path d="M174.269 3.52662C174.849 1.54676 175.704 0.866188 177.992 0.866188L178.114 0.464029H170.486L170.364 0.866188C172.316 0.866188 172.957 1.33022 172.957 2.41295C172.957 3.00072 172.774 3.86691 172.439 5.04245L168.807 17.9734C168.289 19.7986 167.404 20.541 165.207 20.541L165.085 20.9432H179.67L181.593 15.1892H181.226C180.22 17.3238 179.243 18.654 178.267 19.2418C177.321 19.7986 175.551 20.077 172.988 20.077C170.577 20.077 170.12 19.8605 170.12 18.9943C170.12 18.4684 170.272 17.7569 170.547 16.7979L174.269 3.52662Z" fill="white"/>
<path d="M185 17.9734C184.42 19.9223 183.444 20.541 181.399 20.541L181.277 20.9432H196.687L198.548 15.313H198.182C197.053 17.3856 195.954 18.7468 194.825 19.3346C193.727 19.9223 191.804 20.2007 189.058 20.2007C186.983 20.2007 186.251 20.077 186.251 19.118C186.251 18.7468 186.404 17.9734 186.739 16.8288L188.478 10.5799H192.415C194.459 10.5799 195.1 11.6317 194.612 14.1993H194.978L197.053 6.7439H196.687C196.168 8.07411 195.558 8.90937 194.917 9.28059C194.276 9.65181 193.178 9.83743 191.682 9.83743H188.692L191.103 1.20648H195.802C198.853 1.20648 199.86 2.38202 199.402 5.32087H199.769L201.05 0.464029H186.77L186.648 0.866188C188.356 0.866188 189.15 1.29928 189.15 2.41295C189.15 3.00072 188.967 3.86691 188.631 5.04245L185 17.9734Z" fill="white"/>
<path d="M200.246 21.4072C200.581 20.541 201.1 20.1079 201.741 20.1079C202.076 20.1079 202.778 20.3245 203.816 20.7576C204.884 21.1907 205.891 21.4072 206.836 21.4072C208.515 21.4072 209.918 20.8195 210.986 19.6749C212.085 18.4993 212.634 17.0453 212.634 15.3439C212.634 12.5288 210.101 10.4252 208.088 8.63095C206.745 7.3626 205.646 5.84677 205.646 4.36188C205.646 2.35108 207.203 0.711512 209.552 0.711512C211.291 0.711512 212.604 1.29928 213.427 2.50576C214.282 3.71224 214.526 5.13526 214.129 6.80577H214.495L216.021 0H215.655C215.228 0.866188 214.678 1.29928 214.038 1.29928C213.946 1.29928 213.366 1.08274 212.329 0.649642C211.322 0.216548 210.346 0 209.43 0C208.027 0 206.836 0.494966 205.86 1.4849C204.884 2.47483 204.395 3.61943 204.395 4.88778C204.395 7.61008 206.898 9.74462 208.85 11.6626C210.193 12.931 211.261 14.5396 211.261 16.0554C211.261 17.3856 210.834 18.4993 209.949 19.3964C209.094 20.2626 207.996 20.6957 206.684 20.6957C204.792 20.6957 203.419 20.0461 202.595 18.7468C201.771 17.4475 201.527 15.8079 201.924 13.7971H201.558L199.879 21.4072H200.246Z" fill="white"/>
<path d="M5.11174 12.92L9.19542 2.38546L13.1363 12.92H5.11174ZM8.19592 0.428223L0 20.9792H2.05612L4.51204 14.5894H13.7931L16.2776 20.9792H18.3623L10.3663 0.428223H8.19592Z" fill="white"/>
<path d="M22.157 10.5022V2.09763H28.8394C30.1911 2.09763 31.2858 2.44302 32.1235 3.13381C32.9612 3.8246 33.38 4.87997 33.38 6.29992C33.38 7.71987 32.9612 8.77524 32.1235 9.46603C31.2858 10.1568 30.1911 10.5022 28.8394 10.5022H22.157ZM20.2152 0.428223V20.9792H22.157V12.1716H29.2678C30.1816 12.1716 31.0098 12.0469 31.7523 11.7974C32.4948 11.5288 33.1325 11.145 33.6656 10.6461C34.1987 10.128 34.608 9.50441 34.8936 8.77524C35.1791 8.04608 35.3219 7.22097 35.3219 6.29992C35.3219 5.37887 35.1791 4.55376 34.8936 3.8246C34.608 3.09543 34.1987 2.4814 33.6656 1.9825C33.1325 1.46441 32.4948 1.08063 31.7523 0.831182C31.0098 0.562543 30.1816 0.428223 29.2678 0.428223H20.2152Z" fill="white"/>
</svg>
