<svg width="17" height="16" viewBox="0 0 17 16" fill="none" xmlns="http://www.w3.org/2000/svg">
<path fill-rule="evenodd" clip-rule="evenodd" d="M8.00057 0.00244002C8.17058 0.00217396 8.35346 0.00225603 8.55083 0.00234459L8.87612 0.00244002C11.482 0.00244002 11.7909 0.0117933 12.8199 0.0585596C13.7715 0.102073 14.288 0.261078 14.632 0.394668C15.0875 0.571567 15.4122 0.783032 15.7536 1.12463C16.0952 1.46623 16.3067 1.79156 16.484 2.24702C16.6176 2.59065 16.7768 3.10712 16.8201 4.05871C16.8669 5.08757 16.877 5.39664 16.877 8.00132C16.877 10.606 16.8669 10.9151 16.8201 11.9439C16.7766 12.8955 16.6176 13.412 16.484 13.7556C16.3071 14.2111 16.0952 14.5354 15.7536 14.8768C15.412 15.2184 15.0877 15.4299 14.632 15.6068C14.2884 15.741 13.7715 15.8996 12.8199 15.9431C11.7911 15.9898 11.482 16 8.87612 16C6.27001 16 5.96115 15.9898 4.93229 15.9431C3.98069 15.8991 3.46423 15.7401 3.11999 15.6066C2.66453 15.4297 2.33919 15.2182 1.9976 14.8766C1.656 14.535 1.44453 14.2105 1.26723 13.7548C1.13364 13.4112 0.974429 12.8947 0.93112 11.9431C0.884353 10.9143 0.875 10.6052 0.875 7.99888C0.875 5.39257 0.884353 5.08513 0.93112 4.05627C0.974633 3.10468 1.13364 2.58821 1.26723 2.24418C1.44413 1.78871 1.656 1.46338 1.9976 1.12178C2.33919 0.780185 2.66453 0.56872 3.11999 0.391414C3.46403 0.257215 3.98069 0.0986161 4.93229 0.0548997C5.83264 0.0142333 6.18156 0.00203334 8.00057 0V0.00244002ZM14.0858 1.623C13.4392 1.623 12.9146 2.14698 12.9146 2.79378C12.9146 3.44038 13.4392 3.96498 14.0858 3.96498C14.7324 3.96498 15.257 3.44038 15.257 2.79378C15.257 2.14719 14.7324 1.62259 14.0858 1.62259V1.623ZM3.86354 8.00354C3.86354 5.23565 6.10761 2.99151 8.87547 2.99141C11.6434 2.99141 13.887 5.23558 13.887 8.00354C13.887 10.7715 11.6436 13.0147 8.87568 13.0147C6.10772 13.0147 3.86354 10.7715 3.86354 8.00354Z" fill="black"/>
<path d="M8.87538 4.75012C10.672 4.75012 12.1287 6.20659 12.1287 8.00344C12.1287 9.80008 10.672 11.2568 8.87538 11.2568C7.07854 11.2568 5.62207 9.80008 5.62207 8.00344C5.62207 6.20659 7.07854 4.75012 8.87538 4.75012Z" fill="black"/>
</svg>
