<svg width="18" height="16" viewBox="0 0 18 16" fill="none" xmlns="http://www.w3.org/2000/svg">
<path d="M0.876953 8C0.876953 11.3887 3.01892 14.2839 6.04168 15.4497C5.97061 14.8172 5.90721 13.8461 6.0705 13.154C6.21746 12.53 7.02334 9.17811 7.02334 9.17811C7.02334 9.17811 6.78033 8.69874 6.78033 7.99055C6.78033 6.87767 7.43444 6.04751 8.25089 6.04751C8.94342 6.04751 9.27865 6.55998 9.27865 7.17457C9.27865 7.86101 8.83489 8.88689 8.60532 9.83808C8.41418 10.6351 9.01162 11.2838 9.80886 11.2838C11.2535 11.2838 12.3638 9.78419 12.3638 7.6199C12.3638 5.70429 10.9663 4.36544 8.96936 4.36544C6.65738 4.36544 5.30016 6.07304 5.30016 7.83737C5.30016 8.52476 5.56815 9.26226 5.90433 9.66316C5.97061 9.74258 5.98021 9.81161 5.961 9.89292C5.89953 10.1454 5.76217 10.689 5.73528 10.7997C5.69974 10.9462 5.61713 10.9774 5.46249 10.9075C4.44818 10.4423 3.81423 8.9805 3.81423 7.80806C3.81423 5.28448 5.67669 2.96608 9.18356 2.96608C12.0027 2.96608 14.1936 4.9441 14.1936 7.58681C14.1936 10.3439 12.4272 12.5631 9.97695 12.5631C9.15282 12.5631 8.37864 12.1414 8.11353 11.644C8.11353 11.644 7.70627 13.171 7.60734 13.5454C7.42388 14.2404 6.92825 15.1112 6.59783 15.6426C7.3576 15.8752 8.1654 16 9.00394 16C13.4925 16 17.1309 12.4184 17.1309 8C17.1309 3.58066 13.4925 0 9.00394 0C4.51541 0 0.876953 3.58066 0.876953 8Z" fill="black"/>
</svg>
