<svg width="18" height="14" viewBox="0 0 18 14" fill="none" xmlns="http://www.w3.org/2000/svg">
<path d="M8.35674 3.72422L8.39346 4.32976L7.78141 4.25561C5.55357 3.97138 3.60727 3.00746 1.95475 1.38857L1.14685 0.5853L0.938758 1.17848C0.498086 2.50078 0.779626 3.89723 1.69769 4.83643C2.18733 5.35547 2.07716 5.42962 1.23254 5.12067C0.938758 5.0218 0.681699 4.94766 0.657218 4.98473C0.571531 5.07124 0.865313 6.19581 1.09789 6.64069C1.41615 7.25859 2.06492 7.86413 2.77489 8.22251L3.37469 8.50674L2.66472 8.5191C1.97923 8.5191 1.95475 8.53146 2.0282 8.79098C2.27301 9.59424 3.24004 10.4469 4.31724 10.8177L5.07618 11.0772L4.41517 11.4727C3.4359 12.0411 2.28526 12.3624 1.13461 12.3871C0.583772 12.3995 0.130859 12.4489 0.130859 12.486C0.130859 12.6096 1.62425 13.3016 2.49335 13.5735C5.10066 14.3768 8.1976 14.0307 10.5234 12.659C12.1759 11.6827 13.8284 9.74254 14.5996 7.86413C15.0158 6.86314 15.432 5.03416 15.432 4.15675C15.432 3.58828 15.4687 3.51413 16.1542 2.83445C16.5581 2.43899 16.9376 2.00646 17.011 1.88288C17.1335 1.64808 17.1212 1.64808 16.4969 1.85817C15.4565 2.22891 15.3096 2.17948 15.8237 1.62337C16.2031 1.22791 16.6561 0.511153 16.6561 0.301067C16.6561 0.263994 16.4724 0.325783 16.2643 0.437005C16.044 0.560584 15.5544 0.745954 15.1872 0.857175L14.5261 1.06726L13.9263 0.659448C13.5958 0.437005 13.1307 0.189846 12.8859 0.115698C12.2616 -0.0573131 11.3068 -0.0325972 10.7437 0.16513C9.2136 0.721238 8.24657 2.15476 8.35674 3.72422Z" fill="black"/>
</svg>
