<svg width="21" height="18" viewBox="0 0 21 18" fill="none" xmlns="http://www.w3.org/2000/svg">
<path fill-rule="evenodd" clip-rule="evenodd" d="M8.24902 11.4191C8.24902 14.3063 11.0482 16.6466 14.5004 16.6466C15.1907 16.6466 15.8567 16.5523 16.4771 16.3788C16.5128 16.3695 16.5838 16.3483 16.5838 16.3483L18.8423 17.5L18.2384 15.6077L18.2959 15.572C19.7869 14.617 20.7491 13.1125 20.7491 11.4191C20.7491 8.53293 17.951 6.19263 14.5004 6.19263C11.0482 6.19263 8.24902 8.53293 8.24902 11.4191ZM15.7974 9.61841C15.7974 9.15025 16.19 8.76961 16.6747 8.76961C17.1599 8.76961 17.5525 9.15025 17.5525 9.61841C17.5525 10.0886 17.1599 10.4698 16.6747 10.4698C16.19 10.4698 15.7974 10.0886 15.7974 9.61841ZM12.3238 8.76961C11.8396 8.76961 11.446 9.15025 11.446 9.61841C11.446 10.0886 11.8396 10.4698 12.3238 10.4698C12.8091 10.4698 13.2021 10.0886 13.2021 9.61841C13.2021 9.15025 12.8091 8.76961 12.3238 8.76961Z" fill="black"/>
<path fill-rule="evenodd" clip-rule="evenodd" d="M14.4435 5.73421C14.5482 5.73421 14.6517 5.73525 14.7548 5.74095C14.21 2.77194 11.1436 0.5 7.44284 0.5C3.35677 0.5 0.0449219 3.27014 0.0449219 6.68711C0.0449219 8.69079 1.18322 10.4718 2.94868 11.6023L3.01652 11.6453L2.30184 13.8841L4.97618 12.5221C4.97618 12.5221 5.06007 12.5459 5.10202 12.5583C5.83689 12.7629 6.62511 12.8737 7.44284 12.8737C7.6096 12.8737 7.77532 12.867 7.94 12.8587C7.78827 12.3879 7.70489 11.8934 7.70489 11.3827C7.70489 8.2625 10.7231 5.73421 14.4435 5.73421ZM10.017 3.55089C10.5908 3.55089 11.0553 4.00041 11.0553 4.55609C11.0553 5.11126 10.5908 5.56233 10.017 5.56233C9.44263 5.56233 8.97861 5.11126 8.97861 4.55609C8.97861 4.00041 9.44263 3.55089 10.017 3.55089ZM3.82956 4.5561C3.82956 5.11127 4.29462 5.56234 4.86843 5.56234C5.44224 5.56234 5.90833 5.11127 5.90833 4.5561C5.90833 4.00041 5.44224 3.55089 4.86843 3.55089C4.29462 3.55089 3.82956 4.00041 3.82956 4.5561Z" fill="black"/>
</svg>
