<svg width="21" height="16" viewBox="0 0 21 16" fill="none" xmlns="http://www.w3.org/2000/svg">
<path fill-rule="evenodd" clip-rule="evenodd" d="M18.6605 0.947823C19.5585 1.19423 20.2657 1.92028 20.5057 2.8423C20.9418 4.51335 20.9418 8 20.9418 8C20.9418 8 20.9418 11.4865 20.5057 13.1577C20.2657 14.0797 19.5585 14.8058 18.6605 15.0523C17.0332 15.5 10.507 15.5 10.507 15.5C10.507 15.5 3.98092 15.5 2.35345 15.0523C1.45547 14.8058 0.748274 14.0797 0.508274 13.1577C0.0722656 11.4865 0.0722656 8 0.0722656 8C0.0722656 8 0.0722656 4.51335 0.508274 2.8423C0.748274 1.92028 1.45547 1.19423 2.35345 0.947823C3.98092 0.5 10.507 0.5 10.507 0.5C10.507 0.5 17.0332 0.5 18.6605 0.947823ZM8.55045 5.0652V11.5869L13.7678 8.32619L8.55045 5.0652Z" fill="black"/>
</svg>
